%TF.GenerationSoftware,KiCad,Pcbnew,7.0.1*%
%TF.CreationDate,2023-04-23T15:33:48-04:00*%
%TF.ProjectId,board_v2,626f6172-645f-4763-922e-6b696361645f,rev?*%
%TF.SameCoordinates,Original*%
%TF.FileFunction,Soldermask,Top*%
%TF.FilePolarity,Negative*%
%FSLAX46Y46*%
G04 Gerber Fmt 4.6, Leading zero omitted, Abs format (unit mm)*
G04 Created by KiCad (PCBNEW 7.0.1) date 2023-04-23 15:33:48*
%MOMM*%
%LPD*%
G01*
G04 APERTURE LIST*
G04 Aperture macros list*
%AMRoundRect*
0 Rectangle with rounded corners*
0 $1 Rounding radius*
0 $2 $3 $4 $5 $6 $7 $8 $9 X,Y pos of 4 corners*
0 Add a 4 corners polygon primitive as box body*
4,1,4,$2,$3,$4,$5,$6,$7,$8,$9,$2,$3,0*
0 Add four circle primitives for the rounded corners*
1,1,$1+$1,$2,$3*
1,1,$1+$1,$4,$5*
1,1,$1+$1,$6,$7*
1,1,$1+$1,$8,$9*
0 Add four rect primitives between the rounded corners*
20,1,$1+$1,$2,$3,$4,$5,0*
20,1,$1+$1,$4,$5,$6,$7,0*
20,1,$1+$1,$6,$7,$8,$9,0*
20,1,$1+$1,$8,$9,$2,$3,0*%
G04 Aperture macros list end*
%ADD10C,0.150000*%
%ADD11C,0.010000*%
%ADD12R,1.700000X1.700000*%
%ADD13O,1.700000X1.700000*%
%ADD14C,2.600000*%
%ADD15C,3.800000*%
%ADD16RoundRect,0.250000X-0.350000X-0.450000X0.350000X-0.450000X0.350000X0.450000X-0.350000X0.450000X0*%
%ADD17RoundRect,0.250000X0.450000X-0.350000X0.450000X0.350000X-0.450000X0.350000X-0.450000X-0.350000X0*%
%ADD18R,1.600000X1.600000*%
%ADD19C,1.600000*%
%ADD20RoundRect,0.250000X-0.475000X0.337500X-0.475000X-0.337500X0.475000X-0.337500X0.475000X0.337500X0*%
%ADD21RoundRect,0.250000X-0.337500X-0.475000X0.337500X-0.475000X0.337500X0.475000X-0.337500X0.475000X0*%
%ADD22O,1.500000X1.000000*%
%ADD23R,1.500000X1.000000*%
%ADD24RoundRect,0.250000X0.350000X0.450000X-0.350000X0.450000X-0.350000X-0.450000X0.350000X-0.450000X0*%
%ADD25RoundRect,0.250000X0.337500X0.475000X-0.337500X0.475000X-0.337500X-0.475000X0.337500X-0.475000X0*%
%ADD26R,2.475000X2.475000*%
%ADD27C,2.475000*%
%ADD28R,1.400000X2.100000*%
%ADD29O,1.905000X2.000000*%
%ADD30R,1.905000X2.000000*%
G04 APERTURE END LIST*
D10*
X139755701Y-109226756D02*
X147265301Y-109226756D01*
X147265301Y-111704387D01*
X139755701Y-111704387D01*
X139755701Y-109226756D01*
G36*
X139755701Y-109226756D02*
G01*
X147265301Y-109226756D01*
X147265301Y-111704387D01*
X139755701Y-111704387D01*
X139755701Y-109226756D01*
G37*
X108467448Y-110011084D02*
X115977048Y-110011084D01*
X115977048Y-112488715D01*
X108467448Y-112488715D01*
X108467448Y-110011084D01*
G36*
X108467448Y-110011084D02*
G01*
X115977048Y-110011084D01*
X115977048Y-112488715D01*
X108467448Y-112488715D01*
X108467448Y-110011084D01*
G37*
%TO.C,U5*%
D11*
X116713000Y-109322000D02*
X116273000Y-109322000D01*
X116273000Y-107582000D01*
X116713000Y-107582000D01*
X116713000Y-109322000D01*
G36*
X116713000Y-109322000D02*
G01*
X116273000Y-109322000D01*
X116273000Y-107582000D01*
X116713000Y-107582000D01*
X116713000Y-109322000D01*
G37*
X116063000Y-109322000D02*
X115623000Y-109322000D01*
X115623000Y-107582000D01*
X116063000Y-107582000D01*
X116063000Y-109322000D01*
G36*
X116063000Y-109322000D02*
G01*
X115623000Y-109322000D01*
X115623000Y-107582000D01*
X116063000Y-107582000D01*
X116063000Y-109322000D01*
G37*
X115413000Y-109322000D02*
X114973000Y-109322000D01*
X114973000Y-107582000D01*
X115413000Y-107582000D01*
X115413000Y-109322000D01*
G36*
X115413000Y-109322000D02*
G01*
X114973000Y-109322000D01*
X114973000Y-107582000D01*
X115413000Y-107582000D01*
X115413000Y-109322000D01*
G37*
X114763000Y-109322000D02*
X114323000Y-109322000D01*
X114323000Y-107582000D01*
X114763000Y-107582000D01*
X114763000Y-109322000D01*
G36*
X114763000Y-109322000D02*
G01*
X114323000Y-109322000D01*
X114323000Y-107582000D01*
X114763000Y-107582000D01*
X114763000Y-109322000D01*
G37*
X114113000Y-109322000D02*
X113673000Y-109322000D01*
X113673000Y-107582000D01*
X114113000Y-107582000D01*
X114113000Y-109322000D01*
G36*
X114113000Y-109322000D02*
G01*
X113673000Y-109322000D01*
X113673000Y-107582000D01*
X114113000Y-107582000D01*
X114113000Y-109322000D01*
G37*
X113463000Y-109322000D02*
X113023000Y-109322000D01*
X113023000Y-107582000D01*
X113463000Y-107582000D01*
X113463000Y-109322000D01*
G36*
X113463000Y-109322000D02*
G01*
X113023000Y-109322000D01*
X113023000Y-107582000D01*
X113463000Y-107582000D01*
X113463000Y-109322000D01*
G37*
X112813000Y-109322000D02*
X112373000Y-109322000D01*
X112373000Y-107582000D01*
X112813000Y-107582000D01*
X112813000Y-109322000D01*
G36*
X112813000Y-109322000D02*
G01*
X112373000Y-109322000D01*
X112373000Y-107582000D01*
X112813000Y-107582000D01*
X112813000Y-109322000D01*
G37*
X112163000Y-109322000D02*
X111723000Y-109322000D01*
X111723000Y-107582000D01*
X112163000Y-107582000D01*
X112163000Y-109322000D01*
G36*
X112163000Y-109322000D02*
G01*
X111723000Y-109322000D01*
X111723000Y-107582000D01*
X112163000Y-107582000D01*
X112163000Y-109322000D01*
G37*
X111513000Y-109322000D02*
X111073000Y-109322000D01*
X111073000Y-107582000D01*
X111513000Y-107582000D01*
X111513000Y-109322000D01*
G36*
X111513000Y-109322000D02*
G01*
X111073000Y-109322000D01*
X111073000Y-107582000D01*
X111513000Y-107582000D01*
X111513000Y-109322000D01*
G37*
X110863000Y-109322000D02*
X110423000Y-109322000D01*
X110423000Y-107582000D01*
X110863000Y-107582000D01*
X110863000Y-109322000D01*
G36*
X110863000Y-109322000D02*
G01*
X110423000Y-109322000D01*
X110423000Y-107582000D01*
X110863000Y-107582000D01*
X110863000Y-109322000D01*
G37*
X110213000Y-109322000D02*
X109773000Y-109322000D01*
X109773000Y-107582000D01*
X110213000Y-107582000D01*
X110213000Y-109322000D01*
G36*
X110213000Y-109322000D02*
G01*
X109773000Y-109322000D01*
X109773000Y-107582000D01*
X110213000Y-107582000D01*
X110213000Y-109322000D01*
G37*
X109563000Y-109322000D02*
X109123000Y-109322000D01*
X109123000Y-107582000D01*
X109563000Y-107582000D01*
X109563000Y-109322000D01*
G36*
X109563000Y-109322000D02*
G01*
X109123000Y-109322000D01*
X109123000Y-107582000D01*
X109563000Y-107582000D01*
X109563000Y-109322000D01*
G37*
X108913000Y-109322000D02*
X108473000Y-109322000D01*
X108473000Y-107582000D01*
X108913000Y-107582000D01*
X108913000Y-109322000D01*
G36*
X108913000Y-109322000D02*
G01*
X108473000Y-109322000D01*
X108473000Y-107582000D01*
X108913000Y-107582000D01*
X108913000Y-109322000D01*
G37*
X108263000Y-109322000D02*
X107823000Y-109322000D01*
X107823000Y-107582000D01*
X108263000Y-107582000D01*
X108263000Y-109322000D01*
G36*
X108263000Y-109322000D02*
G01*
X107823000Y-109322000D01*
X107823000Y-107582000D01*
X108263000Y-107582000D01*
X108263000Y-109322000D01*
G37*
X116713000Y-114922000D02*
X116273000Y-114922000D01*
X116273000Y-113182000D01*
X116713000Y-113182000D01*
X116713000Y-114922000D01*
G36*
X116713000Y-114922000D02*
G01*
X116273000Y-114922000D01*
X116273000Y-113182000D01*
X116713000Y-113182000D01*
X116713000Y-114922000D01*
G37*
X116063000Y-114922000D02*
X115623000Y-114922000D01*
X115623000Y-113182000D01*
X116063000Y-113182000D01*
X116063000Y-114922000D01*
G36*
X116063000Y-114922000D02*
G01*
X115623000Y-114922000D01*
X115623000Y-113182000D01*
X116063000Y-113182000D01*
X116063000Y-114922000D01*
G37*
X115413000Y-114922000D02*
X114973000Y-114922000D01*
X114973000Y-113182000D01*
X115413000Y-113182000D01*
X115413000Y-114922000D01*
G36*
X115413000Y-114922000D02*
G01*
X114973000Y-114922000D01*
X114973000Y-113182000D01*
X115413000Y-113182000D01*
X115413000Y-114922000D01*
G37*
X114763000Y-114922000D02*
X114323000Y-114922000D01*
X114323000Y-113182000D01*
X114763000Y-113182000D01*
X114763000Y-114922000D01*
G36*
X114763000Y-114922000D02*
G01*
X114323000Y-114922000D01*
X114323000Y-113182000D01*
X114763000Y-113182000D01*
X114763000Y-114922000D01*
G37*
X114113000Y-114922000D02*
X113673000Y-114922000D01*
X113673000Y-113182000D01*
X114113000Y-113182000D01*
X114113000Y-114922000D01*
G36*
X114113000Y-114922000D02*
G01*
X113673000Y-114922000D01*
X113673000Y-113182000D01*
X114113000Y-113182000D01*
X114113000Y-114922000D01*
G37*
X113463000Y-114922000D02*
X113023000Y-114922000D01*
X113023000Y-113182000D01*
X113463000Y-113182000D01*
X113463000Y-114922000D01*
G36*
X113463000Y-114922000D02*
G01*
X113023000Y-114922000D01*
X113023000Y-113182000D01*
X113463000Y-113182000D01*
X113463000Y-114922000D01*
G37*
X112813000Y-114922000D02*
X112373000Y-114922000D01*
X112373000Y-113182000D01*
X112813000Y-113182000D01*
X112813000Y-114922000D01*
G36*
X112813000Y-114922000D02*
G01*
X112373000Y-114922000D01*
X112373000Y-113182000D01*
X112813000Y-113182000D01*
X112813000Y-114922000D01*
G37*
X112163000Y-114922000D02*
X111723000Y-114922000D01*
X111723000Y-113182000D01*
X112163000Y-113182000D01*
X112163000Y-114922000D01*
G36*
X112163000Y-114922000D02*
G01*
X111723000Y-114922000D01*
X111723000Y-113182000D01*
X112163000Y-113182000D01*
X112163000Y-114922000D01*
G37*
X111513000Y-114922000D02*
X111073000Y-114922000D01*
X111073000Y-113182000D01*
X111513000Y-113182000D01*
X111513000Y-114922000D01*
G36*
X111513000Y-114922000D02*
G01*
X111073000Y-114922000D01*
X111073000Y-113182000D01*
X111513000Y-113182000D01*
X111513000Y-114922000D01*
G37*
X110863000Y-114922000D02*
X110423000Y-114922000D01*
X110423000Y-113182000D01*
X110863000Y-113182000D01*
X110863000Y-114922000D01*
G36*
X110863000Y-114922000D02*
G01*
X110423000Y-114922000D01*
X110423000Y-113182000D01*
X110863000Y-113182000D01*
X110863000Y-114922000D01*
G37*
X110213000Y-114922000D02*
X109773000Y-114922000D01*
X109773000Y-113182000D01*
X110213000Y-113182000D01*
X110213000Y-114922000D01*
G36*
X110213000Y-114922000D02*
G01*
X109773000Y-114922000D01*
X109773000Y-113182000D01*
X110213000Y-113182000D01*
X110213000Y-114922000D01*
G37*
X109563000Y-114922000D02*
X109123000Y-114922000D01*
X109123000Y-113182000D01*
X109563000Y-113182000D01*
X109563000Y-114922000D01*
G36*
X109563000Y-114922000D02*
G01*
X109123000Y-114922000D01*
X109123000Y-113182000D01*
X109563000Y-113182000D01*
X109563000Y-114922000D01*
G37*
X108913000Y-114922000D02*
X108473000Y-114922000D01*
X108473000Y-113182000D01*
X108913000Y-113182000D01*
X108913000Y-114922000D01*
G36*
X108913000Y-114922000D02*
G01*
X108473000Y-114922000D01*
X108473000Y-113182000D01*
X108913000Y-113182000D01*
X108913000Y-114922000D01*
G37*
X108263000Y-114922000D02*
X107823000Y-114922000D01*
X107823000Y-113182000D01*
X108263000Y-113182000D01*
X108263000Y-114922000D01*
G36*
X108263000Y-114922000D02*
G01*
X107823000Y-114922000D01*
X107823000Y-113182000D01*
X108263000Y-113182000D01*
X108263000Y-114922000D01*
G37*
%TO.C,U3*%
X147955000Y-108560000D02*
X147515000Y-108560000D01*
X147515000Y-106820000D01*
X147955000Y-106820000D01*
X147955000Y-108560000D01*
G36*
X147955000Y-108560000D02*
G01*
X147515000Y-108560000D01*
X147515000Y-106820000D01*
X147955000Y-106820000D01*
X147955000Y-108560000D01*
G37*
X147305000Y-108560000D02*
X146865000Y-108560000D01*
X146865000Y-106820000D01*
X147305000Y-106820000D01*
X147305000Y-108560000D01*
G36*
X147305000Y-108560000D02*
G01*
X146865000Y-108560000D01*
X146865000Y-106820000D01*
X147305000Y-106820000D01*
X147305000Y-108560000D01*
G37*
X146655000Y-108560000D02*
X146215000Y-108560000D01*
X146215000Y-106820000D01*
X146655000Y-106820000D01*
X146655000Y-108560000D01*
G36*
X146655000Y-108560000D02*
G01*
X146215000Y-108560000D01*
X146215000Y-106820000D01*
X146655000Y-106820000D01*
X146655000Y-108560000D01*
G37*
X146005000Y-108560000D02*
X145565000Y-108560000D01*
X145565000Y-106820000D01*
X146005000Y-106820000D01*
X146005000Y-108560000D01*
G36*
X146005000Y-108560000D02*
G01*
X145565000Y-108560000D01*
X145565000Y-106820000D01*
X146005000Y-106820000D01*
X146005000Y-108560000D01*
G37*
X145355000Y-108560000D02*
X144915000Y-108560000D01*
X144915000Y-106820000D01*
X145355000Y-106820000D01*
X145355000Y-108560000D01*
G36*
X145355000Y-108560000D02*
G01*
X144915000Y-108560000D01*
X144915000Y-106820000D01*
X145355000Y-106820000D01*
X145355000Y-108560000D01*
G37*
X144705000Y-108560000D02*
X144265000Y-108560000D01*
X144265000Y-106820000D01*
X144705000Y-106820000D01*
X144705000Y-108560000D01*
G36*
X144705000Y-108560000D02*
G01*
X144265000Y-108560000D01*
X144265000Y-106820000D01*
X144705000Y-106820000D01*
X144705000Y-108560000D01*
G37*
X144055000Y-108560000D02*
X143615000Y-108560000D01*
X143615000Y-106820000D01*
X144055000Y-106820000D01*
X144055000Y-108560000D01*
G36*
X144055000Y-108560000D02*
G01*
X143615000Y-108560000D01*
X143615000Y-106820000D01*
X144055000Y-106820000D01*
X144055000Y-108560000D01*
G37*
X143405000Y-108560000D02*
X142965000Y-108560000D01*
X142965000Y-106820000D01*
X143405000Y-106820000D01*
X143405000Y-108560000D01*
G36*
X143405000Y-108560000D02*
G01*
X142965000Y-108560000D01*
X142965000Y-106820000D01*
X143405000Y-106820000D01*
X143405000Y-108560000D01*
G37*
X142755000Y-108560000D02*
X142315000Y-108560000D01*
X142315000Y-106820000D01*
X142755000Y-106820000D01*
X142755000Y-108560000D01*
G36*
X142755000Y-108560000D02*
G01*
X142315000Y-108560000D01*
X142315000Y-106820000D01*
X142755000Y-106820000D01*
X142755000Y-108560000D01*
G37*
X142105000Y-108560000D02*
X141665000Y-108560000D01*
X141665000Y-106820000D01*
X142105000Y-106820000D01*
X142105000Y-108560000D01*
G36*
X142105000Y-108560000D02*
G01*
X141665000Y-108560000D01*
X141665000Y-106820000D01*
X142105000Y-106820000D01*
X142105000Y-108560000D01*
G37*
X141455000Y-108560000D02*
X141015000Y-108560000D01*
X141015000Y-106820000D01*
X141455000Y-106820000D01*
X141455000Y-108560000D01*
G36*
X141455000Y-108560000D02*
G01*
X141015000Y-108560000D01*
X141015000Y-106820000D01*
X141455000Y-106820000D01*
X141455000Y-108560000D01*
G37*
X140805000Y-108560000D02*
X140365000Y-108560000D01*
X140365000Y-106820000D01*
X140805000Y-106820000D01*
X140805000Y-108560000D01*
G36*
X140805000Y-108560000D02*
G01*
X140365000Y-108560000D01*
X140365000Y-106820000D01*
X140805000Y-106820000D01*
X140805000Y-108560000D01*
G37*
X140155000Y-108560000D02*
X139715000Y-108560000D01*
X139715000Y-106820000D01*
X140155000Y-106820000D01*
X140155000Y-108560000D01*
G36*
X140155000Y-108560000D02*
G01*
X139715000Y-108560000D01*
X139715000Y-106820000D01*
X140155000Y-106820000D01*
X140155000Y-108560000D01*
G37*
X139505000Y-108560000D02*
X139065000Y-108560000D01*
X139065000Y-106820000D01*
X139505000Y-106820000D01*
X139505000Y-108560000D01*
G36*
X139505000Y-108560000D02*
G01*
X139065000Y-108560000D01*
X139065000Y-106820000D01*
X139505000Y-106820000D01*
X139505000Y-108560000D01*
G37*
X147955000Y-114160000D02*
X147515000Y-114160000D01*
X147515000Y-112420000D01*
X147955000Y-112420000D01*
X147955000Y-114160000D01*
G36*
X147955000Y-114160000D02*
G01*
X147515000Y-114160000D01*
X147515000Y-112420000D01*
X147955000Y-112420000D01*
X147955000Y-114160000D01*
G37*
X147305000Y-114160000D02*
X146865000Y-114160000D01*
X146865000Y-112420000D01*
X147305000Y-112420000D01*
X147305000Y-114160000D01*
G36*
X147305000Y-114160000D02*
G01*
X146865000Y-114160000D01*
X146865000Y-112420000D01*
X147305000Y-112420000D01*
X147305000Y-114160000D01*
G37*
X146655000Y-114160000D02*
X146215000Y-114160000D01*
X146215000Y-112420000D01*
X146655000Y-112420000D01*
X146655000Y-114160000D01*
G36*
X146655000Y-114160000D02*
G01*
X146215000Y-114160000D01*
X146215000Y-112420000D01*
X146655000Y-112420000D01*
X146655000Y-114160000D01*
G37*
X146005000Y-114160000D02*
X145565000Y-114160000D01*
X145565000Y-112420000D01*
X146005000Y-112420000D01*
X146005000Y-114160000D01*
G36*
X146005000Y-114160000D02*
G01*
X145565000Y-114160000D01*
X145565000Y-112420000D01*
X146005000Y-112420000D01*
X146005000Y-114160000D01*
G37*
X145355000Y-114160000D02*
X144915000Y-114160000D01*
X144915000Y-112420000D01*
X145355000Y-112420000D01*
X145355000Y-114160000D01*
G36*
X145355000Y-114160000D02*
G01*
X144915000Y-114160000D01*
X144915000Y-112420000D01*
X145355000Y-112420000D01*
X145355000Y-114160000D01*
G37*
X144705000Y-114160000D02*
X144265000Y-114160000D01*
X144265000Y-112420000D01*
X144705000Y-112420000D01*
X144705000Y-114160000D01*
G36*
X144705000Y-114160000D02*
G01*
X144265000Y-114160000D01*
X144265000Y-112420000D01*
X144705000Y-112420000D01*
X144705000Y-114160000D01*
G37*
X144055000Y-114160000D02*
X143615000Y-114160000D01*
X143615000Y-112420000D01*
X144055000Y-112420000D01*
X144055000Y-114160000D01*
G36*
X144055000Y-114160000D02*
G01*
X143615000Y-114160000D01*
X143615000Y-112420000D01*
X144055000Y-112420000D01*
X144055000Y-114160000D01*
G37*
X143405000Y-114160000D02*
X142965000Y-114160000D01*
X142965000Y-112420000D01*
X143405000Y-112420000D01*
X143405000Y-114160000D01*
G36*
X143405000Y-114160000D02*
G01*
X142965000Y-114160000D01*
X142965000Y-112420000D01*
X143405000Y-112420000D01*
X143405000Y-114160000D01*
G37*
X142755000Y-114160000D02*
X142315000Y-114160000D01*
X142315000Y-112420000D01*
X142755000Y-112420000D01*
X142755000Y-114160000D01*
G36*
X142755000Y-114160000D02*
G01*
X142315000Y-114160000D01*
X142315000Y-112420000D01*
X142755000Y-112420000D01*
X142755000Y-114160000D01*
G37*
X142105000Y-114160000D02*
X141665000Y-114160000D01*
X141665000Y-112420000D01*
X142105000Y-112420000D01*
X142105000Y-114160000D01*
G36*
X142105000Y-114160000D02*
G01*
X141665000Y-114160000D01*
X141665000Y-112420000D01*
X142105000Y-112420000D01*
X142105000Y-114160000D01*
G37*
X141455000Y-114160000D02*
X141015000Y-114160000D01*
X141015000Y-112420000D01*
X141455000Y-112420000D01*
X141455000Y-114160000D01*
G36*
X141455000Y-114160000D02*
G01*
X141015000Y-114160000D01*
X141015000Y-112420000D01*
X141455000Y-112420000D01*
X141455000Y-114160000D01*
G37*
X140805000Y-114160000D02*
X140365000Y-114160000D01*
X140365000Y-112420000D01*
X140805000Y-112420000D01*
X140805000Y-114160000D01*
G36*
X140805000Y-114160000D02*
G01*
X140365000Y-114160000D01*
X140365000Y-112420000D01*
X140805000Y-112420000D01*
X140805000Y-114160000D01*
G37*
X140155000Y-114160000D02*
X139715000Y-114160000D01*
X139715000Y-112420000D01*
X140155000Y-112420000D01*
X140155000Y-114160000D01*
G36*
X140155000Y-114160000D02*
G01*
X139715000Y-114160000D01*
X139715000Y-112420000D01*
X140155000Y-112420000D01*
X140155000Y-114160000D01*
G37*
X139505000Y-114160000D02*
X139065000Y-114160000D01*
X139065000Y-112420000D01*
X139505000Y-112420000D01*
X139505000Y-114160000D01*
G36*
X139505000Y-114160000D02*
G01*
X139065000Y-114160000D01*
X139065000Y-112420000D01*
X139505000Y-112420000D01*
X139505000Y-114160000D01*
G37*
%TD*%
D12*
%TO.C,J1*%
X104140000Y-68580000D03*
D13*
X106680000Y-68580000D03*
%TD*%
D14*
%TO.C,REF\u002A\u002A*%
X152000000Y-119000000D03*
D15*
X152000000Y-119000000D03*
%TD*%
%TO.C,REF\u002A\u002A*%
X130500000Y-73500000D03*
D14*
X130500000Y-73500000D03*
%TD*%
%TO.C,REF\u002A\u002A*%
X103000000Y-119000000D03*
D15*
X103000000Y-119000000D03*
%TD*%
D16*
%TO.C,R10*%
X114160219Y-106016813D03*
X116160219Y-106016813D03*
%TD*%
D17*
%TO.C,R9*%
X146050000Y-103140000D03*
X146050000Y-105140000D03*
%TD*%
D16*
%TO.C,R8*%
X112030000Y-94321509D03*
X114030000Y-94321509D03*
%TD*%
%TO.C,R7*%
X112006828Y-92108123D03*
X114006828Y-92108123D03*
%TD*%
D18*
%TO.C,A1*%
X148013508Y-78343477D03*
D19*
X145473508Y-78343477D03*
X142933508Y-78343477D03*
X140393508Y-78343477D03*
X137853508Y-78343477D03*
X135313508Y-78343477D03*
X132773508Y-78343477D03*
X130233508Y-78343477D03*
X127693508Y-78343477D03*
X125153508Y-78343477D03*
X122613508Y-78343477D03*
X120073508Y-78343477D03*
X117533508Y-78343477D03*
X114993508Y-78343477D03*
X112453508Y-78343477D03*
X109913508Y-78343477D03*
X109913508Y-98663477D03*
X112453508Y-98663477D03*
X114993508Y-98663477D03*
X117533508Y-98663477D03*
X120073508Y-98663477D03*
X122613508Y-98663477D03*
X125153508Y-98663477D03*
X127693508Y-98663477D03*
X130233508Y-98663477D03*
X132773508Y-98663477D03*
X135313508Y-98663477D03*
X137853508Y-98663477D03*
%TD*%
D20*
%TO.C,C5*%
X148326941Y-105111181D03*
X148326941Y-103036181D03*
%TD*%
D19*
%TO.C,C12*%
X132459504Y-106720000D03*
D18*
X132459504Y-109220000D03*
%TD*%
D21*
%TO.C,C9*%
X109749500Y-118110000D03*
X107674500Y-118110000D03*
%TD*%
D22*
%TO.C,J2*%
X102870000Y-102970000D03*
X102870000Y-104220000D03*
X102870000Y-105470000D03*
X102870000Y-106720000D03*
X102870000Y-107970000D03*
D23*
X102870000Y-109220000D03*
%TD*%
D24*
%TO.C,R1*%
X131000000Y-84000000D03*
X133000000Y-84000000D03*
%TD*%
D12*
%TO.C,U2*%
X152400000Y-62230000D03*
D13*
X149860000Y-62230000D03*
X147320000Y-62230000D03*
X144780000Y-62230000D03*
X142240000Y-62230000D03*
X139700000Y-62230000D03*
X137160000Y-62230000D03*
X134620000Y-62230000D03*
%TD*%
D21*
%TO.C,C2*%
X141118500Y-116967000D03*
X139043500Y-116967000D03*
%TD*%
D19*
%TO.C,C6*%
X120903131Y-106743475D03*
D18*
X120903131Y-109243475D03*
%TD*%
D25*
%TO.C,C3*%
X146028500Y-115773200D03*
X148103500Y-115773200D03*
%TD*%
D20*
%TO.C,C10*%
X102736721Y-114033662D03*
X102736721Y-111958662D03*
%TD*%
D13*
%TO.C,J4*%
X132458022Y-120129395D03*
X132458022Y-117589395D03*
D12*
X132458022Y-115049395D03*
%TD*%
D24*
%TO.C,R2*%
X133500000Y-81460000D03*
X131500000Y-81460000D03*
%TD*%
D25*
%TO.C,C8*%
X114684900Y-116281200D03*
X116759900Y-116281200D03*
%TD*%
D22*
%TO.C,J3*%
X152352665Y-103523443D03*
X152352665Y-104773443D03*
X152352665Y-106023443D03*
X152352665Y-107273443D03*
X152352665Y-108523443D03*
D23*
X152352665Y-109773443D03*
%TD*%
D20*
%TO.C,C7*%
X105257600Y-114016700D03*
X105257600Y-111941700D03*
%TD*%
D16*
%TO.C,R3*%
X112792000Y-85852000D03*
X114792000Y-85852000D03*
%TD*%
D12*
%TO.C,J6*%
X122082486Y-120126085D03*
D13*
X122082486Y-117586085D03*
X122082486Y-115046085D03*
%TD*%
D26*
%TO.C,SW1*%
X127215471Y-68548518D03*
D27*
X122465471Y-68548518D03*
X117715471Y-68548518D03*
%TD*%
D28*
%TO.C,D1*%
X112456448Y-74333131D03*
X116856448Y-74333131D03*
%TD*%
D25*
%TO.C,C13*%
X124037500Y-83000000D03*
X121962500Y-83000000D03*
%TD*%
D24*
%TO.C,R4*%
X114792000Y-87884000D03*
X112792000Y-87884000D03*
%TD*%
D16*
%TO.C,R5*%
X112792000Y-81280000D03*
X114792000Y-81280000D03*
%TD*%
D21*
%TO.C,C11*%
X121920000Y-104140000D03*
X119845000Y-104140000D03*
%TD*%
D20*
%TO.C,C1*%
X136906000Y-111832300D03*
X136906000Y-109757300D03*
%TD*%
%TO.C,C4*%
X136906000Y-115718500D03*
X136906000Y-113643500D03*
%TD*%
D16*
%TO.C,R6*%
X112792000Y-83312000D03*
X114792000Y-83312000D03*
%TD*%
D29*
%TO.C,U1*%
X109220000Y-74295000D03*
X106680000Y-74295000D03*
D30*
X104140000Y-74295000D03*
%TD*%
M02*
