%TF.GenerationSoftware,KiCad,Pcbnew,7.0.1*%
%TF.CreationDate,2023-04-23T15:33:48-04:00*%
%TF.ProjectId,board_v2,626f6172-645f-4763-922e-6b696361645f,rev?*%
%TF.SameCoordinates,Original*%
%TF.FileFunction,Legend,Bot*%
%TF.FilePolarity,Positive*%
%FSLAX46Y46*%
G04 Gerber Fmt 4.6, Leading zero omitted, Abs format (unit mm)*
G04 Created by KiCad (PCBNEW 7.0.1) date 2023-04-23 15:33:48*
%MOMM*%
%LPD*%
G01*
G04 APERTURE LIST*
%ADD10C,0.150000*%
%ADD11C,0.120000*%
G04 APERTURE END LIST*
D10*
X131508571Y-91713809D02*
X131841904Y-91713809D01*
X131841904Y-92237619D02*
X131841904Y-91237619D01*
X131841904Y-91237619D02*
X131365714Y-91237619D01*
X130556190Y-92237619D02*
X130556190Y-91713809D01*
X130556190Y-91713809D02*
X130603809Y-91618571D01*
X130603809Y-91618571D02*
X130699047Y-91570952D01*
X130699047Y-91570952D02*
X130889523Y-91570952D01*
X130889523Y-91570952D02*
X130984761Y-91618571D01*
X130556190Y-92190000D02*
X130651428Y-92237619D01*
X130651428Y-92237619D02*
X130889523Y-92237619D01*
X130889523Y-92237619D02*
X130984761Y-92190000D01*
X130984761Y-92190000D02*
X131032380Y-92094761D01*
X131032380Y-92094761D02*
X131032380Y-91999523D01*
X131032380Y-91999523D02*
X130984761Y-91904285D01*
X130984761Y-91904285D02*
X130889523Y-91856666D01*
X130889523Y-91856666D02*
X130651428Y-91856666D01*
X130651428Y-91856666D02*
X130556190Y-91809047D01*
X129937142Y-92237619D02*
X130032380Y-92190000D01*
X130032380Y-92190000D02*
X130079999Y-92094761D01*
X130079999Y-92094761D02*
X130079999Y-91237619D01*
X129413332Y-92237619D02*
X129508570Y-92190000D01*
X129508570Y-92190000D02*
X129556189Y-92094761D01*
X129556189Y-92094761D02*
X129556189Y-91237619D01*
X129079998Y-92190000D02*
X128984760Y-92237619D01*
X128984760Y-92237619D02*
X128794284Y-92237619D01*
X128794284Y-92237619D02*
X128699046Y-92190000D01*
X128699046Y-92190000D02*
X128651427Y-92094761D01*
X128651427Y-92094761D02*
X128651427Y-92047142D01*
X128651427Y-92047142D02*
X128699046Y-91951904D01*
X128699046Y-91951904D02*
X128794284Y-91904285D01*
X128794284Y-91904285D02*
X128937141Y-91904285D01*
X128937141Y-91904285D02*
X129032379Y-91856666D01*
X129032379Y-91856666D02*
X129079998Y-91761428D01*
X129079998Y-91761428D02*
X129079998Y-91713809D01*
X129079998Y-91713809D02*
X129032379Y-91618571D01*
X129032379Y-91618571D02*
X128937141Y-91570952D01*
X128937141Y-91570952D02*
X128794284Y-91570952D01*
X128794284Y-91570952D02*
X128699046Y-91618571D01*
X128222855Y-92237619D02*
X128222855Y-91237619D01*
X128222855Y-91237619D02*
X127984760Y-91237619D01*
X127984760Y-91237619D02*
X127841903Y-91285238D01*
X127841903Y-91285238D02*
X127746665Y-91380476D01*
X127746665Y-91380476D02*
X127699046Y-91475714D01*
X127699046Y-91475714D02*
X127651427Y-91666190D01*
X127651427Y-91666190D02*
X127651427Y-91809047D01*
X127651427Y-91809047D02*
X127699046Y-91999523D01*
X127699046Y-91999523D02*
X127746665Y-92094761D01*
X127746665Y-92094761D02*
X127841903Y-92190000D01*
X127841903Y-92190000D02*
X127984760Y-92237619D01*
X127984760Y-92237619D02*
X128222855Y-92237619D01*
X127079998Y-92237619D02*
X127175236Y-92190000D01*
X127175236Y-92190000D02*
X127222855Y-92142380D01*
X127222855Y-92142380D02*
X127270474Y-92047142D01*
X127270474Y-92047142D02*
X127270474Y-91761428D01*
X127270474Y-91761428D02*
X127222855Y-91666190D01*
X127222855Y-91666190D02*
X127175236Y-91618571D01*
X127175236Y-91618571D02*
X127079998Y-91570952D01*
X127079998Y-91570952D02*
X126937141Y-91570952D01*
X126937141Y-91570952D02*
X126841903Y-91618571D01*
X126841903Y-91618571D02*
X126794284Y-91666190D01*
X126794284Y-91666190D02*
X126746665Y-91761428D01*
X126746665Y-91761428D02*
X126746665Y-92047142D01*
X126746665Y-92047142D02*
X126794284Y-92142380D01*
X126794284Y-92142380D02*
X126841903Y-92190000D01*
X126841903Y-92190000D02*
X126937141Y-92237619D01*
X126937141Y-92237619D02*
X127079998Y-92237619D01*
X126413331Y-91570952D02*
X126222855Y-92237619D01*
X126222855Y-92237619D02*
X126032379Y-91761428D01*
X126032379Y-91761428D02*
X125841903Y-92237619D01*
X125841903Y-92237619D02*
X125651427Y-91570952D01*
X125270474Y-91570952D02*
X125270474Y-92237619D01*
X125270474Y-91666190D02*
X125222855Y-91618571D01*
X125222855Y-91618571D02*
X125127617Y-91570952D01*
X125127617Y-91570952D02*
X124984760Y-91570952D01*
X124984760Y-91570952D02*
X124889522Y-91618571D01*
X124889522Y-91618571D02*
X124841903Y-91713809D01*
X124841903Y-91713809D02*
X124841903Y-92237619D01*
X123889522Y-92237619D02*
X124365712Y-92237619D01*
X124365712Y-92237619D02*
X124365712Y-91237619D01*
X123413331Y-92237619D02*
X123508569Y-92190000D01*
X123508569Y-92190000D02*
X123556188Y-92142380D01*
X123556188Y-92142380D02*
X123603807Y-92047142D01*
X123603807Y-92047142D02*
X123603807Y-91761428D01*
X123603807Y-91761428D02*
X123556188Y-91666190D01*
X123556188Y-91666190D02*
X123508569Y-91618571D01*
X123508569Y-91618571D02*
X123413331Y-91570952D01*
X123413331Y-91570952D02*
X123270474Y-91570952D01*
X123270474Y-91570952D02*
X123175236Y-91618571D01*
X123175236Y-91618571D02*
X123127617Y-91666190D01*
X123127617Y-91666190D02*
X123079998Y-91761428D01*
X123079998Y-91761428D02*
X123079998Y-92047142D01*
X123079998Y-92047142D02*
X123127617Y-92142380D01*
X123127617Y-92142380D02*
X123175236Y-92190000D01*
X123175236Y-92190000D02*
X123270474Y-92237619D01*
X123270474Y-92237619D02*
X123413331Y-92237619D01*
X122794283Y-91570952D02*
X122413331Y-91570952D01*
X122651426Y-91237619D02*
X122651426Y-92094761D01*
X122651426Y-92094761D02*
X122603807Y-92190000D01*
X122603807Y-92190000D02*
X122508569Y-92237619D01*
X122508569Y-92237619D02*
X122413331Y-92237619D01*
X122127616Y-92190000D02*
X122032378Y-92237619D01*
X122032378Y-92237619D02*
X121841902Y-92237619D01*
X121841902Y-92237619D02*
X121746664Y-92190000D01*
X121746664Y-92190000D02*
X121699045Y-92094761D01*
X121699045Y-92094761D02*
X121699045Y-92047142D01*
X121699045Y-92047142D02*
X121746664Y-91951904D01*
X121746664Y-91951904D02*
X121841902Y-91904285D01*
X121841902Y-91904285D02*
X121984759Y-91904285D01*
X121984759Y-91904285D02*
X122079997Y-91856666D01*
X122079997Y-91856666D02*
X122127616Y-91761428D01*
X122127616Y-91761428D02*
X122127616Y-91713809D01*
X122127616Y-91713809D02*
X122079997Y-91618571D01*
X122079997Y-91618571D02*
X121984759Y-91570952D01*
X121984759Y-91570952D02*
X121841902Y-91570952D01*
X121841902Y-91570952D02*
X121746664Y-91618571D01*
X120603806Y-91570952D02*
X120365711Y-92237619D01*
X120365711Y-92237619D02*
X120127616Y-91570952D01*
X119794282Y-91332857D02*
X119746663Y-91285238D01*
X119746663Y-91285238D02*
X119651425Y-91237619D01*
X119651425Y-91237619D02*
X119413330Y-91237619D01*
X119413330Y-91237619D02*
X119318092Y-91285238D01*
X119318092Y-91285238D02*
X119270473Y-91332857D01*
X119270473Y-91332857D02*
X119222854Y-91428095D01*
X119222854Y-91428095D02*
X119222854Y-91523333D01*
X119222854Y-91523333D02*
X119270473Y-91666190D01*
X119270473Y-91666190D02*
X119841901Y-92237619D01*
X119841901Y-92237619D02*
X119222854Y-92237619D01*
X118794282Y-92142380D02*
X118746663Y-92190000D01*
X118746663Y-92190000D02*
X118794282Y-92237619D01*
X118794282Y-92237619D02*
X118841901Y-92190000D01*
X118841901Y-92190000D02*
X118794282Y-92142380D01*
X118794282Y-92142380D02*
X118794282Y-92237619D01*
X117794283Y-92237619D02*
X118365711Y-92237619D01*
X118079997Y-92237619D02*
X118079997Y-91237619D01*
X118079997Y-91237619D02*
X118175235Y-91380476D01*
X118175235Y-91380476D02*
X118270473Y-91475714D01*
X118270473Y-91475714D02*
X118365711Y-91523333D01*
X131413333Y-93190952D02*
X131413333Y-94000476D01*
X131413333Y-94000476D02*
X131460952Y-94095714D01*
X131460952Y-94095714D02*
X131508571Y-94143333D01*
X131508571Y-94143333D02*
X131603809Y-94190952D01*
X131603809Y-94190952D02*
X131746666Y-94190952D01*
X131746666Y-94190952D02*
X131841904Y-94143333D01*
X131413333Y-93810000D02*
X131508571Y-93857619D01*
X131508571Y-93857619D02*
X131699047Y-93857619D01*
X131699047Y-93857619D02*
X131794285Y-93810000D01*
X131794285Y-93810000D02*
X131841904Y-93762380D01*
X131841904Y-93762380D02*
X131889523Y-93667142D01*
X131889523Y-93667142D02*
X131889523Y-93381428D01*
X131889523Y-93381428D02*
X131841904Y-93286190D01*
X131841904Y-93286190D02*
X131794285Y-93238571D01*
X131794285Y-93238571D02*
X131699047Y-93190952D01*
X131699047Y-93190952D02*
X131508571Y-93190952D01*
X131508571Y-93190952D02*
X131413333Y-93238571D01*
X130937142Y-93857619D02*
X130937142Y-93190952D01*
X130937142Y-92857619D02*
X130984761Y-92905238D01*
X130984761Y-92905238D02*
X130937142Y-92952857D01*
X130937142Y-92952857D02*
X130889523Y-92905238D01*
X130889523Y-92905238D02*
X130937142Y-92857619D01*
X130937142Y-92857619D02*
X130937142Y-92952857D01*
X130556190Y-93190952D02*
X130032381Y-93190952D01*
X130032381Y-93190952D02*
X130556190Y-93857619D01*
X130556190Y-93857619D02*
X130032381Y-93857619D01*
X129222857Y-93857619D02*
X129222857Y-93333809D01*
X129222857Y-93333809D02*
X129270476Y-93238571D01*
X129270476Y-93238571D02*
X129365714Y-93190952D01*
X129365714Y-93190952D02*
X129556190Y-93190952D01*
X129556190Y-93190952D02*
X129651428Y-93238571D01*
X129222857Y-93810000D02*
X129318095Y-93857619D01*
X129318095Y-93857619D02*
X129556190Y-93857619D01*
X129556190Y-93857619D02*
X129651428Y-93810000D01*
X129651428Y-93810000D02*
X129699047Y-93714761D01*
X129699047Y-93714761D02*
X129699047Y-93619523D01*
X129699047Y-93619523D02*
X129651428Y-93524285D01*
X129651428Y-93524285D02*
X129556190Y-93476666D01*
X129556190Y-93476666D02*
X129318095Y-93476666D01*
X129318095Y-93476666D02*
X129222857Y-93429047D01*
X128889523Y-93190952D02*
X128508571Y-93190952D01*
X128746666Y-92857619D02*
X128746666Y-93714761D01*
X128746666Y-93714761D02*
X128699047Y-93810000D01*
X128699047Y-93810000D02*
X128603809Y-93857619D01*
X128603809Y-93857619D02*
X128508571Y-93857619D01*
X128318094Y-93190952D02*
X127937142Y-93190952D01*
X128175237Y-92857619D02*
X128175237Y-93714761D01*
X128175237Y-93714761D02*
X128127618Y-93810000D01*
X128127618Y-93810000D02*
X128032380Y-93857619D01*
X128032380Y-93857619D02*
X127937142Y-93857619D01*
X127556189Y-93810000D02*
X127556189Y-93857619D01*
X127556189Y-93857619D02*
X127603808Y-93952857D01*
X127603808Y-93952857D02*
X127651427Y-94000476D01*
X126413332Y-93571904D02*
X125937142Y-93571904D01*
X126508570Y-93857619D02*
X126175237Y-92857619D01*
X126175237Y-92857619D02*
X125841904Y-93857619D01*
X125508570Y-93190952D02*
X125508570Y-94190952D01*
X125508570Y-93238571D02*
X125413332Y-93190952D01*
X125413332Y-93190952D02*
X125222856Y-93190952D01*
X125222856Y-93190952D02*
X125127618Y-93238571D01*
X125127618Y-93238571D02*
X125079999Y-93286190D01*
X125079999Y-93286190D02*
X125032380Y-93381428D01*
X125032380Y-93381428D02*
X125032380Y-93667142D01*
X125032380Y-93667142D02*
X125079999Y-93762380D01*
X125079999Y-93762380D02*
X125127618Y-93810000D01*
X125127618Y-93810000D02*
X125222856Y-93857619D01*
X125222856Y-93857619D02*
X125413332Y-93857619D01*
X125413332Y-93857619D02*
X125508570Y-93810000D01*
X124603808Y-93857619D02*
X124603808Y-93190952D01*
X124603808Y-93381428D02*
X124556189Y-93286190D01*
X124556189Y-93286190D02*
X124508570Y-93238571D01*
X124508570Y-93238571D02*
X124413332Y-93190952D01*
X124413332Y-93190952D02*
X124318094Y-93190952D01*
X123175236Y-92857619D02*
X123270474Y-93048095D01*
X122794284Y-92952857D02*
X122746665Y-92905238D01*
X122746665Y-92905238D02*
X122651427Y-92857619D01*
X122651427Y-92857619D02*
X122413332Y-92857619D01*
X122413332Y-92857619D02*
X122318094Y-92905238D01*
X122318094Y-92905238D02*
X122270475Y-92952857D01*
X122270475Y-92952857D02*
X122222856Y-93048095D01*
X122222856Y-93048095D02*
X122222856Y-93143333D01*
X122222856Y-93143333D02*
X122270475Y-93286190D01*
X122270475Y-93286190D02*
X122841903Y-93857619D01*
X122841903Y-93857619D02*
X122222856Y-93857619D01*
X121889522Y-92857619D02*
X121270475Y-92857619D01*
X121270475Y-92857619D02*
X121603808Y-93238571D01*
X121603808Y-93238571D02*
X121460951Y-93238571D01*
X121460951Y-93238571D02*
X121365713Y-93286190D01*
X121365713Y-93286190D02*
X121318094Y-93333809D01*
X121318094Y-93333809D02*
X121270475Y-93429047D01*
X121270475Y-93429047D02*
X121270475Y-93667142D01*
X121270475Y-93667142D02*
X121318094Y-93762380D01*
X121318094Y-93762380D02*
X121365713Y-93810000D01*
X121365713Y-93810000D02*
X121460951Y-93857619D01*
X121460951Y-93857619D02*
X121746665Y-93857619D01*
X121746665Y-93857619D02*
X121841903Y-93810000D01*
X121841903Y-93810000D02*
X121889522Y-93762380D01*
%TO.C,U1*%
X102469891Y-73712473D02*
X102469891Y-74521996D01*
X102469891Y-74521996D02*
X102422272Y-74617234D01*
X102422272Y-74617234D02*
X102374653Y-74664854D01*
X102374653Y-74664854D02*
X102279415Y-74712473D01*
X102279415Y-74712473D02*
X102088939Y-74712473D01*
X102088939Y-74712473D02*
X101993701Y-74664854D01*
X101993701Y-74664854D02*
X101946082Y-74617234D01*
X101946082Y-74617234D02*
X101898463Y-74521996D01*
X101898463Y-74521996D02*
X101898463Y-73712473D01*
X100898463Y-74712473D02*
X101469891Y-74712473D01*
X101184177Y-74712473D02*
X101184177Y-73712473D01*
X101184177Y-73712473D02*
X101279415Y-73855330D01*
X101279415Y-73855330D02*
X101374653Y-73950568D01*
X101374653Y-73950568D02*
X101469891Y-73998187D01*
D11*
X111800000Y-93875000D02*
X111800000Y-77985000D01*
X109220000Y-77985000D02*
X109220000Y-75445000D01*
X106680000Y-77985000D02*
X106680000Y-75445000D01*
X104140000Y-77985000D02*
X104140000Y-75445000D01*
X101560000Y-77985000D02*
X111800000Y-77985000D01*
X101560000Y-93875000D02*
X111800000Y-93875000D01*
X101560000Y-93875000D02*
X101560000Y-77985000D01*
%TD*%
M02*
