%TF.GenerationSoftware,KiCad,Pcbnew,7.0.1*%
%TF.CreationDate,2023-04-23T15:33:47-04:00*%
%TF.ProjectId,board_v2,626f6172-645f-4763-922e-6b696361645f,rev?*%
%TF.SameCoordinates,Original*%
%TF.FileFunction,Copper,L1,Top*%
%TF.FilePolarity,Positive*%
%FSLAX46Y46*%
G04 Gerber Fmt 4.6, Leading zero omitted, Abs format (unit mm)*
G04 Created by KiCad (PCBNEW 7.0.1) date 2023-04-23 15:33:47*
%MOMM*%
%LPD*%
G01*
G04 APERTURE LIST*
G04 Aperture macros list*
%AMRoundRect*
0 Rectangle with rounded corners*
0 $1 Rounding radius*
0 $2 $3 $4 $5 $6 $7 $8 $9 X,Y pos of 4 corners*
0 Add a 4 corners polygon primitive as box body*
4,1,4,$2,$3,$4,$5,$6,$7,$8,$9,$2,$3,0*
0 Add four circle primitives for the rounded corners*
1,1,$1+$1,$2,$3*
1,1,$1+$1,$4,$5*
1,1,$1+$1,$6,$7*
1,1,$1+$1,$8,$9*
0 Add four rect primitives between the rounded corners*
20,1,$1+$1,$2,$3,$4,$5,0*
20,1,$1+$1,$4,$5,$6,$7,0*
20,1,$1+$1,$6,$7,$8,$9,0*
20,1,$1+$1,$8,$9,$2,$3,0*%
G04 Aperture macros list end*
%TA.AperFunction,ComponentPad*%
%ADD10R,1.700000X1.700000*%
%TD*%
%TA.AperFunction,ComponentPad*%
%ADD11O,1.700000X1.700000*%
%TD*%
%TA.AperFunction,ComponentPad*%
%ADD12C,2.600000*%
%TD*%
%TA.AperFunction,ConnectorPad*%
%ADD13C,3.800000*%
%TD*%
%TA.AperFunction,SMDPad,CuDef*%
%ADD14RoundRect,0.250000X-0.350000X-0.450000X0.350000X-0.450000X0.350000X0.450000X-0.350000X0.450000X0*%
%TD*%
%TA.AperFunction,SMDPad,CuDef*%
%ADD15RoundRect,0.250000X0.450000X-0.350000X0.450000X0.350000X-0.450000X0.350000X-0.450000X-0.350000X0*%
%TD*%
%TA.AperFunction,ComponentPad*%
%ADD16R,1.600000X1.600000*%
%TD*%
%TA.AperFunction,ComponentPad*%
%ADD17C,1.600000*%
%TD*%
%TA.AperFunction,SMDPad,CuDef*%
%ADD18RoundRect,0.250000X-0.475000X0.337500X-0.475000X-0.337500X0.475000X-0.337500X0.475000X0.337500X0*%
%TD*%
%TA.AperFunction,SMDPad,CuDef*%
%ADD19RoundRect,0.250000X-0.337500X-0.475000X0.337500X-0.475000X0.337500X0.475000X-0.337500X0.475000X0*%
%TD*%
%TA.AperFunction,ComponentPad*%
%ADD20O,1.500000X1.000000*%
%TD*%
%TA.AperFunction,ComponentPad*%
%ADD21R,1.500000X1.000000*%
%TD*%
%TA.AperFunction,SMDPad,CuDef*%
%ADD22RoundRect,0.250000X0.350000X0.450000X-0.350000X0.450000X-0.350000X-0.450000X0.350000X-0.450000X0*%
%TD*%
%TA.AperFunction,SMDPad,CuDef*%
%ADD23RoundRect,0.250000X0.337500X0.475000X-0.337500X0.475000X-0.337500X-0.475000X0.337500X-0.475000X0*%
%TD*%
%TA.AperFunction,ComponentPad*%
%ADD24C,0.500000*%
%TD*%
%TA.AperFunction,SMDPad,CuDef*%
%ADD25R,9.700000X3.400000*%
%TD*%
%TA.AperFunction,SMDPad,CuDef*%
%ADD26R,0.300000X1.600000*%
%TD*%
%TA.AperFunction,ComponentPad*%
%ADD27R,2.475000X2.475000*%
%TD*%
%TA.AperFunction,ComponentPad*%
%ADD28C,2.475000*%
%TD*%
%TA.AperFunction,SMDPad,CuDef*%
%ADD29R,1.400000X2.100000*%
%TD*%
%TA.AperFunction,ComponentPad*%
%ADD30O,1.905000X2.000000*%
%TD*%
%TA.AperFunction,ComponentPad*%
%ADD31R,1.905000X2.000000*%
%TD*%
%TA.AperFunction,ViaPad*%
%ADD32C,0.800000*%
%TD*%
%TA.AperFunction,Conductor*%
%ADD33C,0.500000*%
%TD*%
%TA.AperFunction,Conductor*%
%ADD34C,1.000000*%
%TD*%
%TA.AperFunction,Conductor*%
%ADD35C,0.250000*%
%TD*%
%TA.AperFunction,Conductor*%
%ADD36C,2.000000*%
%TD*%
%TA.AperFunction,Conductor*%
%ADD37C,0.350000*%
%TD*%
G04 APERTURE END LIST*
D10*
%TO.P,J1,1,Pin_1*%
%TO.N,GND*%
X104140000Y-68580000D03*
D11*
%TO.P,J1,2,Pin_2*%
%TO.N,/Bat+ Raw*%
X106680000Y-68580000D03*
%TD*%
D12*
%TO.P,REF\u002A\u002A,1*%
%TO.N,GND*%
X152000000Y-119000000D03*
D13*
%TO.N,N/C*%
X152000000Y-119000000D03*
%TD*%
%TO.P,REF\u002A\u002A,1*%
%TO.N,N/C*%
X130500000Y-73500000D03*
D12*
%TO.N,GND*%
X130500000Y-73500000D03*
%TD*%
%TO.P,REF\u002A\u002A,1*%
%TO.N,GND*%
X103000000Y-119000000D03*
D13*
%TO.N,N/C*%
X103000000Y-119000000D03*
%TD*%
D14*
%TO.P,R10,1*%
%TO.N,Net-(U5-NRESET)*%
X114160219Y-106016813D03*
%TO.P,R10,2*%
%TO.N,Net-(U5-V3P3)*%
X116160219Y-106016813D03*
%TD*%
D15*
%TO.P,R9,2*%
%TO.N,Net-(U3-V3P3)*%
X146050000Y-103140000D03*
%TO.P,R9,1*%
%TO.N,Net-(U3-NRESET)*%
X146050000Y-105140000D03*
%TD*%
D14*
%TO.P,R8,1*%
%TO.N,+3V3*%
X112030000Y-94321509D03*
%TO.P,R8,2*%
%TO.N,/SDA0*%
X114030000Y-94321509D03*
%TD*%
%TO.P,R7,1*%
%TO.N,+3V3*%
X112006828Y-92108123D03*
%TO.P,R7,2*%
%TO.N,/SCL0*%
X114006828Y-92108123D03*
%TD*%
D16*
%TO.P,A1,1,~{RESET}*%
%TO.N,unconnected-(A1-~{RESET}-Pad1)*%
X148013508Y-78343477D03*
D17*
%TO.P,A1,2,3V3*%
%TO.N,+3V3*%
X145473508Y-78343477D03*
%TO.P,A1,3,AREF*%
%TO.N,unconnected-(A1-AREF-Pad3)*%
X142933508Y-78343477D03*
%TO.P,A1,4,GND*%
%TO.N,GND*%
X140393508Y-78343477D03*
%TO.P,A1,5,A0*%
%TO.N,unconnected-(A1-A0-Pad5)*%
X137853508Y-78343477D03*
%TO.P,A1,6,A1*%
%TO.N,/A1*%
X135313508Y-78343477D03*
%TO.P,A1,7,A2*%
%TO.N,/A2*%
X132773508Y-78343477D03*
%TO.P,A1,8,A3*%
%TO.N,/A3*%
X130233508Y-78343477D03*
%TO.P,A1,9,A4*%
%TO.N,/A4*%
X127693508Y-78343477D03*
%TO.P,A1,10,A5*%
%TO.N,/A5*%
X125153508Y-78343477D03*
%TO.P,A1,11,SCK*%
%TO.N,/D24*%
X122613508Y-78343477D03*
%TO.P,A1,12,MOSI*%
%TO.N,/SCL1*%
X120073508Y-78343477D03*
%TO.P,A1,13,MISO*%
%TO.N,/SDA1*%
X117533508Y-78343477D03*
%TO.P,A1,14,RX*%
%TO.N,unconnected-(A1-RX-Pad14)*%
X114993508Y-78343477D03*
%TO.P,A1,15,TX*%
%TO.N,unconnected-(A1-TX-Pad15)*%
X112453508Y-78343477D03*
%TO.P,A1,16,SPARE*%
%TO.N,/D2*%
X109913508Y-78343477D03*
%TO.P,A1,17,SDA*%
%TO.N,/SDA0*%
X109913508Y-98663477D03*
%TO.P,A1,18,SCL*%
%TO.N,/SCL0*%
X112453508Y-98663477D03*
%TO.P,A1,19,D0*%
%TO.N,/D5*%
X114993508Y-98663477D03*
%TO.P,A1,20,D1*%
%TO.N,/D6*%
X117533508Y-98663477D03*
%TO.P,A1,21,D2*%
%TO.N,/D7*%
X120073508Y-98663477D03*
%TO.P,A1,22,D3*%
%TO.N,/D8*%
X122613508Y-98663477D03*
%TO.P,A1,23,D4*%
%TO.N,/D11*%
X125153508Y-98663477D03*
%TO.P,A1,24,D5*%
%TO.N,/D12*%
X127693508Y-98663477D03*
%TO.P,A1,25,D6*%
%TO.N,/D13*%
X130233508Y-98663477D03*
%TO.P,A1,26,USB*%
%TO.N,unconnected-(A1-USB-Pad26)*%
X132773508Y-98663477D03*
%TO.P,A1,27,EN*%
%TO.N,unconnected-(A1-EN-Pad27)*%
X135313508Y-98663477D03*
%TO.P,A1,28,VBAT*%
%TO.N,unconnected-(A1-VBAT-Pad28)*%
X137853508Y-98663477D03*
%TD*%
D18*
%TO.P,C5,2*%
%TO.N,GND*%
X148326941Y-105111181D03*
%TO.P,C5,1*%
%TO.N,Net-(U3-V3P3)*%
X148326941Y-103036181D03*
%TD*%
D17*
%TO.P,C12,2*%
%TO.N,GND*%
X132459504Y-106720000D03*
D16*
%TO.P,C12,1*%
%TO.N,+BATT*%
X132459504Y-109220000D03*
%TD*%
D19*
%TO.P,C9,2*%
%TO.N,+BATT*%
X109749500Y-118110000D03*
%TO.P,C9,1*%
%TO.N,GND*%
X107674500Y-118110000D03*
%TD*%
D20*
%TO.P,J2,6,Pin_6*%
%TO.N,/A4*%
X102870000Y-102970000D03*
%TO.P,J2,5,Pin_5*%
%TO.N,/A3*%
X102870000Y-104220000D03*
%TO.P,J2,4,Pin_4*%
%TO.N,+3V3*%
X102870000Y-105470000D03*
%TO.P,J2,3,Pin_3*%
%TO.N,/SDA0*%
X102870000Y-106720000D03*
%TO.P,J2,2,Pin_2*%
%TO.N,/SCL0*%
X102870000Y-107970000D03*
D21*
%TO.P,J2,1,Pin_1*%
%TO.N,GND*%
X102870000Y-109220000D03*
%TD*%
D22*
%TO.P,R1,2*%
%TO.N,/A3*%
X131000000Y-84000000D03*
%TO.P,R1,1*%
%TO.N,GND*%
X133000000Y-84000000D03*
%TD*%
D10*
%TO.P,U2,1,VCC*%
%TO.N,+3V3*%
X152400000Y-62230000D03*
D11*
%TO.P,U2,2,GND*%
%TO.N,GND*%
X149860000Y-62230000D03*
%TO.P,U2,3,SCL*%
%TO.N,/SCL1*%
X147320000Y-62230000D03*
%TO.P,U2,4,SDA*%
%TO.N,/SDA1*%
X144780000Y-62230000D03*
%TO.P,U2,5,XDA*%
%TO.N,unconnected-(U2-XDA-Pad5)*%
X142240000Y-62230000D03*
%TO.P,U2,6,XCL*%
%TO.N,unconnected-(U2-XCL-Pad6)*%
X139700000Y-62230000D03*
%TO.P,U2,7,ADD*%
%TO.N,unconnected-(U2-ADD-Pad7)*%
X137160000Y-62230000D03*
%TO.P,U2,8,INT*%
%TO.N,/D2*%
X134620000Y-62230000D03*
%TD*%
D19*
%TO.P,C2,2*%
%TO.N,+BATT*%
X141118500Y-116967000D03*
%TO.P,C2,1*%
%TO.N,GND*%
X139043500Y-116967000D03*
%TD*%
D17*
%TO.P,C6,2*%
%TO.N,GND*%
X120903131Y-106743475D03*
D16*
%TO.P,C6,1*%
%TO.N,+BATT*%
X120903131Y-109243475D03*
%TD*%
D23*
%TO.P,C3,2*%
%TO.N,+BATT*%
X146028500Y-115773200D03*
%TO.P,C3,1*%
%TO.N,GND*%
X148103500Y-115773200D03*
%TD*%
D18*
%TO.P,C10,2*%
%TO.N,+BATT*%
X102736721Y-114033662D03*
%TO.P,C10,1*%
%TO.N,Net-(U5-VCP)*%
X102736721Y-111958662D03*
%TD*%
D11*
%TO.P,J4,3,Pin_3*%
%TO.N,/ml3*%
X132458022Y-120129395D03*
%TO.P,J4,2,Pin_2*%
%TO.N,/ml2*%
X132458022Y-117589395D03*
D10*
%TO.P,J4,1,Pin_1*%
%TO.N,/ml1*%
X132458022Y-115049395D03*
%TD*%
D22*
%TO.P,R2,1*%
%TO.N,GND*%
X133500000Y-81460000D03*
%TO.P,R2,2*%
%TO.N,/A2*%
X131500000Y-81460000D03*
%TD*%
D23*
%TO.P,C8,2*%
%TO.N,+BATT*%
X114684900Y-116281200D03*
%TO.P,C8,1*%
%TO.N,GND*%
X116759900Y-116281200D03*
%TD*%
D20*
%TO.P,J3,6,Pin_6*%
%TO.N,/A1*%
X152352665Y-103523443D03*
%TO.P,J3,5,Pin_5*%
%TO.N,/A2*%
X152352665Y-104773443D03*
%TO.P,J3,4,Pin_4*%
%TO.N,+3V3*%
X152352665Y-106023443D03*
%TO.P,J3,3,Pin_3*%
%TO.N,/SDA1*%
X152352665Y-107273443D03*
%TO.P,J3,2,Pin_2*%
%TO.N,/SCL1*%
X152352665Y-108523443D03*
D21*
%TO.P,J3,1,Pin_1*%
%TO.N,GND*%
X152352665Y-109773443D03*
%TD*%
D24*
%TO.P,U5,29,TH_PAD*%
%TO.N,GND*%
X116018000Y-110002000D03*
X114768000Y-110002000D03*
X113518000Y-110002000D03*
X112268000Y-110002000D03*
X111018000Y-110002000D03*
X109768000Y-110002000D03*
X108518000Y-110002000D03*
X116018000Y-111252000D03*
X114768000Y-111252000D03*
X113518000Y-111252000D03*
D25*
X112268000Y-111252000D03*
D24*
X112268000Y-111252000D03*
X111018000Y-111252000D03*
X109768000Y-111252000D03*
X108518000Y-111252000D03*
X116018000Y-112502000D03*
X114768000Y-112502000D03*
X113518000Y-112502000D03*
X112268000Y-112502000D03*
X111018000Y-112502000D03*
X109768000Y-112502000D03*
X108518000Y-112502000D03*
D26*
%TO.P,U5,28,GND*%
X108043000Y-108452000D03*
%TO.P,U5,27,IN1*%
%TO.N,/D6*%
X108693000Y-108452000D03*
%TO.P,U5,26,EN1*%
%TO.N,/D5*%
X109343000Y-108452000D03*
%TO.P,U5,25,IN2*%
%TO.N,/D7*%
X109993000Y-108452000D03*
%TO.P,U5,24,EN2*%
%TO.N,/D5*%
X110643000Y-108452000D03*
%TO.P,U5,23,IN3*%
%TO.N,/D8*%
X111293000Y-108452000D03*
%TO.P,U5,22,EN3*%
%TO.N,/D5*%
X111943000Y-108452000D03*
%TO.P,U5,21*%
%TO.N,N/C*%
X112593000Y-108452000D03*
%TO.P,U5,20,GND*%
%TO.N,GND*%
X113243000Y-108452000D03*
%TO.P,U5,19*%
%TO.N,N/C*%
X113893000Y-108452000D03*
%TO.P,U5,18,NFAULT*%
%TO.N,unconnected-(U5-NFAULT-Pad18)*%
X114543000Y-108452000D03*
%TO.P,U5,17,NSLEEP*%
%TO.N,Net-(U5-NRESET)*%
X115193000Y-108452000D03*
%TO.P,U5,16,NRESET*%
X115843000Y-108452000D03*
%TO.P,U5,15,V3P3*%
%TO.N,Net-(U5-V3P3)*%
X116493000Y-108452000D03*
%TO.P,U5,14,GND*%
%TO.N,GND*%
X116493000Y-114052000D03*
%TO.P,U5,13,COMPN*%
X115843000Y-114052000D03*
%TO.P,U5,12,COMPP*%
X115193000Y-114052000D03*
%TO.P,U5,11,VM2*%
%TO.N,+BATT*%
X114543000Y-114052000D03*
%TO.P,U5,10,PGND3*%
%TO.N,GND*%
X113893000Y-114052000D03*
%TO.P,U5,9,OUT3*%
%TO.N,/mr3*%
X113243000Y-114052000D03*
%TO.P,U5,8,OUT2*%
%TO.N,/mr2*%
X112593000Y-114052000D03*
%TO.P,U5,7,PGND2*%
%TO.N,GND*%
X111943000Y-114052000D03*
%TO.P,U5,6,PGND1*%
X111293000Y-114052000D03*
%TO.P,U5,5,OUT1*%
%TO.N,/mr1*%
X110643000Y-114052000D03*
%TO.P,U5,4,VM1*%
%TO.N,+BATT*%
X109993000Y-114052000D03*
%TO.P,U5,3,VCP*%
%TO.N,Net-(U5-VCP)*%
X109343000Y-114052000D03*
%TO.P,U5,2,CPH*%
%TO.N,Net-(U5-CPH)*%
X108693000Y-114052000D03*
%TO.P,U5,1,CPL*%
%TO.N,Net-(U5-CPL)*%
X108043000Y-114052000D03*
%TD*%
D18*
%TO.P,C7,2*%
%TO.N,Net-(U5-CPH)*%
X105257600Y-114016700D03*
%TO.P,C7,1*%
%TO.N,Net-(U5-CPL)*%
X105257600Y-111941700D03*
%TD*%
D14*
%TO.P,R3,1*%
%TO.N,+BATT*%
X112792000Y-85852000D03*
%TO.P,R3,2*%
%TO.N,/A5*%
X114792000Y-85852000D03*
%TD*%
D10*
%TO.P,J6,1,Pin_1*%
%TO.N,/mr1*%
X122082486Y-120126085D03*
D11*
%TO.P,J6,2,Pin_2*%
%TO.N,/mr2*%
X122082486Y-117586085D03*
%TO.P,J6,3,Pin_3*%
%TO.N,/mr3*%
X122082486Y-115046085D03*
%TD*%
D27*
%TO.P,SW1,1,A*%
%TO.N,/Bat+ Post Switch*%
X127215471Y-68548518D03*
D28*
%TO.P,SW1,2,B*%
%TO.N,/Bat+ Raw*%
X122465471Y-68548518D03*
%TO.P,SW1,3,C*%
%TO.N,unconnected-(SW1-C-Pad3)*%
X117715471Y-68548518D03*
%TD*%
D29*
%TO.P,D1,1,K*%
%TO.N,+BATT*%
X112456448Y-74333131D03*
%TO.P,D1,2,A*%
%TO.N,/Bat+ Post Switch*%
X116856448Y-74333131D03*
%TD*%
D23*
%TO.P,C13,1*%
%TO.N,/A5*%
X124037500Y-83000000D03*
%TO.P,C13,2*%
%TO.N,GND*%
X121962500Y-83000000D03*
%TD*%
D22*
%TO.P,R4,1*%
%TO.N,/A5*%
X114792000Y-87884000D03*
%TO.P,R4,2*%
%TO.N,GND*%
X112792000Y-87884000D03*
%TD*%
D24*
%TO.P,U3,29,TH_PAD*%
%TO.N,GND*%
X147260000Y-109240000D03*
X146010000Y-109240000D03*
X144760000Y-109240000D03*
X143510000Y-109240000D03*
X142260000Y-109240000D03*
X141010000Y-109240000D03*
X139760000Y-109240000D03*
X147260000Y-110490000D03*
X146010000Y-110490000D03*
X144760000Y-110490000D03*
D25*
X143510000Y-110490000D03*
D24*
X143510000Y-110490000D03*
X142260000Y-110490000D03*
X141010000Y-110490000D03*
X139760000Y-110490000D03*
X147260000Y-111740000D03*
X146010000Y-111740000D03*
X144760000Y-111740000D03*
X143510000Y-111740000D03*
X142260000Y-111740000D03*
X141010000Y-111740000D03*
X139760000Y-111740000D03*
D26*
%TO.P,U3,28,GND*%
X139285000Y-107690000D03*
%TO.P,U3,27,IN1*%
%TO.N,/D12*%
X139935000Y-107690000D03*
%TO.P,U3,26,EN1*%
%TO.N,/D11*%
X140585000Y-107690000D03*
%TO.P,U3,25,IN2*%
%TO.N,/D13*%
X141235000Y-107690000D03*
%TO.P,U3,24,EN2*%
%TO.N,/D11*%
X141885000Y-107690000D03*
%TO.P,U3,23,IN3*%
%TO.N,/D24*%
X142535000Y-107690000D03*
%TO.P,U3,22,EN3*%
%TO.N,/D11*%
X143185000Y-107690000D03*
%TO.P,U3,21*%
%TO.N,N/C*%
X143835000Y-107690000D03*
%TO.P,U3,20,GND*%
%TO.N,GND*%
X144485000Y-107690000D03*
%TO.P,U3,19*%
%TO.N,N/C*%
X145135000Y-107690000D03*
%TO.P,U3,18,NFAULT*%
%TO.N,unconnected-(U3-NFAULT-Pad18)*%
X145785000Y-107690000D03*
%TO.P,U3,17,NSLEEP*%
%TO.N,Net-(U3-NRESET)*%
X146435000Y-107690000D03*
%TO.P,U3,16,NRESET*%
X147085000Y-107690000D03*
%TO.P,U3,15,V3P3*%
%TO.N,Net-(U3-V3P3)*%
X147735000Y-107690000D03*
%TO.P,U3,14,GND*%
%TO.N,GND*%
X147735000Y-113290000D03*
%TO.P,U3,13,COMPN*%
X147085000Y-113290000D03*
%TO.P,U3,12,COMPP*%
X146435000Y-113290000D03*
%TO.P,U3,11,VM2*%
%TO.N,+BATT*%
X145785000Y-113290000D03*
%TO.P,U3,10,PGND3*%
%TO.N,GND*%
X145135000Y-113290000D03*
%TO.P,U3,9,OUT3*%
%TO.N,/ml3*%
X144485000Y-113290000D03*
%TO.P,U3,8,OUT2*%
%TO.N,/ml2*%
X143835000Y-113290000D03*
%TO.P,U3,7,PGND2*%
%TO.N,GND*%
X143185000Y-113290000D03*
%TO.P,U3,6,PGND1*%
X142535000Y-113290000D03*
%TO.P,U3,5,OUT1*%
%TO.N,/ml1*%
X141885000Y-113290000D03*
%TO.P,U3,4,VM1*%
%TO.N,+BATT*%
X141235000Y-113290000D03*
%TO.P,U3,3,VCP*%
%TO.N,Net-(U3-VCP)*%
X140585000Y-113290000D03*
%TO.P,U3,2,CPH*%
%TO.N,Net-(U3-CPH)*%
X139935000Y-113290000D03*
%TO.P,U3,1,CPL*%
%TO.N,Net-(U3-CPL)*%
X139285000Y-113290000D03*
%TD*%
D14*
%TO.P,R5,1*%
%TO.N,+3V3*%
X112792000Y-81280000D03*
%TO.P,R5,2*%
%TO.N,/SDA1*%
X114792000Y-81280000D03*
%TD*%
D19*
%TO.P,C11,2*%
%TO.N,GND*%
X121920000Y-104140000D03*
%TO.P,C11,1*%
%TO.N,Net-(U5-V3P3)*%
X119845000Y-104140000D03*
%TD*%
D18*
%TO.P,C1,2*%
%TO.N,Net-(U3-CPH)*%
X136906000Y-111832300D03*
%TO.P,C1,1*%
%TO.N,Net-(U3-CPL)*%
X136906000Y-109757300D03*
%TD*%
%TO.P,C4,2*%
%TO.N,+BATT*%
X136906000Y-115718500D03*
%TO.P,C4,1*%
%TO.N,Net-(U3-VCP)*%
X136906000Y-113643500D03*
%TD*%
D14*
%TO.P,R6,1*%
%TO.N,+3V3*%
X112792000Y-83312000D03*
%TO.P,R6,2*%
%TO.N,/SCL1*%
X114792000Y-83312000D03*
%TD*%
D30*
%TO.P,U1,3,Vin*%
%TO.N,+BATT*%
X109220000Y-74295000D03*
%TO.P,U1,2,Vout*%
%TO.N,+3V3*%
X106680000Y-74295000D03*
D31*
%TO.P,U1,1,GND*%
%TO.N,GND*%
X104140000Y-74295000D03*
%TD*%
D32*
%TO.N,/A4*%
X110000000Y-96000000D03*
X115500000Y-96000000D03*
%TO.N,/A1*%
X148512653Y-100487348D03*
%TO.N,GND*%
X106500000Y-110270000D03*
X105230000Y-110270000D03*
X105230000Y-109000000D03*
X106500000Y-109000000D03*
X149730000Y-113270000D03*
X149730000Y-112000000D03*
X151000000Y-113270000D03*
X151000000Y-112000000D03*
%TO.N,/A3*%
X110000000Y-97000000D03*
X115570000Y-97000000D03*
%TO.N,+3V3*%
X137070015Y-72479985D03*
%TO.N,GND*%
X120500000Y-83500000D03*
X112776000Y-89916000D03*
X135000000Y-84000000D03*
X149555200Y-115722400D03*
X107061000Y-119761000D03*
X137414000Y-118160800D03*
%TO.N,/A2*%
X146000000Y-101500000D03*
%TO.N,/D24*%
X135890000Y-91440000D03*
%TO.N,/SDA1*%
X142240000Y-81280000D03*
X138430000Y-75926914D03*
%TO.N,/D5*%
X110744000Y-105156000D03*
X107696000Y-105156000D03*
X112268000Y-105156000D03*
X109220000Y-105156000D03*
%TO.N,/D11*%
X140328646Y-105056895D03*
X141899054Y-105069054D03*
X143450452Y-105107530D03*
%TO.N,+BATT*%
X114454743Y-118726758D03*
X140345873Y-117911043D03*
X145846800Y-118668800D03*
X147116800Y-117398800D03*
X140343656Y-118819975D03*
X108458000Y-119761000D03*
X141615873Y-117911043D03*
X115724743Y-117456758D03*
X106680000Y-85852000D03*
X109728000Y-119761000D03*
X115724743Y-118726758D03*
X108453058Y-120744243D03*
X145846800Y-117398800D03*
X114454743Y-117456758D03*
X141647924Y-118842081D03*
X147116800Y-118668800D03*
X109723058Y-120744243D03*
%TD*%
D33*
%TO.N,+3V3*%
X153552185Y-86422154D02*
X145473508Y-78343477D01*
X153552185Y-105573923D02*
X153552185Y-86422154D01*
X153102665Y-106023443D02*
X153552185Y-105573923D01*
X152352665Y-106023443D02*
X153102665Y-106023443D01*
D34*
X106680000Y-74247500D02*
X106680000Y-74295000D01*
X130590030Y-66000000D02*
X114927500Y-66000000D01*
X137070015Y-72479985D02*
X130590030Y-66000000D01*
X114927500Y-66000000D02*
X106680000Y-74247500D01*
D35*
%TO.N,/A3*%
X128570000Y-84000000D02*
X115570000Y-97000000D01*
X131000000Y-84000000D02*
X128570000Y-84000000D01*
%TO.N,/A4*%
X115500000Y-96000000D02*
X127693508Y-83806492D01*
X127693508Y-83806492D02*
X127693508Y-78343477D01*
%TO.N,/A3*%
X109985994Y-97000000D02*
X110000000Y-97000000D01*
X107555546Y-100034454D02*
X107555546Y-99430448D01*
X103370000Y-104220000D02*
X107555546Y-100034454D01*
X107555546Y-99430448D02*
X109985994Y-97000000D01*
X102870000Y-104220000D02*
X103370000Y-104220000D01*
%TO.N,/A4*%
X109974695Y-96000000D02*
X103004695Y-102970000D01*
X110000000Y-96000000D02*
X109974695Y-96000000D01*
X103004695Y-102970000D02*
X102870000Y-102970000D01*
%TO.N,/A5*%
X124037500Y-83000000D02*
X125153508Y-81883992D01*
X125153508Y-81883992D02*
X125153508Y-78343477D01*
%TO.N,/A2*%
X132000000Y-81960000D02*
X131500000Y-81460000D01*
X146000000Y-101500000D02*
X146000000Y-99000000D01*
X132000000Y-85000000D02*
X132000000Y-81960000D01*
X146000000Y-99000000D02*
X132000000Y-85000000D01*
%TO.N,/A1*%
X137025305Y-89000000D02*
X148512653Y-100487348D01*
X137000000Y-80029969D02*
X137000000Y-89000000D01*
X137000000Y-89000000D02*
X137025305Y-89000000D01*
X135313508Y-78343477D02*
X137000000Y-80029969D01*
%TO.N,/SCL1*%
X152186618Y-108523443D02*
X152352665Y-108523443D01*
X142239520Y-92956263D02*
X150000000Y-100716743D01*
X150000000Y-106336825D02*
X152186618Y-108523443D01*
X142239520Y-82549520D02*
X142239520Y-92956263D01*
X150000000Y-100716743D02*
X150000000Y-106336825D01*
X139094194Y-79404194D02*
X142239520Y-82549520D01*
X139099270Y-79399118D02*
X139094194Y-79404194D01*
X139099270Y-76651414D02*
X139099270Y-79399118D01*
%TO.N,/SDA1*%
X152186618Y-107273443D02*
X152352665Y-107273443D01*
X150500000Y-100580347D02*
X150500000Y-105586825D01*
X150500000Y-105586825D02*
X152186618Y-107273443D01*
X142689520Y-92769867D02*
X150500000Y-100580347D01*
X142240000Y-81914282D02*
X142689520Y-82363803D01*
X142689520Y-82363803D02*
X142689520Y-92769867D01*
X142240000Y-81280000D02*
X142240000Y-81914282D01*
%TO.N,/A2*%
X132773508Y-80186492D02*
X132773508Y-78343477D01*
X131500000Y-81460000D02*
X132773508Y-80186492D01*
%TO.N,GND*%
X133000000Y-84000000D02*
X133000000Y-81960000D01*
X133000000Y-81960000D02*
X133500000Y-81460000D01*
%TO.N,/A3*%
X130075000Y-78501985D02*
X130233508Y-78343477D01*
X130075000Y-83075000D02*
X130075000Y-78501985D01*
X131000000Y-84000000D02*
X130075000Y-83075000D01*
%TO.N,GND*%
X135000000Y-84000000D02*
X133000000Y-84000000D01*
%TO.N,/A5*%
X125153508Y-78343477D02*
X124631218Y-78343477D01*
%TO.N,/A3*%
X102870000Y-104220000D02*
X102220000Y-104220000D01*
D33*
%TO.N,+3V3*%
X101186535Y-104536535D02*
X102120000Y-105470000D01*
X102120000Y-105470000D02*
X102870000Y-105470000D01*
X101186535Y-93980000D02*
X101186535Y-104536535D01*
D35*
%TO.N,/A5*%
X121223000Y-85852000D02*
X124075000Y-83000000D01*
X114792000Y-85852000D02*
X121223000Y-85852000D01*
%TO.N,/D24*%
X122500000Y-78456985D02*
X122613508Y-78343477D01*
D36*
%TO.N,+BATT*%
X120926606Y-109220000D02*
X120903131Y-109243475D01*
X132459504Y-109220000D02*
X120926606Y-109220000D01*
D35*
%TO.N,GND*%
X120903131Y-105156869D02*
X120903131Y-106743475D01*
X121920000Y-104140000D02*
X120903131Y-105156869D01*
D34*
X108752000Y-111252000D02*
X112268000Y-111252000D01*
X106500000Y-109000000D02*
X108752000Y-111252000D01*
X106270000Y-110270000D02*
X107252000Y-111252000D01*
X107252000Y-111252000D02*
X112268000Y-111252000D01*
X105230000Y-110270000D02*
X106270000Y-110270000D01*
X111286000Y-110270000D02*
X112268000Y-111252000D01*
X106500000Y-110270000D02*
X111286000Y-110270000D01*
X151000000Y-112000000D02*
X149490000Y-110490000D01*
X149490000Y-110490000D02*
X143510000Y-110490000D01*
X146950000Y-110490000D02*
X143510000Y-110490000D01*
X149730000Y-113270000D02*
X146950000Y-110490000D01*
X148220000Y-110490000D02*
X143510000Y-110490000D01*
X149730000Y-112000000D02*
X148220000Y-110490000D01*
D35*
%TO.N,/D2*%
X117810000Y-76500000D02*
X111756985Y-76500000D01*
X118560000Y-75750000D02*
X117810000Y-76500000D01*
X136340000Y-75750000D02*
X118560000Y-75750000D01*
X111756985Y-76500000D02*
X109913508Y-78343477D01*
X138430000Y-72390000D02*
X138430000Y-73660000D01*
X134620000Y-68580000D02*
X138430000Y-72390000D01*
X138430000Y-73660000D02*
X136340000Y-75750000D01*
X134620000Y-62230000D02*
X134620000Y-68580000D01*
D37*
%TO.N,+BATT*%
X102736721Y-114200859D02*
X102736721Y-114033662D01*
X105129200Y-115629200D02*
X104165062Y-115629200D01*
X106097000Y-116597000D02*
X105129200Y-115629200D01*
X104165062Y-115629200D02*
X102736721Y-114200859D01*
X109861056Y-116597000D02*
X106097000Y-116597000D01*
%TO.N,Net-(U5-VCP)*%
X103936721Y-114392204D02*
X103936721Y-113158662D01*
X104523717Y-114979200D02*
X103936721Y-114392204D01*
X103936721Y-113158662D02*
X102736721Y-111958662D01*
X106395269Y-115932187D02*
X105442282Y-114979200D01*
X109343000Y-115536374D02*
X108947187Y-115932187D01*
X109343000Y-114052000D02*
X109343000Y-115536374D01*
X108947187Y-115932187D02*
X106395269Y-115932187D01*
X105442282Y-114979200D02*
X104523717Y-114979200D01*
D35*
%TO.N,+BATT*%
X102736721Y-114033662D02*
X102736721Y-114130149D01*
D33*
%TO.N,/ml3*%
X133970948Y-121450000D02*
X132484546Y-119963598D01*
X143345678Y-121450000D02*
X133970948Y-121450000D01*
X144780000Y-120015678D02*
X143345678Y-121450000D01*
X144780000Y-115570000D02*
X144780000Y-120015678D01*
%TO.N,/ml2*%
X132484546Y-117962505D02*
X132484546Y-117423598D01*
X135172041Y-120650000D02*
X132484546Y-117962505D01*
X143014308Y-120650000D02*
X135172041Y-120650000D01*
X143748963Y-119915345D02*
X143014308Y-120650000D01*
X143748963Y-115252598D02*
X143748963Y-119915345D01*
X143751858Y-115249703D02*
X143748963Y-115252598D01*
%TO.N,/ml1*%
X132484546Y-115422505D02*
X132484546Y-114883598D01*
X142041427Y-119792081D02*
X136854122Y-119792081D01*
X142875000Y-118958508D02*
X142041427Y-119792081D01*
X136854122Y-119792081D02*
X132484546Y-115422505D01*
X142875000Y-115570000D02*
X142875000Y-118958508D01*
%TO.N,/mr1*%
X120931813Y-121276758D02*
X122082486Y-120126085D01*
X112386758Y-121276758D02*
X120931813Y-121276758D01*
X110910576Y-119800576D02*
X112386758Y-121276758D01*
X110910576Y-115644242D02*
X110910576Y-119800576D01*
%TO.N,/mr2*%
X121005317Y-117586085D02*
X122082486Y-117586085D01*
X112717450Y-120476758D02*
X118114644Y-120476758D01*
X112023868Y-119783176D02*
X112717450Y-120476758D01*
X112023868Y-115677228D02*
X112023868Y-119783176D01*
%TO.N,/mr3*%
X117783274Y-119676758D02*
X122082486Y-115377546D01*
X113243000Y-119469815D02*
X113449943Y-119676758D01*
X113243000Y-115653853D02*
X113243000Y-119469815D01*
X113449943Y-119676758D02*
X117783274Y-119676758D01*
X122082486Y-115377546D02*
X122082486Y-115046085D01*
%TO.N,/mr2*%
X118114644Y-120476758D02*
X121005317Y-117586085D01*
D34*
%TO.N,+BATT*%
X114684900Y-116281200D02*
X115163600Y-116759900D01*
X115163600Y-116759900D02*
X115163600Y-118110000D01*
D35*
%TO.N,Net-(U5-NRESET)*%
X115193000Y-108452000D02*
X115843000Y-108452000D01*
X115193000Y-107049594D02*
X115193000Y-108452000D01*
X114160219Y-106016813D02*
X115193000Y-107049594D01*
X114160219Y-105549781D02*
X114300000Y-105410000D01*
X114160219Y-106016813D02*
X114160219Y-105549781D01*
%TO.N,Net-(U5-V3P3)*%
X116493000Y-106349594D02*
X116493000Y-108452000D01*
X116160219Y-106016813D02*
X116493000Y-106349594D01*
X119380000Y-104140000D02*
X119845000Y-104140000D01*
X118110000Y-105410000D02*
X119380000Y-104140000D01*
X118110000Y-106835000D02*
X118110000Y-105410000D01*
X116493000Y-108452000D02*
X118110000Y-106835000D01*
%TO.N,Net-(U3-NRESET)*%
X146050000Y-105140000D02*
X146435000Y-105525000D01*
X146435000Y-105525000D02*
X146435000Y-107690000D01*
%TO.N,GND*%
X148326941Y-108698059D02*
X148326941Y-105111181D01*
X146535000Y-110490000D02*
X148326941Y-108698059D01*
X143510000Y-110490000D02*
X146535000Y-110490000D01*
%TO.N,Net-(U3-V3P3)*%
X147735000Y-106740000D02*
X147735000Y-107690000D01*
X147276941Y-106281941D02*
X147735000Y-106740000D01*
X148326941Y-103036181D02*
X147276941Y-104086181D01*
X147276941Y-104086181D02*
X147276941Y-106281941D01*
%TO.N,Net-(U3-NRESET)*%
X146435000Y-107690000D02*
X147085000Y-107690000D01*
X146050000Y-105140000D02*
X146050000Y-105410000D01*
%TO.N,Net-(U3-V3P3)*%
X148006401Y-103042816D02*
X146147184Y-103042816D01*
X146147184Y-103042816D02*
X146050000Y-103140000D01*
D33*
%TO.N,+3V3*%
X111404951Y-92710000D02*
X112006828Y-92108123D01*
X101186535Y-92710000D02*
X111404951Y-92710000D01*
X101186535Y-92710000D02*
X101186535Y-86773465D01*
X101186535Y-93980000D02*
X101186535Y-92710000D01*
X111688491Y-93980000D02*
X112030000Y-94321509D01*
X101186535Y-93980000D02*
X111688491Y-93980000D01*
D35*
%TO.N,/SCL0*%
X114955000Y-93056295D02*
X114006828Y-92108123D01*
X112453508Y-97511174D02*
X114955000Y-95009682D01*
X114955000Y-95009682D02*
X114955000Y-93056295D01*
X112453508Y-98663477D02*
X112453508Y-97511174D01*
%TO.N,/SDA0*%
X114030000Y-94546985D02*
X114030000Y-94321509D01*
X109913508Y-98663477D02*
X114030000Y-94546985D01*
D36*
%TO.N,/Bat+ Post Switch*%
X125341489Y-73660000D02*
X117529579Y-73660000D01*
X127215471Y-71786018D02*
X125341489Y-73660000D01*
X117529579Y-73660000D02*
X116856448Y-74333131D01*
%TO.N,+BATT*%
X112456448Y-74333131D02*
X112418317Y-74295000D01*
X112418317Y-74295000D02*
X109220000Y-74295000D01*
%TO.N,/Bat+ Post Switch*%
X127215471Y-68548518D02*
X127215471Y-71786018D01*
D34*
%TO.N,GND*%
X114293000Y-111252000D02*
X112268000Y-111252000D01*
X116759900Y-113718900D02*
X114293000Y-111252000D01*
X116759900Y-116281200D02*
X116759900Y-113718900D01*
D33*
%TO.N,/A3*%
X102870000Y-104220000D02*
X102370000Y-104220000D01*
%TO.N,+3V3*%
X112792000Y-81280000D02*
X106680000Y-81280000D01*
X101186535Y-86773465D02*
X104648000Y-83312000D01*
X106680000Y-81280000D02*
X106680000Y-74295000D01*
X112792000Y-83312000D02*
X105156000Y-83312000D01*
X105156000Y-83312000D02*
X104902000Y-83058000D01*
%TO.N,/A2*%
X151852665Y-104773443D02*
X152695489Y-104773443D01*
%TO.N,+3V3*%
X105156000Y-83312000D02*
X104648000Y-83312000D01*
X152400000Y-62230000D02*
X152400000Y-71416985D01*
D35*
%TO.N,/A2*%
X152352665Y-104773443D02*
X151852665Y-104773443D01*
D33*
%TO.N,+3V3*%
X104648000Y-83312000D02*
X104902000Y-83058000D01*
X152400000Y-71416985D02*
X145473508Y-78343477D01*
X104902000Y-83058000D02*
X106680000Y-81280000D01*
D35*
%TO.N,GND*%
X145135000Y-112115000D02*
X143510000Y-110490000D01*
D34*
X107061000Y-118723500D02*
X107061000Y-119761000D01*
D35*
X147735000Y-113290000D02*
X147735000Y-112215000D01*
X143185000Y-112065000D02*
X143510000Y-111740000D01*
D37*
X112776000Y-89916000D02*
X112776000Y-87905500D01*
D35*
X111943000Y-112827000D02*
X112268000Y-112502000D01*
D34*
X137849700Y-118160800D02*
X137414000Y-118160800D01*
D35*
X111943000Y-114052000D02*
X111943000Y-112827000D01*
X139285000Y-108740000D02*
X141035000Y-110490000D01*
X147085000Y-113290000D02*
X147085000Y-111915000D01*
X113243000Y-108452000D02*
X113244331Y-109991687D01*
X141035000Y-110490000D02*
X143510000Y-110490000D01*
X143185000Y-113290000D02*
X143185000Y-112065000D01*
X142535000Y-113290000D02*
X142535000Y-112015000D01*
X116493000Y-114052000D02*
X116505015Y-112467816D01*
X142535000Y-112015000D02*
X142260000Y-111740000D01*
D34*
X149504400Y-115773200D02*
X149555200Y-115722400D01*
D35*
X108043000Y-108452000D02*
X108051446Y-109883823D01*
X144685000Y-110490000D02*
X143510000Y-110490000D01*
D34*
X139043500Y-116967000D02*
X137849700Y-118160800D01*
D35*
X144485000Y-109515000D02*
X143510000Y-110490000D01*
X146660000Y-110490000D02*
X143510000Y-110490000D01*
X111293000Y-112777000D02*
X111018000Y-112502000D01*
D34*
X107674500Y-118110000D02*
X107061000Y-118723500D01*
D37*
X121497250Y-83500000D02*
X120502750Y-83500000D01*
D35*
X139285000Y-107690000D02*
X139285000Y-108740000D01*
D34*
X148103500Y-115773200D02*
X149504400Y-115773200D01*
D35*
X146435000Y-112240000D02*
X144685000Y-110490000D01*
X144485000Y-107690000D02*
X144485000Y-109515000D01*
X145135000Y-113290000D02*
X145135000Y-112115000D01*
D37*
X113893000Y-114052000D02*
X113893163Y-112452407D01*
D35*
X147085000Y-111915000D02*
X147260000Y-111740000D01*
X148225493Y-108924507D02*
X146660000Y-110490000D01*
X146435000Y-113290000D02*
X146435000Y-112240000D01*
X115843000Y-114052000D02*
X115834717Y-112506339D01*
X147735000Y-112215000D02*
X147260000Y-111740000D01*
X111293000Y-114052000D02*
X111293000Y-112777000D01*
X113054887Y-110465113D02*
X112268000Y-111252000D01*
X115193000Y-114052000D02*
X115202941Y-112352248D01*
%TO.N,/D24*%
X142725941Y-104625941D02*
X142240000Y-104140000D01*
X142535000Y-105598574D02*
X142725941Y-105407633D01*
X142240000Y-97790000D02*
X135890000Y-91440000D01*
X142535000Y-107690000D02*
X142535000Y-105598574D01*
X142725941Y-105407633D02*
X142725941Y-104625941D01*
X142240000Y-104140000D02*
X142240000Y-97790000D01*
%TO.N,/SDA1*%
X144780000Y-69850000D02*
X144780000Y-62230000D01*
X138430000Y-75926914D02*
X138703086Y-75926914D01*
X114792000Y-81280000D02*
X114792000Y-81084985D01*
X138430000Y-75926914D02*
X138156914Y-76200000D01*
X138703086Y-75926914D02*
X144780000Y-69850000D01*
X138156914Y-76200000D02*
X119676985Y-76200000D01*
X119676985Y-76200000D02*
X117533508Y-78343477D01*
X114792000Y-81084985D02*
X117533508Y-78343477D01*
%TO.N,/SCL1*%
X135500829Y-76649520D02*
X135502723Y-76651414D01*
X115104985Y-83312000D02*
X120073508Y-78343477D01*
X114792000Y-83312000D02*
X115104985Y-83312000D01*
X147320000Y-68430684D02*
X139099270Y-76651414D01*
X135502723Y-76651414D02*
X139099270Y-76651414D01*
X121767465Y-76649520D02*
X120073508Y-78343477D01*
X147320000Y-62230000D02*
X147320000Y-68430684D01*
X121767465Y-76649520D02*
X135500829Y-76649520D01*
%TO.N,/SDA0*%
X104140000Y-105950000D02*
X104140000Y-104140000D01*
X109616523Y-98663477D02*
X109913508Y-98663477D01*
X103370000Y-106720000D02*
X104140000Y-105950000D01*
X102870000Y-106720000D02*
X103370000Y-106720000D01*
X104140000Y-104140000D02*
X109616523Y-98663477D01*
%TO.N,/SCL0*%
X103036047Y-107970000D02*
X104589520Y-106416527D01*
X104589520Y-106416527D02*
X104589520Y-104326198D01*
X104589520Y-104326198D02*
X109127730Y-99787988D01*
X111328997Y-99787988D02*
X112453508Y-98663477D01*
X102870000Y-107970000D02*
X103036047Y-107970000D01*
X109127730Y-99787988D02*
X111328997Y-99787988D01*
%TO.N,/D5*%
X109343000Y-108452000D02*
X109343000Y-105279000D01*
X114993508Y-99489992D02*
X114993508Y-98663477D01*
X110643000Y-105257000D02*
X110744000Y-105156000D01*
X110041188Y-102674480D02*
X111809020Y-102674480D01*
X109343000Y-105279000D02*
X109220000Y-105156000D01*
X107696000Y-105019668D02*
X110041188Y-102674480D01*
X111943000Y-105481000D02*
X112268000Y-105156000D01*
X111943000Y-108452000D02*
X111943000Y-105481000D01*
X107696000Y-105156000D02*
X107696000Y-105019668D01*
X111809020Y-102674480D02*
X114993508Y-99489992D01*
X110643000Y-108452000D02*
X110643000Y-105257000D01*
%TO.N,/D6*%
X108693000Y-108452000D02*
X108693000Y-107402000D01*
X108495489Y-104855897D02*
X110227386Y-103124000D01*
X108693000Y-107402000D02*
X108495489Y-107204489D01*
X113072985Y-103124000D02*
X117533508Y-98663477D01*
X110227386Y-103124000D02*
X113072985Y-103124000D01*
X108495489Y-107204489D02*
X108495489Y-104855897D01*
%TO.N,/D7*%
X114818109Y-103621891D02*
X111253495Y-103621891D01*
X119482504Y-98957496D02*
X114818109Y-103621891D01*
X120073508Y-98663477D02*
X119779489Y-98957496D01*
X109993000Y-104882386D02*
X109993000Y-108452000D01*
X111253495Y-103621891D02*
X109993000Y-104882386D01*
X119779489Y-98957496D02*
X119482504Y-98957496D01*
%TO.N,/D8*%
X111468489Y-105319793D02*
X111543489Y-105244793D01*
X111543489Y-104855897D02*
X112259386Y-104140000D01*
X111468489Y-108276511D02*
X111468489Y-105319793D01*
X111543489Y-105244793D02*
X111543489Y-104855897D01*
X117963500Y-104140000D02*
X122613508Y-99489992D01*
X122613508Y-99489992D02*
X122613508Y-98663477D01*
X112259386Y-104140000D02*
X117963500Y-104140000D01*
X111293000Y-108452000D02*
X111468489Y-108276511D01*
%TO.N,/D11*%
X143185000Y-107690000D02*
X143185000Y-105372982D01*
X140328646Y-105056895D02*
X140585000Y-105313249D01*
X143185000Y-105372982D02*
X143450452Y-105107530D01*
X140585000Y-105313249D02*
X140585000Y-107690000D01*
X141885000Y-107690000D02*
X141899054Y-105069054D01*
%TO.N,/D12*%
X138705000Y-105410000D02*
X135274500Y-105410000D01*
X139935000Y-107690000D02*
X139935000Y-106640000D01*
X139935000Y-106640000D02*
X138705000Y-105410000D01*
X128527977Y-98663477D02*
X127693508Y-98663477D01*
X135274500Y-105410000D02*
X128527977Y-98663477D01*
%TO.N,/D13*%
X136544500Y-104140000D02*
X140970000Y-104140000D01*
X141053157Y-106663983D02*
X141235000Y-106845826D01*
X141053157Y-104223157D02*
X141053157Y-106663983D01*
X130233508Y-98663477D02*
X131067977Y-98663477D01*
X140970000Y-104140000D02*
X141053157Y-104223157D01*
X141235000Y-106845826D02*
X141235000Y-107690000D01*
X131067977Y-98663477D02*
X136544500Y-104140000D01*
D37*
%TO.N,Net-(U3-CPL)*%
X139285000Y-113290000D02*
X139071000Y-113290000D01*
X138005520Y-110856820D02*
X136906000Y-109757300D01*
X138005520Y-112224520D02*
X138005520Y-110856820D01*
X139071000Y-113290000D02*
X138005520Y-112224520D01*
%TO.N,Net-(U3-CPH)*%
X138602181Y-113643977D02*
X136906000Y-111947796D01*
X139935000Y-113290000D02*
X139935000Y-114319000D01*
X139935000Y-114319000D02*
X139781819Y-114472181D01*
X138602181Y-114472181D02*
X138602181Y-113643977D01*
X136906000Y-111947796D02*
X136906000Y-111832300D01*
X139781819Y-114472181D02*
X138602181Y-114472181D01*
%TO.N,+BATT*%
X109993000Y-114052000D02*
X109993000Y-116465056D01*
D34*
X141118500Y-118461700D02*
X141173200Y-118516400D01*
X114438395Y-116527705D02*
X114684900Y-116281200D01*
D37*
X114811289Y-116552963D02*
X114543000Y-116284674D01*
D34*
X141118500Y-116967000D02*
X141118500Y-117301100D01*
X141118500Y-115494300D02*
X141235000Y-115377800D01*
X114438395Y-117878412D02*
X114438395Y-116527705D01*
X109749500Y-118110000D02*
X109861056Y-117998444D01*
X109861056Y-117998444D02*
X109861056Y-116597000D01*
D37*
X141235000Y-113290000D02*
X141235000Y-115377800D01*
X141104480Y-115711520D02*
X139811959Y-115711519D01*
D34*
X109749500Y-119739500D02*
X109728000Y-119761000D01*
D37*
X136912981Y-115711519D02*
X136906000Y-115718500D01*
D34*
X141118500Y-116967000D02*
X141118500Y-118461700D01*
D37*
X141235000Y-115377800D02*
X141235000Y-115581000D01*
D34*
X109749500Y-118469500D02*
X108458000Y-119761000D01*
X141118500Y-116967000D02*
X141118500Y-115494300D01*
D37*
X141235000Y-115581000D02*
X141104480Y-115711520D01*
D34*
X109749500Y-118110000D02*
X109749500Y-118469500D01*
D37*
X139811959Y-115711519D02*
X136912981Y-115711519D01*
X141235000Y-116723500D02*
X141118500Y-116840000D01*
X112792000Y-85852000D02*
X106680000Y-85852000D01*
D34*
X145846800Y-117398800D02*
X145846800Y-115954900D01*
D37*
X145785000Y-113290000D02*
X145785000Y-115117027D01*
D34*
X109749500Y-118110000D02*
X109749500Y-119739500D01*
D37*
X114543000Y-116284674D02*
X114543000Y-114052000D01*
D34*
X145846800Y-115954900D02*
X146028500Y-115773200D01*
D37*
X141235000Y-116977500D02*
X141118500Y-117094000D01*
%TO.N,Net-(U3-VCP)*%
X140585000Y-114558000D02*
X140081000Y-115062000D01*
X140081000Y-115062000D02*
X138324500Y-115062000D01*
X138324500Y-115062000D02*
X136906000Y-113643500D01*
X140585000Y-113290000D02*
X140585000Y-114558000D01*
%TO.N,Net-(U5-CPL)*%
X108043000Y-114052000D02*
X107367900Y-114052000D01*
X107367900Y-114052000D02*
X105257600Y-111941700D01*
%TO.N,Net-(U5-CPH)*%
X106623567Y-115382667D02*
X105257600Y-114016700D01*
X108693000Y-114052000D02*
X108693000Y-115202000D01*
X108693000Y-115202000D02*
X108512333Y-115382667D01*
X108512333Y-115382667D02*
X106623567Y-115382667D01*
%TO.N,/ml3*%
X144476150Y-114936355D02*
X144476164Y-114933631D01*
X144780000Y-115570000D02*
X144780000Y-115240205D01*
X144780000Y-115240205D02*
X144476150Y-114936355D01*
X144476164Y-114933631D02*
X144485000Y-114924795D01*
X144485000Y-114924795D02*
X144485000Y-113290000D01*
%TO.N,/ml2*%
X143835000Y-113290000D02*
X143825025Y-115250025D01*
X143823313Y-115586481D02*
X143825025Y-115250025D01*
%TO.N,/ml1*%
X141885000Y-113290000D02*
X141885000Y-114580000D01*
X141885000Y-114580000D02*
X142875000Y-115570000D01*
%TO.N,/mr2*%
X112593000Y-115108096D02*
X112023868Y-115677228D01*
X112593000Y-114052000D02*
X112593000Y-115108096D01*
%TO.N,/mr1*%
X110643000Y-115376666D02*
X110910576Y-115644242D01*
X110643000Y-114052000D02*
X110643000Y-115376666D01*
%TO.N,/mr3*%
X113243000Y-114052000D02*
X113243000Y-115653853D01*
X113243000Y-115653853D02*
X113219625Y-115677228D01*
D35*
%TO.N,/A5*%
X114829500Y-87884000D02*
X114829500Y-85889500D01*
X114829500Y-85889500D02*
X114792000Y-85852000D01*
X114776000Y-87937500D02*
X114829500Y-87884000D01*
%TD*%
%TA.AperFunction,Conductor*%
%TO.N,+BATT*%
G36*
X147512705Y-116976553D02*
G01*
X147530640Y-116994488D01*
X147537205Y-117018988D01*
X147537204Y-119065106D01*
X147522852Y-119099754D01*
X147488204Y-119114106D01*
X145475073Y-119114106D01*
X145450573Y-119107541D01*
X145432638Y-119089606D01*
X145426073Y-119065106D01*
X145426074Y-117018988D01*
X145440426Y-116984340D01*
X145475074Y-116969988D01*
X147488205Y-116969988D01*
X147512705Y-116976553D01*
G37*
%TD.AperFunction*%
%TD*%
%TA.AperFunction,Conductor*%
%TO.N,+BATT*%
G36*
X115941855Y-117042040D02*
G01*
X115959101Y-117056317D01*
X116029477Y-117149122D01*
X116129040Y-117224623D01*
X116143317Y-117241869D01*
X116148432Y-117263666D01*
X116148432Y-119077258D01*
X116134080Y-119111906D01*
X116099432Y-119126258D01*
X114086301Y-119126258D01*
X114061801Y-119119693D01*
X114043866Y-119101758D01*
X114037301Y-119077258D01*
X114037302Y-117085925D01*
X114051654Y-117051277D01*
X114086302Y-117036925D01*
X115920058Y-117036925D01*
X115941855Y-117042040D01*
G37*
%TD.AperFunction*%
%TD*%
%TA.AperFunction,Conductor*%
%TO.N,+BATT*%
G36*
X142068386Y-117504175D02*
G01*
X142082770Y-117538765D01*
X142085366Y-118949230D01*
X142081653Y-118968030D01*
X142071014Y-118983968D01*
X141961979Y-119093004D01*
X141946083Y-119103626D01*
X141927331Y-119107356D01*
X139932725Y-119107356D01*
X139898109Y-119093036D01*
X139883725Y-119058446D01*
X139883524Y-118949230D01*
X139881193Y-117683589D01*
X139884608Y-117665534D01*
X139920877Y-117573564D01*
X139925747Y-117533013D01*
X139941880Y-117502199D01*
X139974397Y-117489855D01*
X142033770Y-117489855D01*
X142068386Y-117504175D01*
G37*
%TD.AperFunction*%
%TD*%
%TA.AperFunction,Conductor*%
%TO.N,+BATT*%
G36*
X110123905Y-119338753D02*
G01*
X110141840Y-119356688D01*
X110148405Y-119381188D01*
X110148404Y-120927306D01*
X110134052Y-120961954D01*
X110099404Y-120976306D01*
X108086273Y-120976306D01*
X108061773Y-120969741D01*
X108043838Y-120951806D01*
X108037273Y-120927306D01*
X108037274Y-119381188D01*
X108051626Y-119346540D01*
X108086274Y-119332188D01*
X110099405Y-119332188D01*
X110123905Y-119338753D01*
G37*
%TD.AperFunction*%
%TD*%
%TA.AperFunction,Conductor*%
%TO.N,GND*%
G36*
X151395905Y-111577753D02*
G01*
X151413840Y-111595688D01*
X151420405Y-111620188D01*
X151420404Y-113666306D01*
X151406052Y-113700954D01*
X151371404Y-113715306D01*
X149358273Y-113715306D01*
X149333773Y-113708741D01*
X149315838Y-113690806D01*
X149309273Y-113666306D01*
X149309274Y-111620188D01*
X149323626Y-111585540D01*
X149358274Y-111571188D01*
X151371405Y-111571188D01*
X151395905Y-111577753D01*
G37*
%TD.AperFunction*%
%TD*%
%TA.AperFunction,Conductor*%
%TO.N,GND*%
G36*
X106895905Y-108577753D02*
G01*
X106913840Y-108595688D01*
X106920405Y-108620188D01*
X106920404Y-110666306D01*
X106906052Y-110700954D01*
X106871404Y-110715306D01*
X104858273Y-110715306D01*
X104833773Y-110708741D01*
X104815838Y-110690806D01*
X104809273Y-110666306D01*
X104809274Y-108620188D01*
X104823626Y-108585540D01*
X104858274Y-108571188D01*
X106871405Y-108571188D01*
X106895905Y-108577753D01*
G37*
%TD.AperFunction*%
%TD*%
M02*
