%TF.GenerationSoftware,KiCad,Pcbnew,7.0.1*%
%TF.CreationDate,2023-04-23T15:33:47-04:00*%
%TF.ProjectId,board_v2,626f6172-645f-4763-922e-6b696361645f,rev?*%
%TF.SameCoordinates,Original*%
%TF.FileFunction,Copper,L2,Bot*%
%TF.FilePolarity,Positive*%
%FSLAX46Y46*%
G04 Gerber Fmt 4.6, Leading zero omitted, Abs format (unit mm)*
G04 Created by KiCad (PCBNEW 7.0.1) date 2023-04-23 15:33:47*
%MOMM*%
%LPD*%
G01*
G04 APERTURE LIST*
%TA.AperFunction,ComponentPad*%
%ADD10R,1.700000X1.700000*%
%TD*%
%TA.AperFunction,ComponentPad*%
%ADD11O,1.700000X1.700000*%
%TD*%
%TA.AperFunction,ComponentPad*%
%ADD12C,2.600000*%
%TD*%
%TA.AperFunction,ComponentPad*%
%ADD13R,1.600000X1.600000*%
%TD*%
%TA.AperFunction,ComponentPad*%
%ADD14C,1.600000*%
%TD*%
%TA.AperFunction,ComponentPad*%
%ADD15O,1.500000X1.000000*%
%TD*%
%TA.AperFunction,ComponentPad*%
%ADD16R,1.500000X1.000000*%
%TD*%
%TA.AperFunction,ComponentPad*%
%ADD17C,0.500000*%
%TD*%
%TA.AperFunction,SMDPad,CuDef*%
%ADD18R,10.000000X6.000000*%
%TD*%
%TA.AperFunction,ComponentPad*%
%ADD19R,2.475000X2.475000*%
%TD*%
%TA.AperFunction,ComponentPad*%
%ADD20C,2.475000*%
%TD*%
%TA.AperFunction,ComponentPad*%
%ADD21O,1.905000X2.000000*%
%TD*%
%TA.AperFunction,ComponentPad*%
%ADD22R,1.905000X2.000000*%
%TD*%
%TA.AperFunction,ViaPad*%
%ADD23C,0.800000*%
%TD*%
%TA.AperFunction,Conductor*%
%ADD24C,0.250000*%
%TD*%
%TA.AperFunction,Conductor*%
%ADD25C,1.000000*%
%TD*%
%TA.AperFunction,Conductor*%
%ADD26C,2.000000*%
%TD*%
%TA.AperFunction,Conductor*%
%ADD27C,0.500000*%
%TD*%
%TA.AperFunction,Conductor*%
%ADD28C,3.000000*%
%TD*%
G04 APERTURE END LIST*
D10*
%TO.P,J1,1,Pin_1*%
%TO.N,GND*%
X104140000Y-68580000D03*
D11*
%TO.P,J1,2,Pin_2*%
%TO.N,/Bat+ Raw*%
X106680000Y-68580000D03*
%TD*%
D12*
%TO.P,REF\u002A\u002A,1*%
%TO.N,GND*%
X152000000Y-119000000D03*
%TD*%
%TO.P,REF\u002A\u002A,1*%
%TO.N,GND*%
X130500000Y-73500000D03*
%TD*%
%TO.P,REF\u002A\u002A,1*%
%TO.N,GND*%
X103000000Y-119000000D03*
%TD*%
D13*
%TO.P,A1,1,~{RESET}*%
%TO.N,unconnected-(A1-~{RESET}-Pad1)*%
X148013508Y-78343477D03*
D14*
%TO.P,A1,2,3V3*%
%TO.N,+3V3*%
X145473508Y-78343477D03*
%TO.P,A1,3,AREF*%
%TO.N,unconnected-(A1-AREF-Pad3)*%
X142933508Y-78343477D03*
%TO.P,A1,4,GND*%
%TO.N,GND*%
X140393508Y-78343477D03*
%TO.P,A1,5,A0*%
%TO.N,unconnected-(A1-A0-Pad5)*%
X137853508Y-78343477D03*
%TO.P,A1,6,A1*%
%TO.N,/A1*%
X135313508Y-78343477D03*
%TO.P,A1,7,A2*%
%TO.N,/A2*%
X132773508Y-78343477D03*
%TO.P,A1,8,A3*%
%TO.N,/A3*%
X130233508Y-78343477D03*
%TO.P,A1,9,A4*%
%TO.N,/A4*%
X127693508Y-78343477D03*
%TO.P,A1,10,A5*%
%TO.N,/A5*%
X125153508Y-78343477D03*
%TO.P,A1,11,SCK*%
%TO.N,/D24*%
X122613508Y-78343477D03*
%TO.P,A1,12,MOSI*%
%TO.N,/SCL1*%
X120073508Y-78343477D03*
%TO.P,A1,13,MISO*%
%TO.N,/SDA1*%
X117533508Y-78343477D03*
%TO.P,A1,14,RX*%
%TO.N,unconnected-(A1-RX-Pad14)*%
X114993508Y-78343477D03*
%TO.P,A1,15,TX*%
%TO.N,unconnected-(A1-TX-Pad15)*%
X112453508Y-78343477D03*
%TO.P,A1,16,SPARE*%
%TO.N,/D2*%
X109913508Y-78343477D03*
%TO.P,A1,17,SDA*%
%TO.N,/SDA0*%
X109913508Y-98663477D03*
%TO.P,A1,18,SCL*%
%TO.N,/SCL0*%
X112453508Y-98663477D03*
%TO.P,A1,19,D0*%
%TO.N,/D5*%
X114993508Y-98663477D03*
%TO.P,A1,20,D1*%
%TO.N,/D6*%
X117533508Y-98663477D03*
%TO.P,A1,21,D2*%
%TO.N,/D7*%
X120073508Y-98663477D03*
%TO.P,A1,22,D3*%
%TO.N,/D8*%
X122613508Y-98663477D03*
%TO.P,A1,23,D4*%
%TO.N,/D11*%
X125153508Y-98663477D03*
%TO.P,A1,24,D5*%
%TO.N,/D12*%
X127693508Y-98663477D03*
%TO.P,A1,25,D6*%
%TO.N,/D13*%
X130233508Y-98663477D03*
%TO.P,A1,26,USB*%
%TO.N,unconnected-(A1-USB-Pad26)*%
X132773508Y-98663477D03*
%TO.P,A1,27,EN*%
%TO.N,unconnected-(A1-EN-Pad27)*%
X135313508Y-98663477D03*
%TO.P,A1,28,VBAT*%
%TO.N,unconnected-(A1-VBAT-Pad28)*%
X137853508Y-98663477D03*
%TD*%
%TO.P,C12,2*%
%TO.N,GND*%
X132459504Y-106720000D03*
D13*
%TO.P,C12,1*%
%TO.N,+BATT*%
X132459504Y-109220000D03*
%TD*%
D15*
%TO.P,J2,6,Pin_6*%
%TO.N,/A4*%
X102870000Y-102970000D03*
%TO.P,J2,5,Pin_5*%
%TO.N,/A3*%
X102870000Y-104220000D03*
%TO.P,J2,4,Pin_4*%
%TO.N,+3V3*%
X102870000Y-105470000D03*
%TO.P,J2,3,Pin_3*%
%TO.N,/SDA0*%
X102870000Y-106720000D03*
%TO.P,J2,2,Pin_2*%
%TO.N,/SCL0*%
X102870000Y-107970000D03*
D16*
%TO.P,J2,1,Pin_1*%
%TO.N,GND*%
X102870000Y-109220000D03*
%TD*%
D10*
%TO.P,U2,1,VCC*%
%TO.N,+3V3*%
X152400000Y-62230000D03*
D11*
%TO.P,U2,2,GND*%
%TO.N,GND*%
X149860000Y-62230000D03*
%TO.P,U2,3,SCL*%
%TO.N,/SCL1*%
X147320000Y-62230000D03*
%TO.P,U2,4,SDA*%
%TO.N,/SDA1*%
X144780000Y-62230000D03*
%TO.P,U2,5,XDA*%
%TO.N,unconnected-(U2-XDA-Pad5)*%
X142240000Y-62230000D03*
%TO.P,U2,6,XCL*%
%TO.N,unconnected-(U2-XCL-Pad6)*%
X139700000Y-62230000D03*
%TO.P,U2,7,ADD*%
%TO.N,unconnected-(U2-ADD-Pad7)*%
X137160000Y-62230000D03*
%TO.P,U2,8,INT*%
%TO.N,/D2*%
X134620000Y-62230000D03*
%TD*%
D14*
%TO.P,C6,2*%
%TO.N,GND*%
X120903131Y-106743475D03*
D13*
%TO.P,C6,1*%
%TO.N,+BATT*%
X120903131Y-109243475D03*
%TD*%
D11*
%TO.P,J4,3,Pin_3*%
%TO.N,/ml3*%
X132458022Y-120129395D03*
%TO.P,J4,2,Pin_2*%
%TO.N,/ml2*%
X132458022Y-117589395D03*
D10*
%TO.P,J4,1,Pin_1*%
%TO.N,/ml1*%
X132458022Y-115049395D03*
%TD*%
D15*
%TO.P,J3,6,Pin_6*%
%TO.N,/A1*%
X152352665Y-103523443D03*
%TO.P,J3,5,Pin_5*%
%TO.N,/A2*%
X152352665Y-104773443D03*
%TO.P,J3,4,Pin_4*%
%TO.N,+3V3*%
X152352665Y-106023443D03*
%TO.P,J3,3,Pin_3*%
%TO.N,/SDA1*%
X152352665Y-107273443D03*
%TO.P,J3,2,Pin_2*%
%TO.N,/SCL1*%
X152352665Y-108523443D03*
D16*
%TO.P,J3,1,Pin_1*%
%TO.N,GND*%
X152352665Y-109773443D03*
%TD*%
D17*
%TO.P,U5,29,TH_PAD*%
%TO.N,GND*%
X116018000Y-110002000D03*
X114768000Y-110002000D03*
X113518000Y-110002000D03*
X112268000Y-110002000D03*
X111018000Y-110002000D03*
X109768000Y-110002000D03*
X108518000Y-110002000D03*
X116018000Y-111252000D03*
X114768000Y-111252000D03*
X113518000Y-111252000D03*
D18*
X112268000Y-111252000D03*
D17*
X112268000Y-111252000D03*
X111018000Y-111252000D03*
X109768000Y-111252000D03*
X108518000Y-111252000D03*
X116018000Y-112502000D03*
X114768000Y-112502000D03*
X113518000Y-112502000D03*
X112268000Y-112502000D03*
X111018000Y-112502000D03*
X109768000Y-112502000D03*
X108518000Y-112502000D03*
%TD*%
D10*
%TO.P,J6,1,Pin_1*%
%TO.N,/mr1*%
X122082486Y-120126085D03*
D11*
%TO.P,J6,2,Pin_2*%
%TO.N,/mr2*%
X122082486Y-117586085D03*
%TO.P,J6,3,Pin_3*%
%TO.N,/mr3*%
X122082486Y-115046085D03*
%TD*%
D19*
%TO.P,SW1,1,A*%
%TO.N,/Bat+ Post Switch*%
X127215471Y-68548518D03*
D20*
%TO.P,SW1,2,B*%
%TO.N,/Bat+ Raw*%
X122465471Y-68548518D03*
%TO.P,SW1,3,C*%
%TO.N,unconnected-(SW1-C-Pad3)*%
X117715471Y-68548518D03*
%TD*%
D17*
%TO.P,U3,29,TH_PAD*%
%TO.N,GND*%
X147260000Y-109240000D03*
X146010000Y-109240000D03*
X144760000Y-109240000D03*
X143510000Y-109240000D03*
X142260000Y-109240000D03*
X141010000Y-109240000D03*
X139760000Y-109240000D03*
X147260000Y-110490000D03*
X146010000Y-110490000D03*
X144760000Y-110490000D03*
D18*
X143510000Y-110490000D03*
D17*
X143510000Y-110490000D03*
X142260000Y-110490000D03*
X141010000Y-110490000D03*
X139760000Y-110490000D03*
X147260000Y-111740000D03*
X146010000Y-111740000D03*
X144760000Y-111740000D03*
X143510000Y-111740000D03*
X142260000Y-111740000D03*
X141010000Y-111740000D03*
X139760000Y-111740000D03*
%TD*%
D21*
%TO.P,U1,3,Vin*%
%TO.N,+BATT*%
X109220000Y-74295000D03*
%TO.P,U1,2,Vout*%
%TO.N,+3V3*%
X106680000Y-74295000D03*
D22*
%TO.P,U1,1,GND*%
%TO.N,GND*%
X104140000Y-74295000D03*
%TD*%
D23*
%TO.N,/A4*%
X110000000Y-96000000D03*
X115500000Y-96000000D03*
%TO.N,/A1*%
X148512653Y-100487348D03*
%TO.N,GND*%
X106500000Y-110270000D03*
X105230000Y-110270000D03*
X105230000Y-109000000D03*
X106500000Y-109000000D03*
X149730000Y-113270000D03*
X149730000Y-112000000D03*
X151000000Y-113270000D03*
X151000000Y-112000000D03*
%TO.N,/A3*%
X110000000Y-97000000D03*
X115570000Y-97000000D03*
%TO.N,+3V3*%
X137070015Y-72479985D03*
%TO.N,GND*%
X120500000Y-83500000D03*
X112776000Y-89916000D03*
X135000000Y-84000000D03*
X149555200Y-115722400D03*
X107061000Y-119761000D03*
X137414000Y-118160800D03*
%TO.N,/A2*%
X146000000Y-101500000D03*
%TO.N,/D24*%
X135890000Y-91440000D03*
%TO.N,/SDA1*%
X142240000Y-81280000D03*
X138430000Y-75926914D03*
%TO.N,/D5*%
X110744000Y-105156000D03*
X107696000Y-105156000D03*
X112268000Y-105156000D03*
X109220000Y-105156000D03*
%TO.N,/D11*%
X140328646Y-105056895D03*
X141899054Y-105069054D03*
X143450452Y-105107530D03*
%TO.N,+BATT*%
X114454743Y-118726758D03*
X140345873Y-117911043D03*
X145846800Y-118668800D03*
X147116800Y-117398800D03*
X140343656Y-118819975D03*
X108458000Y-119761000D03*
X141615873Y-117911043D03*
X115724743Y-117456758D03*
X106680000Y-85852000D03*
X109728000Y-119761000D03*
X115724743Y-118726758D03*
X108453058Y-120744243D03*
X145846800Y-117398800D03*
X114454743Y-117456758D03*
X141647924Y-118842081D03*
X147116800Y-118668800D03*
X109723058Y-120744243D03*
%TD*%
D24*
%TO.N,/A1*%
X148536240Y-100487348D02*
X148512653Y-100487348D01*
X151572335Y-103523443D02*
X148536240Y-100487348D01*
X152352665Y-103523443D02*
X151572335Y-103523443D01*
%TO.N,/A2*%
X152185939Y-104773443D02*
X152352665Y-104773443D01*
X148912496Y-101500000D02*
X152185939Y-104773443D01*
X146000000Y-101500000D02*
X148912496Y-101500000D01*
%TO.N,/A4*%
X110000000Y-96000000D02*
X115500000Y-96000000D01*
%TO.N,/A3*%
X110000000Y-97000000D02*
X115570000Y-97000000D01*
%TO.N,/A1*%
X151783443Y-103523443D02*
X152352665Y-103523443D01*
%TO.N,/D24*%
X122793477Y-78343477D02*
X135890000Y-91440000D01*
X122613508Y-78343477D02*
X122793477Y-78343477D01*
D25*
%TO.N,+3V3*%
X137070015Y-72479985D02*
X139610016Y-72479985D01*
X139610016Y-72479985D02*
X145473508Y-78343477D01*
D26*
%TO.N,+BATT*%
X118590986Y-109243475D02*
X118567511Y-109220000D01*
X120903131Y-109243475D02*
X118590986Y-109243475D01*
D27*
%TO.N,+3V3*%
X137070016Y-72479985D02*
X137070015Y-72479985D01*
D26*
%TO.N,+BATT*%
X118567511Y-109220000D02*
X118567511Y-115301602D01*
X118567511Y-107563973D02*
X118567511Y-109220000D01*
X134555113Y-111315609D02*
X132459504Y-109220000D01*
X134555113Y-112965113D02*
X134555113Y-111315609D01*
X118567511Y-115301602D02*
X117239977Y-116629136D01*
X118567511Y-104597511D02*
X118567511Y-107563973D01*
D24*
%TO.N,/SDA1*%
X139567245Y-75926914D02*
X141808997Y-78168666D01*
X141808997Y-78168666D02*
X141808997Y-80848997D01*
X138430000Y-75926914D02*
X139567245Y-75926914D01*
X141808997Y-80848997D02*
X142240000Y-81280000D01*
%TO.N,/D5*%
X107696000Y-105156000D02*
X109220000Y-105156000D01*
X109220000Y-105156000D02*
X110744000Y-105156000D01*
X110744000Y-105156000D02*
X112268000Y-105156000D01*
%TO.N,/D11*%
X131546926Y-105056895D02*
X125153508Y-98663477D01*
X141886895Y-105056895D02*
X141899054Y-105069054D01*
X141937530Y-105107530D02*
X141899054Y-105069054D01*
X143450452Y-105107530D02*
X141937530Y-105107530D01*
X140328646Y-105056895D02*
X141886895Y-105056895D01*
X140328646Y-105056895D02*
X131546926Y-105056895D01*
D26*
%TO.N,+BATT*%
X109058380Y-120447089D02*
X109055010Y-120450459D01*
X137795000Y-116205000D02*
X134555113Y-112965113D01*
X117239977Y-116629136D02*
X110065864Y-116629136D01*
X109058380Y-117636620D02*
X109058380Y-120447089D01*
X140589000Y-116205000D02*
X137795000Y-116205000D01*
X109220000Y-102870000D02*
X116840000Y-102870000D01*
D28*
X106680000Y-80645000D02*
X106680000Y-85852000D01*
D26*
X144805400Y-116205000D02*
X146558000Y-117957600D01*
X140589000Y-116205000D02*
X140589000Y-119049800D01*
X110065864Y-116629136D02*
X109058380Y-117636620D01*
X109220000Y-75184000D02*
X109220000Y-74295000D01*
X106680000Y-95885000D02*
X106680000Y-100330000D01*
X140589000Y-116205000D02*
X144805400Y-116205000D01*
D28*
X106680000Y-85852000D02*
X106680000Y-95885000D01*
D26*
X116840000Y-102870000D02*
X118567511Y-104597511D01*
X106680000Y-100330000D02*
X109220000Y-102870000D01*
X106680000Y-80645000D02*
X106680000Y-77724000D01*
X106680000Y-77724000D02*
X109220000Y-75184000D01*
%TO.N,/Bat+ Raw*%
X110490000Y-64770000D02*
X118686953Y-64770000D01*
X106680000Y-68580000D02*
X110490000Y-64770000D01*
X118686953Y-64770000D02*
X122465471Y-68548518D01*
%TD*%
%TA.AperFunction,Conductor*%
%TO.N,+BATT*%
G36*
X147512705Y-116976553D02*
G01*
X147530640Y-116994488D01*
X147537205Y-117018988D01*
X147537204Y-119065106D01*
X147522852Y-119099754D01*
X147488204Y-119114106D01*
X145475073Y-119114106D01*
X145450573Y-119107541D01*
X145432638Y-119089606D01*
X145426073Y-119065106D01*
X145426074Y-117018988D01*
X145440426Y-116984340D01*
X145475074Y-116969988D01*
X147488205Y-116969988D01*
X147512705Y-116976553D01*
G37*
%TD.AperFunction*%
%TD*%
%TA.AperFunction,Conductor*%
%TO.N,+BATT*%
G36*
X116123933Y-117043490D02*
G01*
X116141868Y-117061425D01*
X116148433Y-117085925D01*
X116148432Y-119132043D01*
X116134080Y-119166691D01*
X116099432Y-119181043D01*
X114086301Y-119181043D01*
X114061801Y-119174478D01*
X114043866Y-119156543D01*
X114037301Y-119132043D01*
X114037302Y-117085925D01*
X114051654Y-117051277D01*
X114086302Y-117036925D01*
X116099433Y-117036925D01*
X116123933Y-117043490D01*
G37*
%TD.AperFunction*%
%TD*%
%TA.AperFunction,Conductor*%
%TO.N,+BATT*%
G36*
X142068386Y-117504175D02*
G01*
X142082770Y-117538765D01*
X142085568Y-119058266D01*
X142079033Y-119082804D01*
X142061094Y-119100776D01*
X142036568Y-119107356D01*
X139932725Y-119107356D01*
X139898109Y-119093036D01*
X139883725Y-119058446D01*
X139880927Y-117538945D01*
X139887462Y-117514407D01*
X139905401Y-117496435D01*
X139929927Y-117489855D01*
X142033770Y-117489855D01*
X142068386Y-117504175D01*
G37*
%TD.AperFunction*%
%TD*%
%TA.AperFunction,Conductor*%
%TO.N,+BATT*%
G36*
X110123905Y-119338753D02*
G01*
X110141840Y-119356688D01*
X110148405Y-119381188D01*
X110148404Y-120927306D01*
X110134052Y-120961954D01*
X110099404Y-120976306D01*
X108086273Y-120976306D01*
X108061773Y-120969741D01*
X108043838Y-120951806D01*
X108037273Y-120927306D01*
X108037274Y-119381188D01*
X108051626Y-119346540D01*
X108086274Y-119332188D01*
X110099405Y-119332188D01*
X110123905Y-119338753D01*
G37*
%TD.AperFunction*%
%TD*%
%TA.AperFunction,Conductor*%
%TO.N,GND*%
G36*
X154936500Y-60517381D02*
G01*
X154982619Y-60563500D01*
X154999500Y-60626500D01*
X154999500Y-117497252D01*
X154999380Y-117502748D01*
X154991023Y-117694141D01*
X154991009Y-117694464D01*
X154981840Y-117892779D01*
X154980896Y-117903406D01*
X154954884Y-118100987D01*
X154954754Y-118101949D01*
X154928031Y-118293520D01*
X154926252Y-118303384D01*
X154882912Y-118498877D01*
X154882552Y-118500453D01*
X154838490Y-118687792D01*
X154836005Y-118696833D01*
X154775683Y-118888149D01*
X154774983Y-118890301D01*
X154713952Y-119072395D01*
X154710893Y-119080572D01*
X154634043Y-119266105D01*
X154632898Y-119268781D01*
X154555417Y-119444258D01*
X154551916Y-119451545D01*
X154459138Y-119629769D01*
X154457451Y-119632900D01*
X154364177Y-119800358D01*
X154360369Y-119806745D01*
X154252364Y-119976281D01*
X154250046Y-119979789D01*
X154141763Y-120137863D01*
X154137775Y-120143360D01*
X154015396Y-120302847D01*
X154012370Y-120306638D01*
X153889976Y-120454031D01*
X153885937Y-120458660D01*
X153750108Y-120606891D01*
X153746306Y-120610862D01*
X153610862Y-120746306D01*
X153606891Y-120750108D01*
X153458660Y-120885937D01*
X153454031Y-120889976D01*
X153306638Y-121012370D01*
X153302847Y-121015396D01*
X153143360Y-121137775D01*
X153137863Y-121141763D01*
X152979789Y-121250046D01*
X152976281Y-121252364D01*
X152806745Y-121360369D01*
X152800358Y-121364177D01*
X152632900Y-121457451D01*
X152629769Y-121459138D01*
X152451545Y-121551916D01*
X152444258Y-121555417D01*
X152268781Y-121632898D01*
X152266105Y-121634043D01*
X152080572Y-121710893D01*
X152072395Y-121713952D01*
X151890301Y-121774983D01*
X151888149Y-121775683D01*
X151696833Y-121836005D01*
X151687792Y-121838490D01*
X151500453Y-121882552D01*
X151498877Y-121882912D01*
X151303384Y-121926252D01*
X151293520Y-121928031D01*
X151101949Y-121954754D01*
X151100987Y-121954884D01*
X150903406Y-121980896D01*
X150892779Y-121981840D01*
X150694464Y-121991009D01*
X150694141Y-121991023D01*
X150502748Y-121999380D01*
X150497252Y-121999500D01*
X109865040Y-121999500D01*
X109800290Y-121981590D01*
X109753948Y-121932952D01*
X109739187Y-121867413D01*
X109760204Y-121803604D01*
X109811025Y-121759665D01*
X109811026Y-121759664D01*
X109815084Y-121757739D01*
X109815087Y-121757736D01*
X109818158Y-121756279D01*
X109826780Y-121751184D01*
X109837953Y-121745605D01*
X109958115Y-121659038D01*
X109959997Y-121657711D01*
X110015528Y-121619382D01*
X110016202Y-121618733D01*
X110029833Y-121607372D01*
X110035570Y-121603240D01*
X110035573Y-121603236D01*
X110038331Y-121601250D01*
X110060729Y-121588378D01*
X110179810Y-121535361D01*
X110284777Y-121459096D01*
X110310612Y-121444629D01*
X110330564Y-121436365D01*
X110446652Y-121369340D01*
X110541438Y-121274554D01*
X110608463Y-121158466D01*
X110622815Y-121123818D01*
X110652037Y-121027487D01*
X110658028Y-120966663D01*
X110661904Y-120927309D01*
X110661904Y-120222091D01*
X110661905Y-119381188D01*
X110644407Y-119248280D01*
X110637842Y-119223780D01*
X110586543Y-119099936D01*
X110586542Y-119099935D01*
X110580195Y-119084611D01*
X110580269Y-119084580D01*
X110573567Y-119072041D01*
X110566880Y-119031540D01*
X110566880Y-118313651D01*
X110576471Y-118265433D01*
X110603785Y-118224556D01*
X110653800Y-118174541D01*
X110694677Y-118147227D01*
X110742895Y-118137636D01*
X113397801Y-118137636D01*
X113460801Y-118154517D01*
X113506920Y-118200636D01*
X113523801Y-118263636D01*
X113523801Y-119132043D01*
X113541299Y-119264954D01*
X113547863Y-119289450D01*
X113599162Y-119413294D01*
X113680767Y-119519643D01*
X113698700Y-119537576D01*
X113754092Y-119580080D01*
X113805049Y-119619181D01*
X113928893Y-119670480D01*
X113953393Y-119677045D01*
X114086301Y-119694543D01*
X116099432Y-119694543D01*
X116099435Y-119694543D01*
X116178261Y-119686779D01*
X116199613Y-119684676D01*
X116295944Y-119655454D01*
X116330592Y-119641102D01*
X116446680Y-119574077D01*
X116541466Y-119479291D01*
X116608491Y-119363203D01*
X116622843Y-119328555D01*
X116652065Y-119232224D01*
X116656184Y-119190408D01*
X116661932Y-119132046D01*
X116661932Y-118263636D01*
X116678813Y-118200636D01*
X116724932Y-118154517D01*
X116787932Y-118137636D01*
X117223520Y-118137636D01*
X117226058Y-118137662D01*
X117331351Y-118139783D01*
X117331351Y-118139782D01*
X117331354Y-118139783D01*
X117403014Y-118129612D01*
X117410579Y-118128772D01*
X117482738Y-118122947D01*
X117482740Y-118122946D01*
X117482745Y-118122946D01*
X117521050Y-118113504D01*
X117533447Y-118111102D01*
X117572495Y-118105562D01*
X117641596Y-118084028D01*
X117648912Y-118081988D01*
X117719225Y-118064659D01*
X117755507Y-118049199D01*
X117767388Y-118044830D01*
X117805025Y-118033103D01*
X117869780Y-118000762D01*
X117876675Y-117997574D01*
X117943293Y-117969192D01*
X117976615Y-117948118D01*
X117987637Y-117941901D01*
X118022920Y-117924282D01*
X118081669Y-117881956D01*
X118087953Y-117877713D01*
X118149145Y-117839019D01*
X118178662Y-117812868D01*
X118188556Y-117804955D01*
X118220537Y-117781917D01*
X118271733Y-117730719D01*
X118277242Y-117725534D01*
X118331451Y-117677511D01*
X118356400Y-117646952D01*
X118364887Y-117637565D01*
X118416367Y-117586085D01*
X120719330Y-117586085D01*
X120737922Y-117810453D01*
X120737922Y-117810456D01*
X120737923Y-117810457D01*
X120793188Y-118028696D01*
X120793189Y-118028699D01*
X120793190Y-118028701D01*
X120801092Y-118046716D01*
X120883625Y-118234875D01*
X121006764Y-118423353D01*
X121149961Y-118578905D01*
X121179198Y-118632509D01*
X121179801Y-118693565D01*
X121151627Y-118747735D01*
X121101294Y-118782298D01*
X121075458Y-118791934D01*
X120986279Y-118825196D01*
X120869224Y-118912823D01*
X120781597Y-119029879D01*
X120743492Y-119132043D01*
X120730497Y-119166884D01*
X120723986Y-119227447D01*
X120723986Y-121024723D01*
X120730435Y-121084713D01*
X120730497Y-121085285D01*
X120781597Y-121222290D01*
X120869224Y-121339346D01*
X120986280Y-121426973D01*
X120986281Y-121426973D01*
X120986282Y-121426974D01*
X121123285Y-121478074D01*
X121183848Y-121484585D01*
X122981124Y-121484585D01*
X123041687Y-121478074D01*
X123178690Y-121426974D01*
X123295747Y-121339346D01*
X123383375Y-121222289D01*
X123434475Y-121085286D01*
X123440986Y-121024723D01*
X123440986Y-119227447D01*
X123434475Y-119166884D01*
X123383375Y-119029881D01*
X123383374Y-119029879D01*
X123295747Y-118912823D01*
X123178691Y-118825196D01*
X123117156Y-118802244D01*
X123063677Y-118782298D01*
X123013344Y-118747735D01*
X122985170Y-118693565D01*
X122985773Y-118632509D01*
X123015008Y-118578907D01*
X123158208Y-118423353D01*
X123281346Y-118234876D01*
X123371782Y-118028701D01*
X123427050Y-117810453D01*
X123445642Y-117586085D01*
X123427050Y-117361717D01*
X123371782Y-117143469D01*
X123281346Y-116937294D01*
X123158208Y-116748817D01*
X123005726Y-116583179D01*
X123005725Y-116583178D01*
X123005723Y-116583176D01*
X122828065Y-116444898D01*
X122828063Y-116444897D01*
X122828062Y-116444896D01*
X122794803Y-116426897D01*
X122746533Y-116380583D01*
X122728774Y-116316085D01*
X122746533Y-116251587D01*
X122794803Y-116205272D01*
X122828062Y-116187274D01*
X123005726Y-116048991D01*
X123158208Y-115883353D01*
X123281346Y-115694876D01*
X123371782Y-115488701D01*
X123427050Y-115270453D01*
X123445642Y-115046085D01*
X123427050Y-114821717D01*
X123371782Y-114603469D01*
X123281346Y-114397294D01*
X123158208Y-114208817D01*
X123005726Y-114043179D01*
X123005725Y-114043178D01*
X123005723Y-114043176D01*
X122828064Y-113904897D01*
X122630059Y-113797742D01*
X122485913Y-113748257D01*
X122417121Y-113724641D01*
X122195055Y-113687585D01*
X121969917Y-113687585D01*
X121747851Y-113724641D01*
X121747848Y-113724641D01*
X121747848Y-113724642D01*
X121534912Y-113797742D01*
X121336907Y-113904897D01*
X121159248Y-114043176D01*
X121006764Y-114208816D01*
X120883625Y-114397294D01*
X120793188Y-114603473D01*
X120753521Y-114760118D01*
X120737922Y-114821717D01*
X120719330Y-115046085D01*
X120737922Y-115270453D01*
X120737922Y-115270456D01*
X120737923Y-115270457D01*
X120793188Y-115488696D01*
X120883625Y-115694875D01*
X120920847Y-115751847D01*
X121006764Y-115883353D01*
X121122059Y-116008596D01*
X121159248Y-116048993D01*
X121336904Y-116187270D01*
X121336906Y-116187271D01*
X121336910Y-116187274D01*
X121370168Y-116205272D01*
X121418438Y-116251588D01*
X121436197Y-116316085D01*
X121418438Y-116380582D01*
X121370168Y-116426897D01*
X121345280Y-116440366D01*
X121336904Y-116444899D01*
X121159248Y-116583176D01*
X121006764Y-116748816D01*
X120883625Y-116937294D01*
X120793188Y-117143473D01*
X120740978Y-117349649D01*
X120737922Y-117361717D01*
X120719330Y-117586085D01*
X118416367Y-117586085D01*
X119622551Y-116379901D01*
X119624262Y-116378223D01*
X119700313Y-116305177D01*
X119743806Y-116247296D01*
X119748553Y-116241363D01*
X119795458Y-116186221D01*
X119815847Y-116152492D01*
X119822949Y-116141977D01*
X119846628Y-116110467D01*
X119846627Y-116110467D01*
X119880273Y-116046360D01*
X119883984Y-116039779D01*
X119921459Y-115977790D01*
X119936186Y-115941195D01*
X119941494Y-115929712D01*
X119959815Y-115894807D01*
X119982736Y-115826144D01*
X119985364Y-115819002D01*
X120012392Y-115751847D01*
X120012393Y-115751845D01*
X120021052Y-115713393D01*
X120024460Y-115701170D01*
X120036941Y-115663787D01*
X120036941Y-115663786D01*
X120036942Y-115663784D01*
X120048552Y-115592334D01*
X120050000Y-115584864D01*
X120050924Y-115580760D01*
X120065907Y-115514239D01*
X120068286Y-115474882D01*
X120069686Y-115462291D01*
X120076011Y-115423381D01*
X120076011Y-115351010D01*
X120076241Y-115343402D01*
X120078047Y-115313542D01*
X120080613Y-115271126D01*
X120076649Y-115231893D01*
X120076011Y-115219228D01*
X120076011Y-110877975D01*
X120092892Y-110814975D01*
X120139011Y-110768856D01*
X120202011Y-110751975D01*
X120963933Y-110751975D01*
X121046642Y-110745297D01*
X121145899Y-110737285D01*
X121382379Y-110678998D01*
X121606447Y-110583531D01*
X121625503Y-110571480D01*
X121692845Y-110551975D01*
X121751769Y-110551975D01*
X121812332Y-110545464D01*
X121949335Y-110494364D01*
X122066392Y-110406736D01*
X122154020Y-110289679D01*
X122205120Y-110152676D01*
X122211631Y-110092113D01*
X122211631Y-110027848D01*
X122228511Y-109964849D01*
X122270420Y-109892262D01*
X122356787Y-109664532D01*
X122405505Y-109425896D01*
X122410120Y-109311374D01*
X130948856Y-109311374D01*
X130983077Y-109552516D01*
X131055537Y-109785049D01*
X131137728Y-109949622D01*
X131151004Y-110005918D01*
X131151004Y-110068638D01*
X131157515Y-110129201D01*
X131166271Y-110152676D01*
X131208615Y-110266205D01*
X131296242Y-110383261D01*
X131413298Y-110470888D01*
X131413299Y-110470888D01*
X131413300Y-110470889D01*
X131550303Y-110521989D01*
X131593336Y-110526615D01*
X131634246Y-110538232D01*
X131668961Y-110562798D01*
X133009708Y-111903545D01*
X133037022Y-111944422D01*
X133046613Y-111992640D01*
X133046613Y-112948656D01*
X133046587Y-112951194D01*
X133044465Y-113056489D01*
X133054636Y-113128161D01*
X133055477Y-113135724D01*
X133061302Y-113207882D01*
X133070737Y-113246164D01*
X133073148Y-113258607D01*
X133078686Y-113297630D01*
X133090454Y-113335393D01*
X133100221Y-113366739D01*
X133102260Y-113374053D01*
X133119589Y-113444357D01*
X133119590Y-113444361D01*
X133133476Y-113476954D01*
X133135042Y-113480628D01*
X133139418Y-113492527D01*
X133150288Y-113527407D01*
X133154259Y-113585730D01*
X133131482Y-113639569D01*
X133086858Y-113677334D01*
X133029994Y-113690895D01*
X131559384Y-113690895D01*
X131498821Y-113697406D01*
X131361816Y-113748506D01*
X131244760Y-113836133D01*
X131157133Y-113953189D01*
X131123570Y-114043176D01*
X131106033Y-114090194D01*
X131099522Y-114150757D01*
X131099522Y-115948033D01*
X131106033Y-116008596D01*
X131131583Y-116077097D01*
X131157133Y-116145600D01*
X131244760Y-116262656D01*
X131361816Y-116350283D01*
X131361817Y-116350283D01*
X131361818Y-116350284D01*
X131476831Y-116393182D01*
X131527162Y-116427743D01*
X131555337Y-116481914D01*
X131554734Y-116542969D01*
X131525497Y-116596573D01*
X131382303Y-116752123D01*
X131259161Y-116940604D01*
X131168724Y-117146783D01*
X131136398Y-117274438D01*
X131113458Y-117365027D01*
X131094866Y-117589395D01*
X131113458Y-117813763D01*
X131113458Y-117813766D01*
X131113459Y-117813767D01*
X131168724Y-118032006D01*
X131259161Y-118238185D01*
X131370505Y-118408609D01*
X131382300Y-118426663D01*
X131447698Y-118497704D01*
X131534784Y-118592303D01*
X131627614Y-118664556D01*
X131712446Y-118730584D01*
X131745704Y-118748582D01*
X131793973Y-118794895D01*
X131811733Y-118859392D01*
X131793975Y-118923889D01*
X131745705Y-118970206D01*
X131712445Y-118988205D01*
X131534784Y-119126486D01*
X131382300Y-119292126D01*
X131259161Y-119480604D01*
X131168724Y-119686783D01*
X131138346Y-119806745D01*
X131113458Y-119905027D01*
X131094866Y-120129395D01*
X131113458Y-120353763D01*
X131113458Y-120353766D01*
X131113459Y-120353767D01*
X131168724Y-120572006D01*
X131168725Y-120572009D01*
X131168726Y-120572011D01*
X131191878Y-120624793D01*
X131259161Y-120778185D01*
X131259162Y-120778186D01*
X131382300Y-120966663D01*
X131481009Y-121073889D01*
X131534784Y-121132303D01*
X131686059Y-121250046D01*
X131712446Y-121270584D01*
X131910448Y-121377737D01*
X132123387Y-121450839D01*
X132345453Y-121487895D01*
X132570588Y-121487895D01*
X132570591Y-121487895D01*
X132792657Y-121450839D01*
X133005596Y-121377737D01*
X133203598Y-121270584D01*
X133381262Y-121132301D01*
X133533744Y-120966663D01*
X133656882Y-120778186D01*
X133747318Y-120572011D01*
X133802586Y-120353763D01*
X133821178Y-120129395D01*
X133802586Y-119905027D01*
X133747318Y-119686779D01*
X133656882Y-119480604D01*
X133533744Y-119292127D01*
X133381262Y-119126489D01*
X133381261Y-119126488D01*
X133381259Y-119126486D01*
X133203600Y-118988207D01*
X133170339Y-118970207D01*
X133122068Y-118923890D01*
X133104310Y-118859392D01*
X133122071Y-118794894D01*
X133170339Y-118748582D01*
X133203598Y-118730584D01*
X133381262Y-118592301D01*
X133533744Y-118426663D01*
X133656882Y-118238186D01*
X133747318Y-118032011D01*
X133802586Y-117813763D01*
X133821178Y-117589395D01*
X133802586Y-117365027D01*
X133747318Y-117146779D01*
X133656882Y-116940604D01*
X133533744Y-116752127D01*
X133390545Y-116596573D01*
X133361309Y-116542970D01*
X133360706Y-116481914D01*
X133388881Y-116427743D01*
X133439210Y-116393182D01*
X133554226Y-116350284D01*
X133671283Y-116262656D01*
X133758911Y-116145599D01*
X133810011Y-116008596D01*
X133816522Y-115948033D01*
X133816522Y-114664053D01*
X133830255Y-114606850D01*
X133868461Y-114562117D01*
X133922811Y-114539604D01*
X133981458Y-114544220D01*
X134031617Y-114574958D01*
X136716673Y-117260014D01*
X136718402Y-117261777D01*
X136791425Y-117337802D01*
X136791426Y-117337803D01*
X136849292Y-117381286D01*
X136855236Y-117386040D01*
X136910380Y-117432946D01*
X136944121Y-117453342D01*
X136954618Y-117460433D01*
X136975250Y-117475937D01*
X136986135Y-117484117D01*
X137050226Y-117517754D01*
X137056848Y-117521488D01*
X137118810Y-117558946D01*
X137118811Y-117558947D01*
X137155381Y-117573665D01*
X137166891Y-117578985D01*
X137201795Y-117597304D01*
X137270464Y-117620228D01*
X137277600Y-117622853D01*
X137344757Y-117649882D01*
X137383232Y-117658547D01*
X137395407Y-117661941D01*
X137432818Y-117674431D01*
X137504293Y-117686045D01*
X137511721Y-117687484D01*
X137582362Y-117703395D01*
X137621712Y-117705774D01*
X137634303Y-117707174D01*
X137673221Y-117713500D01*
X137745596Y-117713500D01*
X137753203Y-117713729D01*
X137825475Y-117718102D01*
X137864707Y-117714138D01*
X137877373Y-117713500D01*
X138954500Y-117713500D01*
X139017500Y-117730381D01*
X139063619Y-117776500D01*
X139080500Y-117839500D01*
X139080500Y-119110602D01*
X139095189Y-119292562D01*
X139095189Y-119292565D01*
X139095190Y-119292568D01*
X139139081Y-119470640D01*
X139153478Y-119529051D01*
X139248944Y-119753116D01*
X139379117Y-119958969D01*
X139462757Y-120053379D01*
X139540625Y-120141274D01*
X139729286Y-120295310D01*
X139940213Y-120417089D01*
X140167943Y-120503456D01*
X140406579Y-120552174D01*
X140649939Y-120561981D01*
X140891720Y-120532623D01*
X141125662Y-120464861D01*
X141345704Y-120360450D01*
X141546148Y-120222093D01*
X141721802Y-120053375D01*
X141868117Y-119858665D01*
X141923513Y-119753116D01*
X141930062Y-119740638D01*
X141955451Y-119707272D01*
X141990382Y-119684085D01*
X142104676Y-119633199D01*
X142114643Y-119625956D01*
X142162064Y-119607034D01*
X142161642Y-119605460D01*
X142194147Y-119596739D01*
X142194147Y-119596738D01*
X142194154Y-119596737D01*
X142318118Y-119545322D01*
X142424527Y-119463542D01*
X142442466Y-119445570D01*
X142524050Y-119339012D01*
X142575237Y-119214954D01*
X142581772Y-119190416D01*
X142599067Y-119057320D01*
X142596824Y-117839730D01*
X142613628Y-117776634D01*
X142659757Y-117730420D01*
X142722824Y-117713500D01*
X144128369Y-117713500D01*
X144176587Y-117723091D01*
X144217464Y-117750405D01*
X144875668Y-118408609D01*
X144902982Y-118449486D01*
X144912573Y-118497704D01*
X144912573Y-119065106D01*
X144930071Y-119198017D01*
X144936635Y-119222513D01*
X144987934Y-119346357D01*
X145069539Y-119452706D01*
X145087472Y-119470639D01*
X145174707Y-119537577D01*
X145193821Y-119552244D01*
X145317665Y-119603543D01*
X145342165Y-119610108D01*
X145475073Y-119627606D01*
X147488204Y-119627606D01*
X147488207Y-119627606D01*
X147573744Y-119619181D01*
X147588385Y-119617739D01*
X147684716Y-119588517D01*
X147719364Y-119574165D01*
X147835452Y-119507140D01*
X147930238Y-119412354D01*
X147997263Y-119296266D01*
X148011615Y-119261618D01*
X148040837Y-119165287D01*
X148049181Y-119080572D01*
X148050704Y-119065109D01*
X148050704Y-118192326D01*
X148052768Y-118169613D01*
X148056870Y-118147227D01*
X148063742Y-118109731D01*
X148068647Y-117866223D01*
X148051953Y-117748597D01*
X148050704Y-117730894D01*
X148050704Y-117381286D01*
X148050705Y-117018988D01*
X148033207Y-116886080D01*
X148026642Y-116861580D01*
X147975343Y-116737736D01*
X147895009Y-116633044D01*
X147893738Y-116631387D01*
X147875805Y-116613454D01*
X147769456Y-116531849D01*
X147645612Y-116480550D01*
X147621116Y-116473986D01*
X147488205Y-116456488D01*
X147242420Y-116456488D01*
X147194202Y-116446897D01*
X147153325Y-116419583D01*
X145883726Y-115149984D01*
X145881950Y-115148173D01*
X145808976Y-115072199D01*
X145808975Y-115072198D01*
X145751097Y-115028706D01*
X145745167Y-115023962D01*
X145690021Y-114977055D01*
X145690020Y-114977054D01*
X145656273Y-114956653D01*
X145645786Y-114949569D01*
X145614265Y-114925883D01*
X145614263Y-114925882D01*
X145614262Y-114925881D01*
X145550172Y-114892244D01*
X145543557Y-114888512D01*
X145506934Y-114866374D01*
X145481588Y-114851051D01*
X145445001Y-114836326D01*
X145433496Y-114831008D01*
X145398605Y-114812696D01*
X145398604Y-114812695D01*
X145398601Y-114812694D01*
X145329948Y-114789774D01*
X145322807Y-114787148D01*
X145255639Y-114760116D01*
X145217185Y-114751455D01*
X145204974Y-114748051D01*
X145167581Y-114735568D01*
X145096131Y-114723957D01*
X145088664Y-114722511D01*
X145067239Y-114717686D01*
X145018036Y-114706604D01*
X144978684Y-114704224D01*
X144966084Y-114702822D01*
X144941583Y-114698840D01*
X144927180Y-114696500D01*
X144927179Y-114696500D01*
X144854803Y-114696500D01*
X144847195Y-114696270D01*
X144774925Y-114691898D01*
X144774924Y-114691898D01*
X144765809Y-114692819D01*
X144735691Y-114695862D01*
X144723026Y-114696500D01*
X140710779Y-114696500D01*
X140621947Y-114696500D01*
X140616874Y-114696398D01*
X140603573Y-114695862D01*
X140528060Y-114692819D01*
X140528058Y-114692819D01*
X140508808Y-114695156D01*
X140505313Y-114695581D01*
X140490127Y-114696500D01*
X138472031Y-114696500D01*
X138423813Y-114686909D01*
X138382936Y-114659595D01*
X137438647Y-113715306D01*
X149309273Y-113715306D01*
X151420404Y-113715306D01*
X151420405Y-111571188D01*
X149309274Y-111571188D01*
X149309273Y-113715306D01*
X137438647Y-113715306D01*
X136100518Y-112377176D01*
X136073204Y-112336299D01*
X136063613Y-112288081D01*
X136063613Y-111332066D01*
X136063639Y-111329528D01*
X136065760Y-111224234D01*
X136055590Y-111152573D01*
X136054749Y-111145007D01*
X136048923Y-111072842D01*
X136039488Y-111034563D01*
X136037076Y-111022110D01*
X136031539Y-110983091D01*
X136010006Y-110913991D01*
X136007968Y-110906682D01*
X135990636Y-110836361D01*
X135975179Y-110800083D01*
X135970805Y-110788189D01*
X135959080Y-110750561D01*
X135926728Y-110685782D01*
X135923555Y-110678917D01*
X135895169Y-110612293D01*
X135876981Y-110583532D01*
X135874102Y-110578979D01*
X135867870Y-110567930D01*
X135856650Y-110545463D01*
X135850259Y-110532666D01*
X135807940Y-110473923D01*
X135803683Y-110467619D01*
X135764998Y-110406442D01*
X135738860Y-110376940D01*
X135730937Y-110367034D01*
X135707895Y-110335049D01*
X135656702Y-110283856D01*
X135651502Y-110278332D01*
X135603486Y-110224133D01*
X135572947Y-110199199D01*
X135563540Y-110190694D01*
X133802302Y-108429456D01*
X133777736Y-108394741D01*
X133766119Y-108353830D01*
X133761493Y-108310799D01*
X133710393Y-108173796D01*
X133710392Y-108173794D01*
X133622765Y-108056738D01*
X133505709Y-107969111D01*
X133431643Y-107941486D01*
X133368705Y-107918011D01*
X133308142Y-107911500D01*
X133245998Y-107911500D01*
X133180813Y-107893328D01*
X133154559Y-107877457D01*
X133135692Y-107866051D01*
X132957702Y-107794418D01*
X132909747Y-107775118D01*
X132909745Y-107775117D01*
X132909744Y-107775117D01*
X132672141Y-107721604D01*
X132429030Y-107706898D01*
X132429029Y-107706898D01*
X132186705Y-107731381D01*
X132186705Y-107731382D01*
X131951447Y-107794418D01*
X131720070Y-107898553D01*
X131719725Y-107897787D01*
X131701831Y-107906167D01*
X131665563Y-107911500D01*
X131610866Y-107911500D01*
X131550303Y-107918011D01*
X131413298Y-107969111D01*
X131296242Y-108056738D01*
X131208615Y-108173794D01*
X131157515Y-108310799D01*
X131151004Y-108371362D01*
X131151004Y-108436522D01*
X131135370Y-108497311D01*
X131079428Y-108598876D01*
X130997663Y-108828303D01*
X130953761Y-109067871D01*
X130948856Y-109311374D01*
X122410120Y-109311374D01*
X122415312Y-109182536D01*
X122385954Y-108940755D01*
X122318192Y-108706813D01*
X122223795Y-108507876D01*
X122211631Y-108453863D01*
X122211631Y-108394837D01*
X122209107Y-108371362D01*
X122205120Y-108334274D01*
X122154020Y-108197271D01*
X122136447Y-108173796D01*
X122066392Y-108080213D01*
X121949336Y-107992586D01*
X121863146Y-107960439D01*
X121812332Y-107941486D01*
X121751769Y-107934975D01*
X121687066Y-107934975D01*
X121628511Y-107920542D01*
X121496337Y-107851171D01*
X121265313Y-107774043D01*
X121024912Y-107734975D01*
X121024910Y-107734975D01*
X120202011Y-107734975D01*
X120139011Y-107718094D01*
X120092892Y-107671975D01*
X120076011Y-107608975D01*
X120076011Y-104613939D01*
X120076037Y-104611402D01*
X120078157Y-104506134D01*
X120067987Y-104434468D01*
X120067148Y-104426932D01*
X120061321Y-104354743D01*
X120051879Y-104316437D01*
X120049477Y-104304039D01*
X120043937Y-104264992D01*
X120022395Y-104195863D01*
X120020364Y-104188578D01*
X120003034Y-104118263D01*
X119987576Y-104081983D01*
X119983202Y-104070087D01*
X119971479Y-104032464D01*
X119966402Y-104022298D01*
X119939123Y-103967677D01*
X119935944Y-103960799D01*
X119907567Y-103894195D01*
X119886495Y-103860873D01*
X119880272Y-103849838D01*
X119862657Y-103814568D01*
X119862657Y-103814567D01*
X119820332Y-103755815D01*
X119816087Y-103749531D01*
X119777394Y-103688343D01*
X119777390Y-103688338D01*
X119751250Y-103658832D01*
X119743327Y-103648927D01*
X119720291Y-103616950D01*
X119669116Y-103565774D01*
X119663900Y-103560233D01*
X119615888Y-103506039D01*
X119615886Y-103506037D01*
X119585328Y-103481088D01*
X119575933Y-103472592D01*
X117918326Y-101814985D01*
X117916549Y-101813173D01*
X117843574Y-101737196D01*
X117785711Y-101693716D01*
X117779767Y-101688962D01*
X117724621Y-101642055D01*
X117724620Y-101642054D01*
X117690873Y-101621653D01*
X117680386Y-101614569D01*
X117648865Y-101590883D01*
X117648863Y-101590882D01*
X117648862Y-101590881D01*
X117584772Y-101557244D01*
X117578157Y-101553512D01*
X117541534Y-101531374D01*
X117516188Y-101516051D01*
X117479601Y-101501326D01*
X117468096Y-101496008D01*
X117433205Y-101477696D01*
X117433204Y-101477695D01*
X117433201Y-101477694D01*
X117364548Y-101454774D01*
X117357407Y-101452148D01*
X117290239Y-101425116D01*
X117251785Y-101416455D01*
X117239574Y-101413051D01*
X117202181Y-101400568D01*
X117130731Y-101388957D01*
X117123264Y-101387511D01*
X117101839Y-101382686D01*
X117052636Y-101371604D01*
X117013284Y-101369224D01*
X117000684Y-101367822D01*
X116976183Y-101363840D01*
X116961780Y-101361500D01*
X116961779Y-101361500D01*
X116889403Y-101361500D01*
X116881795Y-101361270D01*
X116809525Y-101356898D01*
X116809524Y-101356898D01*
X116782001Y-101359678D01*
X116770291Y-101360862D01*
X116757626Y-101361500D01*
X109897031Y-101361500D01*
X109848813Y-101351909D01*
X109807936Y-101324595D01*
X108225405Y-99742063D01*
X108198091Y-99701186D01*
X108188500Y-99652968D01*
X108188500Y-98663476D01*
X108600010Y-98663476D01*
X108619965Y-98891564D01*
X108679223Y-99112720D01*
X108775985Y-99320227D01*
X108907312Y-99507780D01*
X109069204Y-99669672D01*
X109256757Y-99800999D01*
X109464264Y-99897761D01*
X109518129Y-99912194D01*
X109685421Y-99957020D01*
X109913508Y-99976975D01*
X110141595Y-99957020D01*
X110362751Y-99897761D01*
X110570257Y-99801000D01*
X110757808Y-99669675D01*
X110919706Y-99507777D01*
X111051031Y-99320226D01*
X111069312Y-99281020D01*
X111115808Y-99228002D01*
X111183508Y-99208269D01*
X111251208Y-99228002D01*
X111297703Y-99281020D01*
X111315984Y-99320225D01*
X111447312Y-99507780D01*
X111609204Y-99669672D01*
X111796757Y-99800999D01*
X112004264Y-99897761D01*
X112058129Y-99912194D01*
X112225421Y-99957020D01*
X112453508Y-99976975D01*
X112681595Y-99957020D01*
X112902751Y-99897761D01*
X113110257Y-99801000D01*
X113297808Y-99669675D01*
X113459706Y-99507777D01*
X113591031Y-99320226D01*
X113609312Y-99281020D01*
X113655808Y-99228002D01*
X113723508Y-99208269D01*
X113791208Y-99228002D01*
X113837703Y-99281020D01*
X113855984Y-99320225D01*
X113987312Y-99507780D01*
X114149204Y-99669672D01*
X114336757Y-99800999D01*
X114544264Y-99897761D01*
X114598129Y-99912194D01*
X114765421Y-99957020D01*
X114993508Y-99976975D01*
X115221595Y-99957020D01*
X115442751Y-99897761D01*
X115650257Y-99801000D01*
X115837808Y-99669675D01*
X115999706Y-99507777D01*
X116131031Y-99320226D01*
X116149312Y-99281020D01*
X116195808Y-99228002D01*
X116263508Y-99208269D01*
X116331208Y-99228002D01*
X116377703Y-99281020D01*
X116395984Y-99320225D01*
X116527312Y-99507780D01*
X116689204Y-99669672D01*
X116876757Y-99800999D01*
X117084264Y-99897761D01*
X117138129Y-99912194D01*
X117305421Y-99957020D01*
X117533508Y-99976975D01*
X117761595Y-99957020D01*
X117982751Y-99897761D01*
X118190257Y-99801000D01*
X118377808Y-99669675D01*
X118539706Y-99507777D01*
X118671031Y-99320226D01*
X118689312Y-99281020D01*
X118735808Y-99228002D01*
X118803508Y-99208269D01*
X118871208Y-99228002D01*
X118917703Y-99281020D01*
X118935984Y-99320225D01*
X119067312Y-99507780D01*
X119229204Y-99669672D01*
X119416757Y-99800999D01*
X119624264Y-99897761D01*
X119678129Y-99912194D01*
X119845421Y-99957020D01*
X120073508Y-99976975D01*
X120301595Y-99957020D01*
X120522751Y-99897761D01*
X120730257Y-99801000D01*
X120917808Y-99669675D01*
X121079706Y-99507777D01*
X121211031Y-99320226D01*
X121229312Y-99281020D01*
X121275808Y-99228002D01*
X121343508Y-99208269D01*
X121411208Y-99228002D01*
X121457703Y-99281020D01*
X121475984Y-99320225D01*
X121607312Y-99507780D01*
X121769204Y-99669672D01*
X121956757Y-99800999D01*
X122164264Y-99897761D01*
X122218129Y-99912194D01*
X122385421Y-99957020D01*
X122613508Y-99976975D01*
X122841595Y-99957020D01*
X123062751Y-99897761D01*
X123270257Y-99801000D01*
X123457808Y-99669675D01*
X123619706Y-99507777D01*
X123751031Y-99320226D01*
X123769312Y-99281020D01*
X123815808Y-99228002D01*
X123883508Y-99208269D01*
X123951208Y-99228002D01*
X123997703Y-99281020D01*
X124015984Y-99320225D01*
X124147312Y-99507780D01*
X124309204Y-99669672D01*
X124496757Y-99800999D01*
X124704264Y-99897761D01*
X124758129Y-99912194D01*
X124925421Y-99957020D01*
X125153508Y-99976975D01*
X125381595Y-99957020D01*
X125445050Y-99940017D01*
X125510272Y-99940017D01*
X125566756Y-99972629D01*
X131039677Y-105445550D01*
X131052760Y-105461880D01*
X131104591Y-105510551D01*
X131107403Y-105513276D01*
X131127156Y-105533029D01*
X131129109Y-105534544D01*
X131130350Y-105535507D01*
X131139370Y-105543211D01*
X131171605Y-105573481D01*
X131189361Y-105583242D01*
X131205877Y-105594091D01*
X131221885Y-105606508D01*
X131262451Y-105624062D01*
X131273114Y-105629286D01*
X131300741Y-105644474D01*
X131311866Y-105650590D01*
X131331488Y-105655628D01*
X131350193Y-105662032D01*
X131368781Y-105670076D01*
X131412448Y-105676991D01*
X131424055Y-105679395D01*
X131466896Y-105690395D01*
X131487157Y-105690395D01*
X131506865Y-105691945D01*
X131526869Y-105695114D01*
X131526869Y-105695113D01*
X131526870Y-105695114D01*
X131570880Y-105690954D01*
X131582737Y-105690395D01*
X139620446Y-105690395D01*
X139671694Y-105701288D01*
X139714081Y-105732083D01*
X139717392Y-105735761D01*
X139787086Y-105786396D01*
X139871894Y-105848013D01*
X140046358Y-105925689D01*
X140233159Y-105965395D01*
X140424131Y-105965395D01*
X140424133Y-105965395D01*
X140610934Y-105925689D01*
X140785398Y-105848013D01*
X140939899Y-105735761D01*
X140943210Y-105732083D01*
X140985598Y-105701288D01*
X141036846Y-105690395D01*
X141179906Y-105690395D01*
X141231154Y-105701288D01*
X141273541Y-105732083D01*
X141287801Y-105747920D01*
X141442302Y-105860172D01*
X141616766Y-105937848D01*
X141803567Y-105977554D01*
X141994539Y-105977554D01*
X141994541Y-105977554D01*
X142181342Y-105937848D01*
X142355806Y-105860172D01*
X142462412Y-105782718D01*
X142486670Y-105765094D01*
X142521795Y-105747197D01*
X142560731Y-105741030D01*
X142742252Y-105741030D01*
X142793500Y-105751923D01*
X142835887Y-105782718D01*
X142839198Y-105786396D01*
X142905912Y-105834866D01*
X142993700Y-105898648D01*
X143168164Y-105976324D01*
X143354965Y-106016030D01*
X143545937Y-106016030D01*
X143545939Y-106016030D01*
X143732740Y-105976324D01*
X143907204Y-105898648D01*
X144061705Y-105786396D01*
X144189492Y-105644474D01*
X144284979Y-105479086D01*
X144343994Y-105297458D01*
X144363956Y-105107530D01*
X144343994Y-104917602D01*
X144284979Y-104735974D01*
X144284979Y-104735973D01*
X144189493Y-104570587D01*
X144061704Y-104428663D01*
X143959962Y-104354743D01*
X143907204Y-104316412D01*
X143732740Y-104238736D01*
X143545939Y-104199030D01*
X143354965Y-104199030D01*
X143230430Y-104225500D01*
X143168163Y-104238736D01*
X143059298Y-104287206D01*
X142997137Y-104314882D01*
X142993698Y-104316413D01*
X142839198Y-104428663D01*
X142835887Y-104432342D01*
X142793500Y-104463137D01*
X142742252Y-104474030D01*
X142641898Y-104474030D01*
X142590649Y-104463137D01*
X142548262Y-104432341D01*
X142510306Y-104390187D01*
X142408763Y-104316412D01*
X142355806Y-104277936D01*
X142181342Y-104200260D01*
X141994541Y-104160554D01*
X141803567Y-104160554D01*
X141690807Y-104184522D01*
X141616765Y-104200260D01*
X141442300Y-104277937D01*
X141277087Y-104397972D01*
X141275692Y-104396052D01*
X141253043Y-104412505D01*
X141201802Y-104423395D01*
X141036846Y-104423395D01*
X140985598Y-104412502D01*
X140943211Y-104381707D01*
X140939899Y-104378028D01*
X140785399Y-104265778D01*
X140785398Y-104265777D01*
X140610934Y-104188101D01*
X140424133Y-104148395D01*
X140233159Y-104148395D01*
X140108624Y-104174865D01*
X140046357Y-104188101D01*
X139871892Y-104265778D01*
X139717392Y-104378028D01*
X139714081Y-104381707D01*
X139671694Y-104412502D01*
X139620446Y-104423395D01*
X131861521Y-104423395D01*
X131813303Y-104413804D01*
X131772426Y-104386490D01*
X128885936Y-101500000D01*
X145086496Y-101500000D01*
X145106458Y-101689929D01*
X145165472Y-101871556D01*
X145260958Y-102036942D01*
X145260960Y-102036944D01*
X145388747Y-102178866D01*
X145543248Y-102291118D01*
X145717712Y-102368794D01*
X145904513Y-102408500D01*
X146095485Y-102408500D01*
X146095487Y-102408500D01*
X146282288Y-102368794D01*
X146456752Y-102291118D01*
X146611253Y-102178866D01*
X146614564Y-102175188D01*
X146656952Y-102144393D01*
X146708200Y-102133500D01*
X148597902Y-102133500D01*
X148646120Y-102143091D01*
X148686997Y-102170405D01*
X151065144Y-104548552D01*
X151094683Y-104595199D01*
X151101442Y-104649996D01*
X151089284Y-104773442D01*
X151108756Y-104971144D01*
X151142444Y-105082196D01*
X151166424Y-105161247D01*
X151260070Y-105336447D01*
X151260072Y-105336449D01*
X151261460Y-105339046D01*
X151276338Y-105398442D01*
X151261460Y-105457838D01*
X151166423Y-105635640D01*
X151108756Y-105825741D01*
X151089284Y-106023442D01*
X151108756Y-106221144D01*
X151142444Y-106332196D01*
X151166424Y-106411247D01*
X151225782Y-106522299D01*
X151261460Y-106589047D01*
X151276338Y-106648443D01*
X151261460Y-106707839D01*
X151166423Y-106885640D01*
X151108756Y-107075741D01*
X151089284Y-107273443D01*
X151108756Y-107471144D01*
X151142444Y-107582196D01*
X151166424Y-107661247D01*
X151226714Y-107774043D01*
X151261460Y-107839047D01*
X151276338Y-107898443D01*
X151261460Y-107957839D01*
X151166423Y-108135640D01*
X151108756Y-108325741D01*
X151089284Y-108523442D01*
X151108756Y-108721144D01*
X151166423Y-108911245D01*
X151260071Y-109086450D01*
X151386096Y-109240011D01*
X151539657Y-109366036D01*
X151539661Y-109366038D01*
X151714861Y-109459684D01*
X151809912Y-109488517D01*
X151904963Y-109517351D01*
X152053115Y-109531943D01*
X152053118Y-109531943D01*
X152652212Y-109531943D01*
X152652215Y-109531943D01*
X152800366Y-109517351D01*
X152800366Y-109517350D01*
X152990469Y-109459684D01*
X153165669Y-109366038D01*
X153165670Y-109366036D01*
X153165672Y-109366036D01*
X153319233Y-109240011D01*
X153445258Y-109086450D01*
X153455189Y-109067871D01*
X153538906Y-108911247D01*
X153596573Y-108721144D01*
X153616045Y-108523443D01*
X153599339Y-108353830D01*
X153596573Y-108325741D01*
X153538906Y-108135640D01*
X153538906Y-108135639D01*
X153445260Y-107960439D01*
X153445259Y-107960438D01*
X153443870Y-107957839D01*
X153428992Y-107898443D01*
X153443870Y-107839047D01*
X153467724Y-107794419D01*
X153538906Y-107661247D01*
X153596573Y-107471144D01*
X153616045Y-107273443D01*
X153596573Y-107075742D01*
X153538906Y-106885639D01*
X153445260Y-106710439D01*
X153445259Y-106710438D01*
X153443870Y-106707839D01*
X153428992Y-106648443D01*
X153443870Y-106589047D01*
X153445260Y-106586447D01*
X153538906Y-106411247D01*
X153596573Y-106221144D01*
X153616045Y-106023443D01*
X153607614Y-105937847D01*
X153596573Y-105825741D01*
X153558820Y-105701288D01*
X153538906Y-105635639D01*
X153445260Y-105460439D01*
X153445259Y-105460438D01*
X153443870Y-105457839D01*
X153428992Y-105398443D01*
X153443870Y-105339047D01*
X153466100Y-105297458D01*
X153538906Y-105161247D01*
X153596573Y-104971144D01*
X153616045Y-104773443D01*
X153612355Y-104735974D01*
X153596573Y-104575741D01*
X153547450Y-104413804D01*
X153538906Y-104385639D01*
X153445260Y-104210439D01*
X153445259Y-104210438D01*
X153443870Y-104207839D01*
X153428992Y-104148443D01*
X153443870Y-104089047D01*
X153445260Y-104086447D01*
X153538906Y-103911247D01*
X153596573Y-103721144D01*
X153616045Y-103523443D01*
X153611874Y-103481099D01*
X153596573Y-103325741D01*
X153538906Y-103135640D01*
X153538906Y-103135639D01*
X153464478Y-102996394D01*
X153445258Y-102960435D01*
X153319233Y-102806874D01*
X153165672Y-102680849D01*
X152990467Y-102587201D01*
X152800366Y-102529534D01*
X152652215Y-102514943D01*
X152652212Y-102514943D01*
X152053118Y-102514943D01*
X152053115Y-102514943D01*
X151904963Y-102529534D01*
X151714863Y-102587201D01*
X151678104Y-102606848D01*
X151626950Y-102621454D01*
X151574326Y-102613648D01*
X151529616Y-102584819D01*
X149457004Y-100512207D01*
X149432373Y-100477356D01*
X149420789Y-100436282D01*
X149419222Y-100421376D01*
X149406195Y-100297420D01*
X149406194Y-100297418D01*
X149347179Y-100115790D01*
X149251694Y-99950405D01*
X149123905Y-99808481D01*
X148969406Y-99696231D01*
X148969405Y-99696230D01*
X148794941Y-99618554D01*
X148608140Y-99578848D01*
X148417166Y-99578848D01*
X148292631Y-99605318D01*
X148230364Y-99618554D01*
X148055899Y-99696231D01*
X147901400Y-99808481D01*
X147773611Y-99950405D01*
X147678125Y-100115791D01*
X147619111Y-100297418D01*
X147599149Y-100487347D01*
X147619111Y-100677277D01*
X147627003Y-100701564D01*
X147631619Y-100760211D01*
X147609106Y-100814561D01*
X147564373Y-100852767D01*
X147507170Y-100866500D01*
X146708200Y-100866500D01*
X146656952Y-100855607D01*
X146614565Y-100824812D01*
X146611253Y-100821133D01*
X146456753Y-100708883D01*
X146456752Y-100708882D01*
X146282288Y-100631206D01*
X146095487Y-100591500D01*
X145904513Y-100591500D01*
X145783548Y-100617212D01*
X145717711Y-100631206D01*
X145543246Y-100708883D01*
X145388747Y-100821133D01*
X145260958Y-100963057D01*
X145165472Y-101128443D01*
X145106458Y-101310070D01*
X145086496Y-101500000D01*
X128885936Y-101500000D01*
X127576001Y-100190065D01*
X127544602Y-100137809D01*
X127541411Y-100076928D01*
X127567176Y-100021675D01*
X127615865Y-99984986D01*
X127676078Y-99975450D01*
X127693508Y-99976975D01*
X127921595Y-99957020D01*
X128142751Y-99897761D01*
X128350257Y-99801000D01*
X128537808Y-99669675D01*
X128699706Y-99507777D01*
X128831031Y-99320226D01*
X128849312Y-99281020D01*
X128895808Y-99228002D01*
X128963508Y-99208269D01*
X129031208Y-99228002D01*
X129077703Y-99281020D01*
X129095984Y-99320225D01*
X129227312Y-99507780D01*
X129389204Y-99669672D01*
X129576757Y-99800999D01*
X129784264Y-99897761D01*
X129838129Y-99912194D01*
X130005421Y-99957020D01*
X130233508Y-99976975D01*
X130461595Y-99957020D01*
X130682751Y-99897761D01*
X130890257Y-99801000D01*
X131077808Y-99669675D01*
X131239706Y-99507777D01*
X131371031Y-99320226D01*
X131389312Y-99281020D01*
X131435808Y-99228002D01*
X131503508Y-99208269D01*
X131571208Y-99228002D01*
X131617703Y-99281020D01*
X131635984Y-99320225D01*
X131767312Y-99507780D01*
X131929204Y-99669672D01*
X132116757Y-99800999D01*
X132324264Y-99897761D01*
X132378129Y-99912194D01*
X132545421Y-99957020D01*
X132773508Y-99976975D01*
X133001595Y-99957020D01*
X133222751Y-99897761D01*
X133430257Y-99801000D01*
X133617808Y-99669675D01*
X133779706Y-99507777D01*
X133911031Y-99320226D01*
X133929312Y-99281020D01*
X133975808Y-99228002D01*
X134043508Y-99208269D01*
X134111208Y-99228002D01*
X134157703Y-99281020D01*
X134175984Y-99320225D01*
X134307312Y-99507780D01*
X134469204Y-99669672D01*
X134656757Y-99800999D01*
X134864264Y-99897761D01*
X134918129Y-99912194D01*
X135085421Y-99957020D01*
X135313508Y-99976975D01*
X135541595Y-99957020D01*
X135762751Y-99897761D01*
X135970257Y-99801000D01*
X136157808Y-99669675D01*
X136319706Y-99507777D01*
X136451031Y-99320226D01*
X136469312Y-99281020D01*
X136515808Y-99228002D01*
X136583508Y-99208269D01*
X136651208Y-99228002D01*
X136697703Y-99281020D01*
X136715984Y-99320225D01*
X136847312Y-99507780D01*
X137009204Y-99669672D01*
X137196757Y-99800999D01*
X137404264Y-99897761D01*
X137458129Y-99912194D01*
X137625421Y-99957020D01*
X137853508Y-99976975D01*
X138081595Y-99957020D01*
X138302751Y-99897761D01*
X138510257Y-99801000D01*
X138697808Y-99669675D01*
X138859706Y-99507777D01*
X138991031Y-99320226D01*
X139087792Y-99112720D01*
X139147051Y-98891564D01*
X139167006Y-98663477D01*
X139147051Y-98435390D01*
X139087792Y-98214234D01*
X138991031Y-98006728D01*
X138859706Y-97819177D01*
X138859705Y-97819176D01*
X138859703Y-97819173D01*
X138697811Y-97657281D01*
X138510258Y-97525954D01*
X138302751Y-97429192D01*
X138081595Y-97369934D01*
X137853508Y-97349979D01*
X137625420Y-97369934D01*
X137404264Y-97429192D01*
X137196757Y-97525954D01*
X137009204Y-97657281D01*
X136847312Y-97819173D01*
X136715985Y-98006727D01*
X136697703Y-98045934D01*
X136651208Y-98098951D01*
X136583508Y-98118684D01*
X136515808Y-98098951D01*
X136469313Y-98045934D01*
X136467402Y-98041836D01*
X136451031Y-98006728D01*
X136319706Y-97819177D01*
X136319705Y-97819176D01*
X136319703Y-97819173D01*
X136157811Y-97657281D01*
X135970258Y-97525954D01*
X135762751Y-97429192D01*
X135541595Y-97369934D01*
X135313508Y-97349979D01*
X135085420Y-97369934D01*
X134864264Y-97429192D01*
X134656757Y-97525954D01*
X134469204Y-97657281D01*
X134307312Y-97819173D01*
X134175985Y-98006727D01*
X134157703Y-98045934D01*
X134111208Y-98098951D01*
X134043508Y-98118684D01*
X133975808Y-98098951D01*
X133929313Y-98045934D01*
X133927402Y-98041836D01*
X133911031Y-98006728D01*
X133779706Y-97819177D01*
X133779705Y-97819176D01*
X133779703Y-97819173D01*
X133617811Y-97657281D01*
X133430258Y-97525954D01*
X133222751Y-97429192D01*
X133001595Y-97369934D01*
X132773508Y-97349979D01*
X132545420Y-97369934D01*
X132324264Y-97429192D01*
X132116757Y-97525954D01*
X131929204Y-97657281D01*
X131767312Y-97819173D01*
X131635985Y-98006727D01*
X131617703Y-98045934D01*
X131571208Y-98098951D01*
X131503508Y-98118684D01*
X131435808Y-98098951D01*
X131389313Y-98045934D01*
X131387402Y-98041836D01*
X131371031Y-98006728D01*
X131239706Y-97819177D01*
X131239705Y-97819176D01*
X131239703Y-97819173D01*
X131077811Y-97657281D01*
X130890258Y-97525954D01*
X130682751Y-97429192D01*
X130461595Y-97369934D01*
X130233508Y-97349979D01*
X130005420Y-97369934D01*
X129784264Y-97429192D01*
X129576757Y-97525954D01*
X129389204Y-97657281D01*
X129227312Y-97819173D01*
X129095985Y-98006727D01*
X129077703Y-98045934D01*
X129031208Y-98098951D01*
X128963508Y-98118684D01*
X128895808Y-98098951D01*
X128849313Y-98045934D01*
X128847402Y-98041836D01*
X128831031Y-98006728D01*
X128699706Y-97819177D01*
X128699705Y-97819176D01*
X128699703Y-97819173D01*
X128537811Y-97657281D01*
X128350258Y-97525954D01*
X128142751Y-97429192D01*
X127921595Y-97369934D01*
X127693508Y-97349979D01*
X127465420Y-97369934D01*
X127244264Y-97429192D01*
X127036757Y-97525954D01*
X126849204Y-97657281D01*
X126687312Y-97819173D01*
X126555985Y-98006727D01*
X126537703Y-98045934D01*
X126491208Y-98098951D01*
X126423508Y-98118684D01*
X126355808Y-98098951D01*
X126309313Y-98045934D01*
X126307402Y-98041836D01*
X126291031Y-98006728D01*
X126159706Y-97819177D01*
X126159705Y-97819176D01*
X126159703Y-97819173D01*
X125997811Y-97657281D01*
X125810258Y-97525954D01*
X125602751Y-97429192D01*
X125381595Y-97369934D01*
X125153508Y-97349979D01*
X124925420Y-97369934D01*
X124704264Y-97429192D01*
X124496757Y-97525954D01*
X124309204Y-97657281D01*
X124147312Y-97819173D01*
X124015985Y-98006727D01*
X123997703Y-98045934D01*
X123951208Y-98098951D01*
X123883508Y-98118684D01*
X123815808Y-98098951D01*
X123769313Y-98045934D01*
X123767402Y-98041836D01*
X123751031Y-98006728D01*
X123619706Y-97819177D01*
X123619705Y-97819176D01*
X123619703Y-97819173D01*
X123457811Y-97657281D01*
X123270258Y-97525954D01*
X123062751Y-97429192D01*
X122841595Y-97369934D01*
X122613508Y-97349979D01*
X122385420Y-97369934D01*
X122164264Y-97429192D01*
X121956757Y-97525954D01*
X121769204Y-97657281D01*
X121607312Y-97819173D01*
X121475985Y-98006727D01*
X121457703Y-98045934D01*
X121411208Y-98098951D01*
X121343508Y-98118684D01*
X121275808Y-98098951D01*
X121229313Y-98045934D01*
X121227402Y-98041836D01*
X121211031Y-98006728D01*
X121079706Y-97819177D01*
X121079705Y-97819176D01*
X121079703Y-97819173D01*
X120917811Y-97657281D01*
X120730258Y-97525954D01*
X120522751Y-97429192D01*
X120301595Y-97369934D01*
X120073508Y-97349979D01*
X119845420Y-97369934D01*
X119624264Y-97429192D01*
X119416757Y-97525954D01*
X119229204Y-97657281D01*
X119067312Y-97819173D01*
X118935985Y-98006727D01*
X118917703Y-98045934D01*
X118871208Y-98098951D01*
X118803508Y-98118684D01*
X118735808Y-98098951D01*
X118689313Y-98045934D01*
X118687402Y-98041836D01*
X118671031Y-98006728D01*
X118539706Y-97819177D01*
X118539705Y-97819176D01*
X118539703Y-97819173D01*
X118377811Y-97657281D01*
X118190258Y-97525954D01*
X117982751Y-97429192D01*
X117761595Y-97369934D01*
X117533508Y-97349979D01*
X117305420Y-97369934D01*
X117084264Y-97429192D01*
X116876757Y-97525954D01*
X116689204Y-97657281D01*
X116527312Y-97819173D01*
X116395985Y-98006727D01*
X116377703Y-98045934D01*
X116331208Y-98098951D01*
X116263508Y-98118684D01*
X116195808Y-98098951D01*
X116149313Y-98045934D01*
X116147402Y-98041836D01*
X116131031Y-98006728D01*
X116066822Y-97915029D01*
X116044581Y-97854471D01*
X116055230Y-97790841D01*
X116095972Y-97740825D01*
X116181253Y-97678866D01*
X116309040Y-97536944D01*
X116404527Y-97371556D01*
X116463542Y-97189928D01*
X116483504Y-97000000D01*
X116463542Y-96810072D01*
X116429052Y-96703923D01*
X116404527Y-96628443D01*
X116331743Y-96502378D01*
X116314862Y-96439375D01*
X116331746Y-96376373D01*
X116334528Y-96371554D01*
X116354683Y-96309522D01*
X116393542Y-96189928D01*
X116413504Y-96000000D01*
X116393542Y-95810072D01*
X116334527Y-95628444D01*
X116334527Y-95628443D01*
X116239041Y-95463057D01*
X116111252Y-95321133D01*
X115956753Y-95208883D01*
X115956752Y-95208882D01*
X115782288Y-95131206D01*
X115595487Y-95091500D01*
X115404513Y-95091500D01*
X115279979Y-95117970D01*
X115217711Y-95131206D01*
X115043246Y-95208883D01*
X114888746Y-95321133D01*
X114885435Y-95324812D01*
X114843048Y-95355607D01*
X114791800Y-95366500D01*
X110708200Y-95366500D01*
X110656952Y-95355607D01*
X110614565Y-95324812D01*
X110611253Y-95321133D01*
X110456753Y-95208883D01*
X110456752Y-95208882D01*
X110282288Y-95131206D01*
X110095487Y-95091500D01*
X109904513Y-95091500D01*
X109779979Y-95117970D01*
X109717711Y-95131206D01*
X109543246Y-95208883D01*
X109388747Y-95321133D01*
X109260958Y-95463057D01*
X109165472Y-95628443D01*
X109106458Y-95810070D01*
X109086496Y-96000000D01*
X109106458Y-96189929D01*
X109165472Y-96371554D01*
X109203257Y-96437001D01*
X109220137Y-96500000D01*
X109203257Y-96562999D01*
X109165472Y-96628445D01*
X109106458Y-96810070D01*
X109086496Y-96999999D01*
X109106458Y-97189929D01*
X109165472Y-97371556D01*
X109197502Y-97427033D01*
X109214330Y-97486368D01*
X109200981Y-97546581D01*
X109160655Y-97593245D01*
X109069205Y-97657280D01*
X108907312Y-97819173D01*
X108775985Y-98006726D01*
X108679223Y-98214233D01*
X108619965Y-98435389D01*
X108600010Y-98663476D01*
X108188500Y-98663476D01*
X108188500Y-97257772D01*
X108196099Y-97214677D01*
X108217979Y-97176781D01*
X108308876Y-97068454D01*
X108308877Y-97068452D01*
X108308879Y-97068450D01*
X108457731Y-96830236D01*
X108571982Y-96573625D01*
X108649407Y-96303610D01*
X108688500Y-96025448D01*
X108688500Y-85781854D01*
X108688500Y-80574854D01*
X108673811Y-80364788D01*
X108615409Y-80090030D01*
X108615407Y-80090024D01*
X108519338Y-79826076D01*
X108387464Y-79578057D01*
X108250601Y-79389681D01*
X108222358Y-79350808D01*
X108222357Y-79350807D01*
X108217179Y-79343680D01*
X108217887Y-79343165D01*
X108197675Y-79312040D01*
X108188500Y-79264840D01*
X108188500Y-78401032D01*
X108198091Y-78352814D01*
X108225404Y-78311937D01*
X108232514Y-78304825D01*
X108394165Y-78143175D01*
X108446417Y-78111779D01*
X108507298Y-78108588D01*
X108562551Y-78134352D01*
X108599240Y-78183040D01*
X108608778Y-78243253D01*
X108600010Y-78343477D01*
X108619965Y-78571564D01*
X108679223Y-78792720D01*
X108775985Y-79000227D01*
X108907312Y-79187780D01*
X109069204Y-79349672D01*
X109069207Y-79349674D01*
X109069208Y-79349675D01*
X109126342Y-79389681D01*
X109256757Y-79480999D01*
X109464264Y-79577761D01*
X109523523Y-79593639D01*
X109685421Y-79637020D01*
X109913508Y-79656975D01*
X110141595Y-79637020D01*
X110362751Y-79577761D01*
X110570257Y-79481000D01*
X110757808Y-79349675D01*
X110919706Y-79187777D01*
X111051031Y-79000226D01*
X111069312Y-78961020D01*
X111115808Y-78908002D01*
X111183508Y-78888269D01*
X111251208Y-78908002D01*
X111297703Y-78961020D01*
X111315984Y-79000225D01*
X111447312Y-79187780D01*
X111609204Y-79349672D01*
X111609207Y-79349674D01*
X111609208Y-79349675D01*
X111666342Y-79389681D01*
X111796757Y-79480999D01*
X112004264Y-79577761D01*
X112063523Y-79593639D01*
X112225421Y-79637020D01*
X112453508Y-79656975D01*
X112681595Y-79637020D01*
X112902751Y-79577761D01*
X113110257Y-79481000D01*
X113297808Y-79349675D01*
X113459706Y-79187777D01*
X113591031Y-79000226D01*
X113609312Y-78961020D01*
X113655808Y-78908002D01*
X113723508Y-78888269D01*
X113791208Y-78908002D01*
X113837703Y-78961020D01*
X113855984Y-79000225D01*
X113987312Y-79187780D01*
X114149204Y-79349672D01*
X114149207Y-79349674D01*
X114149208Y-79349675D01*
X114206342Y-79389681D01*
X114336757Y-79480999D01*
X114544264Y-79577761D01*
X114603523Y-79593639D01*
X114765421Y-79637020D01*
X114993508Y-79656975D01*
X115221595Y-79637020D01*
X115442751Y-79577761D01*
X115650257Y-79481000D01*
X115837808Y-79349675D01*
X115999706Y-79187777D01*
X116131031Y-79000226D01*
X116149312Y-78961020D01*
X116195808Y-78908002D01*
X116263508Y-78888269D01*
X116331208Y-78908002D01*
X116377703Y-78961020D01*
X116395984Y-79000225D01*
X116527312Y-79187780D01*
X116689204Y-79349672D01*
X116689207Y-79349674D01*
X116689208Y-79349675D01*
X116746342Y-79389681D01*
X116876757Y-79480999D01*
X117084264Y-79577761D01*
X117143523Y-79593639D01*
X117305421Y-79637020D01*
X117533508Y-79656975D01*
X117761595Y-79637020D01*
X117982751Y-79577761D01*
X118190257Y-79481000D01*
X118377808Y-79349675D01*
X118539706Y-79187777D01*
X118671031Y-79000226D01*
X118689312Y-78961020D01*
X118735808Y-78908002D01*
X118803508Y-78888269D01*
X118871208Y-78908002D01*
X118917703Y-78961020D01*
X118935984Y-79000225D01*
X119067312Y-79187780D01*
X119229204Y-79349672D01*
X119229207Y-79349674D01*
X119229208Y-79349675D01*
X119286342Y-79389681D01*
X119416757Y-79480999D01*
X119624264Y-79577761D01*
X119683523Y-79593639D01*
X119845421Y-79637020D01*
X120073508Y-79656975D01*
X120301595Y-79637020D01*
X120522751Y-79577761D01*
X120730257Y-79481000D01*
X120917808Y-79349675D01*
X121079706Y-79187777D01*
X121211031Y-79000226D01*
X121229312Y-78961020D01*
X121275808Y-78908002D01*
X121343508Y-78888269D01*
X121411208Y-78908002D01*
X121457703Y-78961020D01*
X121475984Y-79000225D01*
X121607312Y-79187780D01*
X121769204Y-79349672D01*
X121769207Y-79349674D01*
X121769208Y-79349675D01*
X121826342Y-79389681D01*
X121956757Y-79480999D01*
X122164264Y-79577761D01*
X122223523Y-79593639D01*
X122385421Y-79637020D01*
X122613508Y-79656975D01*
X122841595Y-79637020D01*
X123046986Y-79581984D01*
X123112208Y-79581984D01*
X123168692Y-79614596D01*
X134942877Y-91388781D01*
X134967508Y-91423631D01*
X134979092Y-91464705D01*
X134996458Y-91629929D01*
X135055472Y-91811556D01*
X135150958Y-91976942D01*
X135150960Y-91976944D01*
X135278747Y-92118866D01*
X135433248Y-92231118D01*
X135607712Y-92308794D01*
X135794513Y-92348500D01*
X135985485Y-92348500D01*
X135985487Y-92348500D01*
X136172288Y-92308794D01*
X136346752Y-92231118D01*
X136501253Y-92118866D01*
X136629040Y-91976944D01*
X136724527Y-91811556D01*
X136783542Y-91629928D01*
X136803504Y-91440000D01*
X136783542Y-91250072D01*
X136724527Y-91068444D01*
X136724527Y-91068443D01*
X136629041Y-90903057D01*
X136501252Y-90761133D01*
X136346753Y-90648883D01*
X136346752Y-90648882D01*
X136172288Y-90571206D01*
X135985487Y-90531500D01*
X135985485Y-90531500D01*
X135929595Y-90531500D01*
X135881377Y-90521909D01*
X135840500Y-90494595D01*
X125206063Y-79860158D01*
X125172145Y-79798334D01*
X125176757Y-79727968D01*
X125218455Y-79671100D01*
X125284173Y-79645543D01*
X125381595Y-79637020D01*
X125602751Y-79577761D01*
X125810257Y-79481000D01*
X125997808Y-79349675D01*
X126159706Y-79187777D01*
X126291031Y-79000226D01*
X126309312Y-78961020D01*
X126355808Y-78908002D01*
X126423508Y-78888269D01*
X126491208Y-78908002D01*
X126537703Y-78961020D01*
X126555984Y-79000225D01*
X126687312Y-79187780D01*
X126849204Y-79349672D01*
X126849207Y-79349674D01*
X126849208Y-79349675D01*
X126906342Y-79389681D01*
X127036757Y-79480999D01*
X127244264Y-79577761D01*
X127303523Y-79593639D01*
X127465421Y-79637020D01*
X127693508Y-79656975D01*
X127921595Y-79637020D01*
X128142751Y-79577761D01*
X128350257Y-79481000D01*
X128537808Y-79349675D01*
X128699706Y-79187777D01*
X128831031Y-79000226D01*
X128849312Y-78961020D01*
X128895808Y-78908002D01*
X128963508Y-78888269D01*
X129031208Y-78908002D01*
X129077703Y-78961020D01*
X129095984Y-79000225D01*
X129227312Y-79187780D01*
X129389204Y-79349672D01*
X129389207Y-79349674D01*
X129389208Y-79349675D01*
X129446342Y-79389681D01*
X129576757Y-79480999D01*
X129784264Y-79577761D01*
X129843523Y-79593639D01*
X130005421Y-79637020D01*
X130233508Y-79656975D01*
X130461595Y-79637020D01*
X130682751Y-79577761D01*
X130890257Y-79481000D01*
X131077808Y-79349675D01*
X131239706Y-79187777D01*
X131371031Y-79000226D01*
X131389312Y-78961020D01*
X131435808Y-78908002D01*
X131503508Y-78888269D01*
X131571208Y-78908002D01*
X131617703Y-78961020D01*
X131635984Y-79000225D01*
X131767312Y-79187780D01*
X131929204Y-79349672D01*
X131929207Y-79349674D01*
X131929208Y-79349675D01*
X131986342Y-79389681D01*
X132116757Y-79480999D01*
X132324264Y-79577761D01*
X132383523Y-79593639D01*
X132545421Y-79637020D01*
X132773508Y-79656975D01*
X133001595Y-79637020D01*
X133222751Y-79577761D01*
X133430257Y-79481000D01*
X133617808Y-79349675D01*
X133779706Y-79187777D01*
X133911031Y-79000226D01*
X133929312Y-78961020D01*
X133975808Y-78908002D01*
X134043508Y-78888269D01*
X134111208Y-78908002D01*
X134157703Y-78961020D01*
X134175984Y-79000225D01*
X134307312Y-79187780D01*
X134469204Y-79349672D01*
X134469207Y-79349674D01*
X134469208Y-79349675D01*
X134526342Y-79389681D01*
X134656757Y-79480999D01*
X134864264Y-79577761D01*
X134923523Y-79593639D01*
X135085421Y-79637020D01*
X135313508Y-79656975D01*
X135541595Y-79637020D01*
X135762751Y-79577761D01*
X135970257Y-79481000D01*
X136157808Y-79349675D01*
X136319706Y-79187777D01*
X136451031Y-79000226D01*
X136469312Y-78961020D01*
X136515808Y-78908002D01*
X136583508Y-78888269D01*
X136651208Y-78908002D01*
X136697703Y-78961020D01*
X136715984Y-79000225D01*
X136847312Y-79187780D01*
X137009204Y-79349672D01*
X137009207Y-79349674D01*
X137009208Y-79349675D01*
X137066342Y-79389681D01*
X137196757Y-79480999D01*
X137404264Y-79577761D01*
X137463523Y-79593639D01*
X137625421Y-79637020D01*
X137853508Y-79656975D01*
X138081595Y-79637020D01*
X138302751Y-79577761D01*
X138510257Y-79481000D01*
X138697808Y-79349675D01*
X138859706Y-79187777D01*
X138991031Y-79000226D01*
X139087792Y-78792720D01*
X139147051Y-78571564D01*
X139167006Y-78343477D01*
X139147051Y-78115390D01*
X139087792Y-77894234D01*
X139085008Y-77888264D01*
X138991030Y-77686726D01*
X138859703Y-77499173D01*
X138697811Y-77337281D01*
X138510258Y-77205954D01*
X138302751Y-77109192D01*
X138081595Y-77049934D01*
X137853508Y-77029979D01*
X137625420Y-77049934D01*
X137404264Y-77109192D01*
X137196757Y-77205954D01*
X137009204Y-77337281D01*
X136847312Y-77499173D01*
X136715985Y-77686727D01*
X136697703Y-77725934D01*
X136651208Y-77778951D01*
X136583508Y-77798684D01*
X136515808Y-77778951D01*
X136469313Y-77725934D01*
X136467402Y-77721836D01*
X136451031Y-77686728D01*
X136319706Y-77499177D01*
X136319705Y-77499176D01*
X136319703Y-77499173D01*
X136157811Y-77337281D01*
X135970258Y-77205954D01*
X135762751Y-77109192D01*
X135541595Y-77049934D01*
X135313508Y-77029979D01*
X135085420Y-77049934D01*
X134864264Y-77109192D01*
X134656757Y-77205954D01*
X134469204Y-77337281D01*
X134307312Y-77499173D01*
X134175985Y-77686727D01*
X134157703Y-77725934D01*
X134111208Y-77778951D01*
X134043508Y-77798684D01*
X133975808Y-77778951D01*
X133929313Y-77725934D01*
X133927402Y-77721836D01*
X133911031Y-77686728D01*
X133779706Y-77499177D01*
X133779705Y-77499176D01*
X133779703Y-77499173D01*
X133617811Y-77337281D01*
X133430258Y-77205954D01*
X133222751Y-77109192D01*
X133001595Y-77049934D01*
X132773508Y-77029979D01*
X132545420Y-77049934D01*
X132324264Y-77109192D01*
X132116757Y-77205954D01*
X131929204Y-77337281D01*
X131767312Y-77499173D01*
X131635985Y-77686727D01*
X131617703Y-77725934D01*
X131571208Y-77778951D01*
X131503508Y-77798684D01*
X131435808Y-77778951D01*
X131389313Y-77725934D01*
X131387402Y-77721836D01*
X131371031Y-77686728D01*
X131239706Y-77499177D01*
X131239705Y-77499176D01*
X131239703Y-77499173D01*
X131077811Y-77337281D01*
X130890258Y-77205954D01*
X130682751Y-77109192D01*
X130461595Y-77049934D01*
X130233508Y-77029979D01*
X130005420Y-77049934D01*
X129784264Y-77109192D01*
X129576757Y-77205954D01*
X129389204Y-77337281D01*
X129227312Y-77499173D01*
X129095985Y-77686727D01*
X129077703Y-77725934D01*
X129031208Y-77778951D01*
X128963508Y-77798684D01*
X128895808Y-77778951D01*
X128849313Y-77725934D01*
X128847402Y-77721836D01*
X128831031Y-77686728D01*
X128699706Y-77499177D01*
X128699705Y-77499176D01*
X128699703Y-77499173D01*
X128537811Y-77337281D01*
X128350258Y-77205954D01*
X128142751Y-77109192D01*
X127921595Y-77049934D01*
X127693508Y-77029979D01*
X127465420Y-77049934D01*
X127244264Y-77109192D01*
X127036757Y-77205954D01*
X126849204Y-77337281D01*
X126687312Y-77499173D01*
X126555985Y-77686727D01*
X126537703Y-77725934D01*
X126491208Y-77778951D01*
X126423508Y-77798684D01*
X126355808Y-77778951D01*
X126309313Y-77725934D01*
X126307402Y-77721836D01*
X126291031Y-77686728D01*
X126159706Y-77499177D01*
X126159705Y-77499176D01*
X126159703Y-77499173D01*
X125997811Y-77337281D01*
X125810258Y-77205954D01*
X125602751Y-77109192D01*
X125381595Y-77049934D01*
X125153508Y-77029979D01*
X124925420Y-77049934D01*
X124704264Y-77109192D01*
X124496757Y-77205954D01*
X124309204Y-77337281D01*
X124147312Y-77499173D01*
X124015985Y-77686727D01*
X123997703Y-77725934D01*
X123951208Y-77778951D01*
X123883508Y-77798684D01*
X123815808Y-77778951D01*
X123769313Y-77725934D01*
X123767402Y-77721836D01*
X123751031Y-77686728D01*
X123619706Y-77499177D01*
X123619705Y-77499176D01*
X123619703Y-77499173D01*
X123457811Y-77337281D01*
X123270258Y-77205954D01*
X123062751Y-77109192D01*
X122841595Y-77049934D01*
X122613508Y-77029979D01*
X122385420Y-77049934D01*
X122164264Y-77109192D01*
X121956757Y-77205954D01*
X121769204Y-77337281D01*
X121607312Y-77499173D01*
X121475985Y-77686727D01*
X121457703Y-77725934D01*
X121411208Y-77778951D01*
X121343508Y-77798684D01*
X121275808Y-77778951D01*
X121229313Y-77725934D01*
X121227402Y-77721836D01*
X121211031Y-77686728D01*
X121079706Y-77499177D01*
X121079705Y-77499176D01*
X121079703Y-77499173D01*
X120917811Y-77337281D01*
X120730258Y-77205954D01*
X120522751Y-77109192D01*
X120301595Y-77049934D01*
X120073508Y-77029979D01*
X119845420Y-77049934D01*
X119624264Y-77109192D01*
X119416757Y-77205954D01*
X119229204Y-77337281D01*
X119067312Y-77499173D01*
X118935985Y-77686727D01*
X118917703Y-77725934D01*
X118871208Y-77778951D01*
X118803508Y-77798684D01*
X118735808Y-77778951D01*
X118689313Y-77725934D01*
X118687402Y-77721836D01*
X118671031Y-77686728D01*
X118539706Y-77499177D01*
X118539705Y-77499176D01*
X118539703Y-77499173D01*
X118377811Y-77337281D01*
X118190258Y-77205954D01*
X117982751Y-77109192D01*
X117761595Y-77049934D01*
X117533508Y-77029979D01*
X117305420Y-77049934D01*
X117084264Y-77109192D01*
X116876757Y-77205954D01*
X116689204Y-77337281D01*
X116527312Y-77499173D01*
X116395985Y-77686727D01*
X116377703Y-77725934D01*
X116331208Y-77778951D01*
X116263508Y-77798684D01*
X116195808Y-77778951D01*
X116149313Y-77725934D01*
X116147402Y-77721836D01*
X116131031Y-77686728D01*
X115999706Y-77499177D01*
X115999705Y-77499176D01*
X115999703Y-77499173D01*
X115837811Y-77337281D01*
X115650258Y-77205954D01*
X115442751Y-77109192D01*
X115221595Y-77049934D01*
X114993508Y-77029979D01*
X114765420Y-77049934D01*
X114544264Y-77109192D01*
X114336757Y-77205954D01*
X114149204Y-77337281D01*
X113987312Y-77499173D01*
X113855985Y-77686727D01*
X113837703Y-77725934D01*
X113791208Y-77778951D01*
X113723508Y-77798684D01*
X113655808Y-77778951D01*
X113609313Y-77725934D01*
X113607402Y-77721836D01*
X113591031Y-77686728D01*
X113459706Y-77499177D01*
X113459705Y-77499176D01*
X113459703Y-77499173D01*
X113297811Y-77337281D01*
X113110258Y-77205954D01*
X112902751Y-77109192D01*
X112681595Y-77049934D01*
X112453508Y-77029979D01*
X112225420Y-77049934D01*
X112004264Y-77109192D01*
X111796757Y-77205954D01*
X111609204Y-77337281D01*
X111447312Y-77499173D01*
X111315985Y-77686727D01*
X111297703Y-77725934D01*
X111251208Y-77778951D01*
X111183508Y-77798684D01*
X111115808Y-77778951D01*
X111069313Y-77725934D01*
X111067402Y-77721836D01*
X111051031Y-77686728D01*
X110919706Y-77499177D01*
X110919705Y-77499176D01*
X110919703Y-77499173D01*
X110757811Y-77337281D01*
X110570258Y-77205954D01*
X110362751Y-77109192D01*
X110141595Y-77049934D01*
X110117329Y-77047811D01*
X109913508Y-77029979D01*
X109913507Y-77029979D01*
X109813283Y-77038747D01*
X109753070Y-77029209D01*
X109704382Y-76992520D01*
X109678618Y-76937267D01*
X109681809Y-76876387D01*
X109713206Y-76824133D01*
X110275040Y-76262299D01*
X110276750Y-76260622D01*
X110352802Y-76187575D01*
X110396302Y-76129685D01*
X110401029Y-76123775D01*
X110447946Y-76068621D01*
X110468344Y-76034878D01*
X110475439Y-76024372D01*
X110499117Y-75992865D01*
X110532763Y-75928755D01*
X110536494Y-75922143D01*
X110573946Y-75860191D01*
X110573947Y-75860189D01*
X110588670Y-75823605D01*
X110593973Y-75812129D01*
X110612304Y-75777205D01*
X110635226Y-75708539D01*
X110637847Y-75701413D01*
X110664882Y-75634243D01*
X110673540Y-75595794D01*
X110676944Y-75583582D01*
X110689431Y-75546182D01*
X110701042Y-75474723D01*
X110702490Y-75467254D01*
X110708494Y-75440596D01*
X110718395Y-75396638D01*
X110720775Y-75357281D01*
X110722173Y-75344703D01*
X110728500Y-75305779D01*
X110728500Y-75233393D01*
X110728730Y-75225785D01*
X110728801Y-75224609D01*
X110733101Y-75153525D01*
X110729138Y-75114299D01*
X110728500Y-75101635D01*
X110728500Y-74234198D01*
X110713810Y-74052237D01*
X110713810Y-74052232D01*
X110655523Y-73815752D01*
X110560056Y-73591684D01*
X110429883Y-73385832D01*
X110429882Y-73385830D01*
X110268376Y-73203527D01*
X110259834Y-73196553D01*
X110079714Y-73049490D01*
X110028998Y-73020209D01*
X109868785Y-72927709D01*
X109816713Y-72907960D01*
X109814052Y-72906747D01*
X109810042Y-72905367D01*
X109806379Y-72904042D01*
X109641055Y-72841342D01*
X109605862Y-72834158D01*
X109590164Y-72829881D01*
X109579883Y-72826352D01*
X109579880Y-72826351D01*
X109579879Y-72826351D01*
X109514990Y-72815522D01*
X109510530Y-72814695D01*
X109402422Y-72792626D01*
X109377802Y-72791633D01*
X109362147Y-72790017D01*
X109341066Y-72786500D01*
X109341062Y-72786500D01*
X109252947Y-72786500D01*
X109247874Y-72786398D01*
X109244196Y-72786249D01*
X109159060Y-72782819D01*
X109159058Y-72782819D01*
X109139808Y-72785156D01*
X109136313Y-72785581D01*
X109121127Y-72786500D01*
X109098938Y-72786500D01*
X109022050Y-72799329D01*
X109016502Y-72800128D01*
X108917280Y-72812176D01*
X108886573Y-72821070D01*
X108872267Y-72824324D01*
X108860115Y-72826352D01*
X108818618Y-72840598D01*
X108812763Y-72842450D01*
X108683339Y-72879938D01*
X108463295Y-72984350D01*
X108262849Y-73122708D01*
X108087198Y-73291424D01*
X108041795Y-73351844D01*
X107995501Y-73389785D01*
X107936924Y-73402082D01*
X107879281Y-73385962D01*
X107844949Y-73353829D01*
X107843958Y-73354742D01*
X107672897Y-73168921D01*
X107481833Y-73020209D01*
X107268887Y-72904969D01*
X107113865Y-72851750D01*
X107039883Y-72826352D01*
X106801062Y-72786500D01*
X106558938Y-72786500D01*
X106320117Y-72826352D01*
X106320114Y-72826352D01*
X106320114Y-72826353D01*
X106091112Y-72904969D01*
X105878166Y-73020209D01*
X105687099Y-73168923D01*
X105523115Y-73347058D01*
X105390685Y-73549757D01*
X105293424Y-73771489D01*
X105233988Y-74006198D01*
X105233987Y-74006203D01*
X105219000Y-74187073D01*
X105219000Y-74402927D01*
X105233987Y-74583797D01*
X105293425Y-74818512D01*
X105390685Y-75040242D01*
X105464696Y-75153525D01*
X105523115Y-75242941D01*
X105687099Y-75421076D01*
X105878166Y-75569790D01*
X106091112Y-75685030D01*
X106268334Y-75745871D01*
X106321000Y-75780669D01*
X106350180Y-75836644D01*
X106348549Y-75899747D01*
X106316517Y-75954139D01*
X105624983Y-76645673D01*
X105623173Y-76647448D01*
X105547198Y-76720424D01*
X105503718Y-76778285D01*
X105498966Y-76784226D01*
X105452055Y-76839377D01*
X105431660Y-76873115D01*
X105424564Y-76883619D01*
X105400883Y-76915135D01*
X105400881Y-76915137D01*
X105400882Y-76915137D01*
X105367249Y-76979216D01*
X105363513Y-76985840D01*
X105326052Y-77047810D01*
X105311330Y-77084389D01*
X105306011Y-77095896D01*
X105287697Y-77130791D01*
X105264770Y-77199462D01*
X105262145Y-77206600D01*
X105235116Y-77273761D01*
X105226454Y-77312219D01*
X105223050Y-77324429D01*
X105210568Y-77361818D01*
X105198957Y-77433267D01*
X105197510Y-77440740D01*
X105181604Y-77511362D01*
X105179224Y-77550715D01*
X105177822Y-77563317D01*
X105171500Y-77602219D01*
X105171500Y-77674597D01*
X105171270Y-77682205D01*
X105166898Y-77754474D01*
X105170862Y-77793709D01*
X105171500Y-77806374D01*
X105171500Y-79272228D01*
X105163901Y-79315323D01*
X105142021Y-79353219D01*
X105051123Y-79461545D01*
X104902270Y-79699762D01*
X104788017Y-79956377D01*
X104710593Y-80226387D01*
X104691142Y-80364788D01*
X104671500Y-80504552D01*
X104671500Y-85711552D01*
X104671500Y-95955146D01*
X104686189Y-96165212D01*
X104715607Y-96303610D01*
X104744592Y-96439975D01*
X104840661Y-96703923D01*
X104972535Y-96951942D01*
X105142821Y-97186320D01*
X105142112Y-97186834D01*
X105162325Y-97217960D01*
X105171500Y-97265160D01*
X105171500Y-100313543D01*
X105171474Y-100316081D01*
X105169352Y-100421376D01*
X105179523Y-100493048D01*
X105180364Y-100500611D01*
X105186189Y-100572769D01*
X105195624Y-100611051D01*
X105198035Y-100623494D01*
X105203573Y-100662517D01*
X105208173Y-100677277D01*
X105225108Y-100731626D01*
X105227147Y-100738940D01*
X105232390Y-100760211D01*
X105244477Y-100809248D01*
X105258363Y-100841841D01*
X105259929Y-100845515D01*
X105264305Y-100857415D01*
X105276032Y-100895046D01*
X105308370Y-100959799D01*
X105311563Y-100966705D01*
X105339944Y-101033316D01*
X105361014Y-101066635D01*
X105367244Y-101077682D01*
X105384854Y-101112943D01*
X105427164Y-101171673D01*
X105431424Y-101177980D01*
X105470117Y-101239168D01*
X105496265Y-101268684D01*
X105504179Y-101278579D01*
X105527216Y-101310557D01*
X105527218Y-101310559D01*
X105527219Y-101310560D01*
X105578400Y-101361741D01*
X105583601Y-101367266D01*
X105631625Y-101421474D01*
X105662182Y-101446422D01*
X105671577Y-101454918D01*
X108141673Y-103925014D01*
X108143402Y-103926777D01*
X108216425Y-104002802D01*
X108216426Y-104002803D01*
X108274287Y-104046282D01*
X108280232Y-104051037D01*
X108309759Y-104076153D01*
X108335379Y-104097946D01*
X108369122Y-104118344D01*
X108379628Y-104125441D01*
X108411131Y-104149115D01*
X108411135Y-104149117D01*
X108475241Y-104182762D01*
X108481837Y-104186482D01*
X108537282Y-104220000D01*
X108543811Y-104223947D01*
X108580381Y-104238665D01*
X108591891Y-104243986D01*
X108608371Y-104252635D01*
X108655212Y-104295152D01*
X108675487Y-104355074D01*
X108664085Y-104417297D01*
X108623881Y-104466138D01*
X108608746Y-104477134D01*
X108605435Y-104480812D01*
X108563048Y-104511607D01*
X108511800Y-104522500D01*
X108404200Y-104522500D01*
X108352952Y-104511607D01*
X108310565Y-104480812D01*
X108307253Y-104477133D01*
X108181321Y-104385639D01*
X108152752Y-104364882D01*
X107978288Y-104287206D01*
X107791487Y-104247500D01*
X107600513Y-104247500D01*
X107475979Y-104273970D01*
X107413711Y-104287206D01*
X107239246Y-104364883D01*
X107084747Y-104477133D01*
X106956958Y-104619057D01*
X106861472Y-104784443D01*
X106802458Y-104966070D01*
X106802457Y-104966072D01*
X106802458Y-104966072D01*
X106782496Y-105156000D01*
X106785591Y-105185447D01*
X106802458Y-105345929D01*
X106861472Y-105527556D01*
X106956958Y-105692942D01*
X107010065Y-105751923D01*
X107084747Y-105834866D01*
X107239248Y-105947118D01*
X107413712Y-106024794D01*
X107600513Y-106064500D01*
X107791485Y-106064500D01*
X107791487Y-106064500D01*
X107978288Y-106024794D01*
X108152752Y-105947118D01*
X108307253Y-105834866D01*
X108310564Y-105831188D01*
X108352952Y-105800393D01*
X108404200Y-105789500D01*
X108511800Y-105789500D01*
X108563048Y-105800393D01*
X108605435Y-105831188D01*
X108608746Y-105834866D01*
X108696532Y-105898646D01*
X108763248Y-105947118D01*
X108937712Y-106024794D01*
X109124513Y-106064500D01*
X109315485Y-106064500D01*
X109315487Y-106064500D01*
X109502288Y-106024794D01*
X109676752Y-105947118D01*
X109831253Y-105834866D01*
X109834564Y-105831188D01*
X109876952Y-105800393D01*
X109928200Y-105789500D01*
X110035800Y-105789500D01*
X110087048Y-105800393D01*
X110129435Y-105831188D01*
X110132746Y-105834866D01*
X110220532Y-105898646D01*
X110287248Y-105947118D01*
X110461712Y-106024794D01*
X110648513Y-106064500D01*
X110839485Y-106064500D01*
X110839487Y-106064500D01*
X111026288Y-106024794D01*
X111200752Y-105947118D01*
X111355253Y-105834866D01*
X111358564Y-105831188D01*
X111400952Y-105800393D01*
X111452200Y-105789500D01*
X111559800Y-105789500D01*
X111611048Y-105800393D01*
X111653435Y-105831188D01*
X111656746Y-105834866D01*
X111744532Y-105898646D01*
X111811248Y-105947118D01*
X111985712Y-106024794D01*
X112172513Y-106064500D01*
X112363485Y-106064500D01*
X112363487Y-106064500D01*
X112550288Y-106024794D01*
X112724752Y-105947118D01*
X112879253Y-105834866D01*
X113007040Y-105692944D01*
X113102527Y-105527556D01*
X113161542Y-105345928D01*
X113181504Y-105156000D01*
X113161542Y-104966072D01*
X113102527Y-104784444D01*
X113102527Y-104784443D01*
X113007041Y-104619057D01*
X112979807Y-104588811D01*
X112952085Y-104538385D01*
X112949675Y-104480890D01*
X112973080Y-104428321D01*
X113017419Y-104391640D01*
X113073443Y-104378500D01*
X116162969Y-104378500D01*
X116211187Y-104388091D01*
X116252064Y-104415405D01*
X117022106Y-105185447D01*
X117049420Y-105226324D01*
X117059011Y-105274542D01*
X117059011Y-109203543D01*
X117058985Y-109206081D01*
X117056863Y-109311376D01*
X117057761Y-109317699D01*
X117059011Y-109335401D01*
X117059011Y-114624570D01*
X117049420Y-114672788D01*
X117022106Y-114713665D01*
X116652040Y-115083731D01*
X116611163Y-115111045D01*
X116562945Y-115120636D01*
X110082321Y-115120636D01*
X110079783Y-115120610D01*
X109974487Y-115118488D01*
X109902812Y-115128659D01*
X109895251Y-115129500D01*
X109823099Y-115135325D01*
X109784821Y-115144759D01*
X109772378Y-115147169D01*
X109733343Y-115152709D01*
X109664233Y-115174244D01*
X109656905Y-115176287D01*
X109586615Y-115193613D01*
X109550343Y-115209066D01*
X109538450Y-115213440D01*
X109500817Y-115225168D01*
X109436053Y-115257511D01*
X109429151Y-115260701D01*
X109362548Y-115289079D01*
X109329232Y-115310147D01*
X109318191Y-115316374D01*
X109282923Y-115333988D01*
X109224187Y-115376301D01*
X109217883Y-115380559D01*
X109156694Y-115419253D01*
X109127178Y-115445400D01*
X109117286Y-115453312D01*
X109085306Y-115476352D01*
X109034125Y-115527532D01*
X109028587Y-115532745D01*
X108974390Y-115580760D01*
X108949455Y-115611300D01*
X108940951Y-115620706D01*
X108003338Y-116558318D01*
X108001528Y-116560092D01*
X107925578Y-116633044D01*
X107882098Y-116690905D01*
X107877346Y-116696846D01*
X107830435Y-116751997D01*
X107810040Y-116785735D01*
X107802944Y-116796239D01*
X107779263Y-116827755D01*
X107779261Y-116827757D01*
X107779262Y-116827757D01*
X107745629Y-116891836D01*
X107741893Y-116898460D01*
X107704432Y-116960430D01*
X107689710Y-116997009D01*
X107684391Y-117008516D01*
X107666077Y-117043411D01*
X107643150Y-117112082D01*
X107640525Y-117119220D01*
X107613496Y-117186381D01*
X107604834Y-117224839D01*
X107601430Y-117237049D01*
X107588948Y-117274438D01*
X107577337Y-117345887D01*
X107575890Y-117353360D01*
X107559984Y-117423982D01*
X107557604Y-117463335D01*
X107556202Y-117475937D01*
X107549880Y-117514839D01*
X107549880Y-117587217D01*
X107549650Y-117594825D01*
X107545796Y-117658540D01*
X107545278Y-117667096D01*
X107547192Y-117686042D01*
X107549242Y-117706329D01*
X107549880Y-117718994D01*
X107549880Y-119208785D01*
X107544454Y-119245362D01*
X107533640Y-119281007D01*
X107523773Y-119381184D01*
X107523773Y-120927306D01*
X107541271Y-121060217D01*
X107547835Y-121084713D01*
X107599134Y-121208557D01*
X107680739Y-121314906D01*
X107698669Y-121332836D01*
X107698673Y-121332839D01*
X107698674Y-121332840D01*
X107746241Y-121369340D01*
X107805021Y-121414444D01*
X107849068Y-121432689D01*
X107874911Y-121447162D01*
X108007022Y-121543147D01*
X108005564Y-121545152D01*
X108026121Y-121559891D01*
X108028825Y-121562823D01*
X108220546Y-121713026D01*
X108220549Y-121713028D01*
X108220551Y-121713029D01*
X108311520Y-121763135D01*
X108358819Y-121808750D01*
X108376720Y-121871977D01*
X108360352Y-121935619D01*
X108314168Y-121982365D01*
X108250729Y-121999500D01*
X104502748Y-121999500D01*
X104497252Y-121999380D01*
X104305857Y-121991023D01*
X104305538Y-121990923D01*
X104305535Y-121991009D01*
X104107219Y-121981840D01*
X104096592Y-121980896D01*
X103899011Y-121954884D01*
X103898049Y-121954754D01*
X103706478Y-121928031D01*
X103696614Y-121926252D01*
X103501121Y-121882912D01*
X103499545Y-121882552D01*
X103312206Y-121838490D01*
X103303165Y-121836005D01*
X103111849Y-121775683D01*
X103109697Y-121774983D01*
X102927603Y-121713952D01*
X102919426Y-121710893D01*
X102733893Y-121634043D01*
X102731217Y-121632898D01*
X102555740Y-121555417D01*
X102548453Y-121551916D01*
X102370229Y-121459138D01*
X102367098Y-121457451D01*
X102199640Y-121364177D01*
X102193253Y-121360369D01*
X102023717Y-121252364D01*
X102020209Y-121250046D01*
X101959642Y-121208557D01*
X101862132Y-121141761D01*
X101856638Y-121137775D01*
X101697151Y-121015396D01*
X101693360Y-121012370D01*
X101545967Y-120889976D01*
X101541338Y-120885937D01*
X101393107Y-120750108D01*
X101389136Y-120746306D01*
X101253692Y-120610862D01*
X101249890Y-120606891D01*
X101217924Y-120572006D01*
X101114054Y-120458652D01*
X101110022Y-120454031D01*
X101032312Y-120360449D01*
X100987620Y-120306629D01*
X100984602Y-120302847D01*
X100938174Y-120242341D01*
X100862212Y-120143345D01*
X100858247Y-120137880D01*
X100749931Y-119979758D01*
X100747655Y-119976313D01*
X100639629Y-119806745D01*
X100635821Y-119800358D01*
X100542547Y-119632900D01*
X100540880Y-119629806D01*
X100448071Y-119451522D01*
X100444581Y-119444258D01*
X100367065Y-119268700D01*
X100365990Y-119266188D01*
X100289097Y-119080551D01*
X100286054Y-119072417D01*
X100225005Y-118890271D01*
X100224315Y-118888149D01*
X100213742Y-118854616D01*
X100163987Y-118696811D01*
X100161514Y-118687814D01*
X100117415Y-118500320D01*
X100117119Y-118499022D01*
X100073740Y-118303353D01*
X100071973Y-118293555D01*
X100045202Y-118101641D01*
X100045169Y-118101402D01*
X100019099Y-117903383D01*
X100018160Y-117892803D01*
X100008976Y-117694141D01*
X100008622Y-117686042D01*
X100000619Y-117502747D01*
X100000500Y-117497253D01*
X100000500Y-110715306D01*
X104809273Y-110715306D01*
X106920404Y-110715306D01*
X106920405Y-108571188D01*
X104809274Y-108571188D01*
X104809273Y-110715306D01*
X100000500Y-110715306D01*
X100000500Y-107969999D01*
X101606619Y-107969999D01*
X101626091Y-108167701D01*
X101683758Y-108357802D01*
X101777406Y-108533007D01*
X101903431Y-108686568D01*
X102056992Y-108812593D01*
X102056996Y-108812595D01*
X102232196Y-108906241D01*
X102248699Y-108911247D01*
X102422298Y-108963908D01*
X102570450Y-108978500D01*
X102570453Y-108978500D01*
X103169547Y-108978500D01*
X103169550Y-108978500D01*
X103317701Y-108963908D01*
X103394026Y-108940755D01*
X103507804Y-108906241D01*
X103683004Y-108812595D01*
X103683005Y-108812593D01*
X103683007Y-108812593D01*
X103836568Y-108686568D01*
X103962593Y-108533007D01*
X103981673Y-108497311D01*
X104056241Y-108357804D01*
X104113908Y-108167701D01*
X104133380Y-107970000D01*
X104133292Y-107969111D01*
X104113908Y-107772298D01*
X104056241Y-107582197D01*
X104056241Y-107582196D01*
X103962595Y-107406996D01*
X103962594Y-107406995D01*
X103961205Y-107404396D01*
X103946327Y-107345000D01*
X103961205Y-107285604D01*
X103967705Y-107273443D01*
X104056241Y-107107804D01*
X104113908Y-106917701D01*
X104133380Y-106720000D01*
X104113908Y-106522299D01*
X104056241Y-106332196D01*
X103962595Y-106156996D01*
X103962594Y-106156995D01*
X103961205Y-106154396D01*
X103946327Y-106095000D01*
X103961205Y-106035604D01*
X103967706Y-106023442D01*
X104056241Y-105857804D01*
X104113908Y-105667701D01*
X104133380Y-105470000D01*
X104132780Y-105463913D01*
X104113908Y-105272298D01*
X104063926Y-105107530D01*
X104056241Y-105082196D01*
X103962595Y-104906996D01*
X103962594Y-104906995D01*
X103961205Y-104904396D01*
X103946327Y-104845000D01*
X103961205Y-104785604D01*
X103967706Y-104773442D01*
X104056241Y-104607804D01*
X104113908Y-104417701D01*
X104133380Y-104220000D01*
X104126332Y-104148443D01*
X104113908Y-104022298D01*
X104063314Y-103855514D01*
X104056241Y-103832196D01*
X103962595Y-103656996D01*
X103962594Y-103656995D01*
X103961205Y-103654396D01*
X103946327Y-103595000D01*
X103961205Y-103535604D01*
X103977009Y-103506037D01*
X104056241Y-103357804D01*
X104113908Y-103167701D01*
X104133380Y-102970000D01*
X104117313Y-102806875D01*
X104113908Y-102772298D01*
X104063719Y-102606848D01*
X104056241Y-102582196D01*
X103962595Y-102406996D01*
X103962593Y-102406992D01*
X103836568Y-102253431D01*
X103683007Y-102127406D01*
X103507802Y-102033758D01*
X103317701Y-101976091D01*
X103169550Y-101961500D01*
X103169547Y-101961500D01*
X102570453Y-101961500D01*
X102570450Y-101961500D01*
X102422298Y-101976091D01*
X102232197Y-102033758D01*
X102056992Y-102127406D01*
X101903431Y-102253431D01*
X101777406Y-102406992D01*
X101683758Y-102582197D01*
X101626091Y-102772298D01*
X101606619Y-102969999D01*
X101626091Y-103167701D01*
X101674033Y-103325742D01*
X101683759Y-103357804D01*
X101749661Y-103481099D01*
X101778795Y-103535604D01*
X101793673Y-103595000D01*
X101778795Y-103654396D01*
X101777405Y-103656995D01*
X101777405Y-103656996D01*
X101760650Y-103688343D01*
X101683758Y-103832197D01*
X101626091Y-104022298D01*
X101606619Y-104220000D01*
X101626091Y-104417701D01*
X101683758Y-104607802D01*
X101778795Y-104785604D01*
X101793673Y-104845000D01*
X101778795Y-104904396D01*
X101683758Y-105082197D01*
X101626091Y-105272298D01*
X101606619Y-105469999D01*
X101626091Y-105667701D01*
X101680788Y-105848011D01*
X101683759Y-105857804D01*
X101747766Y-105977554D01*
X101778795Y-106035604D01*
X101793673Y-106095000D01*
X101778795Y-106154396D01*
X101683758Y-106332197D01*
X101626091Y-106522298D01*
X101606619Y-106720000D01*
X101626091Y-106917701D01*
X101674033Y-107075741D01*
X101683759Y-107107804D01*
X101777405Y-107283004D01*
X101777407Y-107283006D01*
X101778795Y-107285603D01*
X101793673Y-107344999D01*
X101778795Y-107404395D01*
X101683758Y-107582197D01*
X101626091Y-107772298D01*
X101606619Y-107969999D01*
X100000500Y-107969999D01*
X100000500Y-72479984D01*
X136056634Y-72479984D01*
X136076106Y-72677686D01*
X136133773Y-72867787D01*
X136227421Y-73042992D01*
X136353446Y-73196553D01*
X136507007Y-73322578D01*
X136507011Y-73322580D01*
X136682211Y-73416226D01*
X136777262Y-73445059D01*
X136872313Y-73473893D01*
X137020465Y-73488485D01*
X137020468Y-73488485D01*
X139140092Y-73488485D01*
X139188310Y-73498076D01*
X139229187Y-73525390D01*
X142589204Y-76885407D01*
X142621816Y-76941891D01*
X142621816Y-77007113D01*
X142589205Y-77063597D01*
X142532721Y-77096208D01*
X142484268Y-77109191D01*
X142276758Y-77205954D01*
X142089207Y-77337279D01*
X142070455Y-77356032D01*
X142013971Y-77388642D01*
X141948749Y-77388641D01*
X141892266Y-77356030D01*
X140074489Y-75538253D01*
X140061417Y-75521936D01*
X140009609Y-75473286D01*
X140006764Y-75470529D01*
X140003489Y-75467254D01*
X139987015Y-75450779D01*
X139986594Y-75450453D01*
X139983814Y-75448295D01*
X139974800Y-75440596D01*
X139942565Y-75410327D01*
X139924812Y-75400567D01*
X139908286Y-75389711D01*
X139892286Y-75377300D01*
X139851711Y-75359742D01*
X139841049Y-75354518D01*
X139802308Y-75333219D01*
X139788558Y-75329689D01*
X139782682Y-75328180D01*
X139763976Y-75321776D01*
X139745390Y-75313733D01*
X139701720Y-75306816D01*
X139690098Y-75304409D01*
X139647275Y-75293414D01*
X139647274Y-75293414D01*
X139627021Y-75293414D01*
X139607311Y-75291863D01*
X139587302Y-75288693D01*
X139543284Y-75292855D01*
X139531426Y-75293414D01*
X139138200Y-75293414D01*
X139086952Y-75282521D01*
X139044565Y-75251726D01*
X139041253Y-75248047D01*
X138886753Y-75135797D01*
X138886752Y-75135796D01*
X138712288Y-75058120D01*
X138525487Y-75018414D01*
X138334513Y-75018414D01*
X138231821Y-75040242D01*
X138147711Y-75058120D01*
X137973246Y-75135797D01*
X137818747Y-75248047D01*
X137690958Y-75389971D01*
X137595472Y-75555357D01*
X137536458Y-75736984D01*
X137516496Y-75926914D01*
X137536458Y-76116843D01*
X137595472Y-76298470D01*
X137690958Y-76463856D01*
X137690960Y-76463858D01*
X137818747Y-76605780D01*
X137973248Y-76718032D01*
X138147712Y-76795708D01*
X138334513Y-76835414D01*
X138525485Y-76835414D01*
X138525487Y-76835414D01*
X138712288Y-76795708D01*
X138886752Y-76718032D01*
X139041253Y-76605780D01*
X139044564Y-76602102D01*
X139086952Y-76571307D01*
X139138200Y-76560414D01*
X139252651Y-76560414D01*
X139300869Y-76570005D01*
X139341746Y-76597319D01*
X141138592Y-78394166D01*
X141165906Y-78435043D01*
X141175497Y-78483261D01*
X141175497Y-80765144D01*
X141173201Y-80785932D01*
X141175435Y-80856983D01*
X141175497Y-80860942D01*
X141175497Y-80888854D01*
X141176004Y-80892870D01*
X141176934Y-80904693D01*
X141178323Y-80948889D01*
X141183974Y-80968338D01*
X141187983Y-80987693D01*
X141190522Y-81007791D01*
X141206798Y-81048900D01*
X141210641Y-81060127D01*
X141222977Y-81102587D01*
X141233291Y-81120027D01*
X141241984Y-81137771D01*
X141249445Y-81156614D01*
X141249446Y-81156616D01*
X141275428Y-81192377D01*
X141281945Y-81202299D01*
X141312207Y-81253469D01*
X141329064Y-81304437D01*
X141346458Y-81469929D01*
X141405472Y-81651556D01*
X141500958Y-81816942D01*
X141500960Y-81816944D01*
X141628747Y-81958866D01*
X141783248Y-82071118D01*
X141957712Y-82148794D01*
X142144513Y-82188500D01*
X142335485Y-82188500D01*
X142335487Y-82188500D01*
X142522288Y-82148794D01*
X142696752Y-82071118D01*
X142851253Y-81958866D01*
X142979040Y-81816944D01*
X143074527Y-81651556D01*
X143133542Y-81469928D01*
X143153504Y-81280000D01*
X143133542Y-81090072D01*
X143093988Y-80968338D01*
X143074527Y-80908443D01*
X142979041Y-80743057D01*
X142851252Y-80601133D01*
X142696752Y-80488882D01*
X142522288Y-80411206D01*
X142522285Y-80411205D01*
X142517249Y-80408963D01*
X142477860Y-80381383D01*
X142451672Y-80341057D01*
X142442497Y-80293856D01*
X142442497Y-79730776D01*
X142455491Y-79675048D01*
X142491793Y-79630813D01*
X142543916Y-79607197D01*
X142601107Y-79609068D01*
X142705421Y-79637020D01*
X142933508Y-79656975D01*
X143161595Y-79637020D01*
X143382751Y-79577761D01*
X143590257Y-79481000D01*
X143777808Y-79349675D01*
X143939706Y-79187777D01*
X144071031Y-79000226D01*
X144089312Y-78961020D01*
X144135808Y-78908002D01*
X144203508Y-78888269D01*
X144271208Y-78908002D01*
X144317703Y-78961020D01*
X144335984Y-79000225D01*
X144467312Y-79187780D01*
X144629204Y-79349672D01*
X144629207Y-79349674D01*
X144629208Y-79349675D01*
X144686342Y-79389681D01*
X144816757Y-79480999D01*
X145024264Y-79577761D01*
X145083523Y-79593639D01*
X145245421Y-79637020D01*
X145473508Y-79656975D01*
X145701595Y-79637020D01*
X145922751Y-79577761D01*
X146130257Y-79481000D01*
X146317808Y-79349675D01*
X146479706Y-79187777D01*
X146482015Y-79184479D01*
X146527577Y-79144710D01*
X146586424Y-79130752D01*
X146644996Y-79145823D01*
X146689798Y-79186450D01*
X146710507Y-79243273D01*
X146711519Y-79252678D01*
X146718811Y-79272228D01*
X146762619Y-79389682D01*
X146850246Y-79506738D01*
X146967302Y-79594365D01*
X146967303Y-79594365D01*
X146967304Y-79594366D01*
X147104307Y-79645466D01*
X147164870Y-79651977D01*
X148862146Y-79651977D01*
X148922709Y-79645466D01*
X149059712Y-79594366D01*
X149176769Y-79506738D01*
X149264397Y-79389681D01*
X149315497Y-79252678D01*
X149322008Y-79192115D01*
X149322008Y-77494839D01*
X149315497Y-77434276D01*
X149264397Y-77297273D01*
X149264396Y-77297271D01*
X149176769Y-77180215D01*
X149059713Y-77092588D01*
X148945353Y-77049934D01*
X148922709Y-77041488D01*
X148862146Y-77034977D01*
X147164870Y-77034977D01*
X147104307Y-77041488D01*
X146967302Y-77092588D01*
X146850246Y-77180215D01*
X146762619Y-77297271D01*
X146728552Y-77388608D01*
X146711896Y-77433267D01*
X146711519Y-77434277D01*
X146710508Y-77443679D01*
X146689799Y-77500502D01*
X146644998Y-77541130D01*
X146586427Y-77556201D01*
X146527580Y-77542245D01*
X146482016Y-77502476D01*
X146479703Y-77499173D01*
X146317811Y-77337281D01*
X146130258Y-77205954D01*
X145922750Y-77109192D01*
X145701591Y-77049932D01*
X145642735Y-77044783D01*
X145600468Y-77033458D01*
X145564623Y-77008358D01*
X140362548Y-71806283D01*
X140354243Y-71797120D01*
X140326585Y-71763418D01*
X140173019Y-71637389D01*
X140000550Y-71545203D01*
X139998150Y-71543843D01*
X139807717Y-71486075D01*
X139610017Y-71466604D01*
X139569757Y-71470569D01*
X139566628Y-71470878D01*
X139554279Y-71471485D01*
X137020465Y-71471485D01*
X136872313Y-71486076D01*
X136682212Y-71543743D01*
X136507007Y-71637391D01*
X136353446Y-71763416D01*
X136227421Y-71916977D01*
X136133773Y-72092182D01*
X136076106Y-72282283D01*
X136056634Y-72479984D01*
X100000500Y-72479984D01*
X100000500Y-68610473D01*
X105166898Y-68610473D01*
X105191382Y-68852798D01*
X105254418Y-69088056D01*
X105354379Y-69310161D01*
X105488668Y-69513345D01*
X105488670Y-69513348D01*
X105653817Y-69692364D01*
X105653820Y-69692367D01*
X105845536Y-69842567D01*
X105845539Y-69842569D01*
X105845541Y-69842570D01*
X106058878Y-69960077D01*
X106288301Y-70041840D01*
X106527870Y-70085742D01*
X106588746Y-70086968D01*
X106771374Y-70090647D01*
X106771374Y-70090646D01*
X106771377Y-70090647D01*
X107012518Y-70056426D01*
X107245048Y-69983967D01*
X107462943Y-69875146D01*
X107660560Y-69732781D01*
X111077936Y-66315404D01*
X111118813Y-66288091D01*
X111167031Y-66278500D01*
X118009922Y-66278500D01*
X118058140Y-66288091D01*
X118099017Y-66315405D01*
X118500337Y-66716725D01*
X118534083Y-66777781D01*
X118530172Y-66847433D01*
X118489804Y-66904329D01*
X118425353Y-66931027D01*
X118364403Y-66920673D01*
X118364168Y-66921438D01*
X118358362Y-66919647D01*
X118356577Y-66919344D01*
X118355147Y-66918655D01*
X118105085Y-66841522D01*
X118105082Y-66841521D01*
X117846316Y-66802518D01*
X117584626Y-66802518D01*
X117325860Y-66841521D01*
X117325857Y-66841521D01*
X117325856Y-66841522D01*
X117075796Y-66918654D01*
X116840022Y-67032198D01*
X116623808Y-67179609D01*
X116431969Y-67357609D01*
X116268813Y-67562202D01*
X116137968Y-67788832D01*
X116042361Y-68032432D01*
X115984131Y-68287557D01*
X115964575Y-68548517D01*
X115984131Y-68809478D01*
X116042361Y-69064603D01*
X116137968Y-69308203D01*
X116268813Y-69534833D01*
X116431969Y-69739426D01*
X116431972Y-69739428D01*
X116431973Y-69739430D01*
X116623805Y-69917424D01*
X116840023Y-70064838D01*
X116883431Y-70085742D01*
X117075796Y-70178381D01*
X117147572Y-70200520D01*
X117325860Y-70255515D01*
X117584626Y-70294518D01*
X117846313Y-70294518D01*
X117846316Y-70294518D01*
X118105082Y-70255515D01*
X118355145Y-70178381D01*
X118590919Y-70064838D01*
X118807137Y-69917424D01*
X118998969Y-69739430D01*
X119162129Y-69534833D01*
X119292974Y-69308203D01*
X119388580Y-69064604D01*
X119446811Y-68809476D01*
X119466367Y-68548518D01*
X119446811Y-68287560D01*
X119388580Y-68032432D01*
X119333053Y-67890954D01*
X119326204Y-67823352D01*
X119355457Y-67762022D01*
X119412305Y-67724801D01*
X119480216Y-67722514D01*
X119539439Y-67755827D01*
X120750174Y-68966562D01*
X120783920Y-69027619D01*
X120792362Y-69064605D01*
X120887968Y-69308203D01*
X121018813Y-69534833D01*
X121181969Y-69739426D01*
X121181972Y-69739428D01*
X121181973Y-69739430D01*
X121373805Y-69917424D01*
X121590023Y-70064838D01*
X121633431Y-70085742D01*
X121825796Y-70178381D01*
X121897572Y-70200520D01*
X122075860Y-70255515D01*
X122334626Y-70294518D01*
X122596313Y-70294518D01*
X122596316Y-70294518D01*
X122855082Y-70255515D01*
X123105145Y-70178381D01*
X123340919Y-70064838D01*
X123557137Y-69917424D01*
X123646340Y-69834656D01*
X125469471Y-69834656D01*
X125470321Y-69842567D01*
X125475982Y-69895218D01*
X125527082Y-70032223D01*
X125614709Y-70149279D01*
X125731765Y-70236906D01*
X125731766Y-70236906D01*
X125731767Y-70236907D01*
X125868770Y-70288007D01*
X125929333Y-70294518D01*
X128501609Y-70294518D01*
X128562172Y-70288007D01*
X128699175Y-70236907D01*
X128816232Y-70149279D01*
X128903860Y-70032222D01*
X128954960Y-69895219D01*
X128961471Y-69834656D01*
X128961471Y-67262380D01*
X128954960Y-67201817D01*
X128903860Y-67064814D01*
X128879444Y-67032198D01*
X128816232Y-66947756D01*
X128699176Y-66860129D01*
X128630673Y-66834578D01*
X128562172Y-66809029D01*
X128501609Y-66802518D01*
X125929333Y-66802518D01*
X125868770Y-66809029D01*
X125731765Y-66860129D01*
X125614709Y-66947756D01*
X125527082Y-67064812D01*
X125484265Y-67179609D01*
X125475982Y-67201817D01*
X125469471Y-67262380D01*
X125469471Y-69834656D01*
X123646340Y-69834656D01*
X123748969Y-69739430D01*
X123912129Y-69534833D01*
X124042974Y-69308203D01*
X124138580Y-69064604D01*
X124196811Y-68809476D01*
X124216367Y-68548518D01*
X124196811Y-68287560D01*
X124138580Y-68032432D01*
X124042974Y-67788833D01*
X123912129Y-67562203D01*
X123871339Y-67511053D01*
X123748972Y-67357609D01*
X123748969Y-67357606D01*
X123557137Y-67179612D01*
X123340919Y-67032198D01*
X123105144Y-66918654D01*
X122938058Y-66867115D01*
X122886102Y-66835808D01*
X119765279Y-63714984D01*
X119763503Y-63713173D01*
X119690529Y-63637199D01*
X119690528Y-63637198D01*
X119632650Y-63593706D01*
X119626720Y-63588962D01*
X119571574Y-63542055D01*
X119571573Y-63542054D01*
X119537826Y-63521653D01*
X119527339Y-63514569D01*
X119495818Y-63490883D01*
X119495816Y-63490882D01*
X119495815Y-63490881D01*
X119431725Y-63457244D01*
X119425110Y-63453512D01*
X119386121Y-63429943D01*
X119363141Y-63416051D01*
X119326554Y-63401326D01*
X119315049Y-63396008D01*
X119280158Y-63377696D01*
X119280157Y-63377695D01*
X119280154Y-63377694D01*
X119211501Y-63354774D01*
X119204360Y-63352148D01*
X119137192Y-63325116D01*
X119098738Y-63316455D01*
X119086527Y-63313051D01*
X119049134Y-63300568D01*
X118977684Y-63288957D01*
X118970217Y-63287511D01*
X118948792Y-63282686D01*
X118899589Y-63271604D01*
X118860237Y-63269224D01*
X118847637Y-63267822D01*
X118823136Y-63263840D01*
X118808733Y-63261500D01*
X118808732Y-63261500D01*
X118736356Y-63261500D01*
X118728748Y-63261270D01*
X118656478Y-63256898D01*
X118656477Y-63256898D01*
X118632189Y-63259352D01*
X118617244Y-63260862D01*
X118604579Y-63261500D01*
X110506457Y-63261500D01*
X110503919Y-63261474D01*
X110398623Y-63259352D01*
X110326950Y-63269523D01*
X110319388Y-63270364D01*
X110247229Y-63276189D01*
X110208949Y-63285624D01*
X110196506Y-63288035D01*
X110157480Y-63293574D01*
X110088388Y-63315104D01*
X110081058Y-63317147D01*
X110010755Y-63334476D01*
X110010753Y-63334476D01*
X110010752Y-63334477D01*
X109992305Y-63342336D01*
X109974479Y-63349931D01*
X109962581Y-63354306D01*
X109924952Y-63366032D01*
X109860190Y-63398374D01*
X109853287Y-63401565D01*
X109786684Y-63429943D01*
X109753368Y-63451011D01*
X109742327Y-63457238D01*
X109707060Y-63474852D01*
X109648308Y-63517175D01*
X109642005Y-63521432D01*
X109580830Y-63560117D01*
X109551323Y-63586257D01*
X109541426Y-63594174D01*
X109509438Y-63617219D01*
X109458255Y-63668402D01*
X109452714Y-63673618D01*
X109398526Y-63721625D01*
X109373591Y-63752164D01*
X109365087Y-63761569D01*
X105570344Y-67556312D01*
X105452053Y-67695380D01*
X105326053Y-67903808D01*
X105235117Y-68129759D01*
X105181604Y-68367362D01*
X105166898Y-68610473D01*
X100000500Y-68610473D01*
X100000500Y-62230000D01*
X133256844Y-62230000D01*
X133275436Y-62454368D01*
X133275436Y-62454371D01*
X133275437Y-62454372D01*
X133330702Y-62672611D01*
X133421139Y-62878790D01*
X133421140Y-62878791D01*
X133544278Y-63067268D01*
X133656525Y-63189200D01*
X133696762Y-63232908D01*
X133874421Y-63371187D01*
X133874424Y-63371189D01*
X134072426Y-63478342D01*
X134285365Y-63551444D01*
X134507431Y-63588500D01*
X134732566Y-63588500D01*
X134732569Y-63588500D01*
X134954635Y-63551444D01*
X135167574Y-63478342D01*
X135365576Y-63371189D01*
X135543240Y-63232906D01*
X135695722Y-63067268D01*
X135784518Y-62931354D01*
X135830031Y-62889458D01*
X135890000Y-62874272D01*
X135949969Y-62889458D01*
X135995481Y-62931354D01*
X136084278Y-63067268D01*
X136196525Y-63189200D01*
X136236762Y-63232908D01*
X136414421Y-63371187D01*
X136414424Y-63371189D01*
X136612426Y-63478342D01*
X136825365Y-63551444D01*
X137047431Y-63588500D01*
X137272566Y-63588500D01*
X137272569Y-63588500D01*
X137494635Y-63551444D01*
X137707574Y-63478342D01*
X137905576Y-63371189D01*
X138083240Y-63232906D01*
X138235722Y-63067268D01*
X138324518Y-62931354D01*
X138370031Y-62889458D01*
X138430000Y-62874272D01*
X138489969Y-62889458D01*
X138535481Y-62931354D01*
X138624278Y-63067268D01*
X138736525Y-63189200D01*
X138776762Y-63232908D01*
X138954421Y-63371187D01*
X138954424Y-63371189D01*
X139152426Y-63478342D01*
X139365365Y-63551444D01*
X139587431Y-63588500D01*
X139812566Y-63588500D01*
X139812569Y-63588500D01*
X140034635Y-63551444D01*
X140247574Y-63478342D01*
X140445576Y-63371189D01*
X140623240Y-63232906D01*
X140775722Y-63067268D01*
X140864518Y-62931354D01*
X140910031Y-62889458D01*
X140970000Y-62874272D01*
X141029969Y-62889458D01*
X141075481Y-62931354D01*
X141164278Y-63067268D01*
X141276525Y-63189200D01*
X141316762Y-63232908D01*
X141494421Y-63371187D01*
X141494424Y-63371189D01*
X141692426Y-63478342D01*
X141905365Y-63551444D01*
X142127431Y-63588500D01*
X142352566Y-63588500D01*
X142352569Y-63588500D01*
X142574635Y-63551444D01*
X142787574Y-63478342D01*
X142985576Y-63371189D01*
X143163240Y-63232906D01*
X143315722Y-63067268D01*
X143404518Y-62931354D01*
X143450031Y-62889458D01*
X143510000Y-62874272D01*
X143569969Y-62889458D01*
X143615481Y-62931354D01*
X143704278Y-63067268D01*
X143816525Y-63189200D01*
X143856762Y-63232908D01*
X144034421Y-63371187D01*
X144034424Y-63371189D01*
X144232426Y-63478342D01*
X144445365Y-63551444D01*
X144667431Y-63588500D01*
X144892566Y-63588500D01*
X144892569Y-63588500D01*
X145114635Y-63551444D01*
X145327574Y-63478342D01*
X145525576Y-63371189D01*
X145703240Y-63232906D01*
X145855722Y-63067268D01*
X145944518Y-62931354D01*
X145990031Y-62889458D01*
X146050000Y-62874272D01*
X146109969Y-62889458D01*
X146155481Y-62931354D01*
X146244278Y-63067268D01*
X146356525Y-63189200D01*
X146396762Y-63232908D01*
X146574421Y-63371187D01*
X146574424Y-63371189D01*
X146772426Y-63478342D01*
X146985365Y-63551444D01*
X147207431Y-63588500D01*
X147432566Y-63588500D01*
X147432569Y-63588500D01*
X147654635Y-63551444D01*
X147867574Y-63478342D01*
X148065576Y-63371189D01*
X148243240Y-63232906D01*
X148339226Y-63128638D01*
X151041500Y-63128638D01*
X151048011Y-63189200D01*
X151099111Y-63326205D01*
X151186738Y-63443261D01*
X151303794Y-63530888D01*
X151303795Y-63530888D01*
X151303796Y-63530889D01*
X151440799Y-63581989D01*
X151501362Y-63588500D01*
X153298638Y-63588500D01*
X153359201Y-63581989D01*
X153496204Y-63530889D01*
X153613261Y-63443261D01*
X153700889Y-63326204D01*
X153751989Y-63189201D01*
X153758500Y-63128638D01*
X153758500Y-61331362D01*
X153751989Y-61270799D01*
X153700889Y-61133796D01*
X153700888Y-61133794D01*
X153613261Y-61016738D01*
X153496205Y-60929111D01*
X153427702Y-60903561D01*
X153359201Y-60878011D01*
X153298638Y-60871500D01*
X151501362Y-60871500D01*
X151440799Y-60878011D01*
X151303794Y-60929111D01*
X151186738Y-61016738D01*
X151099111Y-61133794D01*
X151048011Y-61270799D01*
X151041500Y-61331362D01*
X151041500Y-63128638D01*
X148339226Y-63128638D01*
X148395722Y-63067268D01*
X148518860Y-62878791D01*
X148609296Y-62672616D01*
X148664564Y-62454368D01*
X148683156Y-62230000D01*
X148664564Y-62005632D01*
X148609296Y-61787384D01*
X148518860Y-61581209D01*
X148395722Y-61392732D01*
X148243240Y-61227094D01*
X148243239Y-61227093D01*
X148243237Y-61227091D01*
X148065578Y-61088812D01*
X147867573Y-60981657D01*
X147714510Y-60929111D01*
X147654635Y-60908556D01*
X147432569Y-60871500D01*
X147207431Y-60871500D01*
X146985365Y-60908556D01*
X146985362Y-60908556D01*
X146985362Y-60908557D01*
X146772426Y-60981657D01*
X146574421Y-61088812D01*
X146396762Y-61227091D01*
X146244278Y-61392731D01*
X146155483Y-61528643D01*
X146109969Y-61570541D01*
X146050000Y-61585727D01*
X145990031Y-61570541D01*
X145944517Y-61528643D01*
X145855721Y-61392731D01*
X145799226Y-61331362D01*
X145703240Y-61227094D01*
X145703239Y-61227093D01*
X145703237Y-61227091D01*
X145525578Y-61088812D01*
X145327573Y-60981657D01*
X145174510Y-60929111D01*
X145114635Y-60908556D01*
X144892569Y-60871500D01*
X144667431Y-60871500D01*
X144445365Y-60908556D01*
X144445362Y-60908556D01*
X144445362Y-60908557D01*
X144232426Y-60981657D01*
X144034421Y-61088812D01*
X143856762Y-61227091D01*
X143704278Y-61392731D01*
X143615483Y-61528643D01*
X143569969Y-61570541D01*
X143510000Y-61585727D01*
X143450031Y-61570541D01*
X143404517Y-61528643D01*
X143315721Y-61392731D01*
X143259226Y-61331362D01*
X143163240Y-61227094D01*
X143163239Y-61227093D01*
X143163237Y-61227091D01*
X142985578Y-61088812D01*
X142787573Y-60981657D01*
X142634510Y-60929111D01*
X142574635Y-60908556D01*
X142352569Y-60871500D01*
X142127431Y-60871500D01*
X141905365Y-60908556D01*
X141905362Y-60908556D01*
X141905362Y-60908557D01*
X141692426Y-60981657D01*
X141494421Y-61088812D01*
X141316762Y-61227091D01*
X141164278Y-61392731D01*
X141075483Y-61528643D01*
X141029969Y-61570541D01*
X140970000Y-61585727D01*
X140910031Y-61570541D01*
X140864517Y-61528643D01*
X140775721Y-61392731D01*
X140719226Y-61331362D01*
X140623240Y-61227094D01*
X140623239Y-61227093D01*
X140623237Y-61227091D01*
X140445578Y-61088812D01*
X140247573Y-60981657D01*
X140094510Y-60929111D01*
X140034635Y-60908556D01*
X139812569Y-60871500D01*
X139587431Y-60871500D01*
X139365365Y-60908556D01*
X139365362Y-60908556D01*
X139365362Y-60908557D01*
X139152426Y-60981657D01*
X138954421Y-61088812D01*
X138776762Y-61227091D01*
X138624278Y-61392731D01*
X138535483Y-61528643D01*
X138489969Y-61570541D01*
X138430000Y-61585727D01*
X138370031Y-61570541D01*
X138324517Y-61528643D01*
X138235721Y-61392731D01*
X138179226Y-61331362D01*
X138083240Y-61227094D01*
X138083239Y-61227093D01*
X138083237Y-61227091D01*
X137905578Y-61088812D01*
X137707573Y-60981657D01*
X137554510Y-60929111D01*
X137494635Y-60908556D01*
X137272569Y-60871500D01*
X137047431Y-60871500D01*
X136825365Y-60908556D01*
X136825362Y-60908556D01*
X136825362Y-60908557D01*
X136612426Y-60981657D01*
X136414421Y-61088812D01*
X136236762Y-61227091D01*
X136084278Y-61392731D01*
X135995483Y-61528643D01*
X135949969Y-61570541D01*
X135890000Y-61585727D01*
X135830031Y-61570541D01*
X135784517Y-61528643D01*
X135695721Y-61392731D01*
X135639226Y-61331362D01*
X135543240Y-61227094D01*
X135543239Y-61227093D01*
X135543237Y-61227091D01*
X135365578Y-61088812D01*
X135167573Y-60981657D01*
X135014510Y-60929111D01*
X134954635Y-60908556D01*
X134732569Y-60871500D01*
X134507431Y-60871500D01*
X134285365Y-60908556D01*
X134285362Y-60908556D01*
X134285362Y-60908557D01*
X134072426Y-60981657D01*
X133874421Y-61088812D01*
X133696762Y-61227091D01*
X133544278Y-61392731D01*
X133421139Y-61581209D01*
X133330702Y-61787388D01*
X133275437Y-62005627D01*
X133275436Y-62005632D01*
X133256844Y-62230000D01*
X100000500Y-62230000D01*
X100000500Y-60626500D01*
X100017381Y-60563500D01*
X100063500Y-60517381D01*
X100126500Y-60500500D01*
X154873500Y-60500500D01*
X154936500Y-60517381D01*
G37*
%TD.AperFunction*%
%TD*%
%TA.AperFunction,Conductor*%
%TO.N,GND*%
G36*
X151420404Y-113715306D02*
G01*
X149309273Y-113715306D01*
X149309274Y-111571188D01*
X151420405Y-111571188D01*
X151420404Y-113715306D01*
G37*
%TD.AperFunction*%
%TD*%
%TA.AperFunction,Conductor*%
%TO.N,GND*%
G36*
X106920404Y-110715306D02*
G01*
X104809273Y-110715306D01*
X104809274Y-108571188D01*
X106920405Y-108571188D01*
X106920404Y-110715306D01*
G37*
%TD.AperFunction*%
%TD*%
M02*
