%TF.GenerationSoftware,KiCad,Pcbnew,7.0.1*%
%TF.CreationDate,2023-04-23T15:33:48-04:00*%
%TF.ProjectId,board_v2,626f6172-645f-4763-922e-6b696361645f,rev?*%
%TF.SameCoordinates,Original*%
%TF.FileFunction,Soldermask,Bot*%
%TF.FilePolarity,Negative*%
%FSLAX46Y46*%
G04 Gerber Fmt 4.6, Leading zero omitted, Abs format (unit mm)*
G04 Created by KiCad (PCBNEW 7.0.1) date 2023-04-23 15:33:48*
%MOMM*%
%LPD*%
G01*
G04 APERTURE LIST*
%ADD10R,1.700000X1.700000*%
%ADD11O,1.700000X1.700000*%
%ADD12C,2.600000*%
%ADD13R,1.600000X1.600000*%
%ADD14C,1.600000*%
%ADD15O,1.500000X1.000000*%
%ADD16R,1.500000X1.000000*%
%ADD17R,2.475000X2.475000*%
%ADD18C,2.475000*%
%ADD19O,1.905000X2.000000*%
%ADD20R,1.905000X2.000000*%
G04 APERTURE END LIST*
D10*
%TO.C,J1*%
X104140000Y-68580000D03*
D11*
X106680000Y-68580000D03*
%TD*%
D12*
%TO.C,REF\u002A\u002A*%
X152000000Y-119000000D03*
%TD*%
%TO.C,REF\u002A\u002A*%
X130500000Y-73500000D03*
%TD*%
%TO.C,REF\u002A\u002A*%
X103000000Y-119000000D03*
%TD*%
D13*
%TO.C,A1*%
X148013508Y-78343477D03*
D14*
X145473508Y-78343477D03*
X142933508Y-78343477D03*
X140393508Y-78343477D03*
X137853508Y-78343477D03*
X135313508Y-78343477D03*
X132773508Y-78343477D03*
X130233508Y-78343477D03*
X127693508Y-78343477D03*
X125153508Y-78343477D03*
X122613508Y-78343477D03*
X120073508Y-78343477D03*
X117533508Y-78343477D03*
X114993508Y-78343477D03*
X112453508Y-78343477D03*
X109913508Y-78343477D03*
X109913508Y-98663477D03*
X112453508Y-98663477D03*
X114993508Y-98663477D03*
X117533508Y-98663477D03*
X120073508Y-98663477D03*
X122613508Y-98663477D03*
X125153508Y-98663477D03*
X127693508Y-98663477D03*
X130233508Y-98663477D03*
X132773508Y-98663477D03*
X135313508Y-98663477D03*
X137853508Y-98663477D03*
%TD*%
%TO.C,C12*%
X132459504Y-106720000D03*
D13*
X132459504Y-109220000D03*
%TD*%
D15*
%TO.C,J2*%
X102870000Y-102970000D03*
X102870000Y-104220000D03*
X102870000Y-105470000D03*
X102870000Y-106720000D03*
X102870000Y-107970000D03*
D16*
X102870000Y-109220000D03*
%TD*%
D10*
%TO.C,U2*%
X152400000Y-62230000D03*
D11*
X149860000Y-62230000D03*
X147320000Y-62230000D03*
X144780000Y-62230000D03*
X142240000Y-62230000D03*
X139700000Y-62230000D03*
X137160000Y-62230000D03*
X134620000Y-62230000D03*
%TD*%
D14*
%TO.C,C6*%
X120903131Y-106743475D03*
D13*
X120903131Y-109243475D03*
%TD*%
D11*
%TO.C,J4*%
X132458022Y-120129395D03*
X132458022Y-117589395D03*
D10*
X132458022Y-115049395D03*
%TD*%
D15*
%TO.C,J3*%
X152352665Y-103523443D03*
X152352665Y-104773443D03*
X152352665Y-106023443D03*
X152352665Y-107273443D03*
X152352665Y-108523443D03*
D16*
X152352665Y-109773443D03*
%TD*%
D10*
%TO.C,J6*%
X122082486Y-120126085D03*
D11*
X122082486Y-117586085D03*
X122082486Y-115046085D03*
%TD*%
D17*
%TO.C,SW1*%
X127215471Y-68548518D03*
D18*
X122465471Y-68548518D03*
X117715471Y-68548518D03*
%TD*%
D19*
%TO.C,U1*%
X109220000Y-74295000D03*
X106680000Y-74295000D03*
D20*
X104140000Y-74295000D03*
%TD*%
M02*
