M48
; DRILL file {KiCad 7.0.1} date Sun Apr  2 16:12:07 2023
; FORMAT={-:-/ absolute / inch / decimal}
; #@! TF.CreationDate,2023-04-02T16:12:07-04:00
; #@! TF.GenerationSoftware,Kicad,Pcbnew,7.0.1
; #@! TF.FileFunction,Plated,1,2,PTH
FMAT,2
INCH
; #@! TA.AperFunction,Plated,PTH,ComponentDrill
T1C0.0118
; #@! TA.AperFunction,Plated,PTH,ViaDrill
T2C0.0157
; #@! TA.AperFunction,Plated,PTH,ComponentDrill
T3C0.0197
; #@! TA.AperFunction,Plated,PTH,ComponentDrill
T4C0.0315
; #@! TA.AperFunction,Plated,PTH,ComponentDrill
T5C0.0394
; #@! TA.AperFunction,Plated,PTH,ComponentDrill
T6C0.0433
; #@! TA.AperFunction,Plated,PTH,ComponentDrill
T7C0.0650
%
G90
G05
T1
X4.2724Y-4.3308
X4.2724Y-4.38
X4.2724Y-4.4292
X4.3216Y-4.3308
X4.3216Y-4.38
X4.3216Y-4.4292
X4.3708Y-4.3308
X4.3708Y-4.38
X4.3708Y-4.4292
X4.42Y-4.3308
X4.42Y-4.38
X4.42Y-4.4292
X4.4692Y-4.3308
X4.4692Y-4.38
X4.4692Y-4.4292
X4.5184Y-4.3308
X4.5184Y-4.38
X4.5184Y-4.4292
X4.5676Y-4.3308
X4.5676Y-4.38
X4.5676Y-4.4292
X5.5024Y-4.3008
X5.5024Y-4.35
X5.5024Y-4.3992
X5.5516Y-4.3008
X5.5516Y-4.35
X5.5516Y-4.3992
X5.6008Y-4.3008
X5.6008Y-4.35
X5.6008Y-4.3992
X5.65Y-4.3008
X5.65Y-4.35
X5.65Y-4.3992
X5.6992Y-4.3008
X5.6992Y-4.35
X5.6992Y-4.3992
X5.7484Y-4.3008
X5.7484Y-4.35
X5.7484Y-4.3992
X5.7976Y-4.3008
X5.7976Y-4.35
X5.7976Y-4.3992
T2
X4.2Y-3.38
X4.215Y-4.715
X4.24Y-4.14
X4.27Y-4.715
X4.27Y-4.765
X4.3Y-4.14
X4.32Y-4.715
X4.32Y-4.765
X4.36Y-4.14
X4.42Y-4.14
X4.44Y-3.54
X4.5054Y-4.6409
X4.5054Y-4.6909
X4.5554Y-4.6409
X4.5554Y-4.6909
X4.98Y-3.18
X5.0741Y-3.3253
X5.35Y-3.6
X5.41Y-4.652
X5.4465Y-2.9035
X5.45Y-2.9892
X5.458Y-3.3003
X5.508Y-4.666
X5.508Y-4.716
X5.5247Y-4.1361
X5.558Y-4.666
X5.558Y-4.716
X5.5866Y-4.1366
X5.6Y-3.2
X5.6477Y-4.1381
X5.742Y-4.622
X5.742Y-4.672
X5.792Y-4.622
X5.792Y-4.672
X5.8Y-3.9
X5.888Y-4.556
T3
X4.05Y-4.0539
X4.05Y-4.1031
X4.05Y-4.1524
X4.05Y-4.2016
X4.05Y-4.2508
X4.05Y-4.3
X5.9981Y-4.0757
X5.9981Y-4.1249
X5.9981Y-4.1742
X5.9981Y-4.2234
X5.9981Y-4.2726
X5.9981Y-4.3218
T4
X4.3273Y-3.0844
X4.3273Y-3.8844
X4.4273Y-3.0844
X4.4273Y-3.8844
X4.5273Y-3.0844
X4.5273Y-3.8844
X4.6273Y-3.0844
X4.6273Y-3.8844
X4.7273Y-3.0844
X4.7273Y-3.8844
X4.76Y-4.349
X4.76Y-4.4474
X4.8273Y-3.0844
X4.8273Y-3.8844
X4.9273Y-3.0844
X4.9273Y-3.8844
X5.0273Y-3.0844
X5.0273Y-3.8844
X5.1273Y-3.0844
X5.1273Y-3.8844
X5.2149Y-4.349
X5.2149Y-4.4474
X5.2273Y-3.0844
X5.2273Y-3.8844
X5.3273Y-3.0844
X5.3273Y-3.8844
X5.4273Y-3.0844
X5.4273Y-3.8844
X5.5273Y-3.0844
X5.6273Y-3.0844
X5.7273Y-3.0844
X5.8273Y-3.0844
T5
X4.1Y-2.7
X4.2Y-2.7
X4.8Y-4.6322
X4.8Y-4.7322
X4.8Y-4.8322
X5.2126Y-4.6339
X5.2126Y-4.7339
X5.2126Y-4.8339
X5.3Y-2.45
X5.4Y-2.45
X5.5Y-2.45
X5.6Y-2.45
X5.7Y-2.45
X5.8Y-2.45
X5.9Y-2.45
X6.0Y-2.45
T6
X4.1Y-2.925
X4.2Y-2.925
X4.3Y-2.925
T7
X4.6345Y-2.6988
X4.8215Y-2.6988
X5.0085Y-2.6988
T0
M30
