%TF.GenerationSoftware,KiCad,Pcbnew,7.0.1*%
%TF.CreationDate,2023-04-02T16:12:04-04:00*%
%TF.ProjectId,board_v2,626f6172-645f-4763-922e-6b696361645f,rev?*%
%TF.SameCoordinates,Original*%
%TF.FileFunction,Soldermask,Bot*%
%TF.FilePolarity,Negative*%
%FSLAX46Y46*%
G04 Gerber Fmt 4.6, Leading zero omitted, Abs format (unit mm)*
G04 Created by KiCad (PCBNEW 7.0.1) date 2023-04-02 16:12:04*
%MOMM*%
%LPD*%
G01*
G04 APERTURE LIST*
%ADD10R,1.600000X1.600000*%
%ADD11C,1.600000*%
%ADD12R,1.500000X1.000000*%
%ADD13O,1.500000X1.000000*%
%ADD14R,1.700000X1.700000*%
%ADD15O,1.700000X1.700000*%
%ADD16R,2.475000X2.475000*%
%ADD17C,2.475000*%
%ADD18C,3.200000*%
%ADD19C,2.540000*%
%ADD20R,1.905000X2.000000*%
%ADD21O,1.905000X2.000000*%
G04 APERTURE END LIST*
D10*
%TO.C,C12*%
X132459504Y-112965113D03*
D11*
X132459504Y-110465113D03*
%TD*%
D12*
%TO.C,J2*%
X102870000Y-109220000D03*
D13*
X102870000Y-107970000D03*
X102870000Y-106720000D03*
X102870000Y-105470000D03*
X102870000Y-104220000D03*
X102870000Y-102970000D03*
%TD*%
D14*
%TO.C,U2*%
X152400000Y-62230000D03*
D15*
X149860000Y-62230000D03*
X147320000Y-62230000D03*
X144780000Y-62230000D03*
X142240000Y-62230000D03*
X139700000Y-62230000D03*
X137160000Y-62230000D03*
X134620000Y-62230000D03*
%TD*%
D10*
%TO.C,C6*%
X120904000Y-112965113D03*
D11*
X120904000Y-110465113D03*
%TD*%
D14*
%TO.C,J1*%
X104140000Y-68580000D03*
D15*
X106680000Y-68580000D03*
%TD*%
D14*
%TO.C,J4*%
X132399215Y-117700478D03*
D15*
X132399215Y-120240478D03*
X132399215Y-122780478D03*
%TD*%
D12*
%TO.C,J3*%
X152352665Y-109773443D03*
D13*
X152352665Y-108523443D03*
X152352665Y-107273443D03*
X152352665Y-106023443D03*
X152352665Y-104773443D03*
X152352665Y-103523443D03*
%TD*%
D14*
%TO.C,J6*%
X121920000Y-122738408D03*
D15*
X121920000Y-120198408D03*
X121920000Y-117658408D03*
%TD*%
D16*
%TO.C,SW1*%
X127215471Y-68548518D03*
D17*
X122465471Y-68548518D03*
X117715471Y-68548518D03*
%TD*%
D18*
%TO.C,A1*%
X151823508Y-97393477D03*
X151823508Y-79613477D03*
D19*
X103563508Y-98028477D03*
X103563508Y-78978477D03*
D10*
X148013508Y-78343477D03*
D11*
X145473508Y-78343477D03*
X142933508Y-78343477D03*
X140393508Y-78343477D03*
X137853508Y-78343477D03*
X135313508Y-78343477D03*
X132773508Y-78343477D03*
X130233508Y-78343477D03*
X127693508Y-78343477D03*
X125153508Y-78343477D03*
X122613508Y-78343477D03*
X120073508Y-78343477D03*
X117533508Y-78343477D03*
X114993508Y-78343477D03*
X112453508Y-78343477D03*
X109913508Y-78343477D03*
X109913508Y-98663477D03*
X112453508Y-98663477D03*
X114993508Y-98663477D03*
X117533508Y-98663477D03*
X120073508Y-98663477D03*
X122613508Y-98663477D03*
X125153508Y-98663477D03*
X127693508Y-98663477D03*
X130233508Y-98663477D03*
X132773508Y-98663477D03*
X135313508Y-98663477D03*
X137853508Y-98663477D03*
%TD*%
D20*
%TO.C,U1*%
X104140000Y-74295000D03*
D21*
X106680000Y-74295000D03*
X109220000Y-74295000D03*
%TD*%
M02*
