%TF.GenerationSoftware,KiCad,Pcbnew,7.0.1*%
%TF.CreationDate,2023-04-02T16:12:04-04:00*%
%TF.ProjectId,board_v2,626f6172-645f-4763-922e-6b696361645f,rev?*%
%TF.SameCoordinates,Original*%
%TF.FileFunction,Legend,Bot*%
%TF.FilePolarity,Positive*%
%FSLAX46Y46*%
G04 Gerber Fmt 4.6, Leading zero omitted, Abs format (unit mm)*
G04 Created by KiCad (PCBNEW 7.0.1) date 2023-04-02 16:12:04*
%MOMM*%
%LPD*%
G01*
G04 APERTURE LIST*
%ADD10C,0.150000*%
G04 APERTURE END LIST*
D10*
X153809045Y-122073986D02*
X154142378Y-122073986D01*
X154142378Y-122597796D02*
X154142378Y-121597796D01*
X154142378Y-121597796D02*
X153666188Y-121597796D01*
X152856664Y-122597796D02*
X152856664Y-122073986D01*
X152856664Y-122073986D02*
X152904283Y-121978748D01*
X152904283Y-121978748D02*
X152999521Y-121931129D01*
X152999521Y-121931129D02*
X153189997Y-121931129D01*
X153189997Y-121931129D02*
X153285235Y-121978748D01*
X152856664Y-122550177D02*
X152951902Y-122597796D01*
X152951902Y-122597796D02*
X153189997Y-122597796D01*
X153189997Y-122597796D02*
X153285235Y-122550177D01*
X153285235Y-122550177D02*
X153332854Y-122454938D01*
X153332854Y-122454938D02*
X153332854Y-122359700D01*
X153332854Y-122359700D02*
X153285235Y-122264462D01*
X153285235Y-122264462D02*
X153189997Y-122216843D01*
X153189997Y-122216843D02*
X152951902Y-122216843D01*
X152951902Y-122216843D02*
X152856664Y-122169224D01*
X152237616Y-122597796D02*
X152332854Y-122550177D01*
X152332854Y-122550177D02*
X152380473Y-122454938D01*
X152380473Y-122454938D02*
X152380473Y-121597796D01*
X151713806Y-122597796D02*
X151809044Y-122550177D01*
X151809044Y-122550177D02*
X151856663Y-122454938D01*
X151856663Y-122454938D02*
X151856663Y-121597796D01*
X151380472Y-122550177D02*
X151285234Y-122597796D01*
X151285234Y-122597796D02*
X151094758Y-122597796D01*
X151094758Y-122597796D02*
X150999520Y-122550177D01*
X150999520Y-122550177D02*
X150951901Y-122454938D01*
X150951901Y-122454938D02*
X150951901Y-122407319D01*
X150951901Y-122407319D02*
X150999520Y-122312081D01*
X150999520Y-122312081D02*
X151094758Y-122264462D01*
X151094758Y-122264462D02*
X151237615Y-122264462D01*
X151237615Y-122264462D02*
X151332853Y-122216843D01*
X151332853Y-122216843D02*
X151380472Y-122121605D01*
X151380472Y-122121605D02*
X151380472Y-122073986D01*
X151380472Y-122073986D02*
X151332853Y-121978748D01*
X151332853Y-121978748D02*
X151237615Y-121931129D01*
X151237615Y-121931129D02*
X151094758Y-121931129D01*
X151094758Y-121931129D02*
X150999520Y-121978748D01*
X150523329Y-122597796D02*
X150523329Y-121597796D01*
X150523329Y-121597796D02*
X150285234Y-121597796D01*
X150285234Y-121597796D02*
X150142377Y-121645415D01*
X150142377Y-121645415D02*
X150047139Y-121740653D01*
X150047139Y-121740653D02*
X149999520Y-121835891D01*
X149999520Y-121835891D02*
X149951901Y-122026367D01*
X149951901Y-122026367D02*
X149951901Y-122169224D01*
X149951901Y-122169224D02*
X149999520Y-122359700D01*
X149999520Y-122359700D02*
X150047139Y-122454938D01*
X150047139Y-122454938D02*
X150142377Y-122550177D01*
X150142377Y-122550177D02*
X150285234Y-122597796D01*
X150285234Y-122597796D02*
X150523329Y-122597796D01*
X149380472Y-122597796D02*
X149475710Y-122550177D01*
X149475710Y-122550177D02*
X149523329Y-122502557D01*
X149523329Y-122502557D02*
X149570948Y-122407319D01*
X149570948Y-122407319D02*
X149570948Y-122121605D01*
X149570948Y-122121605D02*
X149523329Y-122026367D01*
X149523329Y-122026367D02*
X149475710Y-121978748D01*
X149475710Y-121978748D02*
X149380472Y-121931129D01*
X149380472Y-121931129D02*
X149237615Y-121931129D01*
X149237615Y-121931129D02*
X149142377Y-121978748D01*
X149142377Y-121978748D02*
X149094758Y-122026367D01*
X149094758Y-122026367D02*
X149047139Y-122121605D01*
X149047139Y-122121605D02*
X149047139Y-122407319D01*
X149047139Y-122407319D02*
X149094758Y-122502557D01*
X149094758Y-122502557D02*
X149142377Y-122550177D01*
X149142377Y-122550177D02*
X149237615Y-122597796D01*
X149237615Y-122597796D02*
X149380472Y-122597796D01*
X148713805Y-121931129D02*
X148523329Y-122597796D01*
X148523329Y-122597796D02*
X148332853Y-122121605D01*
X148332853Y-122121605D02*
X148142377Y-122597796D01*
X148142377Y-122597796D02*
X147951901Y-121931129D01*
X147570948Y-121931129D02*
X147570948Y-122597796D01*
X147570948Y-122026367D02*
X147523329Y-121978748D01*
X147523329Y-121978748D02*
X147428091Y-121931129D01*
X147428091Y-121931129D02*
X147285234Y-121931129D01*
X147285234Y-121931129D02*
X147189996Y-121978748D01*
X147189996Y-121978748D02*
X147142377Y-122073986D01*
X147142377Y-122073986D02*
X147142377Y-122597796D01*
X146189996Y-122597796D02*
X146666186Y-122597796D01*
X146666186Y-122597796D02*
X146666186Y-121597796D01*
X145713805Y-122597796D02*
X145809043Y-122550177D01*
X145809043Y-122550177D02*
X145856662Y-122502557D01*
X145856662Y-122502557D02*
X145904281Y-122407319D01*
X145904281Y-122407319D02*
X145904281Y-122121605D01*
X145904281Y-122121605D02*
X145856662Y-122026367D01*
X145856662Y-122026367D02*
X145809043Y-121978748D01*
X145809043Y-121978748D02*
X145713805Y-121931129D01*
X145713805Y-121931129D02*
X145570948Y-121931129D01*
X145570948Y-121931129D02*
X145475710Y-121978748D01*
X145475710Y-121978748D02*
X145428091Y-122026367D01*
X145428091Y-122026367D02*
X145380472Y-122121605D01*
X145380472Y-122121605D02*
X145380472Y-122407319D01*
X145380472Y-122407319D02*
X145428091Y-122502557D01*
X145428091Y-122502557D02*
X145475710Y-122550177D01*
X145475710Y-122550177D02*
X145570948Y-122597796D01*
X145570948Y-122597796D02*
X145713805Y-122597796D01*
X145094757Y-121931129D02*
X144713805Y-121931129D01*
X144951900Y-121597796D02*
X144951900Y-122454938D01*
X144951900Y-122454938D02*
X144904281Y-122550177D01*
X144904281Y-122550177D02*
X144809043Y-122597796D01*
X144809043Y-122597796D02*
X144713805Y-122597796D01*
X144428090Y-122550177D02*
X144332852Y-122597796D01*
X144332852Y-122597796D02*
X144142376Y-122597796D01*
X144142376Y-122597796D02*
X144047138Y-122550177D01*
X144047138Y-122550177D02*
X143999519Y-122454938D01*
X143999519Y-122454938D02*
X143999519Y-122407319D01*
X143999519Y-122407319D02*
X144047138Y-122312081D01*
X144047138Y-122312081D02*
X144142376Y-122264462D01*
X144142376Y-122264462D02*
X144285233Y-122264462D01*
X144285233Y-122264462D02*
X144380471Y-122216843D01*
X144380471Y-122216843D02*
X144428090Y-122121605D01*
X144428090Y-122121605D02*
X144428090Y-122073986D01*
X144428090Y-122073986D02*
X144380471Y-121978748D01*
X144380471Y-121978748D02*
X144285233Y-121931129D01*
X144285233Y-121931129D02*
X144142376Y-121931129D01*
X144142376Y-121931129D02*
X144047138Y-121978748D01*
X142904280Y-121931129D02*
X142666185Y-122597796D01*
X142666185Y-122597796D02*
X142428090Y-121931129D01*
X142094756Y-121693034D02*
X142047137Y-121645415D01*
X142047137Y-121645415D02*
X141951899Y-121597796D01*
X141951899Y-121597796D02*
X141713804Y-121597796D01*
X141713804Y-121597796D02*
X141618566Y-121645415D01*
X141618566Y-121645415D02*
X141570947Y-121693034D01*
X141570947Y-121693034D02*
X141523328Y-121788272D01*
X141523328Y-121788272D02*
X141523328Y-121883510D01*
X141523328Y-121883510D02*
X141570947Y-122026367D01*
X141570947Y-122026367D02*
X142142375Y-122597796D01*
X142142375Y-122597796D02*
X141523328Y-122597796D01*
X153713807Y-123551129D02*
X153713807Y-124360653D01*
X153713807Y-124360653D02*
X153761426Y-124455891D01*
X153761426Y-124455891D02*
X153809045Y-124503510D01*
X153809045Y-124503510D02*
X153904283Y-124551129D01*
X153904283Y-124551129D02*
X154047140Y-124551129D01*
X154047140Y-124551129D02*
X154142378Y-124503510D01*
X153713807Y-124170177D02*
X153809045Y-124217796D01*
X153809045Y-124217796D02*
X153999521Y-124217796D01*
X153999521Y-124217796D02*
X154094759Y-124170177D01*
X154094759Y-124170177D02*
X154142378Y-124122557D01*
X154142378Y-124122557D02*
X154189997Y-124027319D01*
X154189997Y-124027319D02*
X154189997Y-123741605D01*
X154189997Y-123741605D02*
X154142378Y-123646367D01*
X154142378Y-123646367D02*
X154094759Y-123598748D01*
X154094759Y-123598748D02*
X153999521Y-123551129D01*
X153999521Y-123551129D02*
X153809045Y-123551129D01*
X153809045Y-123551129D02*
X153713807Y-123598748D01*
X153237616Y-124217796D02*
X153237616Y-123551129D01*
X153237616Y-123217796D02*
X153285235Y-123265415D01*
X153285235Y-123265415D02*
X153237616Y-123313034D01*
X153237616Y-123313034D02*
X153189997Y-123265415D01*
X153189997Y-123265415D02*
X153237616Y-123217796D01*
X153237616Y-123217796D02*
X153237616Y-123313034D01*
X152856664Y-123551129D02*
X152332855Y-123551129D01*
X152332855Y-123551129D02*
X152856664Y-124217796D01*
X152856664Y-124217796D02*
X152332855Y-124217796D01*
X151523331Y-124217796D02*
X151523331Y-123693986D01*
X151523331Y-123693986D02*
X151570950Y-123598748D01*
X151570950Y-123598748D02*
X151666188Y-123551129D01*
X151666188Y-123551129D02*
X151856664Y-123551129D01*
X151856664Y-123551129D02*
X151951902Y-123598748D01*
X151523331Y-124170177D02*
X151618569Y-124217796D01*
X151618569Y-124217796D02*
X151856664Y-124217796D01*
X151856664Y-124217796D02*
X151951902Y-124170177D01*
X151951902Y-124170177D02*
X151999521Y-124074938D01*
X151999521Y-124074938D02*
X151999521Y-123979700D01*
X151999521Y-123979700D02*
X151951902Y-123884462D01*
X151951902Y-123884462D02*
X151856664Y-123836843D01*
X151856664Y-123836843D02*
X151618569Y-123836843D01*
X151618569Y-123836843D02*
X151523331Y-123789224D01*
X151189997Y-123551129D02*
X150809045Y-123551129D01*
X151047140Y-123217796D02*
X151047140Y-124074938D01*
X151047140Y-124074938D02*
X150999521Y-124170177D01*
X150999521Y-124170177D02*
X150904283Y-124217796D01*
X150904283Y-124217796D02*
X150809045Y-124217796D01*
X150618568Y-123551129D02*
X150237616Y-123551129D01*
X150475711Y-123217796D02*
X150475711Y-124074938D01*
X150475711Y-124074938D02*
X150428092Y-124170177D01*
X150428092Y-124170177D02*
X150332854Y-124217796D01*
X150332854Y-124217796D02*
X150237616Y-124217796D01*
X149856663Y-124170177D02*
X149856663Y-124217796D01*
X149856663Y-124217796D02*
X149904282Y-124313034D01*
X149904282Y-124313034D02*
X149951901Y-124360653D01*
X148713806Y-123932081D02*
X148237616Y-123932081D01*
X148809044Y-124217796D02*
X148475711Y-123217796D01*
X148475711Y-123217796D02*
X148142378Y-124217796D01*
X147809044Y-123551129D02*
X147809044Y-124551129D01*
X147809044Y-123598748D02*
X147713806Y-123551129D01*
X147713806Y-123551129D02*
X147523330Y-123551129D01*
X147523330Y-123551129D02*
X147428092Y-123598748D01*
X147428092Y-123598748D02*
X147380473Y-123646367D01*
X147380473Y-123646367D02*
X147332854Y-123741605D01*
X147332854Y-123741605D02*
X147332854Y-124027319D01*
X147332854Y-124027319D02*
X147380473Y-124122557D01*
X147380473Y-124122557D02*
X147428092Y-124170177D01*
X147428092Y-124170177D02*
X147523330Y-124217796D01*
X147523330Y-124217796D02*
X147713806Y-124217796D01*
X147713806Y-124217796D02*
X147809044Y-124170177D01*
X146904282Y-124217796D02*
X146904282Y-123551129D01*
X146904282Y-123741605D02*
X146856663Y-123646367D01*
X146856663Y-123646367D02*
X146809044Y-123598748D01*
X146809044Y-123598748D02*
X146713806Y-123551129D01*
X146713806Y-123551129D02*
X146618568Y-123551129D01*
X145475710Y-123217796D02*
X145570948Y-123408272D01*
X145094758Y-123313034D02*
X145047139Y-123265415D01*
X145047139Y-123265415D02*
X144951901Y-123217796D01*
X144951901Y-123217796D02*
X144713806Y-123217796D01*
X144713806Y-123217796D02*
X144618568Y-123265415D01*
X144618568Y-123265415D02*
X144570949Y-123313034D01*
X144570949Y-123313034D02*
X144523330Y-123408272D01*
X144523330Y-123408272D02*
X144523330Y-123503510D01*
X144523330Y-123503510D02*
X144570949Y-123646367D01*
X144570949Y-123646367D02*
X145142377Y-124217796D01*
X145142377Y-124217796D02*
X144523330Y-124217796D01*
X144189996Y-123217796D02*
X143570949Y-123217796D01*
X143570949Y-123217796D02*
X143904282Y-123598748D01*
X143904282Y-123598748D02*
X143761425Y-123598748D01*
X143761425Y-123598748D02*
X143666187Y-123646367D01*
X143666187Y-123646367D02*
X143618568Y-123693986D01*
X143618568Y-123693986D02*
X143570949Y-123789224D01*
X143570949Y-123789224D02*
X143570949Y-124027319D01*
X143570949Y-124027319D02*
X143618568Y-124122557D01*
X143618568Y-124122557D02*
X143666187Y-124170177D01*
X143666187Y-124170177D02*
X143761425Y-124217796D01*
X143761425Y-124217796D02*
X144047139Y-124217796D01*
X144047139Y-124217796D02*
X144142377Y-124170177D01*
X144142377Y-124170177D02*
X144189996Y-124122557D01*
M02*
