%TF.GenerationSoftware,KiCad,Pcbnew,7.0.1*%
%TF.CreationDate,2023-04-02T16:12:04-04:00*%
%TF.ProjectId,board_v2,626f6172-645f-4763-922e-6b696361645f,rev?*%
%TF.SameCoordinates,Original*%
%TF.FileFunction,Copper,L1,Top*%
%TF.FilePolarity,Positive*%
%FSLAX46Y46*%
G04 Gerber Fmt 4.6, Leading zero omitted, Abs format (unit mm)*
G04 Created by KiCad (PCBNEW 7.0.1) date 2023-04-02 16:12:04*
%MOMM*%
%LPD*%
G01*
G04 APERTURE LIST*
G04 Aperture macros list*
%AMRoundRect*
0 Rectangle with rounded corners*
0 $1 Rounding radius*
0 $2 $3 $4 $5 $6 $7 $8 $9 X,Y pos of 4 corners*
0 Add a 4 corners polygon primitive as box body*
4,1,4,$2,$3,$4,$5,$6,$7,$8,$9,$2,$3,0*
0 Add four circle primitives for the rounded corners*
1,1,$1+$1,$2,$3*
1,1,$1+$1,$4,$5*
1,1,$1+$1,$6,$7*
1,1,$1+$1,$8,$9*
0 Add four rect primitives between the rounded corners*
20,1,$1+$1,$2,$3,$4,$5,0*
20,1,$1+$1,$4,$5,$6,$7,0*
20,1,$1+$1,$6,$7,$8,$9,0*
20,1,$1+$1,$8,$9,$2,$3,0*%
G04 Aperture macros list end*
%TA.AperFunction,SMDPad,CuDef*%
%ADD10RoundRect,0.250000X-0.337500X-0.475000X0.337500X-0.475000X0.337500X0.475000X-0.337500X0.475000X0*%
%TD*%
%TA.AperFunction,ComponentPad*%
%ADD11R,1.600000X1.600000*%
%TD*%
%TA.AperFunction,ComponentPad*%
%ADD12C,1.600000*%
%TD*%
%TA.AperFunction,ComponentPad*%
%ADD13R,1.500000X1.000000*%
%TD*%
%TA.AperFunction,ComponentPad*%
%ADD14O,1.500000X1.000000*%
%TD*%
%TA.AperFunction,SMDPad,CuDef*%
%ADD15RoundRect,0.250000X0.350000X0.450000X-0.350000X0.450000X-0.350000X-0.450000X0.350000X-0.450000X0*%
%TD*%
%TA.AperFunction,ComponentPad*%
%ADD16R,1.700000X1.700000*%
%TD*%
%TA.AperFunction,ComponentPad*%
%ADD17O,1.700000X1.700000*%
%TD*%
%TA.AperFunction,SMDPad,CuDef*%
%ADD18RoundRect,0.250000X0.337500X0.475000X-0.337500X0.475000X-0.337500X-0.475000X0.337500X-0.475000X0*%
%TD*%
%TA.AperFunction,SMDPad,CuDef*%
%ADD19RoundRect,0.250000X-0.475000X0.337500X-0.475000X-0.337500X0.475000X-0.337500X0.475000X0.337500X0*%
%TD*%
%TA.AperFunction,SMDPad,CuDef*%
%ADD20R,0.300000X1.600000*%
%TD*%
%TA.AperFunction,ComponentPad*%
%ADD21C,0.500000*%
%TD*%
%TA.AperFunction,SMDPad,CuDef*%
%ADD22R,9.700000X3.400000*%
%TD*%
%TA.AperFunction,SMDPad,CuDef*%
%ADD23RoundRect,0.250000X-0.350000X-0.450000X0.350000X-0.450000X0.350000X0.450000X-0.350000X0.450000X0*%
%TD*%
%TA.AperFunction,ComponentPad*%
%ADD24R,2.475000X2.475000*%
%TD*%
%TA.AperFunction,ComponentPad*%
%ADD25C,2.475000*%
%TD*%
%TA.AperFunction,SMDPad,CuDef*%
%ADD26R,1.400000X2.100000*%
%TD*%
%TA.AperFunction,WasherPad*%
%ADD27C,3.200000*%
%TD*%
%TA.AperFunction,ComponentPad*%
%ADD28R,1.905000X2.000000*%
%TD*%
%TA.AperFunction,ComponentPad*%
%ADD29O,1.905000X2.000000*%
%TD*%
%TA.AperFunction,ViaPad*%
%ADD30C,0.800000*%
%TD*%
%TA.AperFunction,Conductor*%
%ADD31C,0.250000*%
%TD*%
%TA.AperFunction,Conductor*%
%ADD32C,0.350000*%
%TD*%
%TA.AperFunction,Conductor*%
%ADD33C,0.500000*%
%TD*%
%TA.AperFunction,Conductor*%
%ADD34C,1.000000*%
%TD*%
%TA.AperFunction,Conductor*%
%ADD35C,2.000000*%
%TD*%
G04 APERTURE END LIST*
D10*
%TO.P,C5,1*%
%TO.N,Net-(C5-Pad1)*%
X145698330Y-105332110D03*
%TO.P,C5,2*%
%TO.N,GND*%
X147773330Y-105332110D03*
%TD*%
D11*
%TO.P,C12,1*%
%TO.N,+BATT*%
X132459504Y-112965113D03*
D12*
%TO.P,C12,2*%
%TO.N,GND*%
X132459504Y-110465113D03*
%TD*%
D10*
%TO.P,C9,1*%
%TO.N,GND*%
X107674500Y-118110000D03*
%TO.P,C9,2*%
%TO.N,+BATT*%
X109749500Y-118110000D03*
%TD*%
D13*
%TO.P,J2,1,Pin_1*%
%TO.N,GND*%
X102870000Y-109220000D03*
D14*
%TO.P,J2,2,Pin_2*%
%TO.N,/SCL0*%
X102870000Y-107970000D03*
%TO.P,J2,3,Pin_3*%
%TO.N,/SDA0*%
X102870000Y-106720000D03*
%TO.P,J2,4,Pin_4*%
%TO.N,+3V3*%
X102870000Y-105470000D03*
%TO.P,J2,5,Pin_5*%
X102870000Y-104220000D03*
%TO.P,J2,6,Pin_6*%
%TO.N,/A2*%
X102870000Y-102970000D03*
%TD*%
D15*
%TO.P,R1,1*%
%TO.N,GND*%
X137160000Y-83820000D03*
%TO.P,R1,2*%
%TO.N,/A2*%
X135160000Y-83820000D03*
%TD*%
D16*
%TO.P,U2,1,VCC*%
%TO.N,+3V3*%
X152400000Y-62230000D03*
D17*
%TO.P,U2,2,GND*%
%TO.N,GND*%
X149860000Y-62230000D03*
%TO.P,U2,3,SCL*%
%TO.N,/SCL1*%
X147320000Y-62230000D03*
%TO.P,U2,4,SDA*%
%TO.N,/SDA1*%
X144780000Y-62230000D03*
%TO.P,U2,5,XDA*%
%TO.N,unconnected-(U2-Pad5)*%
X142240000Y-62230000D03*
%TO.P,U2,6,XCL*%
%TO.N,unconnected-(U2-Pad6)*%
X139700000Y-62230000D03*
%TO.P,U2,7,ADD*%
%TO.N,unconnected-(U2-Pad7)*%
X137160000Y-62230000D03*
%TO.P,U2,8,INT*%
%TO.N,unconnected-(U2-Pad8)*%
X134620000Y-62230000D03*
%TD*%
D10*
%TO.P,C2,1*%
%TO.N,GND*%
X139043500Y-116967000D03*
%TO.P,C2,2*%
%TO.N,+BATT*%
X141118500Y-116967000D03*
%TD*%
D11*
%TO.P,C6,1*%
%TO.N,+BATT*%
X120904000Y-112965113D03*
D12*
%TO.P,C6,2*%
%TO.N,GND*%
X120904000Y-110465113D03*
%TD*%
D18*
%TO.P,C3,1*%
%TO.N,GND*%
X148103500Y-115773200D03*
%TO.P,C3,2*%
%TO.N,+BATT*%
X146028500Y-115773200D03*
%TD*%
D16*
%TO.P,J1,1,Pin_1*%
%TO.N,GND*%
X104140000Y-68580000D03*
D17*
%TO.P,J1,2,Pin_2*%
%TO.N,/Bat+ Raw*%
X106680000Y-68580000D03*
%TD*%
D19*
%TO.P,C10,1*%
%TO.N,Net-(C10-Pad1)*%
X105257600Y-115802500D03*
%TO.P,C10,2*%
%TO.N,+BATT*%
X105257600Y-117877500D03*
%TD*%
D16*
%TO.P,J4,1,Pin_1*%
%TO.N,/ml1*%
X132399215Y-117700478D03*
D17*
%TO.P,J4,2,Pin_2*%
%TO.N,/ml2*%
X132399215Y-120240478D03*
%TO.P,J4,3,Pin_3*%
%TO.N,/ml3*%
X132399215Y-122780478D03*
%TD*%
D15*
%TO.P,R2,1*%
%TO.N,GND*%
X137160000Y-81280000D03*
%TO.P,R2,2*%
%TO.N,/A1*%
X135160000Y-81280000D03*
%TD*%
D18*
%TO.P,C8,1*%
%TO.N,GND*%
X116759900Y-116281200D03*
%TO.P,C8,2*%
%TO.N,+BATT*%
X114684900Y-116281200D03*
%TD*%
D13*
%TO.P,J3,1,Pin_1*%
%TO.N,GND*%
X152352665Y-109773443D03*
D14*
%TO.P,J3,2,Pin_2*%
%TO.N,/SCL1*%
X152352665Y-108523443D03*
%TO.P,J3,3,Pin_3*%
%TO.N,/SDA1*%
X152352665Y-107273443D03*
%TO.P,J3,4,Pin_4*%
%TO.N,+3V3*%
X152352665Y-106023443D03*
%TO.P,J3,5,Pin_5*%
X152352665Y-104773443D03*
%TO.P,J3,6,Pin_6*%
%TO.N,/A1*%
X152352665Y-103523443D03*
%TD*%
D20*
%TO.P,U5,1,CPL*%
%TO.N,Net-(C7-Pad1)*%
X108043000Y-114052000D03*
%TO.P,U5,2,CPH*%
%TO.N,Net-(C7-Pad2)*%
X108693000Y-114052000D03*
%TO.P,U5,3,VCP*%
%TO.N,Net-(C10-Pad1)*%
X109343000Y-114052000D03*
%TO.P,U5,4,VM1*%
%TO.N,+BATT*%
X109993000Y-114052000D03*
%TO.P,U5,5,OUT1*%
%TO.N,/mr1*%
X110643000Y-114052000D03*
%TO.P,U5,6,PGND1*%
%TO.N,GND*%
X111293000Y-114052000D03*
%TO.P,U5,7,PGND2*%
X111943000Y-114052000D03*
%TO.P,U5,8,OUT2*%
%TO.N,/mr2*%
X112593000Y-114052000D03*
%TO.P,U5,9,OUT3*%
%TO.N,/mr3*%
X113243000Y-114052000D03*
%TO.P,U5,10,PGND3*%
%TO.N,GND*%
X113893000Y-114052000D03*
%TO.P,U5,11,VM2*%
%TO.N,+BATT*%
X114543000Y-114052000D03*
%TO.P,U5,12,COMPP*%
%TO.N,GND*%
X115193000Y-114052000D03*
%TO.P,U5,13,COMPN*%
X115843000Y-114052000D03*
%TO.P,U5,14,GND*%
X116493000Y-114052000D03*
%TO.P,U5,15,V3P3*%
%TO.N,Net-(C11-Pad1)*%
X116493000Y-108452000D03*
%TO.P,U5,16,NRESET*%
%TO.N,unconnected-(U5-Pad16)*%
X115843000Y-108452000D03*
%TO.P,U5,17,NSLEEP*%
%TO.N,unconnected-(U5-Pad17)*%
X115193000Y-108452000D03*
%TO.P,U5,18,NFAULT*%
%TO.N,unconnected-(U5-Pad18)*%
X114543000Y-108452000D03*
%TO.P,U5,19*%
%TO.N,N/C*%
X113893000Y-108452000D03*
%TO.P,U5,20,GND*%
%TO.N,GND*%
X113243000Y-108452000D03*
%TO.P,U5,21*%
%TO.N,N/C*%
X112593000Y-108452000D03*
%TO.P,U5,22,EN3*%
%TO.N,/D5*%
X111943000Y-108452000D03*
%TO.P,U5,23,IN3*%
%TO.N,/D8*%
X111293000Y-108452000D03*
%TO.P,U5,24,EN2*%
%TO.N,/D5*%
X110643000Y-108452000D03*
%TO.P,U5,25,IN2*%
%TO.N,/D7*%
X109993000Y-108452000D03*
%TO.P,U5,26,EN1*%
%TO.N,/D5*%
X109343000Y-108452000D03*
%TO.P,U5,27,IN1*%
%TO.N,/D6*%
X108693000Y-108452000D03*
%TO.P,U5,28,GND*%
%TO.N,GND*%
X108043000Y-108452000D03*
D21*
%TO.P,U5,29,TH_PAD*%
X111018000Y-112502000D03*
X109768000Y-111252000D03*
X113518000Y-110002000D03*
X108518000Y-110002000D03*
X111018000Y-110002000D03*
X109768000Y-112502000D03*
X116018000Y-111252000D03*
X116018000Y-112502000D03*
X113518000Y-111252000D03*
X114768000Y-110002000D03*
X112268000Y-110002000D03*
X114768000Y-112502000D03*
X111018000Y-111252000D03*
D22*
X112268000Y-111252000D03*
D21*
X112268000Y-112502000D03*
X109768000Y-110002000D03*
X112268000Y-111252000D03*
X108518000Y-112502000D03*
X108518000Y-111252000D03*
X113518000Y-112502000D03*
X114768000Y-111252000D03*
X116018000Y-110002000D03*
%TD*%
D19*
%TO.P,C7,1*%
%TO.N,Net-(C7-Pad1)*%
X105257600Y-111941700D03*
%TO.P,C7,2*%
%TO.N,Net-(C7-Pad2)*%
X105257600Y-114016700D03*
%TD*%
D23*
%TO.P,R3,1*%
%TO.N,+BATT*%
X112792000Y-85852000D03*
%TO.P,R3,2*%
%TO.N,/A3*%
X114792000Y-85852000D03*
%TD*%
D16*
%TO.P,J6,1,Pin_1*%
%TO.N,/mr1*%
X121920000Y-122738408D03*
D17*
%TO.P,J6,2,Pin_2*%
%TO.N,/mr2*%
X121920000Y-120198408D03*
%TO.P,J6,3,Pin_3*%
%TO.N,/mr3*%
X121920000Y-117658408D03*
%TD*%
D24*
%TO.P,SW1,1,A*%
%TO.N,/Bat+ Post Switch*%
X127215471Y-68548518D03*
D25*
%TO.P,SW1,2,B*%
%TO.N,/Bat+ Raw*%
X122465471Y-68548518D03*
%TO.P,SW1,3,C*%
%TO.N,unconnected-(SW1-Pad3)*%
X117715471Y-68548518D03*
%TD*%
D26*
%TO.P,D1,1,K*%
%TO.N,+BATT*%
X113576732Y-75003589D03*
%TO.P,D1,2,A*%
%TO.N,/Bat+ Post Switch*%
X117976732Y-75003589D03*
%TD*%
D18*
%TO.P,C13,1*%
%TO.N,/A3*%
X130069500Y-81280000D03*
%TO.P,C13,2*%
%TO.N,GND*%
X127994500Y-81280000D03*
%TD*%
D15*
%TO.P,R4,1*%
%TO.N,/A3*%
X114792000Y-87884000D03*
%TO.P,R4,2*%
%TO.N,GND*%
X112792000Y-87884000D03*
%TD*%
D20*
%TO.P,U3,1,CPL*%
%TO.N,Net-(C1-Pad1)*%
X139285000Y-113290000D03*
%TO.P,U3,2,CPH*%
%TO.N,Net-(C1-Pad2)*%
X139935000Y-113290000D03*
%TO.P,U3,3,VCP*%
%TO.N,Net-(C4-Pad1)*%
X140585000Y-113290000D03*
%TO.P,U3,4,VM1*%
%TO.N,+BATT*%
X141235000Y-113290000D03*
%TO.P,U3,5,OUT1*%
%TO.N,/ml1*%
X141885000Y-113290000D03*
%TO.P,U3,6,PGND1*%
%TO.N,GND*%
X142535000Y-113290000D03*
%TO.P,U3,7,PGND2*%
X143185000Y-113290000D03*
%TO.P,U3,8,OUT2*%
%TO.N,/ml2*%
X143835000Y-113290000D03*
%TO.P,U3,9,OUT3*%
%TO.N,/ml3*%
X144485000Y-113290000D03*
%TO.P,U3,10,PGND3*%
%TO.N,GND*%
X145135000Y-113290000D03*
%TO.P,U3,11,VM2*%
%TO.N,+BATT*%
X145785000Y-113290000D03*
%TO.P,U3,12,COMPP*%
%TO.N,GND*%
X146435000Y-113290000D03*
%TO.P,U3,13,COMPN*%
X147085000Y-113290000D03*
%TO.P,U3,14,GND*%
X147735000Y-113290000D03*
%TO.P,U3,15,V3P3*%
%TO.N,Net-(C5-Pad1)*%
X147735000Y-107690000D03*
%TO.P,U3,16,NRESET*%
%TO.N,unconnected-(U3-Pad16)*%
X147085000Y-107690000D03*
%TO.P,U3,17,NSLEEP*%
%TO.N,unconnected-(U3-Pad17)*%
X146435000Y-107690000D03*
%TO.P,U3,18,NFAULT*%
%TO.N,unconnected-(U3-Pad18)*%
X145785000Y-107690000D03*
%TO.P,U3,19*%
%TO.N,N/C*%
X145135000Y-107690000D03*
%TO.P,U3,20,GND*%
%TO.N,GND*%
X144485000Y-107690000D03*
%TO.P,U3,21*%
%TO.N,N/C*%
X143835000Y-107690000D03*
%TO.P,U3,22,EN3*%
%TO.N,/D11*%
X143185000Y-107690000D03*
%TO.P,U3,23,IN3*%
%TO.N,/D24*%
X142535000Y-107690000D03*
%TO.P,U3,24,EN2*%
%TO.N,/D11*%
X141885000Y-107690000D03*
%TO.P,U3,25,IN2*%
%TO.N,/D13*%
X141235000Y-107690000D03*
%TO.P,U3,26,EN1*%
%TO.N,/D11*%
X140585000Y-107690000D03*
%TO.P,U3,27,IN1*%
%TO.N,/D12*%
X139935000Y-107690000D03*
%TO.P,U3,28,GND*%
%TO.N,GND*%
X139285000Y-107690000D03*
D21*
%TO.P,U3,29,TH_PAD*%
X147260000Y-111740000D03*
X144760000Y-110490000D03*
X142260000Y-109240000D03*
X143510000Y-111740000D03*
X139760000Y-110490000D03*
X147260000Y-109240000D03*
X142260000Y-110490000D03*
D22*
X143510000Y-110490000D03*
D21*
X146010000Y-110490000D03*
X147260000Y-110490000D03*
X143510000Y-109240000D03*
X144760000Y-111740000D03*
X141010000Y-109240000D03*
X139760000Y-109240000D03*
X139760000Y-111740000D03*
X141010000Y-111740000D03*
X146010000Y-109240000D03*
X146010000Y-111740000D03*
X143510000Y-110490000D03*
X144760000Y-109240000D03*
X141010000Y-110490000D03*
X142260000Y-111740000D03*
%TD*%
D23*
%TO.P,R5,2*%
%TO.N,/SDA1*%
X114792000Y-81280000D03*
%TO.P,R5,1*%
%TO.N,+3V3*%
X112792000Y-81280000D03*
%TD*%
D10*
%TO.P,C11,1*%
%TO.N,Net-(C11-Pad1)*%
X119866500Y-107696000D03*
%TO.P,C11,2*%
%TO.N,GND*%
X121941500Y-107696000D03*
%TD*%
D27*
%TO.P,A1,*%
%TO.N,*%
X151823508Y-97393477D03*
X151823508Y-79613477D03*
D11*
%TO.P,A1,1,~{RESET}*%
%TO.N,unconnected-(A1-Pad1)*%
X148013508Y-78343477D03*
D12*
%TO.P,A1,2,3V3*%
%TO.N,+3V3*%
X145473508Y-78343477D03*
%TO.P,A1,3,AREF*%
X142933508Y-78343477D03*
%TO.P,A1,4,GND*%
%TO.N,GND*%
X140393508Y-78343477D03*
%TO.P,A1,5,DAC0/A0*%
%TO.N,unconnected-(A1-Pad5)*%
X137853508Y-78343477D03*
%TO.P,A1,6,A1*%
%TO.N,/A1*%
X135313508Y-78343477D03*
%TO.P,A1,7,A2*%
%TO.N,/A2*%
X132773508Y-78343477D03*
%TO.P,A1,8,A3*%
%TO.N,/A3*%
X130233508Y-78343477D03*
%TO.P,A1,9,A4*%
%TO.N,unconnected-(A1-Pad9)*%
X127693508Y-78343477D03*
%TO.P,A1,10,A5*%
%TO.N,unconnected-(A1-Pad10)*%
X125153508Y-78343477D03*
%TO.P,A1,11,SCK/D24*%
%TO.N,/D24*%
X122613508Y-78343477D03*
%TO.P,A1,12,MOSI/D23*%
%TO.N,/SCL1*%
X120073508Y-78343477D03*
%TO.P,A1,13,MISO/D22*%
%TO.N,/SDA1*%
X117533508Y-78343477D03*
%TO.P,A1,14,RX/D0*%
%TO.N,unconnected-(A1-Pad14)*%
X114993508Y-78343477D03*
%TO.P,A1,15,TX/D1*%
%TO.N,unconnected-(A1-Pad15)*%
X112453508Y-78343477D03*
%TO.P,A1,16,GND*%
%TO.N,GND*%
X109913508Y-78343477D03*
%TO.P,A1,17,SDA/D20*%
%TO.N,/SDA0*%
X109913508Y-98663477D03*
%TO.P,A1,18,SCL/D21*%
%TO.N,/SCL0*%
X112453508Y-98663477D03*
%TO.P,A1,19,D5*%
%TO.N,/D5*%
X114993508Y-98663477D03*
%TO.P,A1,20,D6*%
%TO.N,/D6*%
X117533508Y-98663477D03*
%TO.P,A1,21,D9*%
%TO.N,/D7*%
X120073508Y-98663477D03*
%TO.P,A1,22,D10*%
%TO.N,/D8*%
X122613508Y-98663477D03*
%TO.P,A1,23,D11*%
%TO.N,/D11*%
X125153508Y-98663477D03*
%TO.P,A1,24,D12*%
%TO.N,/D12*%
X127693508Y-98663477D03*
%TO.P,A1,25,D13*%
%TO.N,/D13*%
X130233508Y-98663477D03*
%TO.P,A1,26,USB*%
%TO.N,unconnected-(A1-Pad26)*%
X132773508Y-98663477D03*
%TO.P,A1,27,EN*%
%TO.N,unconnected-(A1-Pad27)*%
X135313508Y-98663477D03*
%TO.P,A1,28,VBAT*%
%TO.N,unconnected-(A1-Pad28)*%
X137853508Y-98663477D03*
%TD*%
D19*
%TO.P,C1,1*%
%TO.N,Net-(C1-Pad1)*%
X136906000Y-109757300D03*
%TO.P,C1,2*%
%TO.N,Net-(C1-Pad2)*%
X136906000Y-111832300D03*
%TD*%
%TO.P,C4,1*%
%TO.N,Net-(C4-Pad1)*%
X136906000Y-113643500D03*
%TO.P,C4,2*%
%TO.N,+BATT*%
X136906000Y-115718500D03*
%TD*%
D23*
%TO.P,R6,1*%
%TO.N,+3V3*%
X112792000Y-83312000D03*
%TO.P,R6,2*%
%TO.N,/SCL1*%
X114792000Y-83312000D03*
%TD*%
D28*
%TO.P,U1,1,GND*%
%TO.N,GND*%
X104140000Y-74295000D03*
D29*
%TO.P,U1,2,Vout*%
%TO.N,+3V3*%
X106680000Y-74295000D03*
%TO.P,U1,3,Vin*%
%TO.N,+BATT*%
X109220000Y-74295000D03*
%TD*%
D30*
%TO.N,+3V3*%
X138340015Y-73749985D03*
%TO.N,GND*%
X126492000Y-80772000D03*
X112776000Y-89916000D03*
X138633322Y-83828599D03*
X149555200Y-115722400D03*
X107061000Y-119761000D03*
X137414000Y-118160800D03*
%TO.N,/A1*%
X147320000Y-99060000D03*
%TO.N,/D24*%
X135890000Y-91440000D03*
X128881545Y-84462887D03*
%TO.N,/SDA1*%
X142240000Y-81280000D03*
X138430000Y-75926914D03*
%TO.N,/D5*%
X110744000Y-105156000D03*
X107696000Y-105156000D03*
X112268000Y-105156000D03*
X109220000Y-105156000D03*
%TO.N,/D11*%
X140328646Y-105056895D03*
X141899054Y-105069054D03*
X143450452Y-105107530D03*
%TO.N,+BATT*%
X114438395Y-119148412D03*
X139903200Y-118516400D03*
X145846800Y-118668800D03*
X147116800Y-117398800D03*
X139903200Y-119786400D03*
X108458000Y-119761000D03*
X141173200Y-118516400D03*
X115708395Y-117878412D03*
X106680000Y-85852000D03*
X109728000Y-119761000D03*
X115708395Y-119148412D03*
X108458000Y-121031000D03*
X145846800Y-117398800D03*
X114438395Y-117878412D03*
X141173200Y-119786400D03*
X147116800Y-118668800D03*
X109728000Y-121031000D03*
%TD*%
D31*
%TO.N,/A1*%
X135313508Y-81126492D02*
X135313508Y-78343477D01*
X135160000Y-81280000D02*
X135313508Y-81126492D01*
X136084520Y-87824520D02*
X136084520Y-82204520D01*
%TO.N,GND*%
X137160000Y-83820000D02*
X137160000Y-81280000D01*
%TO.N,/A1*%
X136084520Y-82204520D02*
X135160000Y-81280000D01*
X147320000Y-99060000D02*
X136084520Y-87824520D01*
D32*
%TO.N,GND*%
X127486500Y-80772000D02*
X126492000Y-80772000D01*
X127994500Y-81280000D02*
X127486500Y-80772000D01*
D31*
%TO.N,/SCL1*%
X115104985Y-83312000D02*
X120073508Y-78343477D01*
X114792000Y-83312000D02*
X115104985Y-83312000D01*
D33*
%TO.N,+3V3*%
X112792000Y-83312000D02*
X105156000Y-83312000D01*
X106680000Y-73512500D02*
X109072500Y-71120000D01*
X102870000Y-104220000D02*
X102370000Y-104220000D01*
X112792000Y-81280000D02*
X106680000Y-81280000D01*
X101186535Y-86773465D02*
X104648000Y-83312000D01*
X106680000Y-81280000D02*
X106680000Y-74295000D01*
X123190000Y-71120000D02*
X124856019Y-69453981D01*
X125948494Y-66040000D02*
X130630030Y-66040000D01*
X152695489Y-104773443D02*
X153552185Y-103916747D01*
X152352665Y-104773443D02*
X152352665Y-106023443D01*
X105156000Y-83312000D02*
X104902000Y-83058000D01*
X143510000Y-80306985D02*
X145473508Y-78343477D01*
X143510000Y-92777175D02*
X143510000Y-80306985D01*
X151852665Y-104773443D02*
X152695489Y-104773443D01*
X105156000Y-83312000D02*
X104648000Y-83312000D01*
X152400000Y-62230000D02*
X152400000Y-71416985D01*
X101186535Y-103036535D02*
X101186535Y-86773465D01*
X124856019Y-69453981D02*
X124856019Y-67132475D01*
X106680000Y-74295000D02*
X106680000Y-73512500D01*
D31*
X152352665Y-104773443D02*
X151852665Y-104773443D01*
D33*
X104648000Y-83312000D02*
X104902000Y-83058000D01*
X102870000Y-105470000D02*
X102870000Y-104220000D01*
X109072500Y-71120000D02*
X123190000Y-71120000D01*
X145473508Y-78343477D02*
X142933508Y-78343477D01*
X124856019Y-67132475D02*
X125948494Y-66040000D01*
X130630030Y-66040000D02*
X138340015Y-73749985D01*
X153552185Y-102819360D02*
X143510000Y-92777175D01*
X153552185Y-103916747D02*
X153552185Y-102819360D01*
X152400000Y-71416985D02*
X145473508Y-78343477D01*
X104902000Y-83058000D02*
X106680000Y-81280000D01*
X102370000Y-104220000D02*
X101186535Y-103036535D01*
D31*
%TO.N,GND*%
X145135000Y-112115000D02*
X143510000Y-110490000D01*
D34*
X107061000Y-118723500D02*
X107061000Y-119761000D01*
D31*
X147735000Y-113290000D02*
X147735000Y-112215000D01*
X143185000Y-112065000D02*
X143510000Y-111740000D01*
D32*
X112776000Y-89916000D02*
X112776000Y-87905500D01*
D31*
X111943000Y-112827000D02*
X112268000Y-112502000D01*
X138633322Y-83828599D02*
X137168599Y-83828599D01*
X120904000Y-108733500D02*
X120904000Y-110465113D01*
D34*
X137849700Y-118160800D02*
X137414000Y-118160800D01*
D31*
X111943000Y-114052000D02*
X111943000Y-112827000D01*
X139285000Y-108740000D02*
X141035000Y-110490000D01*
X147085000Y-113290000D02*
X147085000Y-111915000D01*
X113243000Y-108452000D02*
X113244331Y-109991687D01*
X141035000Y-110490000D02*
X143510000Y-110490000D01*
X143185000Y-113290000D02*
X143185000Y-112065000D01*
X142535000Y-113290000D02*
X142535000Y-112015000D01*
D34*
X117652800Y-116281200D02*
X118668800Y-115265200D01*
D31*
X147773330Y-105332110D02*
X148225493Y-105784273D01*
X116493000Y-114052000D02*
X116505015Y-112467816D01*
X142535000Y-112015000D02*
X142260000Y-111740000D01*
D34*
X149504400Y-115773200D02*
X149555200Y-115722400D01*
D31*
X108043000Y-108452000D02*
X108051446Y-109883823D01*
X144685000Y-110490000D02*
X143510000Y-110490000D01*
D34*
X139043500Y-116967000D02*
X137849700Y-118160800D01*
D35*
X120904000Y-110465113D02*
X118593113Y-110465113D01*
D31*
X148225493Y-105784273D02*
X148225493Y-108924507D01*
X144485000Y-109515000D02*
X143510000Y-110490000D01*
X146660000Y-110490000D02*
X143510000Y-110490000D01*
X111293000Y-112777000D02*
X111018000Y-112502000D01*
D35*
X118593113Y-110465113D02*
X113054887Y-110465113D01*
D34*
X107674500Y-118110000D02*
X107061000Y-118723500D01*
D31*
X139285000Y-107690000D02*
X139285000Y-108740000D01*
D34*
X148103500Y-115773200D02*
X149504400Y-115773200D01*
D31*
X146435000Y-112240000D02*
X144685000Y-110490000D01*
X144485000Y-107690000D02*
X144485000Y-109515000D01*
X145135000Y-113290000D02*
X145135000Y-112115000D01*
X121941500Y-107696000D02*
X120904000Y-108733500D01*
D32*
X113893000Y-114052000D02*
X113893163Y-112452407D01*
D31*
X147085000Y-111915000D02*
X147260000Y-111740000D01*
D34*
X118668800Y-110540800D02*
X118593113Y-110465113D01*
D31*
X148225493Y-108924507D02*
X146660000Y-110490000D01*
X146435000Y-113290000D02*
X146435000Y-112240000D01*
D34*
X116759900Y-116281200D02*
X117652800Y-116281200D01*
D31*
X115843000Y-114052000D02*
X115834717Y-112506339D01*
D34*
X118668800Y-115265200D02*
X118668800Y-110540800D01*
D31*
X137168599Y-83828599D02*
X137160000Y-83820000D01*
X147735000Y-112215000D02*
X147260000Y-111740000D01*
X111293000Y-114052000D02*
X111293000Y-112777000D01*
X113054887Y-110465113D02*
X112268000Y-111252000D01*
X115193000Y-114052000D02*
X115202941Y-112352248D01*
%TO.N,/A2*%
X135160000Y-85574614D02*
X135160000Y-83820000D01*
X135160000Y-83820000D02*
X132773508Y-81433508D01*
X102870000Y-102970000D02*
X113384000Y-92456000D01*
X113384000Y-92456000D02*
X128278614Y-92456000D01*
X132773508Y-81433508D02*
X132773508Y-78343477D01*
X128278614Y-92456000D02*
X135160000Y-85574614D01*
%TO.N,/D24*%
X142725941Y-104625941D02*
X142240000Y-104140000D01*
X122793477Y-78343477D02*
X122613508Y-78343477D01*
X142535000Y-105598574D02*
X142725941Y-105407633D01*
X142240000Y-97790000D02*
X135890000Y-91440000D01*
X128881545Y-84431545D02*
X122793477Y-78343477D01*
X142535000Y-107690000D02*
X142535000Y-105598574D01*
X128881545Y-84462887D02*
X128881545Y-84431545D01*
X142725941Y-105407633D02*
X142725941Y-104625941D01*
X142240000Y-104140000D02*
X142240000Y-97790000D01*
%TO.N,/SDA1*%
X151278145Y-104834641D02*
X151278145Y-106364970D01*
X144780000Y-69850000D02*
X144780000Y-62230000D01*
X147417405Y-97885969D02*
X147806300Y-97885969D01*
X138430000Y-75926914D02*
X138703086Y-75926914D01*
X152186618Y-107273443D02*
X152352665Y-107273443D01*
X147806300Y-97885969D02*
X149134870Y-99214539D01*
X142689520Y-82363803D02*
X142689520Y-93158084D01*
X151278145Y-106364970D02*
X152186618Y-107273443D01*
X114792000Y-81280000D02*
X114792000Y-81084985D01*
X142240000Y-81280000D02*
X142240000Y-81914282D01*
X142689520Y-93158084D02*
X147417405Y-97885969D01*
X138430000Y-75926914D02*
X138156914Y-76200000D01*
X138703086Y-75926914D02*
X144780000Y-69850000D01*
X142240000Y-81914282D02*
X142689520Y-82363803D01*
X149134870Y-102691366D02*
X151278145Y-104834641D01*
X138156914Y-76200000D02*
X119676985Y-76200000D01*
X119676985Y-76200000D02*
X117533508Y-78343477D01*
X114792000Y-81084985D02*
X117533508Y-78343477D01*
X149134870Y-99214539D02*
X149134870Y-102691366D01*
%TO.N,/SCL1*%
X135500829Y-76649520D02*
X135502723Y-76651414D01*
X139099270Y-76651414D02*
X139099270Y-79399118D01*
X152186618Y-108523443D02*
X152352665Y-108523443D01*
X148685350Y-99400736D02*
X148685350Y-102965350D01*
X139099270Y-79399118D02*
X139094194Y-79404194D01*
X147620103Y-98335489D02*
X148685350Y-99400736D01*
X148685350Y-102965350D02*
X150828625Y-105108625D01*
X139094194Y-79404194D02*
X142240000Y-82550000D01*
X147320000Y-68430684D02*
X139099270Y-76651414D01*
X150828625Y-105108625D02*
X150828625Y-107165450D01*
X135502723Y-76651414D02*
X139099270Y-76651414D01*
X121767465Y-76649520D02*
X120073508Y-78343477D01*
X150828625Y-107165450D02*
X152186618Y-108523443D01*
X142240000Y-93344282D02*
X147231207Y-98335489D01*
X147320000Y-62230000D02*
X147320000Y-68430684D01*
X147231207Y-98335489D02*
X147620103Y-98335489D01*
X121767465Y-76649520D02*
X135500829Y-76649520D01*
X142240000Y-82550000D02*
X142240000Y-93344282D01*
%TO.N,/SDA0*%
X104140000Y-105950000D02*
X104140000Y-104140000D01*
X109616523Y-98663477D02*
X109913508Y-98663477D01*
X103370000Y-106720000D02*
X104140000Y-105950000D01*
X102870000Y-106720000D02*
X103370000Y-106720000D01*
X104140000Y-104140000D02*
X109616523Y-98663477D01*
%TO.N,/SCL0*%
X103036047Y-107970000D02*
X104589520Y-106416527D01*
X104589520Y-106416527D02*
X104589520Y-104326198D01*
X104589520Y-104326198D02*
X109127730Y-99787988D01*
X111328997Y-99787988D02*
X112453508Y-98663477D01*
X102870000Y-107970000D02*
X103036047Y-107970000D01*
X109127730Y-99787988D02*
X111328997Y-99787988D01*
%TO.N,/D5*%
X109343000Y-108452000D02*
X109343000Y-105279000D01*
X114993508Y-99489992D02*
X114993508Y-98663477D01*
X110643000Y-105257000D02*
X110744000Y-105156000D01*
X110041188Y-102674480D02*
X111809020Y-102674480D01*
X109343000Y-105279000D02*
X109220000Y-105156000D01*
X107696000Y-105019668D02*
X110041188Y-102674480D01*
X111943000Y-105481000D02*
X112268000Y-105156000D01*
X111943000Y-108452000D02*
X111943000Y-105481000D01*
X107696000Y-105156000D02*
X107696000Y-105019668D01*
X111809020Y-102674480D02*
X114993508Y-99489992D01*
X110643000Y-108452000D02*
X110643000Y-105257000D01*
%TO.N,/D6*%
X108693000Y-108452000D02*
X108693000Y-107402000D01*
X108495489Y-104855897D02*
X110227386Y-103124000D01*
X108693000Y-107402000D02*
X108495489Y-107204489D01*
X113072985Y-103124000D02*
X117533508Y-98663477D01*
X110227386Y-103124000D02*
X113072985Y-103124000D01*
X108495489Y-107204489D02*
X108495489Y-104855897D01*
%TO.N,/D7*%
X114818109Y-103621891D02*
X111253495Y-103621891D01*
X119482504Y-98957496D02*
X114818109Y-103621891D01*
X120073508Y-98663477D02*
X119779489Y-98957496D01*
X109993000Y-104882386D02*
X109993000Y-108452000D01*
X111253495Y-103621891D02*
X109993000Y-104882386D01*
X119779489Y-98957496D02*
X119482504Y-98957496D01*
%TO.N,/D8*%
X111468489Y-105319793D02*
X111543489Y-105244793D01*
X111543489Y-104855897D02*
X112259386Y-104140000D01*
X111468489Y-108276511D02*
X111468489Y-105319793D01*
X111543489Y-105244793D02*
X111543489Y-104855897D01*
X117963500Y-104140000D02*
X122613508Y-99489992D01*
X122613508Y-99489992D02*
X122613508Y-98663477D01*
X112259386Y-104140000D02*
X117963500Y-104140000D01*
X111293000Y-108452000D02*
X111468489Y-108276511D01*
%TO.N,/D11*%
X143185000Y-107690000D02*
X143185000Y-105372982D01*
X140328646Y-105056895D02*
X140585000Y-105313249D01*
X143185000Y-105372982D02*
X143450452Y-105107530D01*
X140585000Y-105313249D02*
X140585000Y-107690000D01*
X141885000Y-107690000D02*
X141899054Y-105069054D01*
%TO.N,/D12*%
X138705000Y-105410000D02*
X135274500Y-105410000D01*
X139935000Y-107690000D02*
X139935000Y-106640000D01*
X139935000Y-106640000D02*
X138705000Y-105410000D01*
X128527977Y-98663477D02*
X127693508Y-98663477D01*
X135274500Y-105410000D02*
X128527977Y-98663477D01*
%TO.N,/D13*%
X136544500Y-104140000D02*
X140970000Y-104140000D01*
X141053157Y-106663983D02*
X141235000Y-106845826D01*
X141053157Y-104223157D02*
X141053157Y-106663983D01*
X130233508Y-98663477D02*
X131067977Y-98663477D01*
X140970000Y-104140000D02*
X141053157Y-104223157D01*
X141235000Y-106845826D02*
X141235000Y-107690000D01*
X131067977Y-98663477D02*
X136544500Y-104140000D01*
D32*
%TO.N,Net-(C1-Pad1)*%
X139285000Y-113290000D02*
X139071000Y-113290000D01*
X138005520Y-110856820D02*
X136906000Y-109757300D01*
X138005520Y-112224520D02*
X138005520Y-110856820D01*
X139071000Y-113290000D02*
X138005520Y-112224520D01*
%TO.N,Net-(C1-Pad2)*%
X138602181Y-113643977D02*
X136906000Y-111947796D01*
X139935000Y-113290000D02*
X139935000Y-114319000D01*
X139935000Y-114319000D02*
X139781819Y-114472181D01*
X138602181Y-114472181D02*
X138602181Y-113643977D01*
X136906000Y-111947796D02*
X136906000Y-111832300D01*
X139781819Y-114472181D02*
X138602181Y-114472181D01*
%TO.N,+BATT*%
X109993000Y-114052000D02*
X109993000Y-116465056D01*
D34*
X141118500Y-118461700D02*
X141173200Y-118516400D01*
X115163600Y-116759900D02*
X115163600Y-118414800D01*
X114438395Y-116527705D02*
X114684900Y-116281200D01*
D35*
X112868143Y-74295000D02*
X109220000Y-74295000D01*
D32*
X114811289Y-116552963D02*
X114543000Y-116284674D01*
D34*
X141118500Y-116967000D02*
X141118500Y-117301100D01*
X141118500Y-115494300D02*
X141235000Y-115377800D01*
X114438395Y-117878412D02*
X114438395Y-116527705D01*
X114684900Y-116281200D02*
X115163600Y-116759900D01*
X109749500Y-118110000D02*
X109861056Y-117998444D01*
X109861056Y-117998444D02*
X109861056Y-116597000D01*
D32*
X141235000Y-113290000D02*
X141235000Y-115377800D01*
X141104480Y-115711520D02*
X139811959Y-115711519D01*
D34*
X109749500Y-119739500D02*
X109728000Y-119761000D01*
D32*
X105257600Y-117877500D02*
X106400600Y-116734500D01*
X136912981Y-115711519D02*
X136906000Y-115718500D01*
D34*
X141118500Y-116967000D02*
X141118500Y-118461700D01*
D32*
X106400600Y-116734500D02*
X109723556Y-116734500D01*
X141235000Y-115377800D02*
X141235000Y-115581000D01*
D34*
X109749500Y-118469500D02*
X108458000Y-119761000D01*
X141118500Y-117301100D02*
X139903200Y-118516400D01*
X141118500Y-116967000D02*
X141118500Y-115494300D01*
D35*
X132459504Y-112965113D02*
X120904000Y-112965113D01*
D32*
X141235000Y-115581000D02*
X141104480Y-115711520D01*
D34*
X109749500Y-118110000D02*
X109749500Y-118469500D01*
D32*
X139811959Y-115711519D02*
X136912981Y-115711519D01*
X141235000Y-116723500D02*
X141118500Y-116840000D01*
D35*
X113576732Y-75003589D02*
X112868143Y-74295000D01*
D32*
X112792000Y-85852000D02*
X106680000Y-85852000D01*
X109723556Y-116734500D02*
X109861056Y-116597000D01*
D34*
X145846800Y-117398800D02*
X145846800Y-115954900D01*
D32*
X145785000Y-113290000D02*
X145785000Y-115117027D01*
X120714887Y-112965113D02*
X120904000Y-112965113D01*
D34*
X109749500Y-118110000D02*
X109749500Y-119739500D01*
D32*
X114543000Y-116284674D02*
X114543000Y-114052000D01*
D34*
X145846800Y-115954900D02*
X146028500Y-115773200D01*
D32*
X141235000Y-116977500D02*
X141118500Y-117094000D01*
%TO.N,Net-(C4-Pad1)*%
X140585000Y-114558000D02*
X140081000Y-115062000D01*
X140081000Y-115062000D02*
X138324500Y-115062000D01*
X138324500Y-115062000D02*
X136906000Y-113643500D01*
X140585000Y-113290000D02*
X140585000Y-114558000D01*
D31*
%TO.N,Net-(C5-Pad1)*%
X145698330Y-105332110D02*
X146050000Y-105683780D01*
X146050000Y-106565489D02*
X147559511Y-106565489D01*
X147559511Y-106565489D02*
X147735000Y-106740978D01*
X146050000Y-105683780D02*
X146050000Y-106565489D01*
X147735000Y-106740978D02*
X147735000Y-107690000D01*
D32*
%TO.N,Net-(C7-Pad1)*%
X108043000Y-114052000D02*
X107367900Y-114052000D01*
X107367900Y-114052000D02*
X105257600Y-111941700D01*
%TO.N,Net-(C7-Pad2)*%
X106623567Y-115382667D02*
X105257600Y-114016700D01*
X108693000Y-114052000D02*
X108693000Y-115202000D01*
X108693000Y-115202000D02*
X108512333Y-115382667D01*
X108512333Y-115382667D02*
X106623567Y-115382667D01*
%TO.N,Net-(C10-Pad1)*%
X109343000Y-114052000D02*
X109343000Y-115536374D01*
X105387287Y-115932187D02*
X105257600Y-115802500D01*
X109343000Y-115536374D02*
X108947187Y-115932187D01*
X108947187Y-115932187D02*
X105387287Y-115932187D01*
D31*
%TO.N,Net-(C11-Pad1)*%
X119110500Y-108452000D02*
X116493000Y-108452000D01*
X119866500Y-107696000D02*
X119110500Y-108452000D01*
D32*
%TO.N,/ml3*%
X144476150Y-114936355D02*
X144476164Y-114933631D01*
X144780000Y-115570000D02*
X144780000Y-115240205D01*
D33*
X144780000Y-120015000D02*
X142014522Y-122780478D01*
D32*
X144780000Y-115240205D02*
X144476150Y-114936355D01*
D33*
X144780000Y-115570000D02*
X144780000Y-120015000D01*
D32*
X144476164Y-114933631D02*
X144485000Y-114924795D01*
X144485000Y-114924795D02*
X144485000Y-113290000D01*
D33*
X142014522Y-122780478D02*
X132399215Y-122780478D01*
%TO.N,/ml2*%
X133977137Y-121818400D02*
X141845908Y-121818400D01*
X143748963Y-119915345D02*
X143748963Y-115252598D01*
X132399215Y-120240478D02*
X133977137Y-121818400D01*
X141845908Y-121818400D02*
X143748963Y-119915345D01*
D32*
X143835000Y-113290000D02*
X143825025Y-115250025D01*
X143823313Y-115586481D02*
X143825025Y-115250025D01*
D33*
X143748963Y-115252598D02*
X143751858Y-115249703D01*
%TO.N,/ml1*%
X137697920Y-120019520D02*
X138480800Y-120802400D01*
X132399215Y-117700478D02*
X134718257Y-120019520D01*
X142875000Y-119658616D02*
X142875000Y-115570000D01*
X138480800Y-120802400D02*
X141731216Y-120802400D01*
D32*
X141885000Y-113290000D02*
X141885000Y-114580000D01*
D33*
X141731216Y-120802400D02*
X142875000Y-119658616D01*
D32*
X141885000Y-114580000D02*
X142875000Y-115570000D01*
D33*
X134718257Y-120019520D02*
X137697920Y-120019520D01*
D32*
%TO.N,/mr2*%
X112593000Y-115108096D02*
X112023868Y-115677228D01*
X112593000Y-114052000D02*
X112593000Y-115108096D01*
D33*
X113398692Y-121158000D02*
X112023868Y-119783176D01*
X121920000Y-120198408D02*
X120960408Y-121158000D01*
X120960408Y-121158000D02*
X113398692Y-121158000D01*
X112023868Y-119783176D02*
X112023868Y-115677228D01*
D32*
%TO.N,/mr1*%
X110643000Y-115376666D02*
X110910576Y-115644242D01*
X110643000Y-114052000D02*
X110643000Y-115376666D01*
D33*
X121920000Y-122738408D02*
X113848408Y-122738408D01*
X110910576Y-119800576D02*
X110910576Y-115644242D01*
X113848408Y-122738408D02*
X110910576Y-119800576D01*
%TO.N,/mr3*%
X121920000Y-117658408D02*
X119233208Y-120345200D01*
X114118385Y-120345200D02*
X113243000Y-119469815D01*
D32*
X113243000Y-114052000D02*
X113243000Y-115653853D01*
X113243000Y-115653853D02*
X113219625Y-115677228D01*
D33*
X113243000Y-119469815D02*
X113243000Y-115653853D01*
X119233208Y-120345200D02*
X114118385Y-120345200D01*
D35*
%TO.N,/Bat+ Post Switch*%
X125341489Y-73660000D02*
X119320321Y-73660000D01*
X127215471Y-71786018D02*
X125341489Y-73660000D01*
X127215471Y-68548518D02*
X127215471Y-71786018D01*
X119320321Y-73660000D02*
X117976732Y-75003589D01*
D31*
%TO.N,/A3*%
X114829500Y-87884000D02*
X114829500Y-85889500D01*
X129032000Y-85852000D02*
X130233508Y-84650492D01*
X114829500Y-85889500D02*
X114792000Y-85852000D01*
X130233508Y-84650492D02*
X130233508Y-78343477D01*
X114776000Y-87937500D02*
X114829500Y-87884000D01*
X114792000Y-85852000D02*
X129032000Y-85852000D01*
%TD*%
%TA.AperFunction,Conductor*%
%TO.N,+BATT*%
G36*
X147512705Y-116976553D02*
G01*
X147530640Y-116994488D01*
X147537205Y-117018988D01*
X147537204Y-119065106D01*
X147522852Y-119099754D01*
X147488204Y-119114106D01*
X145475073Y-119114106D01*
X145450573Y-119107541D01*
X145432638Y-119089606D01*
X145426073Y-119065106D01*
X145426074Y-117018988D01*
X145440426Y-116984340D01*
X145475074Y-116969988D01*
X147488205Y-116969988D01*
X147512705Y-116976553D01*
G37*
%TD.AperFunction*%
%TD*%
%TA.AperFunction,Conductor*%
%TO.N,+BATT*%
G36*
X116104300Y-117456165D02*
G01*
X116122235Y-117474100D01*
X116128800Y-117498600D01*
X116128799Y-119544718D01*
X116114447Y-119579366D01*
X116079799Y-119593718D01*
X114165723Y-119593718D01*
X114146971Y-119589988D01*
X114131075Y-119579366D01*
X114032020Y-119480310D01*
X114017668Y-119445662D01*
X114017669Y-117498600D01*
X114032021Y-117463952D01*
X114066669Y-117449600D01*
X116079800Y-117449600D01*
X116104300Y-117456165D01*
G37*
%TD.AperFunction*%
%TD*%
%TA.AperFunction,Conductor*%
%TO.N,+BATT*%
G36*
X141628824Y-118118389D02*
G01*
X141643176Y-118153037D01*
X141643176Y-120091619D01*
X141628824Y-120126267D01*
X141546029Y-120209062D01*
X141511381Y-120223414D01*
X139490333Y-120223414D01*
X139455685Y-120209062D01*
X139441333Y-120174414D01*
X139441333Y-118153037D01*
X139455685Y-118118389D01*
X139490333Y-118104037D01*
X141594176Y-118104037D01*
X141628824Y-118118389D01*
G37*
%TD.AperFunction*%
%TD*%
%TA.AperFunction,Conductor*%
%TO.N,+BATT*%
G36*
X110123905Y-119338753D02*
G01*
X110141840Y-119356688D01*
X110148405Y-119381188D01*
X110148404Y-121427306D01*
X110134052Y-121461954D01*
X110099404Y-121476306D01*
X108086273Y-121476306D01*
X108061773Y-121469741D01*
X108043838Y-121451806D01*
X108037273Y-121427306D01*
X108037274Y-119381188D01*
X108051626Y-119346540D01*
X108086274Y-119332188D01*
X110099405Y-119332188D01*
X110123905Y-119338753D01*
G37*
%TD.AperFunction*%
%TD*%
M02*
