%TF.GenerationSoftware,KiCad,Pcbnew,7.0.1*%
%TF.CreationDate,2023-04-02T16:12:04-04:00*%
%TF.ProjectId,board_v2,626f6172-645f-4763-922e-6b696361645f,rev?*%
%TF.SameCoordinates,Original*%
%TF.FileFunction,Copper,L2,Bot*%
%TF.FilePolarity,Positive*%
%FSLAX46Y46*%
G04 Gerber Fmt 4.6, Leading zero omitted, Abs format (unit mm)*
G04 Created by KiCad (PCBNEW 7.0.1) date 2023-04-02 16:12:04*
%MOMM*%
%LPD*%
G01*
G04 APERTURE LIST*
%TA.AperFunction,ComponentPad*%
%ADD10R,1.600000X1.600000*%
%TD*%
%TA.AperFunction,ComponentPad*%
%ADD11C,1.600000*%
%TD*%
%TA.AperFunction,ComponentPad*%
%ADD12R,1.500000X1.000000*%
%TD*%
%TA.AperFunction,ComponentPad*%
%ADD13O,1.500000X1.000000*%
%TD*%
%TA.AperFunction,ComponentPad*%
%ADD14R,1.700000X1.700000*%
%TD*%
%TA.AperFunction,ComponentPad*%
%ADD15O,1.700000X1.700000*%
%TD*%
%TA.AperFunction,ComponentPad*%
%ADD16C,0.500000*%
%TD*%
%TA.AperFunction,SMDPad,CuDef*%
%ADD17R,10.000000X6.000000*%
%TD*%
%TA.AperFunction,ComponentPad*%
%ADD18R,2.475000X2.475000*%
%TD*%
%TA.AperFunction,ComponentPad*%
%ADD19C,2.475000*%
%TD*%
%TA.AperFunction,WasherPad*%
%ADD20C,3.200000*%
%TD*%
%TA.AperFunction,ComponentPad*%
%ADD21R,1.905000X2.000000*%
%TD*%
%TA.AperFunction,ComponentPad*%
%ADD22O,1.905000X2.000000*%
%TD*%
%TA.AperFunction,ViaPad*%
%ADD23C,0.800000*%
%TD*%
%TA.AperFunction,Conductor*%
%ADD24C,0.500000*%
%TD*%
%TA.AperFunction,Conductor*%
%ADD25C,0.250000*%
%TD*%
%TA.AperFunction,Conductor*%
%ADD26C,2.000000*%
%TD*%
%TA.AperFunction,Conductor*%
%ADD27C,3.000000*%
%TD*%
G04 APERTURE END LIST*
D10*
%TO.P,C12,1*%
%TO.N,+BATT*%
X132459504Y-112965113D03*
D11*
%TO.P,C12,2*%
%TO.N,GND*%
X132459504Y-110465113D03*
%TD*%
D12*
%TO.P,J2,1,Pin_1*%
%TO.N,GND*%
X102870000Y-109220000D03*
D13*
%TO.P,J2,2,Pin_2*%
%TO.N,/SCL0*%
X102870000Y-107970000D03*
%TO.P,J2,3,Pin_3*%
%TO.N,/SDA0*%
X102870000Y-106720000D03*
%TO.P,J2,4,Pin_4*%
%TO.N,+3V3*%
X102870000Y-105470000D03*
%TO.P,J2,5,Pin_5*%
X102870000Y-104220000D03*
%TO.P,J2,6,Pin_6*%
%TO.N,/A2*%
X102870000Y-102970000D03*
%TD*%
D14*
%TO.P,U2,1,VCC*%
%TO.N,+3V3*%
X152400000Y-62230000D03*
D15*
%TO.P,U2,2,GND*%
%TO.N,GND*%
X149860000Y-62230000D03*
%TO.P,U2,3,SCL*%
%TO.N,/SCL1*%
X147320000Y-62230000D03*
%TO.P,U2,4,SDA*%
%TO.N,/SDA1*%
X144780000Y-62230000D03*
%TO.P,U2,5,XDA*%
%TO.N,unconnected-(U2-Pad5)*%
X142240000Y-62230000D03*
%TO.P,U2,6,XCL*%
%TO.N,unconnected-(U2-Pad6)*%
X139700000Y-62230000D03*
%TO.P,U2,7,ADD*%
%TO.N,unconnected-(U2-Pad7)*%
X137160000Y-62230000D03*
%TO.P,U2,8,INT*%
%TO.N,unconnected-(U2-Pad8)*%
X134620000Y-62230000D03*
%TD*%
D10*
%TO.P,C6,1*%
%TO.N,+BATT*%
X120904000Y-112965113D03*
D11*
%TO.P,C6,2*%
%TO.N,GND*%
X120904000Y-110465113D03*
%TD*%
D14*
%TO.P,J1,1,Pin_1*%
%TO.N,GND*%
X104140000Y-68580000D03*
D15*
%TO.P,J1,2,Pin_2*%
%TO.N,/Bat+ Raw*%
X106680000Y-68580000D03*
%TD*%
D14*
%TO.P,J4,1,Pin_1*%
%TO.N,/ml1*%
X132399215Y-117700478D03*
D15*
%TO.P,J4,2,Pin_2*%
%TO.N,/ml2*%
X132399215Y-120240478D03*
%TO.P,J4,3,Pin_3*%
%TO.N,/ml3*%
X132399215Y-122780478D03*
%TD*%
D12*
%TO.P,J3,1,Pin_1*%
%TO.N,GND*%
X152352665Y-109773443D03*
D13*
%TO.P,J3,2,Pin_2*%
%TO.N,/SCL1*%
X152352665Y-108523443D03*
%TO.P,J3,3,Pin_3*%
%TO.N,/SDA1*%
X152352665Y-107273443D03*
%TO.P,J3,4,Pin_4*%
%TO.N,+3V3*%
X152352665Y-106023443D03*
%TO.P,J3,5,Pin_5*%
X152352665Y-104773443D03*
%TO.P,J3,6,Pin_6*%
%TO.N,/A1*%
X152352665Y-103523443D03*
%TD*%
D16*
%TO.P,U5,29,TH_PAD*%
%TO.N,GND*%
X111018000Y-112502000D03*
X109768000Y-111252000D03*
X113518000Y-110002000D03*
X108518000Y-110002000D03*
X111018000Y-110002000D03*
X109768000Y-112502000D03*
X116018000Y-111252000D03*
X116018000Y-112502000D03*
X113518000Y-111252000D03*
X114768000Y-110002000D03*
X112268000Y-110002000D03*
X114768000Y-112502000D03*
X111018000Y-111252000D03*
X112268000Y-112502000D03*
X109768000Y-110002000D03*
X112268000Y-111252000D03*
X108518000Y-112502000D03*
X108518000Y-111252000D03*
X113518000Y-112502000D03*
X114768000Y-111252000D03*
X116018000Y-110002000D03*
D17*
X112268000Y-111252000D03*
%TD*%
D14*
%TO.P,J6,1,Pin_1*%
%TO.N,/mr1*%
X121920000Y-122738408D03*
D15*
%TO.P,J6,2,Pin_2*%
%TO.N,/mr2*%
X121920000Y-120198408D03*
%TO.P,J6,3,Pin_3*%
%TO.N,/mr3*%
X121920000Y-117658408D03*
%TD*%
D18*
%TO.P,SW1,1,A*%
%TO.N,/Bat+ Post Switch*%
X127215471Y-68548518D03*
D19*
%TO.P,SW1,2,B*%
%TO.N,/Bat+ Raw*%
X122465471Y-68548518D03*
%TO.P,SW1,3,C*%
%TO.N,unconnected-(SW1-Pad3)*%
X117715471Y-68548518D03*
%TD*%
D16*
%TO.P,U3,29,TH_PAD*%
%TO.N,GND*%
X147260000Y-111740000D03*
X144760000Y-110490000D03*
X142260000Y-109240000D03*
X143510000Y-111740000D03*
X139760000Y-110490000D03*
X147260000Y-109240000D03*
X142260000Y-110490000D03*
X146010000Y-110490000D03*
X147260000Y-110490000D03*
X143510000Y-109240000D03*
X144760000Y-111740000D03*
X141010000Y-109240000D03*
X139760000Y-109240000D03*
X139760000Y-111740000D03*
X141010000Y-111740000D03*
X146010000Y-109240000D03*
X146010000Y-111740000D03*
X143510000Y-110490000D03*
D17*
X143510000Y-110490000D03*
D16*
X144760000Y-109240000D03*
X141010000Y-110490000D03*
X142260000Y-111740000D03*
%TD*%
D20*
%TO.P,A1,*%
%TO.N,*%
X151823508Y-97393477D03*
X151823508Y-79613477D03*
D10*
%TO.P,A1,1,~{RESET}*%
%TO.N,unconnected-(A1-Pad1)*%
X148013508Y-78343477D03*
D11*
%TO.P,A1,2,3V3*%
%TO.N,+3V3*%
X145473508Y-78343477D03*
%TO.P,A1,3,AREF*%
X142933508Y-78343477D03*
%TO.P,A1,4,GND*%
%TO.N,GND*%
X140393508Y-78343477D03*
%TO.P,A1,5,DAC0/A0*%
%TO.N,unconnected-(A1-Pad5)*%
X137853508Y-78343477D03*
%TO.P,A1,6,A1*%
%TO.N,/A1*%
X135313508Y-78343477D03*
%TO.P,A1,7,A2*%
%TO.N,/A2*%
X132773508Y-78343477D03*
%TO.P,A1,8,A3*%
%TO.N,/A3*%
X130233508Y-78343477D03*
%TO.P,A1,9,A4*%
%TO.N,unconnected-(A1-Pad9)*%
X127693508Y-78343477D03*
%TO.P,A1,10,A5*%
%TO.N,unconnected-(A1-Pad10)*%
X125153508Y-78343477D03*
%TO.P,A1,11,SCK/D24*%
%TO.N,/D24*%
X122613508Y-78343477D03*
%TO.P,A1,12,MOSI/D23*%
%TO.N,/SCL1*%
X120073508Y-78343477D03*
%TO.P,A1,13,MISO/D22*%
%TO.N,/SDA1*%
X117533508Y-78343477D03*
%TO.P,A1,14,RX/D0*%
%TO.N,unconnected-(A1-Pad14)*%
X114993508Y-78343477D03*
%TO.P,A1,15,TX/D1*%
%TO.N,unconnected-(A1-Pad15)*%
X112453508Y-78343477D03*
%TO.P,A1,16,GND*%
%TO.N,GND*%
X109913508Y-78343477D03*
%TO.P,A1,17,SDA/D20*%
%TO.N,/SDA0*%
X109913508Y-98663477D03*
%TO.P,A1,18,SCL/D21*%
%TO.N,/SCL0*%
X112453508Y-98663477D03*
%TO.P,A1,19,D5*%
%TO.N,/D5*%
X114993508Y-98663477D03*
%TO.P,A1,20,D6*%
%TO.N,/D6*%
X117533508Y-98663477D03*
%TO.P,A1,21,D9*%
%TO.N,/D7*%
X120073508Y-98663477D03*
%TO.P,A1,22,D10*%
%TO.N,/D8*%
X122613508Y-98663477D03*
%TO.P,A1,23,D11*%
%TO.N,/D11*%
X125153508Y-98663477D03*
%TO.P,A1,24,D12*%
%TO.N,/D12*%
X127693508Y-98663477D03*
%TO.P,A1,25,D13*%
%TO.N,/D13*%
X130233508Y-98663477D03*
%TO.P,A1,26,USB*%
%TO.N,unconnected-(A1-Pad26)*%
X132773508Y-98663477D03*
%TO.P,A1,27,EN*%
%TO.N,unconnected-(A1-Pad27)*%
X135313508Y-98663477D03*
%TO.P,A1,28,VBAT*%
%TO.N,unconnected-(A1-Pad28)*%
X137853508Y-98663477D03*
%TD*%
D21*
%TO.P,U1,1,GND*%
%TO.N,GND*%
X104140000Y-74295000D03*
D22*
%TO.P,U1,2,Vout*%
%TO.N,+3V3*%
X106680000Y-74295000D03*
%TO.P,U1,3,Vin*%
%TO.N,+BATT*%
X109220000Y-74295000D03*
%TD*%
D23*
%TO.N,+3V3*%
X138340015Y-73749985D03*
%TO.N,GND*%
X126492000Y-80772000D03*
X112776000Y-89916000D03*
X138633322Y-83828599D03*
X149555200Y-115722400D03*
X107061000Y-119761000D03*
X137414000Y-118160800D03*
%TO.N,/A1*%
X147320000Y-99060000D03*
%TO.N,/D24*%
X135890000Y-91440000D03*
X128881545Y-84462887D03*
%TO.N,/SDA1*%
X142240000Y-81280000D03*
X138430000Y-75926914D03*
%TO.N,/D5*%
X110744000Y-105156000D03*
X107696000Y-105156000D03*
X112268000Y-105156000D03*
X109220000Y-105156000D03*
%TO.N,/D11*%
X140328646Y-105056895D03*
X141899054Y-105069054D03*
X143450452Y-105107530D03*
%TO.N,+BATT*%
X114438395Y-119148412D03*
X139903200Y-118516400D03*
X145846800Y-118668800D03*
X147116800Y-117398800D03*
X139903200Y-119786400D03*
X108458000Y-119761000D03*
X141173200Y-118516400D03*
X115708395Y-117878412D03*
X106680000Y-85852000D03*
X109728000Y-119761000D03*
X115708395Y-119148412D03*
X108458000Y-121031000D03*
X145846800Y-117398800D03*
X114438395Y-117878412D03*
X141173200Y-119786400D03*
X147116800Y-118668800D03*
X109728000Y-121031000D03*
%TD*%
D24*
%TO.N,+3V3*%
X142933508Y-78343477D02*
X138340015Y-73749985D01*
D25*
%TO.N,/A1*%
X152352665Y-103523443D02*
X151783443Y-103523443D01*
X151783443Y-103523443D02*
X147320000Y-99060000D01*
%TO.N,/D24*%
X128912887Y-84462887D02*
X135890000Y-91440000D01*
X128881545Y-84462887D02*
X128912887Y-84462887D01*
%TO.N,/SDA1*%
X139567245Y-75926914D02*
X141808997Y-78168666D01*
X141808997Y-78168666D02*
X141808997Y-80848997D01*
X138430000Y-75926914D02*
X139567245Y-75926914D01*
X141808997Y-80848997D02*
X142240000Y-81280000D01*
%TO.N,/D5*%
X107696000Y-105156000D02*
X109220000Y-105156000D01*
X109220000Y-105156000D02*
X110744000Y-105156000D01*
X110744000Y-105156000D02*
X112268000Y-105156000D01*
%TO.N,/D11*%
X131546926Y-105056895D02*
X125153508Y-98663477D01*
X141886895Y-105056895D02*
X141899054Y-105069054D01*
X141937530Y-105107530D02*
X141899054Y-105069054D01*
X143450452Y-105107530D02*
X141937530Y-105107530D01*
X140328646Y-105056895D02*
X141886895Y-105056895D01*
X140328646Y-105056895D02*
X131546926Y-105056895D01*
D26*
%TO.N,+BATT*%
X109058380Y-120447089D02*
X109055010Y-120450459D01*
X137795000Y-116205000D02*
X134555113Y-112965113D01*
X117239977Y-116629136D02*
X110065864Y-116629136D01*
X109058380Y-117636620D02*
X109058380Y-120447089D01*
X119315113Y-112965113D02*
X120904000Y-112965113D01*
X140589000Y-116205000D02*
X137795000Y-116205000D01*
X109220000Y-102870000D02*
X116840000Y-102870000D01*
D27*
X106680000Y-80645000D02*
X106680000Y-85852000D01*
D26*
X144805400Y-116205000D02*
X146558000Y-117957600D01*
X140589000Y-116205000D02*
X140589000Y-119049800D01*
X110065864Y-116629136D02*
X109058380Y-117636620D01*
X109220000Y-75184000D02*
X109220000Y-74295000D01*
X134555113Y-112965113D02*
X132459504Y-112965113D01*
X106680000Y-95885000D02*
X106680000Y-100330000D01*
X118567511Y-112217511D02*
X119315113Y-112965113D01*
X140589000Y-116205000D02*
X144805400Y-116205000D01*
D27*
X106680000Y-85852000D02*
X106680000Y-95885000D01*
D26*
X118567511Y-104597511D02*
X118567511Y-112217511D01*
X116840000Y-102870000D02*
X118567511Y-104597511D01*
X106680000Y-100330000D02*
X109220000Y-102870000D01*
X106680000Y-80645000D02*
X106680000Y-77724000D01*
X120904000Y-112965113D02*
X117239977Y-116629136D01*
X106680000Y-77724000D02*
X109220000Y-75184000D01*
%TO.N,/Bat+ Raw*%
X110490000Y-64770000D02*
X118686953Y-64770000D01*
X106680000Y-68580000D02*
X110490000Y-64770000D01*
X118686953Y-64770000D02*
X122465471Y-68548518D01*
%TD*%
%TA.AperFunction,Conductor*%
%TO.N,+BATT*%
G36*
X147512705Y-116976553D02*
G01*
X147530640Y-116994488D01*
X147537205Y-117018988D01*
X147537204Y-119065106D01*
X147522852Y-119099754D01*
X147488204Y-119114106D01*
X145475073Y-119114106D01*
X145450573Y-119107541D01*
X145432638Y-119089606D01*
X145426073Y-119065106D01*
X145426074Y-117018988D01*
X145440426Y-116984340D01*
X145475074Y-116969988D01*
X147488205Y-116969988D01*
X147512705Y-116976553D01*
G37*
%TD.AperFunction*%
%TD*%
%TA.AperFunction,Conductor*%
%TO.N,+BATT*%
G36*
X116104300Y-117456165D02*
G01*
X116122235Y-117474100D01*
X116128800Y-117498600D01*
X116128799Y-119544718D01*
X116114447Y-119579366D01*
X116079799Y-119593718D01*
X114066668Y-119593718D01*
X114042168Y-119587153D01*
X114024233Y-119569218D01*
X114017668Y-119544718D01*
X114017669Y-117498600D01*
X114032021Y-117463952D01*
X114066669Y-117449600D01*
X116079800Y-117449600D01*
X116104300Y-117456165D01*
G37*
%TD.AperFunction*%
%TD*%
%TA.AperFunction,Conductor*%
%TO.N,+BATT*%
G36*
X141628824Y-118118389D02*
G01*
X141643176Y-118153037D01*
X141643176Y-120174414D01*
X141628824Y-120209062D01*
X141594176Y-120223414D01*
X139490333Y-120223414D01*
X139455685Y-120209062D01*
X139441333Y-120174414D01*
X139441333Y-118153037D01*
X139455685Y-118118389D01*
X139490333Y-118104037D01*
X141594176Y-118104037D01*
X141628824Y-118118389D01*
G37*
%TD.AperFunction*%
%TD*%
%TA.AperFunction,Conductor*%
%TO.N,+BATT*%
G36*
X110123905Y-119338753D02*
G01*
X110141840Y-119356688D01*
X110148405Y-119381188D01*
X110148404Y-121427306D01*
X110134052Y-121461954D01*
X110099404Y-121476306D01*
X108086273Y-121476306D01*
X108061773Y-121469741D01*
X108043838Y-121451806D01*
X108037273Y-121427306D01*
X108037274Y-119381188D01*
X108051626Y-119346540D01*
X108086274Y-119332188D01*
X110099405Y-119332188D01*
X110123905Y-119338753D01*
G37*
%TD.AperFunction*%
%TD*%
%TA.AperFunction,Conductor*%
%TO.N,GND*%
G36*
X154936500Y-60017381D02*
G01*
X154982619Y-60063500D01*
X154999500Y-60126500D01*
X154999500Y-124873500D01*
X154982619Y-124936500D01*
X154936500Y-124982619D01*
X154873500Y-124999500D01*
X100126500Y-124999500D01*
X100063500Y-124982619D01*
X100017381Y-124936500D01*
X100000500Y-124873500D01*
X100000500Y-113188198D01*
X108185354Y-113188198D01*
X108187035Y-113189255D01*
X108348259Y-113245670D01*
X108518000Y-113264795D01*
X108687740Y-113245670D01*
X108848962Y-113189256D01*
X108850644Y-113188198D01*
X109435354Y-113188198D01*
X109437035Y-113189255D01*
X109598259Y-113245670D01*
X109768000Y-113264795D01*
X109937740Y-113245670D01*
X110098962Y-113189256D01*
X110100644Y-113188198D01*
X110685354Y-113188198D01*
X110687035Y-113189255D01*
X110848259Y-113245670D01*
X111018000Y-113264795D01*
X111187740Y-113245670D01*
X111348962Y-113189256D01*
X111350644Y-113188198D01*
X111935353Y-113188198D01*
X111937035Y-113189255D01*
X112098259Y-113245670D01*
X112268000Y-113264795D01*
X112437740Y-113245670D01*
X112598962Y-113189256D01*
X112600644Y-113188198D01*
X113185354Y-113188198D01*
X113187035Y-113189255D01*
X113348259Y-113245670D01*
X113518000Y-113264795D01*
X113687740Y-113245670D01*
X113848962Y-113189256D01*
X113850644Y-113188198D01*
X114435353Y-113188198D01*
X114437035Y-113189255D01*
X114598259Y-113245670D01*
X114768000Y-113264795D01*
X114937740Y-113245670D01*
X115098962Y-113189256D01*
X115100644Y-113188198D01*
X115685353Y-113188198D01*
X115687035Y-113189255D01*
X115848259Y-113245670D01*
X116018000Y-113264795D01*
X116187740Y-113245670D01*
X116348962Y-113189256D01*
X116350644Y-113188198D01*
X116350644Y-113188196D01*
X116018001Y-112855553D01*
X116018000Y-112855553D01*
X115685353Y-113188198D01*
X115100644Y-113188198D01*
X115100644Y-113188196D01*
X114768001Y-112855553D01*
X114768000Y-112855553D01*
X114435353Y-113188198D01*
X113850644Y-113188198D01*
X113850644Y-113188196D01*
X113518001Y-112855553D01*
X113518000Y-112855553D01*
X113185354Y-113188198D01*
X112600644Y-113188198D01*
X112600644Y-113188196D01*
X112268001Y-112855553D01*
X112268000Y-112855553D01*
X111935353Y-113188198D01*
X111350644Y-113188198D01*
X111350644Y-113188196D01*
X111018001Y-112855553D01*
X111018000Y-112855553D01*
X110685354Y-113188198D01*
X110100644Y-113188198D01*
X110100644Y-113188196D01*
X109768001Y-112855553D01*
X109768000Y-112855553D01*
X109435354Y-113188198D01*
X108850644Y-113188198D01*
X108850644Y-113188196D01*
X108518001Y-112855553D01*
X108518000Y-112855553D01*
X108185354Y-113188198D01*
X100000500Y-113188198D01*
X100000500Y-112502000D01*
X107755204Y-112502000D01*
X107774329Y-112671740D01*
X107830744Y-112832963D01*
X107831801Y-112834645D01*
X108164447Y-112502000D01*
X108164447Y-112501999D01*
X107831801Y-112169353D01*
X107830743Y-112171038D01*
X107774329Y-112332259D01*
X107755204Y-112502000D01*
X100000500Y-112502000D01*
X100000500Y-111877000D01*
X108246553Y-111877000D01*
X108518000Y-112148446D01*
X108518001Y-112148447D01*
X109142999Y-112773446D01*
X109678904Y-112237542D01*
X109735389Y-112204930D01*
X109800611Y-112204930D01*
X109857096Y-112237542D01*
X110393000Y-112773446D01*
X110928904Y-112237542D01*
X110985389Y-112204930D01*
X111050611Y-112204930D01*
X111107096Y-112237542D01*
X111643000Y-112773446D01*
X112178904Y-112237542D01*
X112235389Y-112204930D01*
X112300611Y-112204930D01*
X112357096Y-112237542D01*
X112893000Y-112773446D01*
X113428904Y-112237542D01*
X113485389Y-112204930D01*
X113550611Y-112204930D01*
X113607096Y-112237542D01*
X114143000Y-112773446D01*
X114678904Y-112237542D01*
X114735389Y-112204930D01*
X114800611Y-112204930D01*
X114857096Y-112237542D01*
X115393000Y-112773446D01*
X115664445Y-112502001D01*
X116371553Y-112502001D01*
X116704196Y-112834644D01*
X116704198Y-112834644D01*
X116705256Y-112832962D01*
X116761670Y-112671740D01*
X116780795Y-112502000D01*
X116761670Y-112332259D01*
X116705255Y-112171035D01*
X116704198Y-112169354D01*
X116371553Y-112502000D01*
X116371553Y-112502001D01*
X115664445Y-112502001D01*
X116018000Y-112148446D01*
X116289447Y-111877000D01*
X116289447Y-111876999D01*
X115753542Y-111341094D01*
X115720930Y-111284610D01*
X115720930Y-111252001D01*
X116371553Y-111252001D01*
X116704196Y-111584644D01*
X116704198Y-111584644D01*
X116705256Y-111582962D01*
X116761670Y-111421740D01*
X116780795Y-111251999D01*
X116761670Y-111082259D01*
X116705255Y-110921035D01*
X116704198Y-110919354D01*
X116371553Y-111252000D01*
X116371553Y-111252001D01*
X115720930Y-111252001D01*
X115720930Y-111219388D01*
X115753542Y-111162903D01*
X116018000Y-110898446D01*
X116289447Y-110627000D01*
X116018000Y-110355554D01*
X116017999Y-110355553D01*
X115664448Y-110002001D01*
X116371553Y-110002001D01*
X116704196Y-110334644D01*
X116704198Y-110334644D01*
X116705256Y-110332962D01*
X116761670Y-110171740D01*
X116780795Y-110002000D01*
X116761670Y-109832259D01*
X116705255Y-109671035D01*
X116704198Y-109669354D01*
X116371553Y-110002000D01*
X116371553Y-110002001D01*
X115664448Y-110002001D01*
X115393000Y-109730553D01*
X115392999Y-109730553D01*
X114857095Y-110266457D01*
X114800611Y-110299069D01*
X114735389Y-110299069D01*
X114678905Y-110266457D01*
X114143001Y-109730553D01*
X114142999Y-109730553D01*
X113607095Y-110266457D01*
X113550611Y-110299069D01*
X113485389Y-110299069D01*
X113428905Y-110266457D01*
X112893001Y-109730553D01*
X112892999Y-109730553D01*
X112357095Y-110266457D01*
X112300611Y-110299069D01*
X112235389Y-110299069D01*
X112178905Y-110266457D01*
X111643001Y-109730553D01*
X111642999Y-109730553D01*
X111107095Y-110266457D01*
X111050611Y-110299069D01*
X110985389Y-110299069D01*
X110928905Y-110266457D01*
X110393001Y-109730553D01*
X110392999Y-109730553D01*
X109857095Y-110266457D01*
X109800611Y-110299069D01*
X109735389Y-110299069D01*
X109678905Y-110266457D01*
X109143001Y-109730553D01*
X109143000Y-109730553D01*
X108518001Y-110355553D01*
X108518000Y-110355554D01*
X108246553Y-110627000D01*
X108518000Y-110898446D01*
X108518000Y-110898447D01*
X108782457Y-111162904D01*
X108815069Y-111219388D01*
X108815069Y-111284610D01*
X108782458Y-111341094D01*
X108246553Y-111877000D01*
X100000500Y-111877000D01*
X100000500Y-111251999D01*
X107755204Y-111251999D01*
X107774329Y-111421740D01*
X107830744Y-111582963D01*
X107831801Y-111584645D01*
X108164447Y-111252000D01*
X108164447Y-111251999D01*
X107831801Y-110919353D01*
X107830743Y-110921038D01*
X107774329Y-111082259D01*
X107755204Y-111251999D01*
X100000500Y-111251999D01*
X100000500Y-109474000D01*
X101612000Y-109474000D01*
X101612000Y-109768589D01*
X101618505Y-109829093D01*
X101669554Y-109965962D01*
X101757095Y-110082904D01*
X101874037Y-110170445D01*
X102010906Y-110221494D01*
X102071411Y-110228000D01*
X102616000Y-110228000D01*
X102616000Y-109474000D01*
X103124000Y-109474000D01*
X103124000Y-110228000D01*
X103668589Y-110228000D01*
X103729093Y-110221494D01*
X103865962Y-110170445D01*
X103982904Y-110082904D01*
X104043468Y-110002000D01*
X107755204Y-110002000D01*
X107774329Y-110171740D01*
X107830744Y-110332963D01*
X107831801Y-110334645D01*
X108164447Y-110002000D01*
X108164447Y-110001999D01*
X107831801Y-109669353D01*
X107830743Y-109671038D01*
X107774329Y-109832259D01*
X107755204Y-110002000D01*
X104043468Y-110002000D01*
X104070445Y-109965962D01*
X104121494Y-109829093D01*
X104128000Y-109768589D01*
X104128000Y-109474000D01*
X103124000Y-109474000D01*
X102616000Y-109474000D01*
X101612000Y-109474000D01*
X100000500Y-109474000D01*
X100000500Y-109315801D01*
X108185353Y-109315801D01*
X108517999Y-109648447D01*
X108518000Y-109648447D01*
X108850645Y-109315801D01*
X109435353Y-109315801D01*
X109767999Y-109648447D01*
X109768000Y-109648447D01*
X110100645Y-109315801D01*
X110685353Y-109315801D01*
X111017999Y-109648447D01*
X111018000Y-109648447D01*
X111350645Y-109315801D01*
X111935353Y-109315801D01*
X112267999Y-109648447D01*
X112268000Y-109648447D01*
X112600645Y-109315801D01*
X113185353Y-109315801D01*
X113517999Y-109648447D01*
X113518000Y-109648447D01*
X113850645Y-109315801D01*
X114435353Y-109315801D01*
X114767999Y-109648447D01*
X114768000Y-109648447D01*
X115100645Y-109315801D01*
X115685353Y-109315801D01*
X116017999Y-109648447D01*
X116018000Y-109648447D01*
X116350645Y-109315801D01*
X116348963Y-109314744D01*
X116187740Y-109258329D01*
X116018000Y-109239204D01*
X115848259Y-109258329D01*
X115687038Y-109314743D01*
X115685353Y-109315801D01*
X115100645Y-109315801D01*
X115098963Y-109314744D01*
X114937740Y-109258329D01*
X114768000Y-109239204D01*
X114598259Y-109258329D01*
X114437038Y-109314743D01*
X114435353Y-109315801D01*
X113850645Y-109315801D01*
X113848963Y-109314744D01*
X113687740Y-109258329D01*
X113518000Y-109239204D01*
X113348259Y-109258329D01*
X113187038Y-109314743D01*
X113185353Y-109315801D01*
X112600645Y-109315801D01*
X112598963Y-109314744D01*
X112437740Y-109258329D01*
X112268000Y-109239204D01*
X112098259Y-109258329D01*
X111937038Y-109314743D01*
X111935353Y-109315801D01*
X111350645Y-109315801D01*
X111348963Y-109314744D01*
X111187740Y-109258329D01*
X111018000Y-109239204D01*
X110848259Y-109258329D01*
X110687038Y-109314743D01*
X110685353Y-109315801D01*
X110100645Y-109315801D01*
X110098963Y-109314744D01*
X109937740Y-109258329D01*
X109768000Y-109239204D01*
X109598259Y-109258329D01*
X109437038Y-109314743D01*
X109435353Y-109315801D01*
X108850645Y-109315801D01*
X108848963Y-109314744D01*
X108687740Y-109258329D01*
X108518000Y-109239204D01*
X108348259Y-109258329D01*
X108187038Y-109314743D01*
X108185353Y-109315801D01*
X100000500Y-109315801D01*
X100000500Y-107969999D01*
X101606619Y-107969999D01*
X101626091Y-108167696D01*
X101626091Y-108167698D01*
X101626092Y-108167701D01*
X101674033Y-108325741D01*
X101686241Y-108365985D01*
X101689764Y-108424374D01*
X101675659Y-108456980D01*
X101675885Y-108457064D01*
X101618505Y-108610906D01*
X101612000Y-108671411D01*
X101612000Y-108966000D01*
X102437352Y-108966000D01*
X102449701Y-108966606D01*
X102469460Y-108968553D01*
X102570451Y-108978500D01*
X102570453Y-108978500D01*
X103169547Y-108978500D01*
X103169549Y-108978500D01*
X103270540Y-108968553D01*
X103290298Y-108966606D01*
X103302648Y-108966000D01*
X104128000Y-108966000D01*
X104128000Y-108671411D01*
X104121494Y-108610906D01*
X104064115Y-108457064D01*
X104064340Y-108456979D01*
X104050237Y-108424381D01*
X104053759Y-108365986D01*
X104113908Y-108167701D01*
X104133380Y-107969999D01*
X104113908Y-107772298D01*
X104056241Y-107582197D01*
X104056241Y-107582196D01*
X103962595Y-107406996D01*
X103962594Y-107406995D01*
X103961205Y-107404396D01*
X103946327Y-107345000D01*
X103961205Y-107285604D01*
X103967705Y-107273443D01*
X104056241Y-107107804D01*
X104113908Y-106917701D01*
X104133380Y-106720000D01*
X104113908Y-106522299D01*
X104056241Y-106332196D01*
X103962595Y-106156996D01*
X103962594Y-106156995D01*
X103961205Y-106154396D01*
X103946327Y-106095000D01*
X103961205Y-106035604D01*
X103967706Y-106023442D01*
X104056241Y-105857804D01*
X104113908Y-105667701D01*
X104133380Y-105470000D01*
X104132780Y-105463913D01*
X104113908Y-105272298D01*
X104063926Y-105107530D01*
X104056241Y-105082196D01*
X103962595Y-104906996D01*
X103962594Y-104906995D01*
X103961205Y-104904396D01*
X103946327Y-104845000D01*
X103961205Y-104785604D01*
X103967705Y-104773443D01*
X104056241Y-104607804D01*
X104113908Y-104417701D01*
X104133380Y-104220000D01*
X104126332Y-104148443D01*
X104113908Y-104022298D01*
X104063314Y-103855514D01*
X104056241Y-103832196D01*
X103962595Y-103656996D01*
X103962594Y-103656995D01*
X103961205Y-103654396D01*
X103946327Y-103595000D01*
X103961205Y-103535604D01*
X103977009Y-103506037D01*
X104056241Y-103357804D01*
X104113908Y-103167701D01*
X104133380Y-102970000D01*
X104117313Y-102806875D01*
X104113908Y-102772298D01*
X104085074Y-102677247D01*
X104056241Y-102582196D01*
X103962595Y-102406996D01*
X103962593Y-102406992D01*
X103836568Y-102253431D01*
X103683007Y-102127406D01*
X103507802Y-102033758D01*
X103317701Y-101976091D01*
X103169550Y-101961500D01*
X103169547Y-101961500D01*
X102570453Y-101961500D01*
X102570450Y-101961500D01*
X102422298Y-101976091D01*
X102232197Y-102033758D01*
X102056992Y-102127406D01*
X101903431Y-102253431D01*
X101777406Y-102406992D01*
X101683758Y-102582197D01*
X101626091Y-102772298D01*
X101606619Y-102969999D01*
X101626091Y-103167701D01*
X101674033Y-103325742D01*
X101683759Y-103357804D01*
X101749661Y-103481099D01*
X101778795Y-103535604D01*
X101793673Y-103595000D01*
X101778795Y-103654396D01*
X101777405Y-103656995D01*
X101777405Y-103656996D01*
X101760650Y-103688343D01*
X101683758Y-103832197D01*
X101626091Y-104022298D01*
X101606619Y-104220000D01*
X101626091Y-104417701D01*
X101683758Y-104607802D01*
X101778795Y-104785604D01*
X101793673Y-104845000D01*
X101778795Y-104904396D01*
X101683758Y-105082197D01*
X101626091Y-105272298D01*
X101606619Y-105469999D01*
X101626091Y-105667701D01*
X101680788Y-105848011D01*
X101683759Y-105857804D01*
X101747766Y-105977554D01*
X101778795Y-106035604D01*
X101793673Y-106095000D01*
X101778795Y-106154396D01*
X101683758Y-106332197D01*
X101626091Y-106522298D01*
X101606619Y-106720000D01*
X101626091Y-106917701D01*
X101674033Y-107075741D01*
X101683759Y-107107804D01*
X101777405Y-107283004D01*
X101777407Y-107283006D01*
X101778795Y-107285603D01*
X101793673Y-107344999D01*
X101778795Y-107404395D01*
X101683758Y-107582197D01*
X101626091Y-107772298D01*
X101606619Y-107969999D01*
X100000500Y-107969999D01*
X100000500Y-98089904D01*
X102039298Y-98089904D01*
X102068888Y-98333605D01*
X102123764Y-98523056D01*
X102137190Y-98569408D01*
X102195168Y-98691593D01*
X102242432Y-98791200D01*
X102381887Y-98993237D01*
X102461310Y-99075925D01*
X102551950Y-99170290D01*
X102748209Y-99317770D01*
X102778061Y-99333437D01*
X102965579Y-99431855D01*
X102965582Y-99431856D01*
X102965584Y-99431857D01*
X103057971Y-99462700D01*
X103198448Y-99509598D01*
X103440759Y-99548977D01*
X103440761Y-99548977D01*
X103624788Y-99548977D01*
X103624793Y-99548977D01*
X103716497Y-99541573D01*
X103808207Y-99534170D01*
X104046568Y-99475419D01*
X104272419Y-99379193D01*
X104479908Y-99247985D01*
X104663664Y-99085191D01*
X104818926Y-98895030D01*
X104936380Y-98691593D01*
X104982500Y-98645474D01*
X105045500Y-98628593D01*
X105108500Y-98645474D01*
X105154619Y-98691593D01*
X105171500Y-98754593D01*
X105171500Y-100313543D01*
X105171474Y-100316081D01*
X105169352Y-100421376D01*
X105179523Y-100493048D01*
X105180364Y-100500611D01*
X105186189Y-100572769D01*
X105195624Y-100611051D01*
X105198035Y-100623494D01*
X105203573Y-100662517D01*
X105215341Y-100700280D01*
X105225108Y-100731626D01*
X105227147Y-100738940D01*
X105244476Y-100809244D01*
X105244477Y-100809248D01*
X105258363Y-100841841D01*
X105259929Y-100845515D01*
X105264305Y-100857415D01*
X105276032Y-100895046D01*
X105308370Y-100959799D01*
X105311563Y-100966705D01*
X105339944Y-101033316D01*
X105361014Y-101066635D01*
X105367244Y-101077682D01*
X105384854Y-101112943D01*
X105427164Y-101171673D01*
X105431424Y-101177980D01*
X105470117Y-101239168D01*
X105496265Y-101268684D01*
X105504179Y-101278579D01*
X105527216Y-101310557D01*
X105527218Y-101310559D01*
X105527219Y-101310560D01*
X105578400Y-101361741D01*
X105583601Y-101367266D01*
X105631625Y-101421474D01*
X105662182Y-101446422D01*
X105671577Y-101454918D01*
X108141673Y-103925014D01*
X108143402Y-103926777D01*
X108216425Y-104002802D01*
X108216426Y-104002803D01*
X108274287Y-104046282D01*
X108280232Y-104051037D01*
X108309759Y-104076153D01*
X108335379Y-104097946D01*
X108369122Y-104118344D01*
X108379628Y-104125441D01*
X108411131Y-104149115D01*
X108411135Y-104149117D01*
X108475241Y-104182762D01*
X108481837Y-104186482D01*
X108537282Y-104220000D01*
X108543811Y-104223947D01*
X108580381Y-104238665D01*
X108591891Y-104243986D01*
X108608371Y-104252635D01*
X108655212Y-104295152D01*
X108675487Y-104355074D01*
X108664085Y-104417297D01*
X108623881Y-104466138D01*
X108608746Y-104477134D01*
X108605435Y-104480812D01*
X108563048Y-104511607D01*
X108511800Y-104522500D01*
X108404200Y-104522500D01*
X108352952Y-104511607D01*
X108310565Y-104480812D01*
X108307253Y-104477133D01*
X108181321Y-104385639D01*
X108152752Y-104364882D01*
X107978288Y-104287206D01*
X107791487Y-104247500D01*
X107600513Y-104247500D01*
X107475979Y-104273970D01*
X107413711Y-104287206D01*
X107239246Y-104364883D01*
X107084747Y-104477133D01*
X106956958Y-104619057D01*
X106861472Y-104784443D01*
X106802458Y-104966070D01*
X106802457Y-104966072D01*
X106802458Y-104966072D01*
X106782496Y-105156000D01*
X106785591Y-105185447D01*
X106802458Y-105345929D01*
X106861472Y-105527556D01*
X106956958Y-105692942D01*
X107010065Y-105751923D01*
X107084747Y-105834866D01*
X107239248Y-105947118D01*
X107413712Y-106024794D01*
X107600513Y-106064500D01*
X107791485Y-106064500D01*
X107791487Y-106064500D01*
X107978288Y-106024794D01*
X108152752Y-105947118D01*
X108307253Y-105834866D01*
X108310564Y-105831188D01*
X108352952Y-105800393D01*
X108404200Y-105789500D01*
X108511800Y-105789500D01*
X108563048Y-105800393D01*
X108605435Y-105831188D01*
X108608746Y-105834866D01*
X108696532Y-105898646D01*
X108763248Y-105947118D01*
X108937712Y-106024794D01*
X109124513Y-106064500D01*
X109315485Y-106064500D01*
X109315487Y-106064500D01*
X109502288Y-106024794D01*
X109676752Y-105947118D01*
X109831253Y-105834866D01*
X109834564Y-105831188D01*
X109876952Y-105800393D01*
X109928200Y-105789500D01*
X110035800Y-105789500D01*
X110087048Y-105800393D01*
X110129435Y-105831188D01*
X110132746Y-105834866D01*
X110220532Y-105898646D01*
X110287248Y-105947118D01*
X110461712Y-106024794D01*
X110648513Y-106064500D01*
X110839485Y-106064500D01*
X110839487Y-106064500D01*
X111026288Y-106024794D01*
X111200752Y-105947118D01*
X111355253Y-105834866D01*
X111358564Y-105831188D01*
X111400952Y-105800393D01*
X111452200Y-105789500D01*
X111559800Y-105789500D01*
X111611048Y-105800393D01*
X111653435Y-105831188D01*
X111656746Y-105834866D01*
X111744532Y-105898646D01*
X111811248Y-105947118D01*
X111985712Y-106024794D01*
X112172513Y-106064500D01*
X112363485Y-106064500D01*
X112363487Y-106064500D01*
X112550288Y-106024794D01*
X112724752Y-105947118D01*
X112879253Y-105834866D01*
X113007040Y-105692944D01*
X113102527Y-105527556D01*
X113161542Y-105345928D01*
X113181504Y-105156000D01*
X113161542Y-104966072D01*
X113102527Y-104784444D01*
X113102527Y-104784443D01*
X113007041Y-104619057D01*
X112979807Y-104588811D01*
X112952085Y-104538385D01*
X112949675Y-104480890D01*
X112973080Y-104428321D01*
X113017419Y-104391640D01*
X113073443Y-104378500D01*
X116162969Y-104378500D01*
X116211187Y-104388091D01*
X116252064Y-104415405D01*
X117022106Y-105185447D01*
X117049420Y-105226324D01*
X117059011Y-105274542D01*
X117059011Y-112201054D01*
X117058985Y-112203592D01*
X117056863Y-112308887D01*
X117067034Y-112380559D01*
X117067875Y-112388122D01*
X117073700Y-112460280D01*
X117083135Y-112498562D01*
X117085546Y-112511005D01*
X117091084Y-112550028D01*
X117102852Y-112587791D01*
X117112619Y-112619137D01*
X117114658Y-112626451D01*
X117129375Y-112686158D01*
X117131988Y-112696759D01*
X117145874Y-112729352D01*
X117147440Y-112733026D01*
X117151816Y-112744926D01*
X117163543Y-112782557D01*
X117195881Y-112847310D01*
X117199074Y-112854216D01*
X117227455Y-112920827D01*
X117248525Y-112954146D01*
X117254755Y-112965193D01*
X117272365Y-113000454D01*
X117314675Y-113059184D01*
X117318935Y-113065491D01*
X117357628Y-113126679D01*
X117383776Y-113156195D01*
X117391690Y-113166090D01*
X117414727Y-113198068D01*
X117414729Y-113198070D01*
X117414730Y-113198071D01*
X117465912Y-113249253D01*
X117471113Y-113254778D01*
X117519136Y-113308985D01*
X117549686Y-113333928D01*
X117559083Y-113342424D01*
X117887119Y-113670461D01*
X117919730Y-113726945D01*
X117919730Y-113792167D01*
X117887118Y-113848651D01*
X116652037Y-115083733D01*
X116611163Y-115111045D01*
X116562945Y-115120636D01*
X110082321Y-115120636D01*
X110079783Y-115120610D01*
X109974487Y-115118488D01*
X109902812Y-115128659D01*
X109895251Y-115129500D01*
X109823099Y-115135325D01*
X109784821Y-115144759D01*
X109772378Y-115147169D01*
X109733343Y-115152709D01*
X109664233Y-115174244D01*
X109656905Y-115176287D01*
X109586615Y-115193613D01*
X109550343Y-115209066D01*
X109538450Y-115213440D01*
X109500817Y-115225168D01*
X109436053Y-115257511D01*
X109429151Y-115260701D01*
X109362548Y-115289079D01*
X109329232Y-115310147D01*
X109318191Y-115316374D01*
X109282923Y-115333988D01*
X109224187Y-115376301D01*
X109217883Y-115380559D01*
X109156694Y-115419253D01*
X109127178Y-115445400D01*
X109117286Y-115453312D01*
X109085306Y-115476352D01*
X109034125Y-115527532D01*
X109028587Y-115532745D01*
X108974390Y-115580760D01*
X108949455Y-115611300D01*
X108940951Y-115620706D01*
X108003338Y-116558318D01*
X108001528Y-116560092D01*
X107925578Y-116633044D01*
X107882098Y-116690905D01*
X107877346Y-116696846D01*
X107830435Y-116751997D01*
X107810040Y-116785735D01*
X107802944Y-116796239D01*
X107779263Y-116827755D01*
X107779261Y-116827757D01*
X107779262Y-116827757D01*
X107745629Y-116891836D01*
X107741893Y-116898460D01*
X107704432Y-116960430D01*
X107689710Y-116997009D01*
X107684391Y-117008516D01*
X107666077Y-117043411D01*
X107643150Y-117112082D01*
X107640525Y-117119220D01*
X107613496Y-117186381D01*
X107604834Y-117224839D01*
X107601430Y-117237049D01*
X107588948Y-117274438D01*
X107577337Y-117345887D01*
X107575890Y-117353360D01*
X107559984Y-117423982D01*
X107557604Y-117463335D01*
X107556202Y-117475937D01*
X107549880Y-117514839D01*
X107549880Y-117587217D01*
X107549650Y-117594825D01*
X107545278Y-117667094D01*
X107549242Y-117706329D01*
X107549880Y-117718994D01*
X107549880Y-119208785D01*
X107544454Y-119245362D01*
X107533640Y-119281007D01*
X107523773Y-119381184D01*
X107523773Y-121427306D01*
X107541271Y-121560217D01*
X107547835Y-121584713D01*
X107599134Y-121708557D01*
X107680739Y-121814906D01*
X107698672Y-121832839D01*
X107707705Y-121839770D01*
X107805021Y-121914444D01*
X107928865Y-121965743D01*
X107953365Y-121972308D01*
X108086273Y-121989806D01*
X110099404Y-121989806D01*
X110099407Y-121989806D01*
X110174539Y-121982405D01*
X110199585Y-121979939D01*
X110295916Y-121950717D01*
X110330564Y-121936365D01*
X110446652Y-121869340D01*
X110541438Y-121774554D01*
X110608463Y-121658466D01*
X110622815Y-121623818D01*
X110652037Y-121527487D01*
X110661904Y-121427306D01*
X110661905Y-120198408D01*
X120556844Y-120198408D01*
X120575436Y-120422776D01*
X120575436Y-120422779D01*
X120575437Y-120422780D01*
X120630702Y-120641019D01*
X120630703Y-120641022D01*
X120630704Y-120641024D01*
X120649324Y-120683473D01*
X120721139Y-120847198D01*
X120844278Y-121035676D01*
X120987475Y-121191228D01*
X121016712Y-121244832D01*
X121017315Y-121305888D01*
X120989141Y-121360058D01*
X120938808Y-121394621D01*
X120912972Y-121404257D01*
X120823793Y-121437519D01*
X120706738Y-121525146D01*
X120619111Y-121642202D01*
X120568011Y-121779207D01*
X120561500Y-121839770D01*
X120561500Y-123637046D01*
X120568011Y-123697608D01*
X120619111Y-123834613D01*
X120706738Y-123951669D01*
X120823794Y-124039296D01*
X120823795Y-124039296D01*
X120823796Y-124039297D01*
X120960799Y-124090397D01*
X121021362Y-124096908D01*
X122818638Y-124096908D01*
X122879201Y-124090397D01*
X123016204Y-124039297D01*
X123133261Y-123951669D01*
X123220889Y-123834612D01*
X123271989Y-123697609D01*
X123278500Y-123637046D01*
X123278500Y-122780478D01*
X131036059Y-122780478D01*
X131054651Y-123004846D01*
X131054651Y-123004849D01*
X131054652Y-123004850D01*
X131109917Y-123223089D01*
X131200354Y-123429268D01*
X131323493Y-123617746D01*
X131475977Y-123783386D01*
X131541793Y-123834613D01*
X131653639Y-123921667D01*
X131851641Y-124028820D01*
X132064580Y-124101922D01*
X132286646Y-124138978D01*
X132511781Y-124138978D01*
X132511784Y-124138978D01*
X132733850Y-124101922D01*
X132946789Y-124028820D01*
X133144791Y-123921667D01*
X133322455Y-123783384D01*
X133474937Y-123617746D01*
X133598075Y-123429269D01*
X133688511Y-123223094D01*
X133743779Y-123004846D01*
X133762371Y-122780478D01*
X133743779Y-122556110D01*
X133688511Y-122337862D01*
X133598075Y-122131687D01*
X133474937Y-121943210D01*
X133322455Y-121777572D01*
X133322454Y-121777571D01*
X133322452Y-121777569D01*
X133144794Y-121639291D01*
X133144792Y-121639290D01*
X133144791Y-121639289D01*
X133111532Y-121621290D01*
X133063262Y-121574976D01*
X133045503Y-121510478D01*
X133063262Y-121445980D01*
X133111532Y-121399665D01*
X133144791Y-121381667D01*
X133322455Y-121243384D01*
X133474937Y-121077746D01*
X133598075Y-120889269D01*
X133688511Y-120683094D01*
X133743779Y-120464846D01*
X133762371Y-120240478D01*
X133743779Y-120016110D01*
X133688511Y-119797862D01*
X133598075Y-119591687D01*
X133474937Y-119403210D01*
X133331738Y-119247656D01*
X133302502Y-119194053D01*
X133301899Y-119132997D01*
X133330074Y-119078826D01*
X133380403Y-119044265D01*
X133495419Y-119001367D01*
X133612476Y-118913739D01*
X133700104Y-118796682D01*
X133751204Y-118659679D01*
X133757715Y-118599116D01*
X133757715Y-116801840D01*
X133751204Y-116741277D01*
X133700104Y-116604274D01*
X133665702Y-116558318D01*
X133612476Y-116487216D01*
X133495420Y-116399589D01*
X133426917Y-116374038D01*
X133358416Y-116348489D01*
X133297853Y-116341978D01*
X131500577Y-116341978D01*
X131440014Y-116348489D01*
X131303009Y-116399589D01*
X131185953Y-116487216D01*
X131098326Y-116604272D01*
X131047226Y-116741277D01*
X131040715Y-116801840D01*
X131040715Y-118599116D01*
X131047226Y-118659678D01*
X131098326Y-118796683D01*
X131185953Y-118913739D01*
X131303009Y-119001366D01*
X131303010Y-119001366D01*
X131303011Y-119001367D01*
X131418024Y-119044265D01*
X131468355Y-119078826D01*
X131496530Y-119132997D01*
X131495927Y-119194052D01*
X131466690Y-119247656D01*
X131323496Y-119403206D01*
X131200354Y-119591687D01*
X131109917Y-119797866D01*
X131062086Y-119986750D01*
X131054651Y-120016110D01*
X131036059Y-120240478D01*
X131054651Y-120464846D01*
X131054651Y-120464849D01*
X131054652Y-120464850D01*
X131109917Y-120683089D01*
X131200354Y-120889268D01*
X131200355Y-120889269D01*
X131323493Y-121077746D01*
X131437246Y-121201314D01*
X131475977Y-121243386D01*
X131653633Y-121381663D01*
X131653635Y-121381664D01*
X131653639Y-121381667D01*
X131686897Y-121399665D01*
X131735167Y-121445981D01*
X131752926Y-121510478D01*
X131735167Y-121574975D01*
X131686897Y-121621290D01*
X131662009Y-121634759D01*
X131653633Y-121639292D01*
X131475977Y-121777569D01*
X131323493Y-121943209D01*
X131200354Y-122131687D01*
X131109917Y-122337866D01*
X131054652Y-122556105D01*
X131054651Y-122556110D01*
X131036059Y-122780478D01*
X123278500Y-122780478D01*
X123278500Y-121839770D01*
X123271989Y-121779207D01*
X123220889Y-121642204D01*
X123220888Y-121642202D01*
X123133261Y-121525146D01*
X123016205Y-121437519D01*
X122954670Y-121414567D01*
X122901191Y-121394621D01*
X122850858Y-121360058D01*
X122822684Y-121305888D01*
X122823287Y-121244832D01*
X122852522Y-121191230D01*
X122995722Y-121035676D01*
X123118860Y-120847199D01*
X123209296Y-120641024D01*
X123264564Y-120422776D01*
X123283156Y-120198408D01*
X123264564Y-119974040D01*
X123209296Y-119755792D01*
X123118860Y-119549617D01*
X122995722Y-119361140D01*
X122843240Y-119195502D01*
X122843239Y-119195501D01*
X122843237Y-119195499D01*
X122665579Y-119057221D01*
X122665577Y-119057220D01*
X122665576Y-119057219D01*
X122632317Y-119039220D01*
X122584047Y-118992906D01*
X122566288Y-118928408D01*
X122584047Y-118863910D01*
X122632317Y-118817595D01*
X122665576Y-118799597D01*
X122843240Y-118661314D01*
X122995722Y-118495676D01*
X123118860Y-118307199D01*
X123209296Y-118101024D01*
X123264564Y-117882776D01*
X123283156Y-117658408D01*
X123264564Y-117434040D01*
X123209296Y-117215792D01*
X123118860Y-117009617D01*
X122995722Y-116821140D01*
X122843240Y-116655502D01*
X122843239Y-116655501D01*
X122843237Y-116655499D01*
X122665578Y-116517220D01*
X122467573Y-116410065D01*
X122269240Y-116341978D01*
X122254635Y-116336964D01*
X122032569Y-116299908D01*
X121807431Y-116299908D01*
X121585365Y-116336964D01*
X121585362Y-116336964D01*
X121585362Y-116336965D01*
X121372426Y-116410065D01*
X121174421Y-116517220D01*
X120996762Y-116655499D01*
X120844278Y-116821139D01*
X120721139Y-117009617D01*
X120630702Y-117215796D01*
X120587591Y-117386040D01*
X120575436Y-117434040D01*
X120556844Y-117658408D01*
X120575436Y-117882776D01*
X120575436Y-117882779D01*
X120575437Y-117882780D01*
X120630702Y-118101019D01*
X120630703Y-118101022D01*
X120630704Y-118101024D01*
X120635515Y-118111991D01*
X120721139Y-118307198D01*
X120844278Y-118495676D01*
X120996762Y-118661316D01*
X121174418Y-118799593D01*
X121174420Y-118799594D01*
X121174424Y-118799597D01*
X121207682Y-118817595D01*
X121255952Y-118863911D01*
X121273711Y-118928408D01*
X121255952Y-118992905D01*
X121207682Y-119039220D01*
X121183205Y-119052467D01*
X121174418Y-119057222D01*
X120996762Y-119195499D01*
X120844278Y-119361139D01*
X120721139Y-119549617D01*
X120630702Y-119755796D01*
X120586001Y-119932318D01*
X120575436Y-119974040D01*
X120556844Y-120198408D01*
X110661905Y-120198408D01*
X110661905Y-119381188D01*
X110644407Y-119248280D01*
X110637842Y-119223780D01*
X110586543Y-119099936D01*
X110586542Y-119099935D01*
X110580195Y-119084611D01*
X110580269Y-119084580D01*
X110573567Y-119072041D01*
X110566880Y-119031540D01*
X110566880Y-118313651D01*
X110576471Y-118265433D01*
X110603785Y-118224556D01*
X110653800Y-118174541D01*
X110694677Y-118147227D01*
X110742895Y-118137636D01*
X113378169Y-118137636D01*
X113441169Y-118154517D01*
X113487288Y-118200636D01*
X113504168Y-118263635D01*
X113504168Y-118906750D01*
X113504168Y-119544718D01*
X113521666Y-119677629D01*
X113528230Y-119702125D01*
X113579529Y-119825969D01*
X113661134Y-119932318D01*
X113679067Y-119950251D01*
X113726633Y-119986750D01*
X113785416Y-120031856D01*
X113909260Y-120083155D01*
X113933760Y-120089720D01*
X114066668Y-120107218D01*
X116079799Y-120107218D01*
X116079802Y-120107218D01*
X116154934Y-120099817D01*
X116179980Y-120097351D01*
X116276311Y-120068129D01*
X116310959Y-120053777D01*
X116427047Y-119986752D01*
X116521833Y-119891966D01*
X116588858Y-119775878D01*
X116603210Y-119741230D01*
X116632432Y-119644899D01*
X116641558Y-119552244D01*
X116642299Y-119544721D01*
X116642300Y-118263636D01*
X116659181Y-118200636D01*
X116705300Y-118154517D01*
X116768300Y-118137636D01*
X117223520Y-118137636D01*
X117226058Y-118137662D01*
X117331351Y-118139783D01*
X117331351Y-118139782D01*
X117331354Y-118139783D01*
X117403014Y-118129612D01*
X117410579Y-118128772D01*
X117482738Y-118122947D01*
X117482740Y-118122946D01*
X117482745Y-118122946D01*
X117521050Y-118113504D01*
X117533447Y-118111102D01*
X117572495Y-118105562D01*
X117641596Y-118084028D01*
X117648912Y-118081988D01*
X117719225Y-118064659D01*
X117755507Y-118049199D01*
X117767388Y-118044830D01*
X117805025Y-118033103D01*
X117869780Y-118000762D01*
X117876675Y-117997574D01*
X117943293Y-117969192D01*
X117976615Y-117948118D01*
X117987637Y-117941901D01*
X118022920Y-117924282D01*
X118081669Y-117881956D01*
X118087953Y-117877713D01*
X118149145Y-117839019D01*
X118178662Y-117812868D01*
X118188556Y-117804955D01*
X118220537Y-117781917D01*
X118271733Y-117730719D01*
X118277224Y-117725550D01*
X118331451Y-117677511D01*
X118356390Y-117646963D01*
X118364887Y-117637565D01*
X121694546Y-114307908D01*
X121729258Y-114283345D01*
X121770167Y-114271728D01*
X121813201Y-114267102D01*
X121950204Y-114216002D01*
X122067261Y-114128374D01*
X122154889Y-114011317D01*
X122205989Y-113874314D01*
X122212500Y-113813751D01*
X122212500Y-113751607D01*
X122230672Y-113686422D01*
X122257948Y-113641302D01*
X122260328Y-113635387D01*
X122268105Y-113619413D01*
X122271289Y-113613900D01*
X122308671Y-113515327D01*
X122309516Y-113513165D01*
X122348882Y-113415356D01*
X122350283Y-113409131D01*
X122355392Y-113392136D01*
X122357656Y-113386170D01*
X122378732Y-113282927D01*
X122379264Y-113280452D01*
X122382106Y-113267833D01*
X122402395Y-113177751D01*
X122402780Y-113171374D01*
X122405096Y-113153792D01*
X122406374Y-113147534D01*
X122410616Y-113042252D01*
X122410743Y-113039747D01*
X122411571Y-113026054D01*
X130947323Y-113026054D01*
X130963702Y-113160940D01*
X130976681Y-113267833D01*
X131044443Y-113501775D01*
X131132059Y-113686422D01*
X131138839Y-113700710D01*
X131151004Y-113754725D01*
X131151004Y-113813751D01*
X131157515Y-113874313D01*
X131208615Y-114011318D01*
X131296242Y-114128374D01*
X131413298Y-114216001D01*
X131413299Y-114216001D01*
X131413300Y-114216002D01*
X131550303Y-114267102D01*
X131610866Y-114273613D01*
X131675569Y-114273613D01*
X131734123Y-114288045D01*
X131866299Y-114357417D01*
X131981540Y-114395890D01*
X132097321Y-114434544D01*
X132337723Y-114473613D01*
X132337725Y-114473613D01*
X133878082Y-114473613D01*
X133926300Y-114483204D01*
X133967177Y-114510518D01*
X136716673Y-117260014D01*
X136718402Y-117261777D01*
X136791425Y-117337802D01*
X136791426Y-117337803D01*
X136849292Y-117381286D01*
X136855236Y-117386040D01*
X136910380Y-117432946D01*
X136944121Y-117453342D01*
X136954618Y-117460433D01*
X136975250Y-117475937D01*
X136986135Y-117484117D01*
X137050226Y-117517754D01*
X137056848Y-117521488D01*
X137118810Y-117558946D01*
X137118811Y-117558947D01*
X137155381Y-117573665D01*
X137166891Y-117578985D01*
X137201795Y-117597304D01*
X137270464Y-117620228D01*
X137277600Y-117622853D01*
X137344757Y-117649882D01*
X137383232Y-117658547D01*
X137395407Y-117661941D01*
X137432818Y-117674431D01*
X137504293Y-117686045D01*
X137511721Y-117687484D01*
X137582362Y-117703395D01*
X137621712Y-117705774D01*
X137634303Y-117707174D01*
X137673221Y-117713500D01*
X137745596Y-117713500D01*
X137753203Y-117713729D01*
X137825475Y-117718102D01*
X137864707Y-117714138D01*
X137877373Y-117713500D01*
X138883342Y-117713500D01*
X138946342Y-117730381D01*
X138992461Y-117776500D01*
X139009342Y-117839500D01*
X138992461Y-117902500D01*
X138981275Y-117921873D01*
X138966921Y-117956527D01*
X138937699Y-118052856D01*
X138927833Y-118153034D01*
X138927833Y-120174417D01*
X138937699Y-120274594D01*
X138966921Y-120370923D01*
X138981273Y-120405573D01*
X139048300Y-120521664D01*
X139143082Y-120616446D01*
X139143084Y-120616447D01*
X139143085Y-120616448D01*
X139259173Y-120683473D01*
X139293821Y-120697825D01*
X139390152Y-120727047D01*
X139490330Y-120736914D01*
X139490333Y-120736914D01*
X141594176Y-120736914D01*
X141594179Y-120736914D01*
X141669311Y-120729513D01*
X141694357Y-120727047D01*
X141790688Y-120697825D01*
X141825336Y-120683473D01*
X141941424Y-120616448D01*
X142036210Y-120521662D01*
X142103235Y-120405574D01*
X142117587Y-120370926D01*
X142146809Y-120274595D01*
X142156676Y-120174414D01*
X142156676Y-118153037D01*
X142153712Y-118122947D01*
X142146809Y-118052856D01*
X142140816Y-118033101D01*
X142117587Y-117956525D01*
X142107090Y-117931184D01*
X142097500Y-117882969D01*
X142097500Y-117839500D01*
X142114381Y-117776500D01*
X142160500Y-117730381D01*
X142223500Y-117713500D01*
X144128369Y-117713500D01*
X144176587Y-117723091D01*
X144217464Y-117750405D01*
X144875668Y-118408609D01*
X144902982Y-118449486D01*
X144912573Y-118497704D01*
X144912573Y-119065106D01*
X144930071Y-119198017D01*
X144936635Y-119222513D01*
X144987934Y-119346357D01*
X145069539Y-119452706D01*
X145087472Y-119470639D01*
X145135038Y-119507138D01*
X145193821Y-119552244D01*
X145317665Y-119603543D01*
X145342165Y-119610108D01*
X145475073Y-119627606D01*
X147488204Y-119627606D01*
X147488207Y-119627606D01*
X147563339Y-119620205D01*
X147588385Y-119617739D01*
X147684716Y-119588517D01*
X147719364Y-119574165D01*
X147835452Y-119507140D01*
X147930238Y-119412354D01*
X147997263Y-119296266D01*
X148011615Y-119261618D01*
X148040837Y-119165287D01*
X148049353Y-119078826D01*
X148050704Y-119065109D01*
X148050704Y-118192326D01*
X148052768Y-118169613D01*
X148056870Y-118147227D01*
X148063742Y-118109731D01*
X148068310Y-117882969D01*
X148068647Y-117866225D01*
X148064854Y-117839500D01*
X148051953Y-117748597D01*
X148050704Y-117730894D01*
X148050704Y-117381286D01*
X148050705Y-117018988D01*
X148033207Y-116886080D01*
X148026642Y-116861580D01*
X147975343Y-116737736D01*
X147912242Y-116655502D01*
X147893738Y-116631387D01*
X147875805Y-116613454D01*
X147769456Y-116531849D01*
X147645612Y-116480550D01*
X147621116Y-116473986D01*
X147488205Y-116456488D01*
X147242420Y-116456488D01*
X147194202Y-116446897D01*
X147153325Y-116419583D01*
X145883726Y-115149984D01*
X145881950Y-115148173D01*
X145808976Y-115072199D01*
X145808975Y-115072198D01*
X145751097Y-115028706D01*
X145745167Y-115023962D01*
X145690021Y-114977055D01*
X145690020Y-114977054D01*
X145656273Y-114956653D01*
X145645786Y-114949569D01*
X145614265Y-114925883D01*
X145614263Y-114925882D01*
X145614262Y-114925881D01*
X145550172Y-114892244D01*
X145543557Y-114888512D01*
X145506934Y-114866374D01*
X145481588Y-114851051D01*
X145445001Y-114836326D01*
X145433496Y-114831008D01*
X145398605Y-114812696D01*
X145398604Y-114812695D01*
X145398601Y-114812694D01*
X145329948Y-114789774D01*
X145322807Y-114787148D01*
X145255639Y-114760116D01*
X145217185Y-114751455D01*
X145204974Y-114748051D01*
X145167581Y-114735568D01*
X145096131Y-114723957D01*
X145088664Y-114722511D01*
X145067239Y-114717686D01*
X145018036Y-114706604D01*
X144978684Y-114704224D01*
X144966084Y-114702822D01*
X144941583Y-114698840D01*
X144927180Y-114696500D01*
X144927179Y-114696500D01*
X144854803Y-114696500D01*
X144847195Y-114696270D01*
X144774925Y-114691898D01*
X144774924Y-114691898D01*
X144765809Y-114692819D01*
X144735691Y-114695862D01*
X144723026Y-114696500D01*
X140710779Y-114696500D01*
X140621947Y-114696500D01*
X140616874Y-114696398D01*
X140603573Y-114695862D01*
X140528060Y-114692819D01*
X140528058Y-114692819D01*
X140508808Y-114695156D01*
X140505313Y-114695581D01*
X140490127Y-114696500D01*
X138472031Y-114696500D01*
X138423813Y-114686909D01*
X138382936Y-114659595D01*
X136149540Y-112426198D01*
X139427353Y-112426198D01*
X139429035Y-112427255D01*
X139590259Y-112483670D01*
X139760000Y-112502795D01*
X139929740Y-112483670D01*
X140090962Y-112427256D01*
X140092644Y-112426198D01*
X140677354Y-112426198D01*
X140679035Y-112427255D01*
X140840259Y-112483670D01*
X141010000Y-112502795D01*
X141179740Y-112483670D01*
X141340962Y-112427256D01*
X141342644Y-112426198D01*
X141927354Y-112426198D01*
X141929035Y-112427255D01*
X142090259Y-112483670D01*
X142260000Y-112502795D01*
X142429740Y-112483670D01*
X142590962Y-112427256D01*
X142592644Y-112426198D01*
X143177353Y-112426198D01*
X143179035Y-112427255D01*
X143340259Y-112483670D01*
X143510000Y-112502795D01*
X143679740Y-112483670D01*
X143840962Y-112427256D01*
X143842644Y-112426198D01*
X144427353Y-112426198D01*
X144429035Y-112427255D01*
X144590259Y-112483670D01*
X144760000Y-112502795D01*
X144929740Y-112483670D01*
X145090962Y-112427256D01*
X145092644Y-112426198D01*
X145677353Y-112426198D01*
X145679035Y-112427255D01*
X145840259Y-112483670D01*
X146010000Y-112502795D01*
X146179740Y-112483670D01*
X146340962Y-112427256D01*
X146342644Y-112426198D01*
X146927353Y-112426198D01*
X146929035Y-112427255D01*
X147090259Y-112483670D01*
X147260000Y-112502795D01*
X147429740Y-112483670D01*
X147590962Y-112427256D01*
X147592644Y-112426198D01*
X147592644Y-112426196D01*
X147260001Y-112093553D01*
X147260000Y-112093553D01*
X146927353Y-112426198D01*
X146342644Y-112426198D01*
X146342644Y-112426196D01*
X146010001Y-112093553D01*
X146010000Y-112093553D01*
X145677353Y-112426198D01*
X145092644Y-112426198D01*
X145092644Y-112426196D01*
X144760001Y-112093553D01*
X144760000Y-112093553D01*
X144427353Y-112426198D01*
X143842644Y-112426198D01*
X143842644Y-112426196D01*
X143510001Y-112093553D01*
X143510000Y-112093553D01*
X143177353Y-112426198D01*
X142592644Y-112426198D01*
X142592644Y-112426196D01*
X142260001Y-112093553D01*
X142260000Y-112093553D01*
X141927354Y-112426198D01*
X141342644Y-112426198D01*
X141342644Y-112426196D01*
X141010001Y-112093553D01*
X141010000Y-112093553D01*
X140677354Y-112426198D01*
X140092644Y-112426198D01*
X140092644Y-112426196D01*
X139760001Y-112093553D01*
X139760000Y-112093553D01*
X139427353Y-112426198D01*
X136149540Y-112426198D01*
X135633439Y-111910097D01*
X135631663Y-111908286D01*
X135558689Y-111832312D01*
X135518154Y-111801852D01*
X135500810Y-111788819D01*
X135494880Y-111784075D01*
X135443065Y-111740001D01*
X135443064Y-111740000D01*
X138997204Y-111740000D01*
X139016329Y-111909740D01*
X139072744Y-112070963D01*
X139073801Y-112072645D01*
X139406447Y-111740000D01*
X139406447Y-111739999D01*
X139073801Y-111407353D01*
X139072743Y-111409038D01*
X139016329Y-111570259D01*
X138997204Y-111740000D01*
X135443064Y-111740000D01*
X135439733Y-111737167D01*
X135405986Y-111716766D01*
X135395499Y-111709682D01*
X135363978Y-111685996D01*
X135363976Y-111685995D01*
X135363975Y-111685994D01*
X135299885Y-111652357D01*
X135293270Y-111648625D01*
X135254282Y-111625057D01*
X135231301Y-111611164D01*
X135194714Y-111596439D01*
X135183209Y-111591121D01*
X135148318Y-111572809D01*
X135148317Y-111572808D01*
X135148314Y-111572807D01*
X135079661Y-111549887D01*
X135072520Y-111547261D01*
X135005352Y-111520229D01*
X134966898Y-111511568D01*
X134954687Y-111508164D01*
X134917294Y-111495681D01*
X134845844Y-111484070D01*
X134838377Y-111482624D01*
X134806931Y-111475542D01*
X134767749Y-111466717D01*
X134728397Y-111464337D01*
X134715797Y-111462935D01*
X134691296Y-111458953D01*
X134676893Y-111456613D01*
X134676892Y-111456613D01*
X134604516Y-111456613D01*
X134596908Y-111456383D01*
X134524638Y-111452011D01*
X134524637Y-111452011D01*
X134500339Y-111454466D01*
X134485404Y-111455975D01*
X134472739Y-111456613D01*
X133604065Y-111456613D01*
X133538700Y-111438332D01*
X133492302Y-111388793D01*
X133478335Y-111322372D01*
X133500852Y-111258342D01*
X133596591Y-111121611D01*
X133599674Y-111115000D01*
X139488553Y-111115000D01*
X139760000Y-111386446D01*
X139760001Y-111386447D01*
X140384999Y-112011446D01*
X140920904Y-111475542D01*
X140977389Y-111442930D01*
X141042611Y-111442930D01*
X141099096Y-111475542D01*
X141635000Y-112011446D01*
X142170904Y-111475542D01*
X142227389Y-111442930D01*
X142292611Y-111442930D01*
X142349096Y-111475542D01*
X142885000Y-112011446D01*
X143420904Y-111475542D01*
X143477389Y-111442930D01*
X143542611Y-111442930D01*
X143599096Y-111475542D01*
X144135000Y-112011446D01*
X144670904Y-111475542D01*
X144727389Y-111442930D01*
X144792611Y-111442930D01*
X144849096Y-111475542D01*
X145385000Y-112011446D01*
X145920904Y-111475542D01*
X145977389Y-111442930D01*
X146042611Y-111442930D01*
X146099096Y-111475542D01*
X146635000Y-112011446D01*
X146906445Y-111740001D01*
X147613553Y-111740001D01*
X147946196Y-112072644D01*
X147946198Y-112072644D01*
X147947256Y-112070962D01*
X148003670Y-111909740D01*
X148022795Y-111740000D01*
X148003670Y-111570259D01*
X147947255Y-111409035D01*
X147946198Y-111407354D01*
X147613553Y-111740000D01*
X147613553Y-111740001D01*
X146906445Y-111740001D01*
X147260000Y-111386446D01*
X147531447Y-111115000D01*
X147531447Y-111114999D01*
X146995542Y-110579094D01*
X146962930Y-110522610D01*
X146962930Y-110490001D01*
X147613553Y-110490001D01*
X147946196Y-110822644D01*
X147946198Y-110822644D01*
X147947256Y-110820962D01*
X148003670Y-110659740D01*
X148022795Y-110489999D01*
X148003670Y-110320259D01*
X147947255Y-110159035D01*
X147946198Y-110157354D01*
X147613553Y-110490000D01*
X147613553Y-110490001D01*
X146962930Y-110490001D01*
X146962930Y-110457388D01*
X146995542Y-110400903D01*
X147260000Y-110136446D01*
X147369003Y-110027443D01*
X151094665Y-110027443D01*
X151094665Y-110322032D01*
X151101170Y-110382536D01*
X151152219Y-110519405D01*
X151239760Y-110636347D01*
X151356702Y-110723888D01*
X151493571Y-110774937D01*
X151554076Y-110781443D01*
X152098665Y-110781443D01*
X152098665Y-110027443D01*
X152606665Y-110027443D01*
X152606665Y-110781443D01*
X153151254Y-110781443D01*
X153211758Y-110774937D01*
X153348627Y-110723888D01*
X153465569Y-110636347D01*
X153553110Y-110519405D01*
X153604159Y-110382536D01*
X153610665Y-110322032D01*
X153610665Y-110027443D01*
X152606665Y-110027443D01*
X152098665Y-110027443D01*
X151094665Y-110027443D01*
X147369003Y-110027443D01*
X147531447Y-109865000D01*
X147260000Y-109593554D01*
X147259999Y-109593553D01*
X146906448Y-109240001D01*
X147613553Y-109240001D01*
X147946196Y-109572644D01*
X147946198Y-109572644D01*
X147947256Y-109570962D01*
X148003670Y-109409740D01*
X148022795Y-109240000D01*
X148003670Y-109070259D01*
X147947255Y-108909035D01*
X147946198Y-108907354D01*
X147613553Y-109240000D01*
X147613553Y-109240001D01*
X146906448Y-109240001D01*
X146635000Y-108968553D01*
X146634999Y-108968553D01*
X146099095Y-109504457D01*
X146042611Y-109537069D01*
X145977389Y-109537069D01*
X145920905Y-109504457D01*
X145385001Y-108968553D01*
X145384999Y-108968553D01*
X144849095Y-109504457D01*
X144792611Y-109537069D01*
X144727389Y-109537069D01*
X144670905Y-109504457D01*
X144135001Y-108968553D01*
X144134999Y-108968553D01*
X143599095Y-109504457D01*
X143542611Y-109537069D01*
X143477389Y-109537069D01*
X143420905Y-109504457D01*
X142885001Y-108968553D01*
X142884999Y-108968553D01*
X142349095Y-109504457D01*
X142292611Y-109537069D01*
X142227389Y-109537069D01*
X142170905Y-109504457D01*
X141635001Y-108968553D01*
X141634999Y-108968553D01*
X141099095Y-109504457D01*
X141042611Y-109537069D01*
X140977389Y-109537069D01*
X140920905Y-109504457D01*
X140385001Y-108968553D01*
X140385000Y-108968553D01*
X139760001Y-109593553D01*
X139760000Y-109593554D01*
X139488553Y-109865000D01*
X139760000Y-110136446D01*
X139760000Y-110136447D01*
X140024457Y-110400904D01*
X140057069Y-110457388D01*
X140057069Y-110522610D01*
X140024458Y-110579094D01*
X139488553Y-111115000D01*
X133599674Y-111115000D01*
X133693317Y-110914183D01*
X133752552Y-110693112D01*
X133770322Y-110490000D01*
X138997204Y-110490000D01*
X139016329Y-110659740D01*
X139072744Y-110820963D01*
X139073801Y-110822645D01*
X139406447Y-110490000D01*
X139406447Y-110489999D01*
X139073801Y-110157353D01*
X139072743Y-110159038D01*
X139016329Y-110320259D01*
X138997204Y-110490000D01*
X133770322Y-110490000D01*
X133772499Y-110465113D01*
X133752552Y-110237113D01*
X133693317Y-110016042D01*
X133596589Y-109808610D01*
X133546604Y-109737223D01*
X133546602Y-109737223D01*
X132459505Y-110824323D01*
X132459502Y-110824324D01*
X131721384Y-111562441D01*
X131717795Y-111583200D01*
X131676880Y-111632954D01*
X131616721Y-111655983D01*
X131550303Y-111663124D01*
X131413298Y-111714224D01*
X131296242Y-111801851D01*
X131208615Y-111918907D01*
X131157515Y-112055912D01*
X131151004Y-112116475D01*
X131151004Y-112180740D01*
X131134123Y-112243738D01*
X131106577Y-112291450D01*
X131092214Y-112316327D01*
X131005848Y-112544055D01*
X130989780Y-112622761D01*
X130957130Y-112782692D01*
X130952235Y-112904174D01*
X130947323Y-113026054D01*
X122411571Y-113026054D01*
X122417102Y-112934637D01*
X122416460Y-112928281D01*
X122415924Y-112910547D01*
X122416181Y-112904174D01*
X122403476Y-112799546D01*
X122403216Y-112797214D01*
X122392618Y-112692314D01*
X122390967Y-112686153D01*
X122387591Y-112668720D01*
X122386823Y-112662395D01*
X122386823Y-112662393D01*
X122357494Y-112561137D01*
X122356867Y-112558890D01*
X122329581Y-112457055D01*
X122326960Y-112451232D01*
X122320834Y-112434572D01*
X122319061Y-112428451D01*
X122273903Y-112333280D01*
X122272839Y-112330978D01*
X122225447Y-112225677D01*
X122226212Y-112225332D01*
X122217834Y-112207445D01*
X122212500Y-112171172D01*
X122212500Y-112116475D01*
X122205989Y-112055912D01*
X122154889Y-111918909D01*
X122154888Y-111918907D01*
X122067261Y-111801851D01*
X121950205Y-111714224D01*
X121881702Y-111688673D01*
X121813201Y-111663124D01*
X121796740Y-111661354D01*
X121746781Y-111655983D01*
X121686621Y-111632953D01*
X121645706Y-111583197D01*
X121642116Y-111562438D01*
X120633885Y-110554207D01*
X120601273Y-110497723D01*
X120601273Y-110465114D01*
X121263210Y-110465114D01*
X121991097Y-111193001D01*
X121991099Y-111193001D01*
X122041087Y-111121611D01*
X122137813Y-110914183D01*
X122197048Y-110693112D01*
X122216995Y-110465113D01*
X131146508Y-110465113D01*
X131166455Y-110693112D01*
X131225690Y-110914183D01*
X131322416Y-111121610D01*
X131372404Y-111193000D01*
X132100294Y-110465113D01*
X132100294Y-110465112D01*
X131372404Y-109737222D01*
X131322417Y-109808612D01*
X131225690Y-110016042D01*
X131166455Y-110237113D01*
X131146508Y-110465113D01*
X122216995Y-110465113D01*
X122197048Y-110237113D01*
X122137813Y-110016042D01*
X122041085Y-109808610D01*
X121991100Y-109737223D01*
X121991098Y-109737223D01*
X121263210Y-110465113D01*
X121263210Y-110465114D01*
X120601273Y-110465114D01*
X120601273Y-110432501D01*
X120633885Y-110376016D01*
X120904000Y-110105902D01*
X120904003Y-110105899D01*
X121631887Y-109378013D01*
X131731613Y-109378013D01*
X132459503Y-110105903D01*
X132459504Y-110105903D01*
X133187392Y-109378012D01*
X133116001Y-109328025D01*
X132927231Y-109239999D01*
X138997204Y-109239999D01*
X139016329Y-109409740D01*
X139072744Y-109570963D01*
X139073801Y-109572645D01*
X139406447Y-109240000D01*
X139406447Y-109239999D01*
X139073801Y-108907353D01*
X139072743Y-108909038D01*
X139016329Y-109070259D01*
X138997204Y-109239999D01*
X132927231Y-109239999D01*
X132908574Y-109231299D01*
X132687503Y-109172064D01*
X132459504Y-109152117D01*
X132231504Y-109172064D01*
X132010433Y-109231299D01*
X131803003Y-109328026D01*
X131731613Y-109378013D01*
X121631887Y-109378013D01*
X121631888Y-109378012D01*
X121560497Y-109328025D01*
X121353070Y-109231299D01*
X121131999Y-109172064D01*
X120904000Y-109152117D01*
X120676000Y-109172064D01*
X120454929Y-109231299D01*
X120255261Y-109324407D01*
X120193770Y-109335942D01*
X120134311Y-109316479D01*
X120091543Y-109270817D01*
X120076011Y-109210212D01*
X120076011Y-108553801D01*
X139427353Y-108553801D01*
X139759999Y-108886447D01*
X139760000Y-108886447D01*
X140092645Y-108553801D01*
X140677353Y-108553801D01*
X141009999Y-108886447D01*
X141010000Y-108886447D01*
X141342645Y-108553801D01*
X141927353Y-108553801D01*
X142259999Y-108886447D01*
X142260000Y-108886447D01*
X142592645Y-108553801D01*
X143177353Y-108553801D01*
X143509999Y-108886447D01*
X143510000Y-108886447D01*
X143842645Y-108553801D01*
X144427353Y-108553801D01*
X144759999Y-108886447D01*
X144760000Y-108886447D01*
X145092645Y-108553801D01*
X145677353Y-108553801D01*
X146009999Y-108886447D01*
X146010000Y-108886447D01*
X146342645Y-108553801D01*
X146927353Y-108553801D01*
X147259999Y-108886447D01*
X147260000Y-108886447D01*
X147592645Y-108553801D01*
X147590963Y-108552744D01*
X147429740Y-108496329D01*
X147259999Y-108477204D01*
X147090259Y-108496329D01*
X146929038Y-108552743D01*
X146927353Y-108553801D01*
X146342645Y-108553801D01*
X146340963Y-108552744D01*
X146179740Y-108496329D01*
X146009999Y-108477204D01*
X145840259Y-108496329D01*
X145679038Y-108552743D01*
X145677353Y-108553801D01*
X145092645Y-108553801D01*
X145090963Y-108552744D01*
X144929740Y-108496329D01*
X144759999Y-108477204D01*
X144590259Y-108496329D01*
X144429038Y-108552743D01*
X144427353Y-108553801D01*
X143842645Y-108553801D01*
X143840963Y-108552744D01*
X143679740Y-108496329D01*
X143509999Y-108477204D01*
X143340259Y-108496329D01*
X143179038Y-108552743D01*
X143177353Y-108553801D01*
X142592645Y-108553801D01*
X142590963Y-108552744D01*
X142429740Y-108496329D01*
X142259999Y-108477204D01*
X142090259Y-108496329D01*
X141929038Y-108552743D01*
X141927353Y-108553801D01*
X141342645Y-108553801D01*
X141340963Y-108552744D01*
X141179740Y-108496329D01*
X141009999Y-108477204D01*
X140840259Y-108496329D01*
X140679038Y-108552743D01*
X140677353Y-108553801D01*
X140092645Y-108553801D01*
X140090963Y-108552744D01*
X139929740Y-108496329D01*
X139759999Y-108477204D01*
X139590259Y-108496329D01*
X139429038Y-108552743D01*
X139427353Y-108553801D01*
X120076011Y-108553801D01*
X120076011Y-104613939D01*
X120076037Y-104611402D01*
X120078157Y-104506134D01*
X120067987Y-104434468D01*
X120067148Y-104426932D01*
X120061321Y-104354743D01*
X120051879Y-104316437D01*
X120049477Y-104304039D01*
X120043937Y-104264992D01*
X120022395Y-104195863D01*
X120020364Y-104188578D01*
X120003034Y-104118263D01*
X119987576Y-104081983D01*
X119983202Y-104070087D01*
X119971479Y-104032464D01*
X119966402Y-104022298D01*
X119939123Y-103967677D01*
X119935944Y-103960799D01*
X119907567Y-103894195D01*
X119886495Y-103860873D01*
X119880272Y-103849838D01*
X119862657Y-103814568D01*
X119862657Y-103814567D01*
X119820332Y-103755815D01*
X119816087Y-103749531D01*
X119777394Y-103688343D01*
X119777390Y-103688338D01*
X119751250Y-103658832D01*
X119743327Y-103648927D01*
X119720291Y-103616950D01*
X119669116Y-103565774D01*
X119663900Y-103560233D01*
X119615888Y-103506039D01*
X119615886Y-103506037D01*
X119585328Y-103481088D01*
X119575933Y-103472592D01*
X117918326Y-101814985D01*
X117916549Y-101813173D01*
X117843574Y-101737196D01*
X117785711Y-101693716D01*
X117779767Y-101688962D01*
X117724621Y-101642055D01*
X117724620Y-101642054D01*
X117690873Y-101621653D01*
X117680386Y-101614569D01*
X117648865Y-101590883D01*
X117648863Y-101590882D01*
X117648862Y-101590881D01*
X117584772Y-101557244D01*
X117578157Y-101553512D01*
X117541534Y-101531374D01*
X117516188Y-101516051D01*
X117479601Y-101501326D01*
X117468096Y-101496008D01*
X117433205Y-101477696D01*
X117433204Y-101477695D01*
X117433201Y-101477694D01*
X117364548Y-101454774D01*
X117357407Y-101452148D01*
X117290239Y-101425116D01*
X117251785Y-101416455D01*
X117239574Y-101413051D01*
X117202181Y-101400568D01*
X117130731Y-101388957D01*
X117123264Y-101387511D01*
X117101839Y-101382686D01*
X117052636Y-101371604D01*
X117013284Y-101369224D01*
X117000684Y-101367822D01*
X116976183Y-101363840D01*
X116961780Y-101361500D01*
X116961779Y-101361500D01*
X116889403Y-101361500D01*
X116881795Y-101361270D01*
X116809525Y-101356898D01*
X116809524Y-101356898D01*
X116782001Y-101359678D01*
X116770291Y-101360862D01*
X116757626Y-101361500D01*
X109897031Y-101361500D01*
X109848813Y-101351909D01*
X109807936Y-101324595D01*
X108225405Y-99742063D01*
X108198091Y-99701186D01*
X108188500Y-99652968D01*
X108188500Y-98663476D01*
X108600010Y-98663476D01*
X108619965Y-98891564D01*
X108679223Y-99112720D01*
X108775985Y-99320227D01*
X108907312Y-99507780D01*
X109069204Y-99669672D01*
X109256757Y-99800999D01*
X109464264Y-99897761D01*
X109518129Y-99912194D01*
X109685421Y-99957020D01*
X109913508Y-99976975D01*
X110141595Y-99957020D01*
X110362751Y-99897761D01*
X110570257Y-99801000D01*
X110757808Y-99669675D01*
X110919706Y-99507777D01*
X111051031Y-99320226D01*
X111069312Y-99281020D01*
X111115808Y-99228002D01*
X111183508Y-99208269D01*
X111251208Y-99228002D01*
X111297703Y-99281020D01*
X111315984Y-99320225D01*
X111447312Y-99507780D01*
X111609204Y-99669672D01*
X111796757Y-99800999D01*
X112004264Y-99897761D01*
X112058129Y-99912194D01*
X112225421Y-99957020D01*
X112453508Y-99976975D01*
X112681595Y-99957020D01*
X112902751Y-99897761D01*
X113110257Y-99801000D01*
X113297808Y-99669675D01*
X113459706Y-99507777D01*
X113591031Y-99320226D01*
X113609312Y-99281020D01*
X113655808Y-99228002D01*
X113723508Y-99208269D01*
X113791208Y-99228002D01*
X113837703Y-99281020D01*
X113855984Y-99320225D01*
X113987312Y-99507780D01*
X114149204Y-99669672D01*
X114336757Y-99800999D01*
X114544264Y-99897761D01*
X114598129Y-99912194D01*
X114765421Y-99957020D01*
X114993508Y-99976975D01*
X115221595Y-99957020D01*
X115442751Y-99897761D01*
X115650257Y-99801000D01*
X115837808Y-99669675D01*
X115999706Y-99507777D01*
X116131031Y-99320226D01*
X116149312Y-99281020D01*
X116195808Y-99228002D01*
X116263508Y-99208269D01*
X116331208Y-99228002D01*
X116377703Y-99281020D01*
X116395984Y-99320225D01*
X116527312Y-99507780D01*
X116689204Y-99669672D01*
X116876757Y-99800999D01*
X117084264Y-99897761D01*
X117138129Y-99912194D01*
X117305421Y-99957020D01*
X117533508Y-99976975D01*
X117761595Y-99957020D01*
X117982751Y-99897761D01*
X118190257Y-99801000D01*
X118377808Y-99669675D01*
X118539706Y-99507777D01*
X118671031Y-99320226D01*
X118689312Y-99281020D01*
X118735808Y-99228002D01*
X118803508Y-99208269D01*
X118871208Y-99228002D01*
X118917703Y-99281020D01*
X118935984Y-99320225D01*
X119067312Y-99507780D01*
X119229204Y-99669672D01*
X119416757Y-99800999D01*
X119624264Y-99897761D01*
X119678129Y-99912194D01*
X119845421Y-99957020D01*
X120073508Y-99976975D01*
X120301595Y-99957020D01*
X120522751Y-99897761D01*
X120730257Y-99801000D01*
X120917808Y-99669675D01*
X121079706Y-99507777D01*
X121211031Y-99320226D01*
X121229312Y-99281020D01*
X121275808Y-99228002D01*
X121343508Y-99208269D01*
X121411208Y-99228002D01*
X121457703Y-99281020D01*
X121475984Y-99320225D01*
X121607312Y-99507780D01*
X121769204Y-99669672D01*
X121956757Y-99800999D01*
X122164264Y-99897761D01*
X122218129Y-99912194D01*
X122385421Y-99957020D01*
X122613508Y-99976975D01*
X122841595Y-99957020D01*
X123062751Y-99897761D01*
X123270257Y-99801000D01*
X123457808Y-99669675D01*
X123619706Y-99507777D01*
X123751031Y-99320226D01*
X123769312Y-99281020D01*
X123815808Y-99228002D01*
X123883508Y-99208269D01*
X123951208Y-99228002D01*
X123997703Y-99281020D01*
X124015984Y-99320225D01*
X124147312Y-99507780D01*
X124309204Y-99669672D01*
X124496757Y-99800999D01*
X124704264Y-99897761D01*
X124758129Y-99912194D01*
X124925421Y-99957020D01*
X125153508Y-99976975D01*
X125381595Y-99957020D01*
X125445050Y-99940017D01*
X125510272Y-99940017D01*
X125566756Y-99972629D01*
X131039677Y-105445550D01*
X131052760Y-105461880D01*
X131104591Y-105510551D01*
X131107403Y-105513276D01*
X131127156Y-105533029D01*
X131129109Y-105534544D01*
X131130350Y-105535507D01*
X131139370Y-105543211D01*
X131171605Y-105573481D01*
X131189361Y-105583242D01*
X131205877Y-105594091D01*
X131221885Y-105606508D01*
X131262451Y-105624062D01*
X131273114Y-105629286D01*
X131300741Y-105644474D01*
X131311866Y-105650590D01*
X131331488Y-105655628D01*
X131350193Y-105662032D01*
X131368781Y-105670076D01*
X131412448Y-105676991D01*
X131424055Y-105679395D01*
X131466896Y-105690395D01*
X131487157Y-105690395D01*
X131506865Y-105691945D01*
X131526869Y-105695114D01*
X131526869Y-105695113D01*
X131526870Y-105695114D01*
X131570880Y-105690954D01*
X131582737Y-105690395D01*
X139620446Y-105690395D01*
X139671694Y-105701288D01*
X139714081Y-105732083D01*
X139717392Y-105735761D01*
X139787086Y-105786396D01*
X139871894Y-105848013D01*
X140046358Y-105925689D01*
X140233159Y-105965395D01*
X140424131Y-105965395D01*
X140424133Y-105965395D01*
X140610934Y-105925689D01*
X140785398Y-105848013D01*
X140939899Y-105735761D01*
X140943210Y-105732083D01*
X140985598Y-105701288D01*
X141036846Y-105690395D01*
X141179906Y-105690395D01*
X141231154Y-105701288D01*
X141273541Y-105732083D01*
X141287801Y-105747920D01*
X141442302Y-105860172D01*
X141616766Y-105937848D01*
X141803567Y-105977554D01*
X141994539Y-105977554D01*
X141994541Y-105977554D01*
X142181342Y-105937848D01*
X142355806Y-105860172D01*
X142462412Y-105782718D01*
X142486670Y-105765094D01*
X142521795Y-105747197D01*
X142560731Y-105741030D01*
X142742252Y-105741030D01*
X142793500Y-105751923D01*
X142835887Y-105782718D01*
X142839198Y-105786396D01*
X142905912Y-105834866D01*
X142993700Y-105898648D01*
X143168164Y-105976324D01*
X143354965Y-106016030D01*
X143545937Y-106016030D01*
X143545939Y-106016030D01*
X143732740Y-105976324D01*
X143907204Y-105898648D01*
X144061705Y-105786396D01*
X144189492Y-105644474D01*
X144284979Y-105479086D01*
X144343994Y-105297458D01*
X144363956Y-105107530D01*
X144343994Y-104917602D01*
X144284979Y-104735974D01*
X144284979Y-104735973D01*
X144189493Y-104570587D01*
X144061704Y-104428663D01*
X143959962Y-104354743D01*
X143907204Y-104316412D01*
X143732740Y-104238736D01*
X143545939Y-104199030D01*
X143354965Y-104199030D01*
X143230430Y-104225500D01*
X143168163Y-104238736D01*
X143059298Y-104287206D01*
X142997137Y-104314882D01*
X142993698Y-104316413D01*
X142839198Y-104428663D01*
X142835887Y-104432342D01*
X142793500Y-104463137D01*
X142742252Y-104474030D01*
X142641898Y-104474030D01*
X142590649Y-104463137D01*
X142548262Y-104432341D01*
X142510306Y-104390187D01*
X142408763Y-104316412D01*
X142355806Y-104277936D01*
X142181342Y-104200260D01*
X141994541Y-104160554D01*
X141803567Y-104160554D01*
X141690807Y-104184522D01*
X141616765Y-104200260D01*
X141442300Y-104277937D01*
X141277087Y-104397972D01*
X141275692Y-104396052D01*
X141253043Y-104412505D01*
X141201802Y-104423395D01*
X141036846Y-104423395D01*
X140985598Y-104412502D01*
X140943211Y-104381707D01*
X140939899Y-104378028D01*
X140785399Y-104265778D01*
X140785398Y-104265777D01*
X140610934Y-104188101D01*
X140424133Y-104148395D01*
X140233159Y-104148395D01*
X140108624Y-104174865D01*
X140046357Y-104188101D01*
X139871892Y-104265778D01*
X139717392Y-104378028D01*
X139714081Y-104381707D01*
X139671694Y-104412502D01*
X139620446Y-104423395D01*
X131861521Y-104423395D01*
X131813303Y-104413804D01*
X131772426Y-104386490D01*
X127576001Y-100190065D01*
X127544602Y-100137809D01*
X127541411Y-100076928D01*
X127567176Y-100021675D01*
X127615865Y-99984986D01*
X127676078Y-99975450D01*
X127693508Y-99976975D01*
X127921595Y-99957020D01*
X128142751Y-99897761D01*
X128350257Y-99801000D01*
X128537808Y-99669675D01*
X128699706Y-99507777D01*
X128831031Y-99320226D01*
X128849312Y-99281020D01*
X128895808Y-99228002D01*
X128963508Y-99208269D01*
X129031208Y-99228002D01*
X129077703Y-99281020D01*
X129095984Y-99320225D01*
X129227312Y-99507780D01*
X129389204Y-99669672D01*
X129576757Y-99800999D01*
X129784264Y-99897761D01*
X129838129Y-99912194D01*
X130005421Y-99957020D01*
X130233508Y-99976975D01*
X130461595Y-99957020D01*
X130682751Y-99897761D01*
X130890257Y-99801000D01*
X131077808Y-99669675D01*
X131239706Y-99507777D01*
X131371031Y-99320226D01*
X131389312Y-99281020D01*
X131435808Y-99228002D01*
X131503508Y-99208269D01*
X131571208Y-99228002D01*
X131617703Y-99281020D01*
X131635984Y-99320225D01*
X131767312Y-99507780D01*
X131929204Y-99669672D01*
X132116757Y-99800999D01*
X132324264Y-99897761D01*
X132378129Y-99912194D01*
X132545421Y-99957020D01*
X132773508Y-99976975D01*
X133001595Y-99957020D01*
X133222751Y-99897761D01*
X133430257Y-99801000D01*
X133617808Y-99669675D01*
X133779706Y-99507777D01*
X133911031Y-99320226D01*
X133929312Y-99281020D01*
X133975808Y-99228002D01*
X134043508Y-99208269D01*
X134111208Y-99228002D01*
X134157703Y-99281020D01*
X134175984Y-99320225D01*
X134307312Y-99507780D01*
X134469204Y-99669672D01*
X134656757Y-99800999D01*
X134864264Y-99897761D01*
X134918129Y-99912194D01*
X135085421Y-99957020D01*
X135313508Y-99976975D01*
X135541595Y-99957020D01*
X135762751Y-99897761D01*
X135970257Y-99801000D01*
X136157808Y-99669675D01*
X136319706Y-99507777D01*
X136451031Y-99320226D01*
X136469312Y-99281020D01*
X136515808Y-99228002D01*
X136583508Y-99208269D01*
X136651208Y-99228002D01*
X136697703Y-99281020D01*
X136715984Y-99320225D01*
X136847312Y-99507780D01*
X137009204Y-99669672D01*
X137196757Y-99800999D01*
X137404264Y-99897761D01*
X137458129Y-99912194D01*
X137625421Y-99957020D01*
X137853508Y-99976975D01*
X138081595Y-99957020D01*
X138302751Y-99897761D01*
X138510257Y-99801000D01*
X138697808Y-99669675D01*
X138859706Y-99507777D01*
X138991031Y-99320226D01*
X139087792Y-99112720D01*
X139101918Y-99060000D01*
X146406496Y-99060000D01*
X146412811Y-99120083D01*
X146426458Y-99249929D01*
X146485472Y-99431556D01*
X146580958Y-99596942D01*
X146646447Y-99669675D01*
X146708747Y-99738866D01*
X146863248Y-99851118D01*
X147037712Y-99928794D01*
X147224513Y-99968500D01*
X147280406Y-99968500D01*
X147328624Y-99978091D01*
X147369501Y-100005405D01*
X151096679Y-103732583D01*
X151128158Y-103785102D01*
X151151146Y-103860884D01*
X151166424Y-103911247D01*
X151251325Y-104070087D01*
X151261460Y-104089047D01*
X151276338Y-104148443D01*
X151261460Y-104207839D01*
X151166423Y-104385640D01*
X151108756Y-104575741D01*
X151089284Y-104773443D01*
X151108756Y-104971144D01*
X151142444Y-105082196D01*
X151166424Y-105161247D01*
X151260070Y-105336447D01*
X151260072Y-105336449D01*
X151261460Y-105339046D01*
X151276338Y-105398442D01*
X151261460Y-105457838D01*
X151166423Y-105635640D01*
X151108756Y-105825741D01*
X151089284Y-106023442D01*
X151108756Y-106221144D01*
X151142444Y-106332196D01*
X151166424Y-106411247D01*
X151225782Y-106522299D01*
X151261460Y-106589047D01*
X151276338Y-106648443D01*
X151261460Y-106707839D01*
X151166423Y-106885640D01*
X151108756Y-107075741D01*
X151089284Y-107273443D01*
X151108756Y-107471144D01*
X151142444Y-107582196D01*
X151166424Y-107661247D01*
X151225782Y-107772299D01*
X151261460Y-107839047D01*
X151276338Y-107898443D01*
X151261460Y-107957839D01*
X151166423Y-108135640D01*
X151108756Y-108325741D01*
X151089284Y-108523442D01*
X151108756Y-108721139D01*
X151108756Y-108721141D01*
X151108757Y-108721144D01*
X151165243Y-108907353D01*
X151168906Y-108919428D01*
X151172429Y-108977817D01*
X151158324Y-109010423D01*
X151158550Y-109010507D01*
X151101170Y-109164349D01*
X151094665Y-109224854D01*
X151094665Y-109519443D01*
X151920017Y-109519443D01*
X151932366Y-109520049D01*
X151966546Y-109523416D01*
X152053116Y-109531943D01*
X152053118Y-109531943D01*
X152652212Y-109531943D01*
X152652214Y-109531943D01*
X152738783Y-109523416D01*
X152772963Y-109520049D01*
X152785313Y-109519443D01*
X153610665Y-109519443D01*
X153610665Y-109224854D01*
X153604159Y-109164349D01*
X153546780Y-109010507D01*
X153547005Y-109010422D01*
X153532902Y-108977824D01*
X153536424Y-108919429D01*
X153596573Y-108721144D01*
X153616045Y-108523442D01*
X153596573Y-108325741D01*
X153538906Y-108135640D01*
X153538906Y-108135639D01*
X153445260Y-107960439D01*
X153445259Y-107960438D01*
X153443870Y-107957839D01*
X153428992Y-107898443D01*
X153443870Y-107839047D01*
X153445260Y-107836447D01*
X153538906Y-107661247D01*
X153596573Y-107471144D01*
X153616045Y-107273443D01*
X153596573Y-107075742D01*
X153538906Y-106885639D01*
X153445260Y-106710439D01*
X153445259Y-106710438D01*
X153443870Y-106707839D01*
X153428992Y-106648443D01*
X153443870Y-106589047D01*
X153445260Y-106586447D01*
X153538906Y-106411247D01*
X153596573Y-106221144D01*
X153616045Y-106023443D01*
X153607614Y-105937847D01*
X153596573Y-105825741D01*
X153558820Y-105701288D01*
X153538906Y-105635639D01*
X153445260Y-105460439D01*
X153445259Y-105460438D01*
X153443870Y-105457839D01*
X153428992Y-105398443D01*
X153443870Y-105339047D01*
X153466100Y-105297458D01*
X153538906Y-105161247D01*
X153596573Y-104971144D01*
X153616045Y-104773443D01*
X153612355Y-104735974D01*
X153596573Y-104575741D01*
X153547450Y-104413804D01*
X153538906Y-104385639D01*
X153445260Y-104210439D01*
X153445259Y-104210438D01*
X153443870Y-104207839D01*
X153428992Y-104148443D01*
X153443870Y-104089047D01*
X153445260Y-104086447D01*
X153538906Y-103911247D01*
X153596573Y-103721144D01*
X153616045Y-103523443D01*
X153611874Y-103481099D01*
X153596573Y-103325741D01*
X153538906Y-103135640D01*
X153538906Y-103135639D01*
X153464478Y-102996394D01*
X153445258Y-102960435D01*
X153319233Y-102806874D01*
X153165672Y-102680849D01*
X152990467Y-102587201D01*
X152800366Y-102529534D01*
X152652215Y-102514943D01*
X152652212Y-102514943D01*
X152053118Y-102514943D01*
X152053115Y-102514943D01*
X151904964Y-102529534D01*
X151808798Y-102558705D01*
X151741608Y-102560354D01*
X151683129Y-102527225D01*
X148267121Y-99111216D01*
X148242490Y-99076365D01*
X148230907Y-99035296D01*
X148213542Y-98870072D01*
X148154527Y-98688444D01*
X148154527Y-98688443D01*
X148059041Y-98523057D01*
X147931252Y-98381133D01*
X147776753Y-98268883D01*
X147776752Y-98268882D01*
X147602288Y-98191206D01*
X147415487Y-98151500D01*
X147224513Y-98151500D01*
X147099979Y-98177970D01*
X147037711Y-98191206D01*
X146863246Y-98268883D01*
X146708747Y-98381133D01*
X146580958Y-98523057D01*
X146485472Y-98688443D01*
X146426458Y-98870070D01*
X146414964Y-98979427D01*
X146406496Y-99060000D01*
X139101918Y-99060000D01*
X139147051Y-98891564D01*
X139167006Y-98663477D01*
X139147051Y-98435390D01*
X139087792Y-98214234D01*
X138991031Y-98006728D01*
X138960883Y-97963673D01*
X138859703Y-97819173D01*
X138697811Y-97657281D01*
X138510258Y-97525954D01*
X138302751Y-97429192D01*
X138169456Y-97393476D01*
X149710081Y-97393476D01*
X149729765Y-97681251D01*
X149788453Y-97963674D01*
X149885050Y-98235474D01*
X150017752Y-98491576D01*
X150184099Y-98727235D01*
X150380984Y-98938047D01*
X150604730Y-99120079D01*
X150604734Y-99120081D01*
X150604736Y-99120083D01*
X150851194Y-99269958D01*
X151115764Y-99384877D01*
X151393519Y-99462700D01*
X151393521Y-99462700D01*
X151393524Y-99462701D01*
X151679279Y-99501977D01*
X151679283Y-99501977D01*
X151967733Y-99501977D01*
X151967737Y-99501977D01*
X152253491Y-99462701D01*
X152253492Y-99462700D01*
X152253497Y-99462700D01*
X152531252Y-99384877D01*
X152795822Y-99269958D01*
X153042280Y-99120083D01*
X153266034Y-98938045D01*
X153462917Y-98727235D01*
X153629261Y-98491580D01*
X153658377Y-98435389D01*
X153761965Y-98235474D01*
X153810485Y-98098951D01*
X153858563Y-97963673D01*
X153917250Y-97681255D01*
X153936935Y-97393477D01*
X153917250Y-97105699D01*
X153858563Y-96823281D01*
X153769836Y-96573625D01*
X153761965Y-96551479D01*
X153629263Y-96295377D01*
X153537382Y-96165212D01*
X153462917Y-96059719D01*
X153266034Y-95848909D01*
X153266033Y-95848908D01*
X153266031Y-95848906D01*
X153042285Y-95666874D01*
X152795820Y-95516995D01*
X152531252Y-95402077D01*
X152253491Y-95324252D01*
X151967737Y-95284977D01*
X151967733Y-95284977D01*
X151679283Y-95284977D01*
X151679279Y-95284977D01*
X151393524Y-95324252D01*
X151115763Y-95402077D01*
X150851195Y-95516995D01*
X150604730Y-95666874D01*
X150380984Y-95848906D01*
X150184099Y-96059718D01*
X150017752Y-96295377D01*
X149885050Y-96551479D01*
X149788453Y-96823279D01*
X149729765Y-97105702D01*
X149710081Y-97393476D01*
X138169456Y-97393476D01*
X138081595Y-97369934D01*
X137853508Y-97349979D01*
X137625420Y-97369934D01*
X137404264Y-97429192D01*
X137196757Y-97525954D01*
X137009204Y-97657281D01*
X136847312Y-97819173D01*
X136715985Y-98006727D01*
X136697703Y-98045934D01*
X136651208Y-98098951D01*
X136583508Y-98118684D01*
X136515808Y-98098951D01*
X136469313Y-98045934D01*
X136467402Y-98041836D01*
X136451031Y-98006728D01*
X136319706Y-97819177D01*
X136319705Y-97819176D01*
X136319703Y-97819173D01*
X136157811Y-97657281D01*
X135970258Y-97525954D01*
X135762751Y-97429192D01*
X135541595Y-97369934D01*
X135313508Y-97349979D01*
X135085420Y-97369934D01*
X134864264Y-97429192D01*
X134656757Y-97525954D01*
X134469204Y-97657281D01*
X134307312Y-97819173D01*
X134175985Y-98006727D01*
X134157703Y-98045934D01*
X134111208Y-98098951D01*
X134043508Y-98118684D01*
X133975808Y-98098951D01*
X133929313Y-98045934D01*
X133927402Y-98041836D01*
X133911031Y-98006728D01*
X133779706Y-97819177D01*
X133779705Y-97819176D01*
X133779703Y-97819173D01*
X133617811Y-97657281D01*
X133430258Y-97525954D01*
X133222751Y-97429192D01*
X133001595Y-97369934D01*
X132773508Y-97349979D01*
X132545420Y-97369934D01*
X132324264Y-97429192D01*
X132116757Y-97525954D01*
X131929204Y-97657281D01*
X131767312Y-97819173D01*
X131635985Y-98006727D01*
X131617703Y-98045934D01*
X131571208Y-98098951D01*
X131503508Y-98118684D01*
X131435808Y-98098951D01*
X131389313Y-98045934D01*
X131387402Y-98041836D01*
X131371031Y-98006728D01*
X131239706Y-97819177D01*
X131239705Y-97819176D01*
X131239703Y-97819173D01*
X131077811Y-97657281D01*
X130890258Y-97525954D01*
X130682751Y-97429192D01*
X130461595Y-97369934D01*
X130233508Y-97349979D01*
X130005420Y-97369934D01*
X129784264Y-97429192D01*
X129576757Y-97525954D01*
X129389204Y-97657281D01*
X129227312Y-97819173D01*
X129095985Y-98006727D01*
X129077703Y-98045934D01*
X129031208Y-98098951D01*
X128963508Y-98118684D01*
X128895808Y-98098951D01*
X128849313Y-98045934D01*
X128847402Y-98041836D01*
X128831031Y-98006728D01*
X128699706Y-97819177D01*
X128699705Y-97819176D01*
X128699703Y-97819173D01*
X128537811Y-97657281D01*
X128350258Y-97525954D01*
X128142751Y-97429192D01*
X127921595Y-97369934D01*
X127693508Y-97349979D01*
X127465420Y-97369934D01*
X127244264Y-97429192D01*
X127036757Y-97525954D01*
X126849204Y-97657281D01*
X126687312Y-97819173D01*
X126555985Y-98006727D01*
X126537703Y-98045934D01*
X126491208Y-98098951D01*
X126423508Y-98118684D01*
X126355808Y-98098951D01*
X126309313Y-98045934D01*
X126307402Y-98041836D01*
X126291031Y-98006728D01*
X126159706Y-97819177D01*
X126159705Y-97819176D01*
X126159703Y-97819173D01*
X125997811Y-97657281D01*
X125810258Y-97525954D01*
X125602751Y-97429192D01*
X125381595Y-97369934D01*
X125153508Y-97349979D01*
X124925420Y-97369934D01*
X124704264Y-97429192D01*
X124496757Y-97525954D01*
X124309204Y-97657281D01*
X124147312Y-97819173D01*
X124015985Y-98006727D01*
X123997703Y-98045934D01*
X123951208Y-98098951D01*
X123883508Y-98118684D01*
X123815808Y-98098951D01*
X123769313Y-98045934D01*
X123767402Y-98041836D01*
X123751031Y-98006728D01*
X123619706Y-97819177D01*
X123619705Y-97819176D01*
X123619703Y-97819173D01*
X123457811Y-97657281D01*
X123270258Y-97525954D01*
X123062751Y-97429192D01*
X122841595Y-97369934D01*
X122613508Y-97349979D01*
X122385420Y-97369934D01*
X122164264Y-97429192D01*
X121956757Y-97525954D01*
X121769204Y-97657281D01*
X121607312Y-97819173D01*
X121475985Y-98006727D01*
X121457703Y-98045934D01*
X121411208Y-98098951D01*
X121343508Y-98118684D01*
X121275808Y-98098951D01*
X121229313Y-98045934D01*
X121227402Y-98041836D01*
X121211031Y-98006728D01*
X121079706Y-97819177D01*
X121079705Y-97819176D01*
X121079703Y-97819173D01*
X120917811Y-97657281D01*
X120730258Y-97525954D01*
X120522751Y-97429192D01*
X120301595Y-97369934D01*
X120073508Y-97349979D01*
X119845420Y-97369934D01*
X119624264Y-97429192D01*
X119416757Y-97525954D01*
X119229204Y-97657281D01*
X119067312Y-97819173D01*
X118935985Y-98006727D01*
X118917703Y-98045934D01*
X118871208Y-98098951D01*
X118803508Y-98118684D01*
X118735808Y-98098951D01*
X118689313Y-98045934D01*
X118687402Y-98041836D01*
X118671031Y-98006728D01*
X118539706Y-97819177D01*
X118539705Y-97819176D01*
X118539703Y-97819173D01*
X118377811Y-97657281D01*
X118190258Y-97525954D01*
X117982751Y-97429192D01*
X117761595Y-97369934D01*
X117533508Y-97349979D01*
X117305420Y-97369934D01*
X117084264Y-97429192D01*
X116876757Y-97525954D01*
X116689204Y-97657281D01*
X116527312Y-97819173D01*
X116395985Y-98006727D01*
X116377703Y-98045934D01*
X116331208Y-98098951D01*
X116263508Y-98118684D01*
X116195808Y-98098951D01*
X116149313Y-98045934D01*
X116147402Y-98041836D01*
X116131031Y-98006728D01*
X115999706Y-97819177D01*
X115999705Y-97819176D01*
X115999703Y-97819173D01*
X115837811Y-97657281D01*
X115650258Y-97525954D01*
X115442751Y-97429192D01*
X115221595Y-97369934D01*
X114993508Y-97349979D01*
X114765420Y-97369934D01*
X114544264Y-97429192D01*
X114336757Y-97525954D01*
X114149204Y-97657281D01*
X113987312Y-97819173D01*
X113855985Y-98006727D01*
X113837703Y-98045934D01*
X113791208Y-98098951D01*
X113723508Y-98118684D01*
X113655808Y-98098951D01*
X113609313Y-98045934D01*
X113607402Y-98041836D01*
X113591031Y-98006728D01*
X113459706Y-97819177D01*
X113459705Y-97819176D01*
X113459703Y-97819173D01*
X113297811Y-97657281D01*
X113110258Y-97525954D01*
X112902751Y-97429192D01*
X112681595Y-97369934D01*
X112453508Y-97349979D01*
X112225420Y-97369934D01*
X112004264Y-97429192D01*
X111796757Y-97525954D01*
X111609204Y-97657281D01*
X111447312Y-97819173D01*
X111315985Y-98006727D01*
X111297703Y-98045934D01*
X111251208Y-98098951D01*
X111183508Y-98118684D01*
X111115808Y-98098951D01*
X111069313Y-98045934D01*
X111067402Y-98041836D01*
X111051031Y-98006728D01*
X110919706Y-97819177D01*
X110919705Y-97819176D01*
X110919703Y-97819173D01*
X110757811Y-97657281D01*
X110570258Y-97525954D01*
X110362751Y-97429192D01*
X110141595Y-97369934D01*
X109913508Y-97349979D01*
X109685420Y-97369934D01*
X109464264Y-97429192D01*
X109256757Y-97525954D01*
X109069204Y-97657281D01*
X108907312Y-97819173D01*
X108775985Y-98006726D01*
X108679223Y-98214233D01*
X108619965Y-98435389D01*
X108600010Y-98663476D01*
X108188500Y-98663476D01*
X108188500Y-97257772D01*
X108196099Y-97214677D01*
X108217979Y-97176781D01*
X108308876Y-97068454D01*
X108308877Y-97068452D01*
X108308879Y-97068450D01*
X108457731Y-96830236D01*
X108571982Y-96573625D01*
X108649407Y-96303610D01*
X108688500Y-96025448D01*
X108688500Y-85781854D01*
X108688500Y-84462886D01*
X127968041Y-84462886D01*
X127988003Y-84652816D01*
X128047017Y-84834443D01*
X128142503Y-84999829D01*
X128142505Y-84999831D01*
X128270292Y-85141753D01*
X128424793Y-85254005D01*
X128599257Y-85331681D01*
X128786058Y-85371387D01*
X128873293Y-85371387D01*
X128921511Y-85380978D01*
X128962388Y-85408292D01*
X134942877Y-91388782D01*
X134967508Y-91423632D01*
X134979092Y-91464706D01*
X134996458Y-91629929D01*
X135055472Y-91811556D01*
X135150958Y-91976942D01*
X135150960Y-91976944D01*
X135278747Y-92118866D01*
X135433248Y-92231118D01*
X135607712Y-92308794D01*
X135794513Y-92348500D01*
X135985485Y-92348500D01*
X135985487Y-92348500D01*
X136172288Y-92308794D01*
X136346752Y-92231118D01*
X136501253Y-92118866D01*
X136629040Y-91976944D01*
X136724527Y-91811556D01*
X136783542Y-91629928D01*
X136803504Y-91440000D01*
X136783542Y-91250072D01*
X136724527Y-91068444D01*
X136724527Y-91068443D01*
X136629041Y-90903057D01*
X136501252Y-90761133D01*
X136346753Y-90648883D01*
X136346752Y-90648882D01*
X136172288Y-90571206D01*
X135985487Y-90531500D01*
X135985485Y-90531500D01*
X135929594Y-90531500D01*
X135881376Y-90521909D01*
X135840499Y-90494595D01*
X129824985Y-84479080D01*
X129800354Y-84444229D01*
X129788770Y-84403154D01*
X129775087Y-84272959D01*
X129716071Y-84091329D01*
X129620586Y-83925944D01*
X129492797Y-83784020D01*
X129338298Y-83671770D01*
X129338297Y-83671769D01*
X129163833Y-83594093D01*
X128977032Y-83554387D01*
X128786058Y-83554387D01*
X128661524Y-83580857D01*
X128599256Y-83594093D01*
X128424791Y-83671770D01*
X128270292Y-83784020D01*
X128142503Y-83925944D01*
X128047017Y-84091330D01*
X127988003Y-84272957D01*
X127968041Y-84462886D01*
X108688500Y-84462886D01*
X108688500Y-80574854D01*
X108673811Y-80364788D01*
X108615409Y-80090030D01*
X108546699Y-79901251D01*
X108519338Y-79826076D01*
X108387464Y-79578057D01*
X108280313Y-79430577D01*
X109185618Y-79430577D01*
X109257005Y-79480562D01*
X109464437Y-79577290D01*
X109685508Y-79636525D01*
X109913508Y-79656472D01*
X110141507Y-79636525D01*
X110362578Y-79577290D01*
X110570006Y-79480564D01*
X110641396Y-79430576D01*
X110641396Y-79430574D01*
X109913509Y-78702687D01*
X109913508Y-78702687D01*
X109185618Y-79430575D01*
X109185618Y-79430577D01*
X108280313Y-79430577D01*
X108217179Y-79343680D01*
X108217887Y-79343165D01*
X108197675Y-79312040D01*
X108188500Y-79264840D01*
X108188500Y-78401032D01*
X108198091Y-78352814D01*
X108225404Y-78311937D01*
X108257623Y-78279718D01*
X108394715Y-78142625D01*
X108446967Y-78111229D01*
X108507848Y-78108038D01*
X108563101Y-78133802D01*
X108599790Y-78182490D01*
X108609328Y-78242703D01*
X108600512Y-78343476D01*
X108620459Y-78571476D01*
X108679694Y-78792547D01*
X108776420Y-78999974D01*
X108826408Y-79071365D01*
X109554296Y-78343478D01*
X110272718Y-78343478D01*
X111000605Y-79071365D01*
X111000607Y-79071365D01*
X111050596Y-78999974D01*
X111069037Y-78960428D01*
X111115532Y-78907410D01*
X111183232Y-78887677D01*
X111250932Y-78907410D01*
X111297427Y-78960428D01*
X111315984Y-79000225D01*
X111447312Y-79187780D01*
X111609204Y-79349672D01*
X111796757Y-79480999D01*
X112004264Y-79577761D01*
X112063523Y-79593639D01*
X112225421Y-79637020D01*
X112453508Y-79656975D01*
X112681595Y-79637020D01*
X112902751Y-79577761D01*
X113110257Y-79481000D01*
X113297808Y-79349675D01*
X113459706Y-79187777D01*
X113591031Y-79000226D01*
X113609312Y-78961020D01*
X113655808Y-78908002D01*
X113723508Y-78888269D01*
X113791208Y-78908002D01*
X113837703Y-78961020D01*
X113855984Y-79000225D01*
X113987312Y-79187780D01*
X114149204Y-79349672D01*
X114336757Y-79480999D01*
X114544264Y-79577761D01*
X114603523Y-79593639D01*
X114765421Y-79637020D01*
X114993508Y-79656975D01*
X115221595Y-79637020D01*
X115442751Y-79577761D01*
X115650257Y-79481000D01*
X115837808Y-79349675D01*
X115999706Y-79187777D01*
X116131031Y-79000226D01*
X116149312Y-78961020D01*
X116195808Y-78908002D01*
X116263508Y-78888269D01*
X116331208Y-78908002D01*
X116377703Y-78961020D01*
X116395984Y-79000225D01*
X116527312Y-79187780D01*
X116689204Y-79349672D01*
X116876757Y-79480999D01*
X117084264Y-79577761D01*
X117143523Y-79593639D01*
X117305421Y-79637020D01*
X117533508Y-79656975D01*
X117761595Y-79637020D01*
X117982751Y-79577761D01*
X118190257Y-79481000D01*
X118377808Y-79349675D01*
X118539706Y-79187777D01*
X118671031Y-79000226D01*
X118689312Y-78961020D01*
X118735808Y-78908002D01*
X118803508Y-78888269D01*
X118871208Y-78908002D01*
X118917703Y-78961020D01*
X118935984Y-79000225D01*
X119067312Y-79187780D01*
X119229204Y-79349672D01*
X119416757Y-79480999D01*
X119624264Y-79577761D01*
X119683523Y-79593639D01*
X119845421Y-79637020D01*
X120073508Y-79656975D01*
X120301595Y-79637020D01*
X120522751Y-79577761D01*
X120730257Y-79481000D01*
X120917808Y-79349675D01*
X121079706Y-79187777D01*
X121211031Y-79000226D01*
X121229312Y-78961020D01*
X121275808Y-78908002D01*
X121343508Y-78888269D01*
X121411208Y-78908002D01*
X121457703Y-78961020D01*
X121475984Y-79000225D01*
X121607312Y-79187780D01*
X121769204Y-79349672D01*
X121956757Y-79480999D01*
X122164264Y-79577761D01*
X122223523Y-79593639D01*
X122385421Y-79637020D01*
X122613508Y-79656975D01*
X122841595Y-79637020D01*
X123062751Y-79577761D01*
X123270257Y-79481000D01*
X123457808Y-79349675D01*
X123619706Y-79187777D01*
X123751031Y-79000226D01*
X123769312Y-78961020D01*
X123815808Y-78908002D01*
X123883508Y-78888269D01*
X123951208Y-78908002D01*
X123997703Y-78961020D01*
X124015984Y-79000225D01*
X124147312Y-79187780D01*
X124309204Y-79349672D01*
X124496757Y-79480999D01*
X124704264Y-79577761D01*
X124763523Y-79593639D01*
X124925421Y-79637020D01*
X125153508Y-79656975D01*
X125381595Y-79637020D01*
X125602751Y-79577761D01*
X125810257Y-79481000D01*
X125997808Y-79349675D01*
X126159706Y-79187777D01*
X126291031Y-79000226D01*
X126309312Y-78961020D01*
X126355808Y-78908002D01*
X126423508Y-78888269D01*
X126491208Y-78908002D01*
X126537703Y-78961020D01*
X126555984Y-79000225D01*
X126687312Y-79187780D01*
X126849204Y-79349672D01*
X127036757Y-79480999D01*
X127244264Y-79577761D01*
X127303523Y-79593639D01*
X127465421Y-79637020D01*
X127693508Y-79656975D01*
X127921595Y-79637020D01*
X128142751Y-79577761D01*
X128350257Y-79481000D01*
X128537808Y-79349675D01*
X128699706Y-79187777D01*
X128831031Y-79000226D01*
X128849312Y-78961020D01*
X128895808Y-78908002D01*
X128963508Y-78888269D01*
X129031208Y-78908002D01*
X129077703Y-78961020D01*
X129095984Y-79000225D01*
X129227312Y-79187780D01*
X129389204Y-79349672D01*
X129576757Y-79480999D01*
X129784264Y-79577761D01*
X129843523Y-79593639D01*
X130005421Y-79637020D01*
X130233508Y-79656975D01*
X130461595Y-79637020D01*
X130682751Y-79577761D01*
X130890257Y-79481000D01*
X131077808Y-79349675D01*
X131239706Y-79187777D01*
X131371031Y-79000226D01*
X131389312Y-78961020D01*
X131435808Y-78908002D01*
X131503508Y-78888269D01*
X131571208Y-78908002D01*
X131617703Y-78961020D01*
X131635984Y-79000225D01*
X131767312Y-79187780D01*
X131929204Y-79349672D01*
X132116757Y-79480999D01*
X132324264Y-79577761D01*
X132383523Y-79593639D01*
X132545421Y-79637020D01*
X132773508Y-79656975D01*
X133001595Y-79637020D01*
X133222751Y-79577761D01*
X133430257Y-79481000D01*
X133617808Y-79349675D01*
X133779706Y-79187777D01*
X133911031Y-79000226D01*
X133929312Y-78961020D01*
X133975808Y-78908002D01*
X134043508Y-78888269D01*
X134111208Y-78908002D01*
X134157703Y-78961020D01*
X134175984Y-79000225D01*
X134307312Y-79187780D01*
X134469204Y-79349672D01*
X134656757Y-79480999D01*
X134864264Y-79577761D01*
X134923523Y-79593639D01*
X135085421Y-79637020D01*
X135313508Y-79656975D01*
X135541595Y-79637020D01*
X135762751Y-79577761D01*
X135970257Y-79481000D01*
X136157808Y-79349675D01*
X136319706Y-79187777D01*
X136451031Y-79000226D01*
X136469312Y-78961020D01*
X136515808Y-78908002D01*
X136583508Y-78888269D01*
X136651208Y-78908002D01*
X136697703Y-78961020D01*
X136715984Y-79000225D01*
X136847312Y-79187780D01*
X137009204Y-79349672D01*
X137196757Y-79480999D01*
X137404264Y-79577761D01*
X137463523Y-79593639D01*
X137625421Y-79637020D01*
X137853508Y-79656975D01*
X138081595Y-79637020D01*
X138302751Y-79577761D01*
X138510257Y-79481000D01*
X138697808Y-79349675D01*
X138859706Y-79187777D01*
X138991031Y-79000226D01*
X139009588Y-78960428D01*
X139056084Y-78907410D01*
X139123783Y-78887677D01*
X139191483Y-78907410D01*
X139237979Y-78960427D01*
X139256420Y-78999974D01*
X139306408Y-79071364D01*
X140034298Y-78343477D01*
X140034298Y-78343476D01*
X139306408Y-77615586D01*
X139256419Y-77686979D01*
X139237978Y-77726527D01*
X139191483Y-77779544D01*
X139123783Y-77799276D01*
X139056084Y-77779543D01*
X139009589Y-77726526D01*
X138992176Y-77689184D01*
X138991031Y-77686728D01*
X138859706Y-77499177D01*
X138859705Y-77499176D01*
X138859703Y-77499173D01*
X138697811Y-77337281D01*
X138510258Y-77205954D01*
X138302751Y-77109192D01*
X138081595Y-77049934D01*
X137853508Y-77029979D01*
X137625420Y-77049934D01*
X137404264Y-77109192D01*
X137196757Y-77205954D01*
X137009204Y-77337281D01*
X136847312Y-77499173D01*
X136715985Y-77686727D01*
X136697703Y-77725934D01*
X136651208Y-77778951D01*
X136583508Y-77798684D01*
X136515808Y-77778951D01*
X136469313Y-77725934D01*
X136452176Y-77689184D01*
X136451031Y-77686728D01*
X136319706Y-77499177D01*
X136319705Y-77499176D01*
X136319703Y-77499173D01*
X136157811Y-77337281D01*
X135970258Y-77205954D01*
X135762751Y-77109192D01*
X135541595Y-77049934D01*
X135313508Y-77029979D01*
X135085420Y-77049934D01*
X134864264Y-77109192D01*
X134656757Y-77205954D01*
X134469204Y-77337281D01*
X134307312Y-77499173D01*
X134175985Y-77686727D01*
X134157703Y-77725934D01*
X134111208Y-77778951D01*
X134043508Y-77798684D01*
X133975808Y-77778951D01*
X133929313Y-77725934D01*
X133912176Y-77689184D01*
X133911031Y-77686728D01*
X133779706Y-77499177D01*
X133779705Y-77499176D01*
X133779703Y-77499173D01*
X133617811Y-77337281D01*
X133430258Y-77205954D01*
X133222751Y-77109192D01*
X133001595Y-77049934D01*
X132773508Y-77029979D01*
X132545420Y-77049934D01*
X132324264Y-77109192D01*
X132116757Y-77205954D01*
X131929204Y-77337281D01*
X131767312Y-77499173D01*
X131635985Y-77686727D01*
X131617703Y-77725934D01*
X131571208Y-77778951D01*
X131503508Y-77798684D01*
X131435808Y-77778951D01*
X131389313Y-77725934D01*
X131372176Y-77689184D01*
X131371031Y-77686728D01*
X131239706Y-77499177D01*
X131239705Y-77499176D01*
X131239703Y-77499173D01*
X131077811Y-77337281D01*
X130890258Y-77205954D01*
X130682751Y-77109192D01*
X130461595Y-77049934D01*
X130233508Y-77029979D01*
X130005420Y-77049934D01*
X129784264Y-77109192D01*
X129576757Y-77205954D01*
X129389204Y-77337281D01*
X129227312Y-77499173D01*
X129095985Y-77686727D01*
X129077703Y-77725934D01*
X129031208Y-77778951D01*
X128963508Y-77798684D01*
X128895808Y-77778951D01*
X128849313Y-77725934D01*
X128832176Y-77689184D01*
X128831031Y-77686728D01*
X128699706Y-77499177D01*
X128699705Y-77499176D01*
X128699703Y-77499173D01*
X128537811Y-77337281D01*
X128350258Y-77205954D01*
X128142751Y-77109192D01*
X127921595Y-77049934D01*
X127693508Y-77029979D01*
X127465420Y-77049934D01*
X127244264Y-77109192D01*
X127036757Y-77205954D01*
X126849204Y-77337281D01*
X126687312Y-77499173D01*
X126555985Y-77686727D01*
X126537703Y-77725934D01*
X126491208Y-77778951D01*
X126423508Y-77798684D01*
X126355808Y-77778951D01*
X126309313Y-77725934D01*
X126292176Y-77689184D01*
X126291031Y-77686728D01*
X126159706Y-77499177D01*
X126159705Y-77499176D01*
X126159703Y-77499173D01*
X125997811Y-77337281D01*
X125810258Y-77205954D01*
X125602751Y-77109192D01*
X125381595Y-77049934D01*
X125153508Y-77029979D01*
X124925420Y-77049934D01*
X124704264Y-77109192D01*
X124496757Y-77205954D01*
X124309204Y-77337281D01*
X124147312Y-77499173D01*
X124015985Y-77686727D01*
X123997703Y-77725934D01*
X123951208Y-77778951D01*
X123883508Y-77798684D01*
X123815808Y-77778951D01*
X123769313Y-77725934D01*
X123752176Y-77689184D01*
X123751031Y-77686728D01*
X123619706Y-77499177D01*
X123619705Y-77499176D01*
X123619703Y-77499173D01*
X123457811Y-77337281D01*
X123270258Y-77205954D01*
X123062751Y-77109192D01*
X122841595Y-77049934D01*
X122613508Y-77029979D01*
X122385420Y-77049934D01*
X122164264Y-77109192D01*
X121956757Y-77205954D01*
X121769204Y-77337281D01*
X121607312Y-77499173D01*
X121475985Y-77686727D01*
X121457703Y-77725934D01*
X121411208Y-77778951D01*
X121343508Y-77798684D01*
X121275808Y-77778951D01*
X121229313Y-77725934D01*
X121212176Y-77689184D01*
X121211031Y-77686728D01*
X121079706Y-77499177D01*
X121079705Y-77499176D01*
X121079703Y-77499173D01*
X120917811Y-77337281D01*
X120730258Y-77205954D01*
X120522751Y-77109192D01*
X120301595Y-77049934D01*
X120073508Y-77029979D01*
X119845420Y-77049934D01*
X119624264Y-77109192D01*
X119416757Y-77205954D01*
X119229204Y-77337281D01*
X119067312Y-77499173D01*
X118935985Y-77686727D01*
X118917703Y-77725934D01*
X118871208Y-77778951D01*
X118803508Y-77798684D01*
X118735808Y-77778951D01*
X118689313Y-77725934D01*
X118672176Y-77689184D01*
X118671031Y-77686728D01*
X118539706Y-77499177D01*
X118539705Y-77499176D01*
X118539703Y-77499173D01*
X118377811Y-77337281D01*
X118190258Y-77205954D01*
X117982751Y-77109192D01*
X117761595Y-77049934D01*
X117533508Y-77029979D01*
X117305420Y-77049934D01*
X117084264Y-77109192D01*
X116876757Y-77205954D01*
X116689204Y-77337281D01*
X116527312Y-77499173D01*
X116395985Y-77686727D01*
X116377703Y-77725934D01*
X116331208Y-77778951D01*
X116263508Y-77798684D01*
X116195808Y-77778951D01*
X116149313Y-77725934D01*
X116132176Y-77689184D01*
X116131031Y-77686728D01*
X115999706Y-77499177D01*
X115999705Y-77499176D01*
X115999703Y-77499173D01*
X115837811Y-77337281D01*
X115650258Y-77205954D01*
X115442751Y-77109192D01*
X115221595Y-77049934D01*
X114993508Y-77029979D01*
X114765420Y-77049934D01*
X114544264Y-77109192D01*
X114336757Y-77205954D01*
X114149204Y-77337281D01*
X113987312Y-77499173D01*
X113855985Y-77686727D01*
X113837703Y-77725934D01*
X113791208Y-77778951D01*
X113723508Y-77798684D01*
X113655808Y-77778951D01*
X113609313Y-77725934D01*
X113592176Y-77689184D01*
X113591031Y-77686728D01*
X113459706Y-77499177D01*
X113459705Y-77499176D01*
X113459703Y-77499173D01*
X113297811Y-77337281D01*
X113110258Y-77205954D01*
X112902751Y-77109192D01*
X112681595Y-77049934D01*
X112453508Y-77029979D01*
X112225420Y-77049934D01*
X112004264Y-77109192D01*
X111796757Y-77205954D01*
X111609204Y-77337281D01*
X111447312Y-77499173D01*
X111315985Y-77686727D01*
X111297427Y-77726526D01*
X111250932Y-77779543D01*
X111183232Y-77799276D01*
X111115532Y-77779543D01*
X111069037Y-77726526D01*
X111050593Y-77686974D01*
X111000608Y-77615587D01*
X111000606Y-77615587D01*
X110272718Y-78343477D01*
X110272718Y-78343478D01*
X109554296Y-78343478D01*
X109913508Y-77984267D01*
X109913509Y-77984266D01*
X110641396Y-77256376D01*
X110570005Y-77206389D01*
X110362578Y-77109663D01*
X110141507Y-77050428D01*
X109913506Y-77030481D01*
X109812733Y-77039297D01*
X109752520Y-77029759D01*
X109703832Y-76993070D01*
X109678068Y-76937817D01*
X109681259Y-76876937D01*
X109712656Y-76824684D01*
X110275040Y-76262299D01*
X110276750Y-76260622D01*
X110352802Y-76187575D01*
X110396302Y-76129685D01*
X110401029Y-76123775D01*
X110447946Y-76068621D01*
X110468344Y-76034878D01*
X110475439Y-76024372D01*
X110499117Y-75992865D01*
X110532763Y-75928755D01*
X110536494Y-75922143D01*
X110573946Y-75860191D01*
X110573947Y-75860189D01*
X110588670Y-75823605D01*
X110593973Y-75812129D01*
X110612304Y-75777205D01*
X110635226Y-75708539D01*
X110637847Y-75701413D01*
X110664882Y-75634243D01*
X110673540Y-75595794D01*
X110676944Y-75583582D01*
X110689431Y-75546182D01*
X110701042Y-75474723D01*
X110702490Y-75467254D01*
X110708113Y-75442287D01*
X110718395Y-75396638D01*
X110720775Y-75357281D01*
X110722173Y-75344703D01*
X110728500Y-75305779D01*
X110728500Y-75233393D01*
X110728730Y-75225785D01*
X110728801Y-75224609D01*
X110733101Y-75153525D01*
X110729138Y-75114299D01*
X110728500Y-75101635D01*
X110728500Y-74234198D01*
X110713810Y-74052237D01*
X110713810Y-74052232D01*
X110655523Y-73815752D01*
X110627502Y-73749985D01*
X137426511Y-73749985D01*
X137446473Y-73939914D01*
X137505487Y-74121541D01*
X137600973Y-74286927D01*
X137600975Y-74286929D01*
X137728762Y-74428851D01*
X137883263Y-74541103D01*
X138057727Y-74618779D01*
X138057728Y-74618779D01*
X138057730Y-74618780D01*
X138120784Y-74632183D01*
X138154709Y-74644698D01*
X138183682Y-74666333D01*
X138336391Y-74819042D01*
X138369419Y-74877121D01*
X138368107Y-74943922D01*
X138332825Y-75000661D01*
X138273494Y-75031383D01*
X138147715Y-75058119D01*
X138147713Y-75058119D01*
X138147712Y-75058120D01*
X137973248Y-75135796D01*
X137973246Y-75135797D01*
X137818747Y-75248047D01*
X137690958Y-75389971D01*
X137595472Y-75555357D01*
X137536458Y-75736984D01*
X137516496Y-75926914D01*
X137536458Y-76116843D01*
X137595472Y-76298470D01*
X137690958Y-76463856D01*
X137690960Y-76463858D01*
X137818747Y-76605780D01*
X137973248Y-76718032D01*
X138147712Y-76795708D01*
X138334513Y-76835414D01*
X138525485Y-76835414D01*
X138525487Y-76835414D01*
X138712288Y-76795708D01*
X138886752Y-76718032D01*
X139041253Y-76605780D01*
X139044564Y-76602102D01*
X139086952Y-76571307D01*
X139138200Y-76560414D01*
X139252651Y-76560414D01*
X139300869Y-76570005D01*
X139341746Y-76597319D01*
X139756583Y-77012156D01*
X139785889Y-77058157D01*
X139793008Y-77112233D01*
X139776607Y-77164252D01*
X139739758Y-77204465D01*
X139665618Y-77256377D01*
X140393508Y-77984266D01*
X140393508Y-77984267D01*
X140663622Y-78254381D01*
X140696234Y-78310865D01*
X140696234Y-78376087D01*
X140663622Y-78432571D01*
X139665618Y-79430574D01*
X139665618Y-79430577D01*
X139737005Y-79480562D01*
X139944437Y-79577290D01*
X140165508Y-79636525D01*
X140393508Y-79656472D01*
X140621507Y-79636525D01*
X140842578Y-79577290D01*
X140996247Y-79505633D01*
X141057738Y-79494098D01*
X141117197Y-79513561D01*
X141159965Y-79559223D01*
X141175497Y-79619828D01*
X141175497Y-80765144D01*
X141173201Y-80785932D01*
X141175435Y-80856983D01*
X141175497Y-80860942D01*
X141175497Y-80888854D01*
X141176004Y-80892870D01*
X141176934Y-80904693D01*
X141178323Y-80948889D01*
X141183974Y-80968338D01*
X141187983Y-80987693D01*
X141190522Y-81007791D01*
X141206798Y-81048900D01*
X141210641Y-81060127D01*
X141222977Y-81102587D01*
X141233291Y-81120027D01*
X141241984Y-81137771D01*
X141249445Y-81156614D01*
X141249446Y-81156616D01*
X141275428Y-81192377D01*
X141281945Y-81202299D01*
X141312207Y-81253469D01*
X141329064Y-81304437D01*
X141346458Y-81469929D01*
X141405472Y-81651556D01*
X141500958Y-81816942D01*
X141500960Y-81816944D01*
X141628747Y-81958866D01*
X141783248Y-82071118D01*
X141957712Y-82148794D01*
X142144513Y-82188500D01*
X142335485Y-82188500D01*
X142335487Y-82188500D01*
X142522288Y-82148794D01*
X142696752Y-82071118D01*
X142851253Y-81958866D01*
X142979040Y-81816944D01*
X143074527Y-81651556D01*
X143133542Y-81469928D01*
X143153504Y-81280000D01*
X143133542Y-81090072D01*
X143093988Y-80968338D01*
X143074527Y-80908443D01*
X142979041Y-80743057D01*
X142851252Y-80601133D01*
X142696752Y-80488882D01*
X142686169Y-80484170D01*
X142522288Y-80411206D01*
X142522285Y-80411205D01*
X142517249Y-80408963D01*
X142477860Y-80381383D01*
X142451672Y-80341057D01*
X142442497Y-80293856D01*
X142442497Y-79730776D01*
X142455491Y-79675048D01*
X142491793Y-79630813D01*
X142543916Y-79607197D01*
X142601107Y-79609068D01*
X142705421Y-79637020D01*
X142933508Y-79656975D01*
X143161595Y-79637020D01*
X143382751Y-79577761D01*
X143590257Y-79481000D01*
X143777808Y-79349675D01*
X143939706Y-79187777D01*
X144071031Y-79000226D01*
X144089312Y-78961020D01*
X144135808Y-78908002D01*
X144203508Y-78888269D01*
X144271208Y-78908002D01*
X144317703Y-78961020D01*
X144335984Y-79000225D01*
X144467312Y-79187780D01*
X144629204Y-79349672D01*
X144816757Y-79480999D01*
X145024264Y-79577761D01*
X145083523Y-79593639D01*
X145245421Y-79637020D01*
X145473508Y-79656975D01*
X145701595Y-79637020D01*
X145922751Y-79577761D01*
X146130257Y-79481000D01*
X146317808Y-79349675D01*
X146479706Y-79187777D01*
X146482015Y-79184479D01*
X146527577Y-79144710D01*
X146586424Y-79130752D01*
X146644996Y-79145823D01*
X146689798Y-79186450D01*
X146710507Y-79243273D01*
X146711519Y-79252678D01*
X146723054Y-79283605D01*
X146762619Y-79389682D01*
X146850246Y-79506738D01*
X146967302Y-79594365D01*
X146967303Y-79594365D01*
X146967304Y-79594366D01*
X147104307Y-79645466D01*
X147164870Y-79651977D01*
X148862146Y-79651977D01*
X148922709Y-79645466D01*
X149008474Y-79613477D01*
X149710081Y-79613477D01*
X149729765Y-79901251D01*
X149788453Y-80183674D01*
X149885050Y-80455474D01*
X150017752Y-80711576D01*
X150156717Y-80908444D01*
X150184099Y-80947235D01*
X150379647Y-81156616D01*
X150380984Y-81158047D01*
X150604730Y-81340079D01*
X150604734Y-81340081D01*
X150604736Y-81340083D01*
X150851194Y-81489958D01*
X151115764Y-81604877D01*
X151393519Y-81682700D01*
X151393521Y-81682700D01*
X151393524Y-81682701D01*
X151679279Y-81721977D01*
X151679283Y-81721977D01*
X151967733Y-81721977D01*
X151967737Y-81721977D01*
X152253491Y-81682701D01*
X152253492Y-81682700D01*
X152253497Y-81682700D01*
X152531252Y-81604877D01*
X152795822Y-81489958D01*
X153042280Y-81340083D01*
X153266034Y-81158045D01*
X153462917Y-80947235D01*
X153629261Y-80711580D01*
X153643791Y-80683537D01*
X153761965Y-80455474D01*
X153761967Y-80455469D01*
X153858563Y-80183673D01*
X153917250Y-79901255D01*
X153936935Y-79613477D01*
X153917250Y-79325699D01*
X153858563Y-79043281D01*
X153769514Y-78792720D01*
X153761965Y-78771479D01*
X153629263Y-78515377D01*
X153494547Y-78324529D01*
X153462917Y-78279719D01*
X153266034Y-78068909D01*
X153266033Y-78068908D01*
X153266031Y-78068906D01*
X153042285Y-77886874D01*
X152831955Y-77758969D01*
X152795822Y-77736996D01*
X152680671Y-77686979D01*
X152531252Y-77622077D01*
X152253491Y-77544252D01*
X151967737Y-77504977D01*
X151967733Y-77504977D01*
X151679283Y-77504977D01*
X151679279Y-77504977D01*
X151393524Y-77544252D01*
X151115763Y-77622077D01*
X150851195Y-77736995D01*
X150604730Y-77886874D01*
X150380984Y-78068906D01*
X150184099Y-78279718D01*
X150017752Y-78515377D01*
X149885050Y-78771479D01*
X149788453Y-79043279D01*
X149729765Y-79325702D01*
X149710081Y-79613477D01*
X149008474Y-79613477D01*
X149059712Y-79594366D01*
X149176769Y-79506738D01*
X149264397Y-79389681D01*
X149315497Y-79252678D01*
X149322008Y-79192115D01*
X149322008Y-77494839D01*
X149315497Y-77434276D01*
X149264397Y-77297273D01*
X149264396Y-77297271D01*
X149176769Y-77180215D01*
X149059713Y-77092588D01*
X148967400Y-77058157D01*
X148922709Y-77041488D01*
X148862146Y-77034977D01*
X147164870Y-77034977D01*
X147104307Y-77041488D01*
X146967302Y-77092588D01*
X146850246Y-77180215D01*
X146762619Y-77297271D01*
X146728552Y-77388608D01*
X146711896Y-77433267D01*
X146711519Y-77434277D01*
X146710508Y-77443679D01*
X146689799Y-77500502D01*
X146644998Y-77541130D01*
X146586427Y-77556201D01*
X146527580Y-77542245D01*
X146482016Y-77502476D01*
X146479703Y-77499173D01*
X146317811Y-77337281D01*
X146130258Y-77205954D01*
X145922751Y-77109192D01*
X145701595Y-77049934D01*
X145473508Y-77029979D01*
X145245420Y-77049934D01*
X145024264Y-77109192D01*
X144816757Y-77205954D01*
X144629204Y-77337281D01*
X144467312Y-77499173D01*
X144335985Y-77686727D01*
X144317703Y-77725934D01*
X144271208Y-77778951D01*
X144203508Y-77798684D01*
X144135808Y-77778951D01*
X144089313Y-77725934D01*
X144072176Y-77689184D01*
X144071031Y-77686728D01*
X143939706Y-77499177D01*
X143939705Y-77499176D01*
X143939703Y-77499173D01*
X143777811Y-77337281D01*
X143590258Y-77205954D01*
X143382751Y-77109192D01*
X143161595Y-77049934D01*
X143137329Y-77047811D01*
X142933508Y-77029979D01*
X142933506Y-77029979D01*
X142770592Y-77044231D01*
X142716517Y-77037111D01*
X142670517Y-77007805D01*
X139260141Y-73597430D01*
X139229403Y-73547271D01*
X139174542Y-73378429D01*
X139079056Y-73213042D01*
X138951267Y-73071118D01*
X138796768Y-72958868D01*
X138796767Y-72958867D01*
X138622303Y-72881191D01*
X138435502Y-72841485D01*
X138244528Y-72841485D01*
X138119993Y-72867955D01*
X138057726Y-72881191D01*
X137883261Y-72958868D01*
X137728762Y-73071118D01*
X137600973Y-73213042D01*
X137505487Y-73378428D01*
X137446473Y-73560055D01*
X137426511Y-73749985D01*
X110627502Y-73749985D01*
X110560056Y-73591684D01*
X110429883Y-73385832D01*
X110429882Y-73385830D01*
X110268376Y-73203527D01*
X110170328Y-73123474D01*
X110079714Y-73049490D01*
X110028998Y-73020209D01*
X109868785Y-72927709D01*
X109816713Y-72907960D01*
X109814052Y-72906747D01*
X109810042Y-72905367D01*
X109806379Y-72904042D01*
X109641055Y-72841342D01*
X109605862Y-72834158D01*
X109590164Y-72829881D01*
X109579883Y-72826352D01*
X109579880Y-72826351D01*
X109579879Y-72826351D01*
X109514990Y-72815522D01*
X109510530Y-72814695D01*
X109402422Y-72792626D01*
X109377802Y-72791633D01*
X109362147Y-72790017D01*
X109341066Y-72786500D01*
X109341062Y-72786500D01*
X109252947Y-72786500D01*
X109247874Y-72786398D01*
X109244196Y-72786249D01*
X109159060Y-72782819D01*
X109159058Y-72782819D01*
X109139808Y-72785156D01*
X109136313Y-72785581D01*
X109121127Y-72786500D01*
X109098938Y-72786500D01*
X109022050Y-72799329D01*
X109016502Y-72800128D01*
X108917280Y-72812176D01*
X108886573Y-72821070D01*
X108872267Y-72824324D01*
X108860115Y-72826352D01*
X108818618Y-72840598D01*
X108812763Y-72842450D01*
X108683339Y-72879938D01*
X108463295Y-72984350D01*
X108262849Y-73122708D01*
X108087198Y-73291424D01*
X108041795Y-73351844D01*
X107995501Y-73389785D01*
X107936924Y-73402082D01*
X107879281Y-73385962D01*
X107844949Y-73353829D01*
X107843958Y-73354742D01*
X107744232Y-73246411D01*
X107672900Y-73168924D01*
X107672899Y-73168923D01*
X107672897Y-73168921D01*
X107481833Y-73020209D01*
X107268887Y-72904969D01*
X107092903Y-72844554D01*
X107039883Y-72826352D01*
X106801062Y-72786500D01*
X106558938Y-72786500D01*
X106320117Y-72826352D01*
X106320114Y-72826352D01*
X106320114Y-72826353D01*
X106091112Y-72904969D01*
X105878170Y-73020206D01*
X105745493Y-73123474D01*
X105692219Y-73147712D01*
X105633741Y-73145266D01*
X105582677Y-73116663D01*
X105550046Y-73068074D01*
X105542945Y-73049037D01*
X105455404Y-72932095D01*
X105338462Y-72844554D01*
X105201593Y-72793505D01*
X105141089Y-72787000D01*
X104394000Y-72787000D01*
X104394000Y-75803000D01*
X105141089Y-75803000D01*
X105201593Y-75796494D01*
X105338462Y-75745445D01*
X105455404Y-75657904D01*
X105542946Y-75540962D01*
X105550046Y-75521926D01*
X105582677Y-75473337D01*
X105633741Y-75444733D01*
X105692219Y-75442287D01*
X105745493Y-75466526D01*
X105878166Y-75569790D01*
X106091112Y-75685030D01*
X106268334Y-75745871D01*
X106321000Y-75780669D01*
X106350180Y-75836644D01*
X106348549Y-75899747D01*
X106316517Y-75954139D01*
X105624983Y-76645673D01*
X105623173Y-76647448D01*
X105547198Y-76720424D01*
X105503718Y-76778285D01*
X105498966Y-76784226D01*
X105452055Y-76839377D01*
X105431660Y-76873115D01*
X105424564Y-76883619D01*
X105400883Y-76915135D01*
X105400881Y-76915137D01*
X105400882Y-76915137D01*
X105367249Y-76979216D01*
X105363513Y-76985840D01*
X105326052Y-77047810D01*
X105311330Y-77084389D01*
X105306011Y-77095896D01*
X105287697Y-77130791D01*
X105264770Y-77199462D01*
X105262145Y-77206600D01*
X105235116Y-77273761D01*
X105226454Y-77312219D01*
X105223050Y-77324429D01*
X105210568Y-77361818D01*
X105198957Y-77433267D01*
X105197510Y-77440740D01*
X105181604Y-77511362D01*
X105179224Y-77550715D01*
X105177822Y-77563317D01*
X105171500Y-77602219D01*
X105171500Y-77674597D01*
X105171270Y-77682205D01*
X105166898Y-77754474D01*
X105170862Y-77793709D01*
X105171500Y-77806374D01*
X105171500Y-78260960D01*
X105153590Y-78325710D01*
X105104952Y-78372052D01*
X105039413Y-78386813D01*
X104975604Y-78365796D01*
X104931666Y-78314977D01*
X104884584Y-78215754D01*
X104783225Y-78068909D01*
X104745128Y-78013716D01*
X104575067Y-77836665D01*
X104575066Y-77836664D01*
X104378807Y-77689184D01*
X104378803Y-77689182D01*
X104378802Y-77689181D01*
X104161436Y-77575098D01*
X103928567Y-77497355D01*
X103686257Y-77457977D01*
X103686255Y-77457977D01*
X103502228Y-77457977D01*
X103502223Y-77457977D01*
X103318813Y-77472783D01*
X103080444Y-77531536D01*
X102854599Y-77627759D01*
X102647107Y-77758969D01*
X102463350Y-77921764D01*
X102308090Y-78111923D01*
X102185342Y-78324528D01*
X102098289Y-78554068D01*
X102049183Y-78794606D01*
X102039298Y-79039904D01*
X102068888Y-79283605D01*
X102126065Y-79481000D01*
X102137190Y-79519408D01*
X102200095Y-79651977D01*
X102242432Y-79741200D01*
X102381887Y-79943237D01*
X102381889Y-79943239D01*
X102551950Y-80120290D01*
X102748209Y-80267770D01*
X102748213Y-80267772D01*
X102965579Y-80381855D01*
X102965582Y-80381856D01*
X102965584Y-80381857D01*
X103096063Y-80425417D01*
X103198448Y-80459598D01*
X103440759Y-80498977D01*
X103440761Y-80498977D01*
X103624788Y-80498977D01*
X103624793Y-80498977D01*
X103716497Y-80491573D01*
X103808207Y-80484170D01*
X104046568Y-80425419D01*
X104272419Y-80329193D01*
X104479908Y-80197985D01*
X104492050Y-80187227D01*
X104545908Y-80159089D01*
X104606674Y-80159431D01*
X104660214Y-80188175D01*
X104694073Y-80238635D01*
X104700377Y-80299075D01*
X104671499Y-80504552D01*
X104671500Y-80504552D01*
X104671500Y-85711552D01*
X104671500Y-95955146D01*
X104686189Y-96165212D01*
X104713856Y-96295374D01*
X104744592Y-96439975D01*
X104840661Y-96703923D01*
X104970445Y-96948010D01*
X104976515Y-96973194D01*
X105004521Y-96995966D01*
X105135890Y-97176781D01*
X105142821Y-97186320D01*
X105142112Y-97186834D01*
X105162325Y-97217960D01*
X105171500Y-97265160D01*
X105171500Y-97310960D01*
X105153590Y-97375710D01*
X105104952Y-97422052D01*
X105039413Y-97436813D01*
X104975604Y-97415796D01*
X104931666Y-97364977D01*
X104884584Y-97265754D01*
X104798888Y-97141602D01*
X104785754Y-97104982D01*
X104755498Y-97078740D01*
X104745128Y-97063716D01*
X104575067Y-96886665D01*
X104575066Y-96886664D01*
X104378807Y-96739184D01*
X104378803Y-96739182D01*
X104378802Y-96739181D01*
X104161436Y-96625098D01*
X103928567Y-96547355D01*
X103686257Y-96507977D01*
X103686255Y-96507977D01*
X103502228Y-96507977D01*
X103502223Y-96507977D01*
X103318813Y-96522783D01*
X103080444Y-96581536D01*
X102854599Y-96677759D01*
X102647107Y-96808969D01*
X102463350Y-96971764D01*
X102308090Y-97161923D01*
X102185342Y-97374528D01*
X102098289Y-97604068D01*
X102049183Y-97844606D01*
X102039298Y-98089904D01*
X100000500Y-98089904D01*
X100000500Y-74549000D01*
X102679500Y-74549000D01*
X102679500Y-75343589D01*
X102686005Y-75404093D01*
X102737054Y-75540962D01*
X102824595Y-75657904D01*
X102941537Y-75745445D01*
X103078406Y-75796494D01*
X103138911Y-75803000D01*
X103886000Y-75803000D01*
X103886000Y-74549000D01*
X102679500Y-74549000D01*
X100000500Y-74549000D01*
X100000500Y-74041000D01*
X102679500Y-74041000D01*
X103886000Y-74041000D01*
X103886000Y-72787000D01*
X103138911Y-72787000D01*
X103078406Y-72793505D01*
X102941537Y-72844554D01*
X102824595Y-72932095D01*
X102737054Y-73049037D01*
X102686005Y-73185906D01*
X102679500Y-73246411D01*
X102679500Y-74041000D01*
X100000500Y-74041000D01*
X100000500Y-68834000D01*
X102782000Y-68834000D01*
X102782000Y-69478589D01*
X102788505Y-69539093D01*
X102839554Y-69675962D01*
X102927095Y-69792904D01*
X103044037Y-69880445D01*
X103180906Y-69931494D01*
X103241411Y-69938000D01*
X103886000Y-69938000D01*
X104394000Y-69938000D01*
X105038589Y-69938000D01*
X105099093Y-69931494D01*
X105235962Y-69880445D01*
X105352901Y-69792906D01*
X105438475Y-69678593D01*
X105480075Y-69642912D01*
X105532887Y-69628268D01*
X105586922Y-69637430D01*
X105631954Y-69668666D01*
X105653816Y-69692364D01*
X105845536Y-69842567D01*
X105845539Y-69842569D01*
X105845541Y-69842570D01*
X106058878Y-69960077D01*
X106288301Y-70041840D01*
X106527870Y-70085742D01*
X106588746Y-70086968D01*
X106771374Y-70090647D01*
X106771374Y-70090646D01*
X106771377Y-70090647D01*
X107012518Y-70056426D01*
X107245048Y-69983967D01*
X107462943Y-69875146D01*
X107660560Y-69732781D01*
X111077936Y-66315404D01*
X111118813Y-66288091D01*
X111167031Y-66278500D01*
X118009922Y-66278500D01*
X118058140Y-66288091D01*
X118099017Y-66315405D01*
X118500337Y-66716725D01*
X118534083Y-66777781D01*
X118530172Y-66847433D01*
X118489804Y-66904329D01*
X118425353Y-66931027D01*
X118364403Y-66920673D01*
X118364168Y-66921438D01*
X118358362Y-66919647D01*
X118356577Y-66919344D01*
X118355147Y-66918655D01*
X118105085Y-66841522D01*
X118105082Y-66841521D01*
X117846316Y-66802518D01*
X117584626Y-66802518D01*
X117325860Y-66841521D01*
X117325857Y-66841521D01*
X117325856Y-66841522D01*
X117075796Y-66918654D01*
X116840022Y-67032198D01*
X116623808Y-67179609D01*
X116431969Y-67357609D01*
X116268813Y-67562202D01*
X116137968Y-67788832D01*
X116042361Y-68032432D01*
X115984131Y-68287557D01*
X115964575Y-68548517D01*
X115984131Y-68809478D01*
X116042361Y-69064603D01*
X116137968Y-69308203D01*
X116268813Y-69534833D01*
X116431969Y-69739426D01*
X116431972Y-69739428D01*
X116431973Y-69739430D01*
X116623805Y-69917424D01*
X116840023Y-70064838D01*
X116883431Y-70085742D01*
X117075796Y-70178381D01*
X117147572Y-70200520D01*
X117325860Y-70255515D01*
X117584626Y-70294518D01*
X117846313Y-70294518D01*
X117846316Y-70294518D01*
X118105082Y-70255515D01*
X118355145Y-70178381D01*
X118590919Y-70064838D01*
X118807137Y-69917424D01*
X118998969Y-69739430D01*
X119162129Y-69534833D01*
X119292974Y-69308203D01*
X119388580Y-69064604D01*
X119446811Y-68809476D01*
X119466367Y-68548518D01*
X119446811Y-68287560D01*
X119388580Y-68032432D01*
X119333053Y-67890954D01*
X119326204Y-67823352D01*
X119355457Y-67762022D01*
X119412305Y-67724801D01*
X119480216Y-67722514D01*
X119539439Y-67755827D01*
X120750174Y-68966562D01*
X120783920Y-69027619D01*
X120792362Y-69064605D01*
X120887968Y-69308203D01*
X121018813Y-69534833D01*
X121181969Y-69739426D01*
X121181972Y-69739428D01*
X121181973Y-69739430D01*
X121373805Y-69917424D01*
X121590023Y-70064838D01*
X121633431Y-70085742D01*
X121825796Y-70178381D01*
X121897572Y-70200520D01*
X122075860Y-70255515D01*
X122334626Y-70294518D01*
X122596313Y-70294518D01*
X122596316Y-70294518D01*
X122855082Y-70255515D01*
X123105145Y-70178381D01*
X123340919Y-70064838D01*
X123557137Y-69917424D01*
X123646340Y-69834656D01*
X125469471Y-69834656D01*
X125470321Y-69842567D01*
X125475982Y-69895218D01*
X125527082Y-70032223D01*
X125614709Y-70149279D01*
X125731765Y-70236906D01*
X125731766Y-70236906D01*
X125731767Y-70236907D01*
X125868770Y-70288007D01*
X125929333Y-70294518D01*
X128501609Y-70294518D01*
X128562172Y-70288007D01*
X128699175Y-70236907D01*
X128816232Y-70149279D01*
X128903860Y-70032222D01*
X128954960Y-69895219D01*
X128961471Y-69834656D01*
X128961471Y-67262380D01*
X128954960Y-67201817D01*
X128903860Y-67064814D01*
X128879444Y-67032198D01*
X128816232Y-66947756D01*
X128699176Y-66860129D01*
X128630673Y-66834578D01*
X128562172Y-66809029D01*
X128501609Y-66802518D01*
X125929333Y-66802518D01*
X125868770Y-66809029D01*
X125731765Y-66860129D01*
X125614709Y-66947756D01*
X125527082Y-67064812D01*
X125484265Y-67179609D01*
X125475982Y-67201817D01*
X125469471Y-67262380D01*
X125469471Y-69834656D01*
X123646340Y-69834656D01*
X123748969Y-69739430D01*
X123912129Y-69534833D01*
X124042974Y-69308203D01*
X124138580Y-69064604D01*
X124196811Y-68809476D01*
X124216367Y-68548518D01*
X124196811Y-68287560D01*
X124138580Y-68032432D01*
X124042974Y-67788833D01*
X123912129Y-67562203D01*
X123849166Y-67483250D01*
X123748972Y-67357609D01*
X123748969Y-67357606D01*
X123557137Y-67179612D01*
X123340919Y-67032198D01*
X123105144Y-66918654D01*
X122938058Y-66867115D01*
X122886102Y-66835808D01*
X119765279Y-63714984D01*
X119763503Y-63713173D01*
X119690529Y-63637199D01*
X119690528Y-63637198D01*
X119632650Y-63593706D01*
X119626720Y-63588962D01*
X119571574Y-63542055D01*
X119571573Y-63542054D01*
X119537826Y-63521653D01*
X119527339Y-63514569D01*
X119495818Y-63490883D01*
X119495816Y-63490882D01*
X119495815Y-63490881D01*
X119431725Y-63457244D01*
X119425110Y-63453512D01*
X119386121Y-63429943D01*
X119363141Y-63416051D01*
X119326554Y-63401326D01*
X119315049Y-63396008D01*
X119280158Y-63377696D01*
X119280157Y-63377695D01*
X119280154Y-63377694D01*
X119211501Y-63354774D01*
X119204360Y-63352148D01*
X119137192Y-63325116D01*
X119098738Y-63316455D01*
X119086527Y-63313051D01*
X119049134Y-63300568D01*
X118977684Y-63288957D01*
X118970217Y-63287511D01*
X118948792Y-63282686D01*
X118899589Y-63271604D01*
X118860237Y-63269224D01*
X118847637Y-63267822D01*
X118823136Y-63263840D01*
X118808733Y-63261500D01*
X118808732Y-63261500D01*
X118736356Y-63261500D01*
X118728748Y-63261270D01*
X118656478Y-63256898D01*
X118656477Y-63256898D01*
X118632189Y-63259352D01*
X118617244Y-63260862D01*
X118604579Y-63261500D01*
X110506457Y-63261500D01*
X110503919Y-63261474D01*
X110398623Y-63259352D01*
X110326950Y-63269523D01*
X110319388Y-63270364D01*
X110247229Y-63276189D01*
X110208949Y-63285624D01*
X110196506Y-63288035D01*
X110157480Y-63293574D01*
X110088388Y-63315104D01*
X110081058Y-63317147D01*
X110010755Y-63334476D01*
X110010753Y-63334476D01*
X110010752Y-63334477D01*
X109992305Y-63342336D01*
X109974479Y-63349931D01*
X109962581Y-63354306D01*
X109924952Y-63366032D01*
X109860190Y-63398374D01*
X109853287Y-63401565D01*
X109786684Y-63429943D01*
X109753368Y-63451011D01*
X109742327Y-63457238D01*
X109707060Y-63474852D01*
X109648308Y-63517175D01*
X109642005Y-63521432D01*
X109580830Y-63560117D01*
X109551323Y-63586257D01*
X109541426Y-63594174D01*
X109509438Y-63617219D01*
X109458255Y-63668402D01*
X109452714Y-63673618D01*
X109398526Y-63721625D01*
X109373591Y-63752164D01*
X109365087Y-63761569D01*
X105629820Y-67496836D01*
X105567508Y-67530861D01*
X105496693Y-67525797D01*
X105439857Y-67483250D01*
X105352904Y-67367095D01*
X105235962Y-67279554D01*
X105099093Y-67228505D01*
X105038589Y-67222000D01*
X104394000Y-67222000D01*
X104394000Y-69938000D01*
X103886000Y-69938000D01*
X103886000Y-68834000D01*
X102782000Y-68834000D01*
X100000500Y-68834000D01*
X100000500Y-68326000D01*
X102782000Y-68326000D01*
X103886000Y-68326000D01*
X103886000Y-67222000D01*
X103241411Y-67222000D01*
X103180906Y-67228505D01*
X103044037Y-67279554D01*
X102927095Y-67367095D01*
X102839554Y-67484037D01*
X102788505Y-67620906D01*
X102782000Y-67681411D01*
X102782000Y-68326000D01*
X100000500Y-68326000D01*
X100000500Y-62230000D01*
X133256844Y-62230000D01*
X133275436Y-62454368D01*
X133275436Y-62454371D01*
X133275437Y-62454372D01*
X133330702Y-62672611D01*
X133421139Y-62878790D01*
X133455183Y-62930898D01*
X133544278Y-63067268D01*
X133696419Y-63232536D01*
X133696762Y-63232908D01*
X133874421Y-63371187D01*
X133874424Y-63371189D01*
X134072426Y-63478342D01*
X134285365Y-63551444D01*
X134507431Y-63588500D01*
X134732566Y-63588500D01*
X134732569Y-63588500D01*
X134954635Y-63551444D01*
X135167574Y-63478342D01*
X135365576Y-63371189D01*
X135543240Y-63232906D01*
X135695722Y-63067268D01*
X135784518Y-62931354D01*
X135830031Y-62889458D01*
X135890000Y-62874272D01*
X135949969Y-62889458D01*
X135995481Y-62931354D01*
X136084278Y-63067268D01*
X136236419Y-63232536D01*
X136236762Y-63232908D01*
X136414421Y-63371187D01*
X136414424Y-63371189D01*
X136612426Y-63478342D01*
X136825365Y-63551444D01*
X137047431Y-63588500D01*
X137272566Y-63588500D01*
X137272569Y-63588500D01*
X137494635Y-63551444D01*
X137707574Y-63478342D01*
X137905576Y-63371189D01*
X138083240Y-63232906D01*
X138235722Y-63067268D01*
X138324518Y-62931354D01*
X138370031Y-62889458D01*
X138430000Y-62874272D01*
X138489969Y-62889458D01*
X138535481Y-62931354D01*
X138624278Y-63067268D01*
X138776419Y-63232536D01*
X138776762Y-63232908D01*
X138954421Y-63371187D01*
X138954424Y-63371189D01*
X139152426Y-63478342D01*
X139365365Y-63551444D01*
X139587431Y-63588500D01*
X139812566Y-63588500D01*
X139812569Y-63588500D01*
X140034635Y-63551444D01*
X140247574Y-63478342D01*
X140445576Y-63371189D01*
X140623240Y-63232906D01*
X140775722Y-63067268D01*
X140864518Y-62931354D01*
X140910031Y-62889458D01*
X140970000Y-62874272D01*
X141029969Y-62889458D01*
X141075481Y-62931354D01*
X141164278Y-63067268D01*
X141316419Y-63232536D01*
X141316762Y-63232908D01*
X141494421Y-63371187D01*
X141494424Y-63371189D01*
X141692426Y-63478342D01*
X141905365Y-63551444D01*
X142127431Y-63588500D01*
X142352566Y-63588500D01*
X142352569Y-63588500D01*
X142574635Y-63551444D01*
X142787574Y-63478342D01*
X142985576Y-63371189D01*
X143163240Y-63232906D01*
X143315722Y-63067268D01*
X143404518Y-62931354D01*
X143450031Y-62889458D01*
X143510000Y-62874272D01*
X143569969Y-62889458D01*
X143615481Y-62931354D01*
X143704278Y-63067268D01*
X143856419Y-63232536D01*
X143856762Y-63232908D01*
X144034421Y-63371187D01*
X144034424Y-63371189D01*
X144232426Y-63478342D01*
X144445365Y-63551444D01*
X144667431Y-63588500D01*
X144892566Y-63588500D01*
X144892569Y-63588500D01*
X145114635Y-63551444D01*
X145327574Y-63478342D01*
X145525576Y-63371189D01*
X145703240Y-63232906D01*
X145855722Y-63067268D01*
X145944518Y-62931354D01*
X145990031Y-62889458D01*
X146050000Y-62874272D01*
X146109969Y-62889458D01*
X146155481Y-62931354D01*
X146244278Y-63067268D01*
X146396419Y-63232536D01*
X146396762Y-63232908D01*
X146574421Y-63371187D01*
X146574424Y-63371189D01*
X146772426Y-63478342D01*
X146985365Y-63551444D01*
X147207431Y-63588500D01*
X147432566Y-63588500D01*
X147432569Y-63588500D01*
X147654635Y-63551444D01*
X147867574Y-63478342D01*
X148065576Y-63371189D01*
X148243240Y-63232906D01*
X148395722Y-63067268D01*
X148484818Y-62930896D01*
X148530329Y-62888999D01*
X148590299Y-62873813D01*
X148650268Y-62888999D01*
X148695782Y-62930897D01*
X148784678Y-63066962D01*
X148937096Y-63232533D01*
X149114697Y-63370766D01*
X149312631Y-63477883D01*
X149525485Y-63550955D01*
X149606000Y-63564391D01*
X150114000Y-63564391D01*
X150194514Y-63550955D01*
X150407368Y-63477883D01*
X150605302Y-63370766D01*
X150782899Y-63232536D01*
X150844047Y-63166112D01*
X150897519Y-63131712D01*
X150960981Y-63127801D01*
X151018273Y-63155377D01*
X151054805Y-63207416D01*
X151099111Y-63326206D01*
X151186738Y-63443261D01*
X151303794Y-63530888D01*
X151303795Y-63530888D01*
X151303796Y-63530889D01*
X151440799Y-63581989D01*
X151501362Y-63588500D01*
X153298638Y-63588500D01*
X153359201Y-63581989D01*
X153496204Y-63530889D01*
X153613261Y-63443261D01*
X153700889Y-63326204D01*
X153751989Y-63189201D01*
X153758500Y-63128638D01*
X153758500Y-61331362D01*
X153751989Y-61270799D01*
X153700889Y-61133796D01*
X153700888Y-61133794D01*
X153613261Y-61016738D01*
X153496205Y-60929111D01*
X153427702Y-60903561D01*
X153359201Y-60878011D01*
X153298638Y-60871500D01*
X151501362Y-60871500D01*
X151440799Y-60878011D01*
X151303794Y-60929111D01*
X151186738Y-61016738D01*
X151099109Y-61133796D01*
X151054804Y-61252583D01*
X151018273Y-61304622D01*
X150960982Y-61332198D01*
X150897520Y-61328288D01*
X150844048Y-61293887D01*
X150782903Y-61227466D01*
X150605302Y-61089233D01*
X150407368Y-60982116D01*
X150194514Y-60909044D01*
X150114000Y-60895609D01*
X150114000Y-63564391D01*
X149606000Y-63564391D01*
X149606000Y-60895609D01*
X149525485Y-60909044D01*
X149312631Y-60982116D01*
X149114697Y-61089233D01*
X148937096Y-61227466D01*
X148784678Y-61393037D01*
X148695782Y-61529102D01*
X148650268Y-61571000D01*
X148590299Y-61586186D01*
X148530329Y-61571000D01*
X148484816Y-61529101D01*
X148395723Y-61392734D01*
X148395722Y-61392732D01*
X148243240Y-61227094D01*
X148243239Y-61227093D01*
X148243237Y-61227091D01*
X148065578Y-61088812D01*
X147867573Y-60981657D01*
X147656056Y-60909044D01*
X147654635Y-60908556D01*
X147432569Y-60871500D01*
X147207431Y-60871500D01*
X146985365Y-60908556D01*
X146985362Y-60908556D01*
X146985362Y-60908557D01*
X146772426Y-60981657D01*
X146574421Y-61088812D01*
X146396762Y-61227091D01*
X146244278Y-61392731D01*
X146155483Y-61528643D01*
X146109969Y-61570541D01*
X146050000Y-61585727D01*
X145990031Y-61570541D01*
X145944517Y-61528643D01*
X145855721Y-61392731D01*
X145799226Y-61331362D01*
X145703240Y-61227094D01*
X145703239Y-61227093D01*
X145703237Y-61227091D01*
X145525578Y-61088812D01*
X145327573Y-60981657D01*
X145116056Y-60909044D01*
X145114635Y-60908556D01*
X144892569Y-60871500D01*
X144667431Y-60871500D01*
X144445365Y-60908556D01*
X144445362Y-60908556D01*
X144445362Y-60908557D01*
X144232426Y-60981657D01*
X144034421Y-61088812D01*
X143856762Y-61227091D01*
X143704278Y-61392731D01*
X143615483Y-61528643D01*
X143569969Y-61570541D01*
X143510000Y-61585727D01*
X143450031Y-61570541D01*
X143404517Y-61528643D01*
X143315721Y-61392731D01*
X143259226Y-61331362D01*
X143163240Y-61227094D01*
X143163239Y-61227093D01*
X143163237Y-61227091D01*
X142985578Y-61088812D01*
X142787573Y-60981657D01*
X142576056Y-60909044D01*
X142574635Y-60908556D01*
X142352569Y-60871500D01*
X142127431Y-60871500D01*
X141905365Y-60908556D01*
X141905362Y-60908556D01*
X141905362Y-60908557D01*
X141692426Y-60981657D01*
X141494421Y-61088812D01*
X141316762Y-61227091D01*
X141164278Y-61392731D01*
X141075483Y-61528643D01*
X141029969Y-61570541D01*
X140970000Y-61585727D01*
X140910031Y-61570541D01*
X140864517Y-61528643D01*
X140775721Y-61392731D01*
X140719226Y-61331362D01*
X140623240Y-61227094D01*
X140623239Y-61227093D01*
X140623237Y-61227091D01*
X140445578Y-61088812D01*
X140247573Y-60981657D01*
X140036056Y-60909044D01*
X140034635Y-60908556D01*
X139812569Y-60871500D01*
X139587431Y-60871500D01*
X139365365Y-60908556D01*
X139365362Y-60908556D01*
X139365362Y-60908557D01*
X139152426Y-60981657D01*
X138954421Y-61088812D01*
X138776762Y-61227091D01*
X138624278Y-61392731D01*
X138535483Y-61528643D01*
X138489969Y-61570541D01*
X138430000Y-61585727D01*
X138370031Y-61570541D01*
X138324517Y-61528643D01*
X138235721Y-61392731D01*
X138179226Y-61331362D01*
X138083240Y-61227094D01*
X138083239Y-61227093D01*
X138083237Y-61227091D01*
X137905578Y-61088812D01*
X137707573Y-60981657D01*
X137496056Y-60909044D01*
X137494635Y-60908556D01*
X137272569Y-60871500D01*
X137047431Y-60871500D01*
X136825365Y-60908556D01*
X136825362Y-60908556D01*
X136825362Y-60908557D01*
X136612426Y-60981657D01*
X136414421Y-61088812D01*
X136236762Y-61227091D01*
X136084278Y-61392731D01*
X135995483Y-61528643D01*
X135949969Y-61570541D01*
X135890000Y-61585727D01*
X135830031Y-61570541D01*
X135784517Y-61528643D01*
X135695721Y-61392731D01*
X135639226Y-61331362D01*
X135543240Y-61227094D01*
X135543239Y-61227093D01*
X135543237Y-61227091D01*
X135365578Y-61088812D01*
X135167573Y-60981657D01*
X134956056Y-60909044D01*
X134954635Y-60908556D01*
X134732569Y-60871500D01*
X134507431Y-60871500D01*
X134285365Y-60908556D01*
X134285362Y-60908556D01*
X134285362Y-60908557D01*
X134072426Y-60981657D01*
X133874421Y-61088812D01*
X133696762Y-61227091D01*
X133544278Y-61392731D01*
X133421139Y-61581209D01*
X133330702Y-61787388D01*
X133275437Y-62005627D01*
X133275436Y-62005632D01*
X133256844Y-62230000D01*
X100000500Y-62230000D01*
X100000500Y-60126500D01*
X100017381Y-60063500D01*
X100063500Y-60017381D01*
X100126500Y-60000500D01*
X154873500Y-60000500D01*
X154936500Y-60017381D01*
G37*
%TD.AperFunction*%
%TD*%
M02*
