%TF.GenerationSoftware,KiCad,Pcbnew,7.0.1*%
%TF.CreationDate,2023-04-02T16:12:04-04:00*%
%TF.ProjectId,board_v2,626f6172-645f-4763-922e-6b696361645f,rev?*%
%TF.SameCoordinates,Original*%
%TF.FileFunction,Legend,Top*%
%TF.FilePolarity,Positive*%
%FSLAX46Y46*%
G04 Gerber Fmt 4.6, Leading zero omitted, Abs format (unit mm)*
G04 Created by KiCad (PCBNEW 7.0.1) date 2023-04-02 16:12:04*
%MOMM*%
%LPD*%
G01*
G04 APERTURE LIST*
%ADD10C,0.150000*%
%ADD11C,0.200000*%
%ADD12C,0.300000*%
%ADD13C,0.100000*%
%ADD14C,0.120000*%
%ADD15C,0.127000*%
G04 APERTURE END LIST*
D10*
X141904069Y-122073986D02*
X141570736Y-122073986D01*
X141570736Y-122597796D02*
X141570736Y-121597796D01*
X141570736Y-121597796D02*
X142046926Y-121597796D01*
X142856450Y-122597796D02*
X142856450Y-122073986D01*
X142856450Y-122073986D02*
X142808831Y-121978748D01*
X142808831Y-121978748D02*
X142713593Y-121931129D01*
X142713593Y-121931129D02*
X142523117Y-121931129D01*
X142523117Y-121931129D02*
X142427879Y-121978748D01*
X142856450Y-122550177D02*
X142761212Y-122597796D01*
X142761212Y-122597796D02*
X142523117Y-122597796D01*
X142523117Y-122597796D02*
X142427879Y-122550177D01*
X142427879Y-122550177D02*
X142380260Y-122454938D01*
X142380260Y-122454938D02*
X142380260Y-122359700D01*
X142380260Y-122359700D02*
X142427879Y-122264462D01*
X142427879Y-122264462D02*
X142523117Y-122216843D01*
X142523117Y-122216843D02*
X142761212Y-122216843D01*
X142761212Y-122216843D02*
X142856450Y-122169224D01*
X143475498Y-122597796D02*
X143380260Y-122550177D01*
X143380260Y-122550177D02*
X143332641Y-122454938D01*
X143332641Y-122454938D02*
X143332641Y-121597796D01*
X143999308Y-122597796D02*
X143904070Y-122550177D01*
X143904070Y-122550177D02*
X143856451Y-122454938D01*
X143856451Y-122454938D02*
X143856451Y-121597796D01*
X144332642Y-122550177D02*
X144427880Y-122597796D01*
X144427880Y-122597796D02*
X144618356Y-122597796D01*
X144618356Y-122597796D02*
X144713594Y-122550177D01*
X144713594Y-122550177D02*
X144761213Y-122454938D01*
X144761213Y-122454938D02*
X144761213Y-122407319D01*
X144761213Y-122407319D02*
X144713594Y-122312081D01*
X144713594Y-122312081D02*
X144618356Y-122264462D01*
X144618356Y-122264462D02*
X144475499Y-122264462D01*
X144475499Y-122264462D02*
X144380261Y-122216843D01*
X144380261Y-122216843D02*
X144332642Y-122121605D01*
X144332642Y-122121605D02*
X144332642Y-122073986D01*
X144332642Y-122073986D02*
X144380261Y-121978748D01*
X144380261Y-121978748D02*
X144475499Y-121931129D01*
X144475499Y-121931129D02*
X144618356Y-121931129D01*
X144618356Y-121931129D02*
X144713594Y-121978748D01*
X145189785Y-122597796D02*
X145189785Y-121597796D01*
X145189785Y-121597796D02*
X145427880Y-121597796D01*
X145427880Y-121597796D02*
X145570737Y-121645415D01*
X145570737Y-121645415D02*
X145665975Y-121740653D01*
X145665975Y-121740653D02*
X145713594Y-121835891D01*
X145713594Y-121835891D02*
X145761213Y-122026367D01*
X145761213Y-122026367D02*
X145761213Y-122169224D01*
X145761213Y-122169224D02*
X145713594Y-122359700D01*
X145713594Y-122359700D02*
X145665975Y-122454938D01*
X145665975Y-122454938D02*
X145570737Y-122550177D01*
X145570737Y-122550177D02*
X145427880Y-122597796D01*
X145427880Y-122597796D02*
X145189785Y-122597796D01*
X146332642Y-122597796D02*
X146237404Y-122550177D01*
X146237404Y-122550177D02*
X146189785Y-122502557D01*
X146189785Y-122502557D02*
X146142166Y-122407319D01*
X146142166Y-122407319D02*
X146142166Y-122121605D01*
X146142166Y-122121605D02*
X146189785Y-122026367D01*
X146189785Y-122026367D02*
X146237404Y-121978748D01*
X146237404Y-121978748D02*
X146332642Y-121931129D01*
X146332642Y-121931129D02*
X146475499Y-121931129D01*
X146475499Y-121931129D02*
X146570737Y-121978748D01*
X146570737Y-121978748D02*
X146618356Y-122026367D01*
X146618356Y-122026367D02*
X146665975Y-122121605D01*
X146665975Y-122121605D02*
X146665975Y-122407319D01*
X146665975Y-122407319D02*
X146618356Y-122502557D01*
X146618356Y-122502557D02*
X146570737Y-122550177D01*
X146570737Y-122550177D02*
X146475499Y-122597796D01*
X146475499Y-122597796D02*
X146332642Y-122597796D01*
X146999309Y-121931129D02*
X147189785Y-122597796D01*
X147189785Y-122597796D02*
X147380261Y-122121605D01*
X147380261Y-122121605D02*
X147570737Y-122597796D01*
X147570737Y-122597796D02*
X147761213Y-121931129D01*
X148142166Y-121931129D02*
X148142166Y-122597796D01*
X148142166Y-122026367D02*
X148189785Y-121978748D01*
X148189785Y-121978748D02*
X148285023Y-121931129D01*
X148285023Y-121931129D02*
X148427880Y-121931129D01*
X148427880Y-121931129D02*
X148523118Y-121978748D01*
X148523118Y-121978748D02*
X148570737Y-122073986D01*
X148570737Y-122073986D02*
X148570737Y-122597796D01*
X149523118Y-122597796D02*
X149046928Y-122597796D01*
X149046928Y-122597796D02*
X149046928Y-121597796D01*
X149999309Y-122597796D02*
X149904071Y-122550177D01*
X149904071Y-122550177D02*
X149856452Y-122502557D01*
X149856452Y-122502557D02*
X149808833Y-122407319D01*
X149808833Y-122407319D02*
X149808833Y-122121605D01*
X149808833Y-122121605D02*
X149856452Y-122026367D01*
X149856452Y-122026367D02*
X149904071Y-121978748D01*
X149904071Y-121978748D02*
X149999309Y-121931129D01*
X149999309Y-121931129D02*
X150142166Y-121931129D01*
X150142166Y-121931129D02*
X150237404Y-121978748D01*
X150237404Y-121978748D02*
X150285023Y-122026367D01*
X150285023Y-122026367D02*
X150332642Y-122121605D01*
X150332642Y-122121605D02*
X150332642Y-122407319D01*
X150332642Y-122407319D02*
X150285023Y-122502557D01*
X150285023Y-122502557D02*
X150237404Y-122550177D01*
X150237404Y-122550177D02*
X150142166Y-122597796D01*
X150142166Y-122597796D02*
X149999309Y-122597796D01*
X150618357Y-121931129D02*
X150999309Y-121931129D01*
X150761214Y-121597796D02*
X150761214Y-122454938D01*
X150761214Y-122454938D02*
X150808833Y-122550177D01*
X150808833Y-122550177D02*
X150904071Y-122597796D01*
X150904071Y-122597796D02*
X150999309Y-122597796D01*
X151285024Y-122550177D02*
X151380262Y-122597796D01*
X151380262Y-122597796D02*
X151570738Y-122597796D01*
X151570738Y-122597796D02*
X151665976Y-122550177D01*
X151665976Y-122550177D02*
X151713595Y-122454938D01*
X151713595Y-122454938D02*
X151713595Y-122407319D01*
X151713595Y-122407319D02*
X151665976Y-122312081D01*
X151665976Y-122312081D02*
X151570738Y-122264462D01*
X151570738Y-122264462D02*
X151427881Y-122264462D01*
X151427881Y-122264462D02*
X151332643Y-122216843D01*
X151332643Y-122216843D02*
X151285024Y-122121605D01*
X151285024Y-122121605D02*
X151285024Y-122073986D01*
X151285024Y-122073986D02*
X151332643Y-121978748D01*
X151332643Y-121978748D02*
X151427881Y-121931129D01*
X151427881Y-121931129D02*
X151570738Y-121931129D01*
X151570738Y-121931129D02*
X151665976Y-121978748D01*
X152808834Y-121931129D02*
X153046929Y-122597796D01*
X153046929Y-122597796D02*
X153285024Y-121931129D01*
X153618358Y-121693034D02*
X153665977Y-121645415D01*
X153665977Y-121645415D02*
X153761215Y-121597796D01*
X153761215Y-121597796D02*
X153999310Y-121597796D01*
X153999310Y-121597796D02*
X154094548Y-121645415D01*
X154094548Y-121645415D02*
X154142167Y-121693034D01*
X154142167Y-121693034D02*
X154189786Y-121788272D01*
X154189786Y-121788272D02*
X154189786Y-121883510D01*
X154189786Y-121883510D02*
X154142167Y-122026367D01*
X154142167Y-122026367D02*
X153570739Y-122597796D01*
X153570739Y-122597796D02*
X154189786Y-122597796D01*
X141999307Y-123551129D02*
X141999307Y-124360653D01*
X141999307Y-124360653D02*
X141951688Y-124455891D01*
X141951688Y-124455891D02*
X141904069Y-124503510D01*
X141904069Y-124503510D02*
X141808831Y-124551129D01*
X141808831Y-124551129D02*
X141665974Y-124551129D01*
X141665974Y-124551129D02*
X141570736Y-124503510D01*
X141999307Y-124170177D02*
X141904069Y-124217796D01*
X141904069Y-124217796D02*
X141713593Y-124217796D01*
X141713593Y-124217796D02*
X141618355Y-124170177D01*
X141618355Y-124170177D02*
X141570736Y-124122557D01*
X141570736Y-124122557D02*
X141523117Y-124027319D01*
X141523117Y-124027319D02*
X141523117Y-123741605D01*
X141523117Y-123741605D02*
X141570736Y-123646367D01*
X141570736Y-123646367D02*
X141618355Y-123598748D01*
X141618355Y-123598748D02*
X141713593Y-123551129D01*
X141713593Y-123551129D02*
X141904069Y-123551129D01*
X141904069Y-123551129D02*
X141999307Y-123598748D01*
X142475498Y-124217796D02*
X142475498Y-123551129D01*
X142475498Y-123217796D02*
X142427879Y-123265415D01*
X142427879Y-123265415D02*
X142475498Y-123313034D01*
X142475498Y-123313034D02*
X142523117Y-123265415D01*
X142523117Y-123265415D02*
X142475498Y-123217796D01*
X142475498Y-123217796D02*
X142475498Y-123313034D01*
X142856450Y-123551129D02*
X143380259Y-123551129D01*
X143380259Y-123551129D02*
X142856450Y-124217796D01*
X142856450Y-124217796D02*
X143380259Y-124217796D01*
X144189783Y-124217796D02*
X144189783Y-123693986D01*
X144189783Y-123693986D02*
X144142164Y-123598748D01*
X144142164Y-123598748D02*
X144046926Y-123551129D01*
X144046926Y-123551129D02*
X143856450Y-123551129D01*
X143856450Y-123551129D02*
X143761212Y-123598748D01*
X144189783Y-124170177D02*
X144094545Y-124217796D01*
X144094545Y-124217796D02*
X143856450Y-124217796D01*
X143856450Y-124217796D02*
X143761212Y-124170177D01*
X143761212Y-124170177D02*
X143713593Y-124074938D01*
X143713593Y-124074938D02*
X143713593Y-123979700D01*
X143713593Y-123979700D02*
X143761212Y-123884462D01*
X143761212Y-123884462D02*
X143856450Y-123836843D01*
X143856450Y-123836843D02*
X144094545Y-123836843D01*
X144094545Y-123836843D02*
X144189783Y-123789224D01*
X144523117Y-123551129D02*
X144904069Y-123551129D01*
X144665974Y-123217796D02*
X144665974Y-124074938D01*
X144665974Y-124074938D02*
X144713593Y-124170177D01*
X144713593Y-124170177D02*
X144808831Y-124217796D01*
X144808831Y-124217796D02*
X144904069Y-124217796D01*
X145094546Y-123551129D02*
X145475498Y-123551129D01*
X145237403Y-123217796D02*
X145237403Y-124074938D01*
X145237403Y-124074938D02*
X145285022Y-124170177D01*
X145285022Y-124170177D02*
X145380260Y-124217796D01*
X145380260Y-124217796D02*
X145475498Y-124217796D01*
X145856451Y-124170177D02*
X145856451Y-124217796D01*
X145856451Y-124217796D02*
X145808832Y-124313034D01*
X145808832Y-124313034D02*
X145761213Y-124360653D01*
X146999308Y-123932081D02*
X147475498Y-123932081D01*
X146904070Y-124217796D02*
X147237403Y-123217796D01*
X147237403Y-123217796D02*
X147570736Y-124217796D01*
X147904070Y-123551129D02*
X147904070Y-124551129D01*
X147904070Y-123598748D02*
X147999308Y-123551129D01*
X147999308Y-123551129D02*
X148189784Y-123551129D01*
X148189784Y-123551129D02*
X148285022Y-123598748D01*
X148285022Y-123598748D02*
X148332641Y-123646367D01*
X148332641Y-123646367D02*
X148380260Y-123741605D01*
X148380260Y-123741605D02*
X148380260Y-124027319D01*
X148380260Y-124027319D02*
X148332641Y-124122557D01*
X148332641Y-124122557D02*
X148285022Y-124170177D01*
X148285022Y-124170177D02*
X148189784Y-124217796D01*
X148189784Y-124217796D02*
X147999308Y-124217796D01*
X147999308Y-124217796D02*
X147904070Y-124170177D01*
X148808832Y-124217796D02*
X148808832Y-123551129D01*
X148808832Y-123741605D02*
X148856451Y-123646367D01*
X148856451Y-123646367D02*
X148904070Y-123598748D01*
X148904070Y-123598748D02*
X148999308Y-123551129D01*
X148999308Y-123551129D02*
X149094546Y-123551129D01*
X150237404Y-123217796D02*
X150142166Y-123408272D01*
X150618356Y-123313034D02*
X150665975Y-123265415D01*
X150665975Y-123265415D02*
X150761213Y-123217796D01*
X150761213Y-123217796D02*
X150999308Y-123217796D01*
X150999308Y-123217796D02*
X151094546Y-123265415D01*
X151094546Y-123265415D02*
X151142165Y-123313034D01*
X151142165Y-123313034D02*
X151189784Y-123408272D01*
X151189784Y-123408272D02*
X151189784Y-123503510D01*
X151189784Y-123503510D02*
X151142165Y-123646367D01*
X151142165Y-123646367D02*
X150570737Y-124217796D01*
X150570737Y-124217796D02*
X151189784Y-124217796D01*
X151523118Y-123217796D02*
X152142165Y-123217796D01*
X152142165Y-123217796D02*
X151808832Y-123598748D01*
X151808832Y-123598748D02*
X151951689Y-123598748D01*
X151951689Y-123598748D02*
X152046927Y-123646367D01*
X152046927Y-123646367D02*
X152094546Y-123693986D01*
X152094546Y-123693986D02*
X152142165Y-123789224D01*
X152142165Y-123789224D02*
X152142165Y-124027319D01*
X152142165Y-124027319D02*
X152094546Y-124122557D01*
X152094546Y-124122557D02*
X152046927Y-124170177D01*
X152046927Y-124170177D02*
X151951689Y-124217796D01*
X151951689Y-124217796D02*
X151665975Y-124217796D01*
X151665975Y-124217796D02*
X151570737Y-124170177D01*
X151570737Y-124170177D02*
X151523118Y-124122557D01*
D11*
X124180978Y-108326578D02*
X123942883Y-108326578D01*
X123942883Y-108326578D02*
X123942883Y-106898006D01*
X123942883Y-106898006D02*
X124180978Y-106898006D01*
X124561931Y-107993245D02*
X124561931Y-106993245D01*
X124561931Y-106993245D02*
X124895264Y-107707530D01*
X124895264Y-107707530D02*
X125228597Y-106993245D01*
X125228597Y-106993245D02*
X125228597Y-107993245D01*
X125847645Y-107993245D02*
X125752407Y-107945626D01*
X125752407Y-107945626D02*
X125704788Y-107898006D01*
X125704788Y-107898006D02*
X125657169Y-107802768D01*
X125657169Y-107802768D02*
X125657169Y-107517054D01*
X125657169Y-107517054D02*
X125704788Y-107421816D01*
X125704788Y-107421816D02*
X125752407Y-107374197D01*
X125752407Y-107374197D02*
X125847645Y-107326578D01*
X125847645Y-107326578D02*
X125990502Y-107326578D01*
X125990502Y-107326578D02*
X126085740Y-107374197D01*
X126085740Y-107374197D02*
X126133359Y-107421816D01*
X126133359Y-107421816D02*
X126180978Y-107517054D01*
X126180978Y-107517054D02*
X126180978Y-107802768D01*
X126180978Y-107802768D02*
X126133359Y-107898006D01*
X126133359Y-107898006D02*
X126085740Y-107945626D01*
X126085740Y-107945626D02*
X125990502Y-107993245D01*
X125990502Y-107993245D02*
X125847645Y-107993245D01*
X126466693Y-107326578D02*
X126847645Y-107326578D01*
X126609550Y-106993245D02*
X126609550Y-107850387D01*
X126609550Y-107850387D02*
X126657169Y-107945626D01*
X126657169Y-107945626D02*
X126752407Y-107993245D01*
X126752407Y-107993245D02*
X126847645Y-107993245D01*
X127323836Y-107993245D02*
X127228598Y-107945626D01*
X127228598Y-107945626D02*
X127180979Y-107898006D01*
X127180979Y-107898006D02*
X127133360Y-107802768D01*
X127133360Y-107802768D02*
X127133360Y-107517054D01*
X127133360Y-107517054D02*
X127180979Y-107421816D01*
X127180979Y-107421816D02*
X127228598Y-107374197D01*
X127228598Y-107374197D02*
X127323836Y-107326578D01*
X127323836Y-107326578D02*
X127466693Y-107326578D01*
X127466693Y-107326578D02*
X127561931Y-107374197D01*
X127561931Y-107374197D02*
X127609550Y-107421816D01*
X127609550Y-107421816D02*
X127657169Y-107517054D01*
X127657169Y-107517054D02*
X127657169Y-107802768D01*
X127657169Y-107802768D02*
X127609550Y-107898006D01*
X127609550Y-107898006D02*
X127561931Y-107945626D01*
X127561931Y-107945626D02*
X127466693Y-107993245D01*
X127466693Y-107993245D02*
X127323836Y-107993245D01*
X128085741Y-107993245D02*
X128085741Y-107326578D01*
X128085741Y-107517054D02*
X128133360Y-107421816D01*
X128133360Y-107421816D02*
X128180979Y-107374197D01*
X128180979Y-107374197D02*
X128276217Y-107326578D01*
X128276217Y-107326578D02*
X128371455Y-107326578D01*
X130038122Y-107898006D02*
X129990503Y-107945626D01*
X129990503Y-107945626D02*
X129847646Y-107993245D01*
X129847646Y-107993245D02*
X129752408Y-107993245D01*
X129752408Y-107993245D02*
X129609551Y-107945626D01*
X129609551Y-107945626D02*
X129514313Y-107850387D01*
X129514313Y-107850387D02*
X129466694Y-107755149D01*
X129466694Y-107755149D02*
X129419075Y-107564673D01*
X129419075Y-107564673D02*
X129419075Y-107421816D01*
X129419075Y-107421816D02*
X129466694Y-107231340D01*
X129466694Y-107231340D02*
X129514313Y-107136102D01*
X129514313Y-107136102D02*
X129609551Y-107040864D01*
X129609551Y-107040864D02*
X129752408Y-106993245D01*
X129752408Y-106993245D02*
X129847646Y-106993245D01*
X129847646Y-106993245D02*
X129990503Y-107040864D01*
X129990503Y-107040864D02*
X130038122Y-107088483D01*
X130609551Y-107993245D02*
X130514313Y-107945626D01*
X130514313Y-107945626D02*
X130466694Y-107898006D01*
X130466694Y-107898006D02*
X130419075Y-107802768D01*
X130419075Y-107802768D02*
X130419075Y-107517054D01*
X130419075Y-107517054D02*
X130466694Y-107421816D01*
X130466694Y-107421816D02*
X130514313Y-107374197D01*
X130514313Y-107374197D02*
X130609551Y-107326578D01*
X130609551Y-107326578D02*
X130752408Y-107326578D01*
X130752408Y-107326578D02*
X130847646Y-107374197D01*
X130847646Y-107374197D02*
X130895265Y-107421816D01*
X130895265Y-107421816D02*
X130942884Y-107517054D01*
X130942884Y-107517054D02*
X130942884Y-107802768D01*
X130942884Y-107802768D02*
X130895265Y-107898006D01*
X130895265Y-107898006D02*
X130847646Y-107945626D01*
X130847646Y-107945626D02*
X130752408Y-107993245D01*
X130752408Y-107993245D02*
X130609551Y-107993245D01*
X131371456Y-107326578D02*
X131371456Y-107993245D01*
X131371456Y-107421816D02*
X131419075Y-107374197D01*
X131419075Y-107374197D02*
X131514313Y-107326578D01*
X131514313Y-107326578D02*
X131657170Y-107326578D01*
X131657170Y-107326578D02*
X131752408Y-107374197D01*
X131752408Y-107374197D02*
X131800027Y-107469435D01*
X131800027Y-107469435D02*
X131800027Y-107993245D01*
X132133361Y-107326578D02*
X132514313Y-107326578D01*
X132276218Y-106993245D02*
X132276218Y-107850387D01*
X132276218Y-107850387D02*
X132323837Y-107945626D01*
X132323837Y-107945626D02*
X132419075Y-107993245D01*
X132419075Y-107993245D02*
X132514313Y-107993245D01*
X132847647Y-107993245D02*
X132847647Y-107326578D01*
X132847647Y-107517054D02*
X132895266Y-107421816D01*
X132895266Y-107421816D02*
X132942885Y-107374197D01*
X132942885Y-107374197D02*
X133038123Y-107326578D01*
X133038123Y-107326578D02*
X133133361Y-107326578D01*
X133609552Y-107993245D02*
X133514314Y-107945626D01*
X133514314Y-107945626D02*
X133466695Y-107898006D01*
X133466695Y-107898006D02*
X133419076Y-107802768D01*
X133419076Y-107802768D02*
X133419076Y-107517054D01*
X133419076Y-107517054D02*
X133466695Y-107421816D01*
X133466695Y-107421816D02*
X133514314Y-107374197D01*
X133514314Y-107374197D02*
X133609552Y-107326578D01*
X133609552Y-107326578D02*
X133752409Y-107326578D01*
X133752409Y-107326578D02*
X133847647Y-107374197D01*
X133847647Y-107374197D02*
X133895266Y-107421816D01*
X133895266Y-107421816D02*
X133942885Y-107517054D01*
X133942885Y-107517054D02*
X133942885Y-107802768D01*
X133942885Y-107802768D02*
X133895266Y-107898006D01*
X133895266Y-107898006D02*
X133847647Y-107945626D01*
X133847647Y-107945626D02*
X133752409Y-107993245D01*
X133752409Y-107993245D02*
X133609552Y-107993245D01*
X134514314Y-107993245D02*
X134419076Y-107945626D01*
X134419076Y-107945626D02*
X134371457Y-107850387D01*
X134371457Y-107850387D02*
X134371457Y-106993245D01*
X134800029Y-108326578D02*
X135038124Y-108326578D01*
X135038124Y-108326578D02*
X135038124Y-106898006D01*
X135038124Y-106898006D02*
X134800029Y-106898006D01*
X153989126Y-118448335D02*
X153989126Y-118686430D01*
X153989126Y-118686430D02*
X152560554Y-118686430D01*
X152560554Y-118686430D02*
X152560554Y-118448335D01*
X153655793Y-117591192D02*
X153655793Y-118067382D01*
X153655793Y-118067382D02*
X152655793Y-118067382D01*
X153608174Y-116543572D02*
X153655793Y-116400715D01*
X153655793Y-116400715D02*
X153655793Y-116162620D01*
X153655793Y-116162620D02*
X153608174Y-116067382D01*
X153608174Y-116067382D02*
X153560554Y-116019763D01*
X153560554Y-116019763D02*
X153465316Y-115972144D01*
X153465316Y-115972144D02*
X153370078Y-115972144D01*
X153370078Y-115972144D02*
X153274840Y-116019763D01*
X153274840Y-116019763D02*
X153227221Y-116067382D01*
X153227221Y-116067382D02*
X153179602Y-116162620D01*
X153179602Y-116162620D02*
X153131983Y-116353096D01*
X153131983Y-116353096D02*
X153084364Y-116448334D01*
X153084364Y-116448334D02*
X153036745Y-116495953D01*
X153036745Y-116495953D02*
X152941507Y-116543572D01*
X152941507Y-116543572D02*
X152846269Y-116543572D01*
X152846269Y-116543572D02*
X152751031Y-116495953D01*
X152751031Y-116495953D02*
X152703412Y-116448334D01*
X152703412Y-116448334D02*
X152655793Y-116353096D01*
X152655793Y-116353096D02*
X152655793Y-116115001D01*
X152655793Y-116115001D02*
X152703412Y-115972144D01*
X153608174Y-115162620D02*
X153655793Y-115257858D01*
X153655793Y-115257858D02*
X153655793Y-115448334D01*
X153655793Y-115448334D02*
X153608174Y-115543572D01*
X153608174Y-115543572D02*
X153512935Y-115591191D01*
X153512935Y-115591191D02*
X153131983Y-115591191D01*
X153131983Y-115591191D02*
X153036745Y-115543572D01*
X153036745Y-115543572D02*
X152989126Y-115448334D01*
X152989126Y-115448334D02*
X152989126Y-115257858D01*
X152989126Y-115257858D02*
X153036745Y-115162620D01*
X153036745Y-115162620D02*
X153131983Y-115115001D01*
X153131983Y-115115001D02*
X153227221Y-115115001D01*
X153227221Y-115115001D02*
X153322459Y-115591191D01*
X152989126Y-114686429D02*
X153655793Y-114686429D01*
X153084364Y-114686429D02*
X153036745Y-114638810D01*
X153036745Y-114638810D02*
X152989126Y-114543572D01*
X152989126Y-114543572D02*
X152989126Y-114400715D01*
X152989126Y-114400715D02*
X153036745Y-114305477D01*
X153036745Y-114305477D02*
X153131983Y-114257858D01*
X153131983Y-114257858D02*
X153655793Y-114257858D01*
X153608174Y-113829286D02*
X153655793Y-113734048D01*
X153655793Y-113734048D02*
X153655793Y-113543572D01*
X153655793Y-113543572D02*
X153608174Y-113448334D01*
X153608174Y-113448334D02*
X153512935Y-113400715D01*
X153512935Y-113400715D02*
X153465316Y-113400715D01*
X153465316Y-113400715D02*
X153370078Y-113448334D01*
X153370078Y-113448334D02*
X153322459Y-113543572D01*
X153322459Y-113543572D02*
X153322459Y-113686429D01*
X153322459Y-113686429D02*
X153274840Y-113781667D01*
X153274840Y-113781667D02*
X153179602Y-113829286D01*
X153179602Y-113829286D02*
X153131983Y-113829286D01*
X153131983Y-113829286D02*
X153036745Y-113781667D01*
X153036745Y-113781667D02*
X152989126Y-113686429D01*
X152989126Y-113686429D02*
X152989126Y-113543572D01*
X152989126Y-113543572D02*
X153036745Y-113448334D01*
X153608174Y-112591191D02*
X153655793Y-112686429D01*
X153655793Y-112686429D02*
X153655793Y-112876905D01*
X153655793Y-112876905D02*
X153608174Y-112972143D01*
X153608174Y-112972143D02*
X153512935Y-113019762D01*
X153512935Y-113019762D02*
X153131983Y-113019762D01*
X153131983Y-113019762D02*
X153036745Y-112972143D01*
X153036745Y-112972143D02*
X152989126Y-112876905D01*
X152989126Y-112876905D02*
X152989126Y-112686429D01*
X152989126Y-112686429D02*
X153036745Y-112591191D01*
X153036745Y-112591191D02*
X153131983Y-112543572D01*
X153131983Y-112543572D02*
X153227221Y-112543572D01*
X153227221Y-112543572D02*
X153322459Y-113019762D01*
X153989126Y-112210238D02*
X153989126Y-111972143D01*
X153989126Y-111972143D02*
X152560554Y-111972143D01*
X152560554Y-111972143D02*
X152560554Y-112210238D01*
D12*
X137535112Y-67894780D02*
X137058921Y-67894780D01*
X137058921Y-67894780D02*
X137058921Y-65037637D01*
X137058921Y-65037637D02*
X137535112Y-65037637D01*
X138297016Y-67228114D02*
X138297016Y-65228114D01*
X139249397Y-67228114D02*
X139249397Y-65228114D01*
X139249397Y-65228114D02*
X139916064Y-66656685D01*
X139916064Y-66656685D02*
X140582730Y-65228114D01*
X140582730Y-65228114D02*
X140582730Y-67228114D01*
X141535111Y-65228114D02*
X141535111Y-66847161D01*
X141535111Y-66847161D02*
X141630349Y-67037637D01*
X141630349Y-67037637D02*
X141725587Y-67132876D01*
X141725587Y-67132876D02*
X141916063Y-67228114D01*
X141916063Y-67228114D02*
X142297016Y-67228114D01*
X142297016Y-67228114D02*
X142487492Y-67132876D01*
X142487492Y-67132876D02*
X142582730Y-67037637D01*
X142582730Y-67037637D02*
X142677968Y-66847161D01*
X142677968Y-66847161D02*
X142677968Y-65228114D01*
X143439873Y-67894780D02*
X143916063Y-67894780D01*
X143916063Y-67894780D02*
X143916063Y-65037637D01*
X143916063Y-65037637D02*
X143439873Y-65037637D01*
D11*
X101153412Y-111598566D02*
X101153412Y-111360471D01*
X101153412Y-111360471D02*
X102581984Y-111360471D01*
X102581984Y-111360471D02*
X102581984Y-111598566D01*
X101486745Y-112550947D02*
X101962936Y-112217614D01*
X101486745Y-111979519D02*
X102486745Y-111979519D01*
X102486745Y-111979519D02*
X102486745Y-112360471D01*
X102486745Y-112360471D02*
X102439126Y-112455709D01*
X102439126Y-112455709D02*
X102391507Y-112503328D01*
X102391507Y-112503328D02*
X102296269Y-112550947D01*
X102296269Y-112550947D02*
X102153412Y-112550947D01*
X102153412Y-112550947D02*
X102058174Y-112503328D01*
X102058174Y-112503328D02*
X102010555Y-112455709D01*
X102010555Y-112455709D02*
X101962936Y-112360471D01*
X101962936Y-112360471D02*
X101962936Y-111979519D01*
X101534365Y-113693805D02*
X101486745Y-113836662D01*
X101486745Y-113836662D02*
X101486745Y-114074757D01*
X101486745Y-114074757D02*
X101534365Y-114169995D01*
X101534365Y-114169995D02*
X101581984Y-114217614D01*
X101581984Y-114217614D02*
X101677222Y-114265233D01*
X101677222Y-114265233D02*
X101772460Y-114265233D01*
X101772460Y-114265233D02*
X101867698Y-114217614D01*
X101867698Y-114217614D02*
X101915317Y-114169995D01*
X101915317Y-114169995D02*
X101962936Y-114074757D01*
X101962936Y-114074757D02*
X102010555Y-113884281D01*
X102010555Y-113884281D02*
X102058174Y-113789043D01*
X102058174Y-113789043D02*
X102105793Y-113741424D01*
X102105793Y-113741424D02*
X102201031Y-113693805D01*
X102201031Y-113693805D02*
X102296269Y-113693805D01*
X102296269Y-113693805D02*
X102391507Y-113741424D01*
X102391507Y-113741424D02*
X102439126Y-113789043D01*
X102439126Y-113789043D02*
X102486745Y-113884281D01*
X102486745Y-113884281D02*
X102486745Y-114122376D01*
X102486745Y-114122376D02*
X102439126Y-114265233D01*
X101534365Y-115074757D02*
X101486745Y-114979519D01*
X101486745Y-114979519D02*
X101486745Y-114789043D01*
X101486745Y-114789043D02*
X101534365Y-114693805D01*
X101534365Y-114693805D02*
X101629603Y-114646186D01*
X101629603Y-114646186D02*
X102010555Y-114646186D01*
X102010555Y-114646186D02*
X102105793Y-114693805D01*
X102105793Y-114693805D02*
X102153412Y-114789043D01*
X102153412Y-114789043D02*
X102153412Y-114979519D01*
X102153412Y-114979519D02*
X102105793Y-115074757D01*
X102105793Y-115074757D02*
X102010555Y-115122376D01*
X102010555Y-115122376D02*
X101915317Y-115122376D01*
X101915317Y-115122376D02*
X101820079Y-114646186D01*
X102153412Y-115550948D02*
X101486745Y-115550948D01*
X102058174Y-115550948D02*
X102105793Y-115598567D01*
X102105793Y-115598567D02*
X102153412Y-115693805D01*
X102153412Y-115693805D02*
X102153412Y-115836662D01*
X102153412Y-115836662D02*
X102105793Y-115931900D01*
X102105793Y-115931900D02*
X102010555Y-115979519D01*
X102010555Y-115979519D02*
X101486745Y-115979519D01*
X101534365Y-116408091D02*
X101486745Y-116503329D01*
X101486745Y-116503329D02*
X101486745Y-116693805D01*
X101486745Y-116693805D02*
X101534365Y-116789043D01*
X101534365Y-116789043D02*
X101629603Y-116836662D01*
X101629603Y-116836662D02*
X101677222Y-116836662D01*
X101677222Y-116836662D02*
X101772460Y-116789043D01*
X101772460Y-116789043D02*
X101820079Y-116693805D01*
X101820079Y-116693805D02*
X101820079Y-116550948D01*
X101820079Y-116550948D02*
X101867698Y-116455710D01*
X101867698Y-116455710D02*
X101962936Y-116408091D01*
X101962936Y-116408091D02*
X102010555Y-116408091D01*
X102010555Y-116408091D02*
X102105793Y-116455710D01*
X102105793Y-116455710D02*
X102153412Y-116550948D01*
X102153412Y-116550948D02*
X102153412Y-116693805D01*
X102153412Y-116693805D02*
X102105793Y-116789043D01*
X101534365Y-117646186D02*
X101486745Y-117550948D01*
X101486745Y-117550948D02*
X101486745Y-117360472D01*
X101486745Y-117360472D02*
X101534365Y-117265234D01*
X101534365Y-117265234D02*
X101629603Y-117217615D01*
X101629603Y-117217615D02*
X102010555Y-117217615D01*
X102010555Y-117217615D02*
X102105793Y-117265234D01*
X102105793Y-117265234D02*
X102153412Y-117360472D01*
X102153412Y-117360472D02*
X102153412Y-117550948D01*
X102153412Y-117550948D02*
X102105793Y-117646186D01*
X102105793Y-117646186D02*
X102010555Y-117693805D01*
X102010555Y-117693805D02*
X101915317Y-117693805D01*
X101915317Y-117693805D02*
X101820079Y-117217615D01*
X101153412Y-118027139D02*
X101153412Y-118265234D01*
X101153412Y-118265234D02*
X102581984Y-118265234D01*
X102581984Y-118265234D02*
X102581984Y-118027139D01*
D12*
X117689901Y-87128555D02*
X117213710Y-87128555D01*
X117213710Y-87128555D02*
X117213710Y-84271412D01*
X117213710Y-84271412D02*
X117689901Y-84271412D01*
X118451805Y-86461889D02*
X118451805Y-84461889D01*
X118451805Y-84461889D02*
X119118472Y-85890460D01*
X119118472Y-85890460D02*
X119785138Y-84461889D01*
X119785138Y-84461889D02*
X119785138Y-86461889D01*
X121880376Y-86271412D02*
X121785138Y-86366651D01*
X121785138Y-86366651D02*
X121499424Y-86461889D01*
X121499424Y-86461889D02*
X121308948Y-86461889D01*
X121308948Y-86461889D02*
X121023233Y-86366651D01*
X121023233Y-86366651D02*
X120832757Y-86176174D01*
X120832757Y-86176174D02*
X120737519Y-85985698D01*
X120737519Y-85985698D02*
X120642281Y-85604746D01*
X120642281Y-85604746D02*
X120642281Y-85319031D01*
X120642281Y-85319031D02*
X120737519Y-84938079D01*
X120737519Y-84938079D02*
X120832757Y-84747603D01*
X120832757Y-84747603D02*
X121023233Y-84557127D01*
X121023233Y-84557127D02*
X121308948Y-84461889D01*
X121308948Y-84461889D02*
X121499424Y-84461889D01*
X121499424Y-84461889D02*
X121785138Y-84557127D01*
X121785138Y-84557127D02*
X121880376Y-84652365D01*
X122737519Y-84461889D02*
X122737519Y-86080936D01*
X122737519Y-86080936D02*
X122832757Y-86271412D01*
X122832757Y-86271412D02*
X122927995Y-86366651D01*
X122927995Y-86366651D02*
X123118471Y-86461889D01*
X123118471Y-86461889D02*
X123499424Y-86461889D01*
X123499424Y-86461889D02*
X123689900Y-86366651D01*
X123689900Y-86366651D02*
X123785138Y-86271412D01*
X123785138Y-86271412D02*
X123880376Y-86080936D01*
X123880376Y-86080936D02*
X123880376Y-84461889D01*
X124642281Y-87128555D02*
X125118471Y-87128555D01*
X125118471Y-87128555D02*
X125118471Y-84271412D01*
X125118471Y-84271412D02*
X124642281Y-84271412D01*
D13*
%TO.C,C5*%
X146652496Y-103835800D02*
X146628687Y-103859610D01*
X146628687Y-103859610D02*
X146557258Y-103883419D01*
X146557258Y-103883419D02*
X146509639Y-103883419D01*
X146509639Y-103883419D02*
X146438211Y-103859610D01*
X146438211Y-103859610D02*
X146390592Y-103811990D01*
X146390592Y-103811990D02*
X146366782Y-103764371D01*
X146366782Y-103764371D02*
X146342973Y-103669133D01*
X146342973Y-103669133D02*
X146342973Y-103597705D01*
X146342973Y-103597705D02*
X146366782Y-103502467D01*
X146366782Y-103502467D02*
X146390592Y-103454848D01*
X146390592Y-103454848D02*
X146438211Y-103407229D01*
X146438211Y-103407229D02*
X146509639Y-103383419D01*
X146509639Y-103383419D02*
X146557258Y-103383419D01*
X146557258Y-103383419D02*
X146628687Y-103407229D01*
X146628687Y-103407229D02*
X146652496Y-103431038D01*
X147104877Y-103383419D02*
X146866782Y-103383419D01*
X146866782Y-103383419D02*
X146842973Y-103621514D01*
X146842973Y-103621514D02*
X146866782Y-103597705D01*
X146866782Y-103597705D02*
X146914401Y-103573895D01*
X146914401Y-103573895D02*
X147033449Y-103573895D01*
X147033449Y-103573895D02*
X147081068Y-103597705D01*
X147081068Y-103597705D02*
X147104877Y-103621514D01*
X147104877Y-103621514D02*
X147128687Y-103669133D01*
X147128687Y-103669133D02*
X147128687Y-103788181D01*
X147128687Y-103788181D02*
X147104877Y-103835800D01*
X147104877Y-103835800D02*
X147081068Y-103859610D01*
X147081068Y-103859610D02*
X147033449Y-103883419D01*
X147033449Y-103883419D02*
X146914401Y-103883419D01*
X146914401Y-103883419D02*
X146866782Y-103859610D01*
X146866782Y-103859610D02*
X146842973Y-103835800D01*
D10*
%TO.C,C12*%
X129297780Y-111132857D02*
X129345400Y-111180476D01*
X129345400Y-111180476D02*
X129393019Y-111323333D01*
X129393019Y-111323333D02*
X129393019Y-111418571D01*
X129393019Y-111418571D02*
X129345400Y-111561428D01*
X129345400Y-111561428D02*
X129250161Y-111656666D01*
X129250161Y-111656666D02*
X129154923Y-111704285D01*
X129154923Y-111704285D02*
X128964447Y-111751904D01*
X128964447Y-111751904D02*
X128821590Y-111751904D01*
X128821590Y-111751904D02*
X128631114Y-111704285D01*
X128631114Y-111704285D02*
X128535876Y-111656666D01*
X128535876Y-111656666D02*
X128440638Y-111561428D01*
X128440638Y-111561428D02*
X128393019Y-111418571D01*
X128393019Y-111418571D02*
X128393019Y-111323333D01*
X128393019Y-111323333D02*
X128440638Y-111180476D01*
X128440638Y-111180476D02*
X128488257Y-111132857D01*
X129393019Y-110180476D02*
X129393019Y-110751904D01*
X129393019Y-110466190D02*
X128393019Y-110466190D01*
X128393019Y-110466190D02*
X128535876Y-110561428D01*
X128535876Y-110561428D02*
X128631114Y-110656666D01*
X128631114Y-110656666D02*
X128678733Y-110751904D01*
X128488257Y-109799523D02*
X128440638Y-109751904D01*
X128440638Y-109751904D02*
X128393019Y-109656666D01*
X128393019Y-109656666D02*
X128393019Y-109418571D01*
X128393019Y-109418571D02*
X128440638Y-109323333D01*
X128440638Y-109323333D02*
X128488257Y-109275714D01*
X128488257Y-109275714D02*
X128583495Y-109228095D01*
X128583495Y-109228095D02*
X128678733Y-109228095D01*
X128678733Y-109228095D02*
X128821590Y-109275714D01*
X128821590Y-109275714D02*
X129393019Y-109847142D01*
X129393019Y-109847142D02*
X129393019Y-109228095D01*
D13*
%TO.C,C9*%
X108628666Y-118166690D02*
X108604857Y-118190500D01*
X108604857Y-118190500D02*
X108533428Y-118214309D01*
X108533428Y-118214309D02*
X108485809Y-118214309D01*
X108485809Y-118214309D02*
X108414381Y-118190500D01*
X108414381Y-118190500D02*
X108366762Y-118142880D01*
X108366762Y-118142880D02*
X108342952Y-118095261D01*
X108342952Y-118095261D02*
X108319143Y-118000023D01*
X108319143Y-118000023D02*
X108319143Y-117928595D01*
X108319143Y-117928595D02*
X108342952Y-117833357D01*
X108342952Y-117833357D02*
X108366762Y-117785738D01*
X108366762Y-117785738D02*
X108414381Y-117738119D01*
X108414381Y-117738119D02*
X108485809Y-117714309D01*
X108485809Y-117714309D02*
X108533428Y-117714309D01*
X108533428Y-117714309D02*
X108604857Y-117738119D01*
X108604857Y-117738119D02*
X108628666Y-117761928D01*
X108866762Y-118214309D02*
X108962000Y-118214309D01*
X108962000Y-118214309D02*
X109009619Y-118190500D01*
X109009619Y-118190500D02*
X109033428Y-118166690D01*
X109033428Y-118166690D02*
X109081047Y-118095261D01*
X109081047Y-118095261D02*
X109104857Y-118000023D01*
X109104857Y-118000023D02*
X109104857Y-117809547D01*
X109104857Y-117809547D02*
X109081047Y-117761928D01*
X109081047Y-117761928D02*
X109057238Y-117738119D01*
X109057238Y-117738119D02*
X109009619Y-117714309D01*
X109009619Y-117714309D02*
X108914381Y-117714309D01*
X108914381Y-117714309D02*
X108866762Y-117738119D01*
X108866762Y-117738119D02*
X108842952Y-117761928D01*
X108842952Y-117761928D02*
X108819143Y-117809547D01*
X108819143Y-117809547D02*
X108819143Y-117928595D01*
X108819143Y-117928595D02*
X108842952Y-117976214D01*
X108842952Y-117976214D02*
X108866762Y-118000023D01*
X108866762Y-118000023D02*
X108914381Y-118023833D01*
X108914381Y-118023833D02*
X109009619Y-118023833D01*
X109009619Y-118023833D02*
X109057238Y-118000023D01*
X109057238Y-118000023D02*
X109081047Y-117976214D01*
X109081047Y-117976214D02*
X109104857Y-117928595D01*
D10*
%TO.C,J2*%
X102536666Y-101062619D02*
X102536666Y-101776904D01*
X102536666Y-101776904D02*
X102489047Y-101919761D01*
X102489047Y-101919761D02*
X102393809Y-102015000D01*
X102393809Y-102015000D02*
X102250952Y-102062619D01*
X102250952Y-102062619D02*
X102155714Y-102062619D01*
X102965238Y-101157857D02*
X103012857Y-101110238D01*
X103012857Y-101110238D02*
X103108095Y-101062619D01*
X103108095Y-101062619D02*
X103346190Y-101062619D01*
X103346190Y-101062619D02*
X103441428Y-101110238D01*
X103441428Y-101110238D02*
X103489047Y-101157857D01*
X103489047Y-101157857D02*
X103536666Y-101253095D01*
X103536666Y-101253095D02*
X103536666Y-101348333D01*
X103536666Y-101348333D02*
X103489047Y-101491190D01*
X103489047Y-101491190D02*
X102917619Y-102062619D01*
X102917619Y-102062619D02*
X103536666Y-102062619D01*
%TO.C,R1*%
X138750168Y-85582964D02*
X138416835Y-85106773D01*
X138178740Y-85582964D02*
X138178740Y-84582964D01*
X138178740Y-84582964D02*
X138559692Y-84582964D01*
X138559692Y-84582964D02*
X138654930Y-84630583D01*
X138654930Y-84630583D02*
X138702549Y-84678202D01*
X138702549Y-84678202D02*
X138750168Y-84773440D01*
X138750168Y-84773440D02*
X138750168Y-84916297D01*
X138750168Y-84916297D02*
X138702549Y-85011535D01*
X138702549Y-85011535D02*
X138654930Y-85059154D01*
X138654930Y-85059154D02*
X138559692Y-85106773D01*
X138559692Y-85106773D02*
X138178740Y-85106773D01*
X139702549Y-85582964D02*
X139131121Y-85582964D01*
X139416835Y-85582964D02*
X139416835Y-84582964D01*
X139416835Y-84582964D02*
X139321597Y-84725821D01*
X139321597Y-84725821D02*
X139226359Y-84821059D01*
X139226359Y-84821059D02*
X139131121Y-84868678D01*
%TO.C,U2*%
X149334775Y-63970632D02*
X149334775Y-64780155D01*
X149334775Y-64780155D02*
X149382394Y-64875393D01*
X149382394Y-64875393D02*
X149430013Y-64923013D01*
X149430013Y-64923013D02*
X149525251Y-64970632D01*
X149525251Y-64970632D02*
X149715727Y-64970632D01*
X149715727Y-64970632D02*
X149810965Y-64923013D01*
X149810965Y-64923013D02*
X149858584Y-64875393D01*
X149858584Y-64875393D02*
X149906203Y-64780155D01*
X149906203Y-64780155D02*
X149906203Y-63970632D01*
X150334775Y-64065870D02*
X150382394Y-64018251D01*
X150382394Y-64018251D02*
X150477632Y-63970632D01*
X150477632Y-63970632D02*
X150715727Y-63970632D01*
X150715727Y-63970632D02*
X150810965Y-64018251D01*
X150810965Y-64018251D02*
X150858584Y-64065870D01*
X150858584Y-64065870D02*
X150906203Y-64161108D01*
X150906203Y-64161108D02*
X150906203Y-64256346D01*
X150906203Y-64256346D02*
X150858584Y-64399203D01*
X150858584Y-64399203D02*
X150287156Y-64970632D01*
X150287156Y-64970632D02*
X150906203Y-64970632D01*
D13*
%TO.C,C2*%
X139997666Y-118420690D02*
X139973857Y-118444500D01*
X139973857Y-118444500D02*
X139902428Y-118468309D01*
X139902428Y-118468309D02*
X139854809Y-118468309D01*
X139854809Y-118468309D02*
X139783381Y-118444500D01*
X139783381Y-118444500D02*
X139735762Y-118396880D01*
X139735762Y-118396880D02*
X139711952Y-118349261D01*
X139711952Y-118349261D02*
X139688143Y-118254023D01*
X139688143Y-118254023D02*
X139688143Y-118182595D01*
X139688143Y-118182595D02*
X139711952Y-118087357D01*
X139711952Y-118087357D02*
X139735762Y-118039738D01*
X139735762Y-118039738D02*
X139783381Y-117992119D01*
X139783381Y-117992119D02*
X139854809Y-117968309D01*
X139854809Y-117968309D02*
X139902428Y-117968309D01*
X139902428Y-117968309D02*
X139973857Y-117992119D01*
X139973857Y-117992119D02*
X139997666Y-118015928D01*
X140188143Y-118015928D02*
X140211952Y-117992119D01*
X140211952Y-117992119D02*
X140259571Y-117968309D01*
X140259571Y-117968309D02*
X140378619Y-117968309D01*
X140378619Y-117968309D02*
X140426238Y-117992119D01*
X140426238Y-117992119D02*
X140450047Y-118015928D01*
X140450047Y-118015928D02*
X140473857Y-118063547D01*
X140473857Y-118063547D02*
X140473857Y-118111166D01*
X140473857Y-118111166D02*
X140450047Y-118182595D01*
X140450047Y-118182595D02*
X140164333Y-118468309D01*
X140164333Y-118468309D02*
X140473857Y-118468309D01*
D10*
%TO.C,C6*%
X124776580Y-111164666D02*
X124824200Y-111212285D01*
X124824200Y-111212285D02*
X124871819Y-111355142D01*
X124871819Y-111355142D02*
X124871819Y-111450380D01*
X124871819Y-111450380D02*
X124824200Y-111593237D01*
X124824200Y-111593237D02*
X124728961Y-111688475D01*
X124728961Y-111688475D02*
X124633723Y-111736094D01*
X124633723Y-111736094D02*
X124443247Y-111783713D01*
X124443247Y-111783713D02*
X124300390Y-111783713D01*
X124300390Y-111783713D02*
X124109914Y-111736094D01*
X124109914Y-111736094D02*
X124014676Y-111688475D01*
X124014676Y-111688475D02*
X123919438Y-111593237D01*
X123919438Y-111593237D02*
X123871819Y-111450380D01*
X123871819Y-111450380D02*
X123871819Y-111355142D01*
X123871819Y-111355142D02*
X123919438Y-111212285D01*
X123919438Y-111212285D02*
X123967057Y-111164666D01*
X123871819Y-110307523D02*
X123871819Y-110497999D01*
X123871819Y-110497999D02*
X123919438Y-110593237D01*
X123919438Y-110593237D02*
X123967057Y-110640856D01*
X123967057Y-110640856D02*
X124109914Y-110736094D01*
X124109914Y-110736094D02*
X124300390Y-110783713D01*
X124300390Y-110783713D02*
X124681342Y-110783713D01*
X124681342Y-110783713D02*
X124776580Y-110736094D01*
X124776580Y-110736094D02*
X124824200Y-110688475D01*
X124824200Y-110688475D02*
X124871819Y-110593237D01*
X124871819Y-110593237D02*
X124871819Y-110402761D01*
X124871819Y-110402761D02*
X124824200Y-110307523D01*
X124824200Y-110307523D02*
X124776580Y-110259904D01*
X124776580Y-110259904D02*
X124681342Y-110212285D01*
X124681342Y-110212285D02*
X124443247Y-110212285D01*
X124443247Y-110212285D02*
X124348009Y-110259904D01*
X124348009Y-110259904D02*
X124300390Y-110307523D01*
X124300390Y-110307523D02*
X124252771Y-110402761D01*
X124252771Y-110402761D02*
X124252771Y-110593237D01*
X124252771Y-110593237D02*
X124300390Y-110688475D01*
X124300390Y-110688475D02*
X124348009Y-110736094D01*
X124348009Y-110736094D02*
X124443247Y-110783713D01*
D13*
%TO.C,C3*%
X148659066Y-117430090D02*
X148635257Y-117453900D01*
X148635257Y-117453900D02*
X148563828Y-117477709D01*
X148563828Y-117477709D02*
X148516209Y-117477709D01*
X148516209Y-117477709D02*
X148444781Y-117453900D01*
X148444781Y-117453900D02*
X148397162Y-117406280D01*
X148397162Y-117406280D02*
X148373352Y-117358661D01*
X148373352Y-117358661D02*
X148349543Y-117263423D01*
X148349543Y-117263423D02*
X148349543Y-117191995D01*
X148349543Y-117191995D02*
X148373352Y-117096757D01*
X148373352Y-117096757D02*
X148397162Y-117049138D01*
X148397162Y-117049138D02*
X148444781Y-117001519D01*
X148444781Y-117001519D02*
X148516209Y-116977709D01*
X148516209Y-116977709D02*
X148563828Y-116977709D01*
X148563828Y-116977709D02*
X148635257Y-117001519D01*
X148635257Y-117001519D02*
X148659066Y-117025328D01*
X148825733Y-116977709D02*
X149135257Y-116977709D01*
X149135257Y-116977709D02*
X148968590Y-117168185D01*
X148968590Y-117168185D02*
X149040019Y-117168185D01*
X149040019Y-117168185D02*
X149087638Y-117191995D01*
X149087638Y-117191995D02*
X149111447Y-117215804D01*
X149111447Y-117215804D02*
X149135257Y-117263423D01*
X149135257Y-117263423D02*
X149135257Y-117382471D01*
X149135257Y-117382471D02*
X149111447Y-117430090D01*
X149111447Y-117430090D02*
X149087638Y-117453900D01*
X149087638Y-117453900D02*
X149040019Y-117477709D01*
X149040019Y-117477709D02*
X148897162Y-117477709D01*
X148897162Y-117477709D02*
X148849543Y-117453900D01*
X148849543Y-117453900D02*
X148825733Y-117430090D01*
D10*
%TO.C,J1*%
X108520991Y-68157179D02*
X108520991Y-68871464D01*
X108520991Y-68871464D02*
X108473372Y-69014321D01*
X108473372Y-69014321D02*
X108378134Y-69109560D01*
X108378134Y-69109560D02*
X108235277Y-69157179D01*
X108235277Y-69157179D02*
X108140039Y-69157179D01*
X109520991Y-69157179D02*
X108949563Y-69157179D01*
X109235277Y-69157179D02*
X109235277Y-68157179D01*
X109235277Y-68157179D02*
X109140039Y-68300036D01*
X109140039Y-68300036D02*
X109044801Y-68395274D01*
X109044801Y-68395274D02*
X108949563Y-68442893D01*
D13*
%TO.C,C10*%
X104298290Y-117288428D02*
X104322100Y-117312237D01*
X104322100Y-117312237D02*
X104345909Y-117383666D01*
X104345909Y-117383666D02*
X104345909Y-117431285D01*
X104345909Y-117431285D02*
X104322100Y-117502713D01*
X104322100Y-117502713D02*
X104274480Y-117550332D01*
X104274480Y-117550332D02*
X104226861Y-117574142D01*
X104226861Y-117574142D02*
X104131623Y-117597951D01*
X104131623Y-117597951D02*
X104060195Y-117597951D01*
X104060195Y-117597951D02*
X103964957Y-117574142D01*
X103964957Y-117574142D02*
X103917338Y-117550332D01*
X103917338Y-117550332D02*
X103869719Y-117502713D01*
X103869719Y-117502713D02*
X103845909Y-117431285D01*
X103845909Y-117431285D02*
X103845909Y-117383666D01*
X103845909Y-117383666D02*
X103869719Y-117312237D01*
X103869719Y-117312237D02*
X103893528Y-117288428D01*
X104345909Y-116812237D02*
X104345909Y-117097951D01*
X104345909Y-116955094D02*
X103845909Y-116955094D01*
X103845909Y-116955094D02*
X103917338Y-117002713D01*
X103917338Y-117002713D02*
X103964957Y-117050332D01*
X103964957Y-117050332D02*
X103988766Y-117097951D01*
X103845909Y-116502714D02*
X103845909Y-116455095D01*
X103845909Y-116455095D02*
X103869719Y-116407476D01*
X103869719Y-116407476D02*
X103893528Y-116383666D01*
X103893528Y-116383666D02*
X103941147Y-116359857D01*
X103941147Y-116359857D02*
X104036385Y-116336047D01*
X104036385Y-116336047D02*
X104155433Y-116336047D01*
X104155433Y-116336047D02*
X104250671Y-116359857D01*
X104250671Y-116359857D02*
X104298290Y-116383666D01*
X104298290Y-116383666D02*
X104322100Y-116407476D01*
X104322100Y-116407476D02*
X104345909Y-116455095D01*
X104345909Y-116455095D02*
X104345909Y-116502714D01*
X104345909Y-116502714D02*
X104322100Y-116550333D01*
X104322100Y-116550333D02*
X104298290Y-116574142D01*
X104298290Y-116574142D02*
X104250671Y-116597952D01*
X104250671Y-116597952D02*
X104155433Y-116621761D01*
X104155433Y-116621761D02*
X104036385Y-116621761D01*
X104036385Y-116621761D02*
X103941147Y-116597952D01*
X103941147Y-116597952D02*
X103893528Y-116574142D01*
X103893528Y-116574142D02*
X103869719Y-116550333D01*
X103869719Y-116550333D02*
X103845909Y-116502714D01*
D10*
%TO.C,J4*%
X134591466Y-117318619D02*
X134591466Y-118032904D01*
X134591466Y-118032904D02*
X134543847Y-118175761D01*
X134543847Y-118175761D02*
X134448609Y-118271000D01*
X134448609Y-118271000D02*
X134305752Y-118318619D01*
X134305752Y-118318619D02*
X134210514Y-118318619D01*
X135496228Y-117651952D02*
X135496228Y-118318619D01*
X135258133Y-117271000D02*
X135020038Y-117985285D01*
X135020038Y-117985285D02*
X135639085Y-117985285D01*
X130733928Y-123685714D02*
X130733928Y-124042857D01*
X130733928Y-124042857D02*
X128591071Y-124042857D01*
X128591071Y-124042857D02*
X128591071Y-123685714D01*
X130233928Y-123114286D02*
X128733928Y-123114286D01*
X128733928Y-123114286D02*
X129805357Y-122614286D01*
X129805357Y-122614286D02*
X128733928Y-122114286D01*
X128733928Y-122114286D02*
X130233928Y-122114286D01*
X128733928Y-121114285D02*
X128733928Y-120828571D01*
X128733928Y-120828571D02*
X128805357Y-120685714D01*
X128805357Y-120685714D02*
X128948214Y-120542857D01*
X128948214Y-120542857D02*
X129233928Y-120471428D01*
X129233928Y-120471428D02*
X129733928Y-120471428D01*
X129733928Y-120471428D02*
X130019642Y-120542857D01*
X130019642Y-120542857D02*
X130162500Y-120685714D01*
X130162500Y-120685714D02*
X130233928Y-120828571D01*
X130233928Y-120828571D02*
X130233928Y-121114285D01*
X130233928Y-121114285D02*
X130162500Y-121257143D01*
X130162500Y-121257143D02*
X130019642Y-121400000D01*
X130019642Y-121400000D02*
X129733928Y-121471428D01*
X129733928Y-121471428D02*
X129233928Y-121471428D01*
X129233928Y-121471428D02*
X128948214Y-121400000D01*
X128948214Y-121400000D02*
X128805357Y-121257143D01*
X128805357Y-121257143D02*
X128733928Y-121114285D01*
X128733928Y-120042856D02*
X128733928Y-119185714D01*
X130233928Y-119614285D02*
X128733928Y-119614285D01*
X130233928Y-117971428D02*
X130233928Y-118685714D01*
X130233928Y-118685714D02*
X128733928Y-118685714D01*
X130733928Y-117614285D02*
X130733928Y-117257142D01*
X130733928Y-117257142D02*
X128591071Y-117257142D01*
X128591071Y-117257142D02*
X128591071Y-117614285D01*
%TO.C,R2*%
X138828057Y-81783699D02*
X138494724Y-81307508D01*
X138256629Y-81783699D02*
X138256629Y-80783699D01*
X138256629Y-80783699D02*
X138637581Y-80783699D01*
X138637581Y-80783699D02*
X138732819Y-80831318D01*
X138732819Y-80831318D02*
X138780438Y-80878937D01*
X138780438Y-80878937D02*
X138828057Y-80974175D01*
X138828057Y-80974175D02*
X138828057Y-81117032D01*
X138828057Y-81117032D02*
X138780438Y-81212270D01*
X138780438Y-81212270D02*
X138732819Y-81259889D01*
X138732819Y-81259889D02*
X138637581Y-81307508D01*
X138637581Y-81307508D02*
X138256629Y-81307508D01*
X139209010Y-80878937D02*
X139256629Y-80831318D01*
X139256629Y-80831318D02*
X139351867Y-80783699D01*
X139351867Y-80783699D02*
X139589962Y-80783699D01*
X139589962Y-80783699D02*
X139685200Y-80831318D01*
X139685200Y-80831318D02*
X139732819Y-80878937D01*
X139732819Y-80878937D02*
X139780438Y-80974175D01*
X139780438Y-80974175D02*
X139780438Y-81069413D01*
X139780438Y-81069413D02*
X139732819Y-81212270D01*
X139732819Y-81212270D02*
X139161391Y-81783699D01*
X139161391Y-81783699D02*
X139780438Y-81783699D01*
D13*
%TO.C,C8*%
X116756666Y-117783402D02*
X116732857Y-117807212D01*
X116732857Y-117807212D02*
X116661428Y-117831021D01*
X116661428Y-117831021D02*
X116613809Y-117831021D01*
X116613809Y-117831021D02*
X116542381Y-117807212D01*
X116542381Y-117807212D02*
X116494762Y-117759592D01*
X116494762Y-117759592D02*
X116470952Y-117711973D01*
X116470952Y-117711973D02*
X116447143Y-117616735D01*
X116447143Y-117616735D02*
X116447143Y-117545307D01*
X116447143Y-117545307D02*
X116470952Y-117450069D01*
X116470952Y-117450069D02*
X116494762Y-117402450D01*
X116494762Y-117402450D02*
X116542381Y-117354831D01*
X116542381Y-117354831D02*
X116613809Y-117331021D01*
X116613809Y-117331021D02*
X116661428Y-117331021D01*
X116661428Y-117331021D02*
X116732857Y-117354831D01*
X116732857Y-117354831D02*
X116756666Y-117378640D01*
X117042381Y-117545307D02*
X116994762Y-117521497D01*
X116994762Y-117521497D02*
X116970952Y-117497688D01*
X116970952Y-117497688D02*
X116947143Y-117450069D01*
X116947143Y-117450069D02*
X116947143Y-117426259D01*
X116947143Y-117426259D02*
X116970952Y-117378640D01*
X116970952Y-117378640D02*
X116994762Y-117354831D01*
X116994762Y-117354831D02*
X117042381Y-117331021D01*
X117042381Y-117331021D02*
X117137619Y-117331021D01*
X117137619Y-117331021D02*
X117185238Y-117354831D01*
X117185238Y-117354831D02*
X117209047Y-117378640D01*
X117209047Y-117378640D02*
X117232857Y-117426259D01*
X117232857Y-117426259D02*
X117232857Y-117450069D01*
X117232857Y-117450069D02*
X117209047Y-117497688D01*
X117209047Y-117497688D02*
X117185238Y-117521497D01*
X117185238Y-117521497D02*
X117137619Y-117545307D01*
X117137619Y-117545307D02*
X117042381Y-117545307D01*
X117042381Y-117545307D02*
X116994762Y-117569116D01*
X116994762Y-117569116D02*
X116970952Y-117592926D01*
X116970952Y-117592926D02*
X116947143Y-117640545D01*
X116947143Y-117640545D02*
X116947143Y-117735783D01*
X116947143Y-117735783D02*
X116970952Y-117783402D01*
X116970952Y-117783402D02*
X116994762Y-117807212D01*
X116994762Y-117807212D02*
X117042381Y-117831021D01*
X117042381Y-117831021D02*
X117137619Y-117831021D01*
X117137619Y-117831021D02*
X117185238Y-117807212D01*
X117185238Y-117807212D02*
X117209047Y-117783402D01*
X117209047Y-117783402D02*
X117232857Y-117735783D01*
X117232857Y-117735783D02*
X117232857Y-117640545D01*
X117232857Y-117640545D02*
X117209047Y-117592926D01*
X117209047Y-117592926D02*
X117185238Y-117569116D01*
X117185238Y-117569116D02*
X117137619Y-117545307D01*
D10*
%TO.C,J3*%
X150547428Y-101702932D02*
X150547428Y-102417217D01*
X150547428Y-102417217D02*
X150499809Y-102560074D01*
X150499809Y-102560074D02*
X150404571Y-102655313D01*
X150404571Y-102655313D02*
X150261714Y-102702932D01*
X150261714Y-102702932D02*
X150166476Y-102702932D01*
X150928381Y-101702932D02*
X151547428Y-101702932D01*
X151547428Y-101702932D02*
X151214095Y-102083884D01*
X151214095Y-102083884D02*
X151356952Y-102083884D01*
X151356952Y-102083884D02*
X151452190Y-102131503D01*
X151452190Y-102131503D02*
X151499809Y-102179122D01*
X151499809Y-102179122D02*
X151547428Y-102274360D01*
X151547428Y-102274360D02*
X151547428Y-102512455D01*
X151547428Y-102512455D02*
X151499809Y-102607693D01*
X151499809Y-102607693D02*
X151452190Y-102655313D01*
X151452190Y-102655313D02*
X151356952Y-102702932D01*
X151356952Y-102702932D02*
X151071238Y-102702932D01*
X151071238Y-102702932D02*
X150976000Y-102655313D01*
X150976000Y-102655313D02*
X150928381Y-102607693D01*
%TO.C,U5*%
X105595619Y-109981904D02*
X106405142Y-109981904D01*
X106405142Y-109981904D02*
X106500380Y-109934285D01*
X106500380Y-109934285D02*
X106548000Y-109886666D01*
X106548000Y-109886666D02*
X106595619Y-109791428D01*
X106595619Y-109791428D02*
X106595619Y-109600952D01*
X106595619Y-109600952D02*
X106548000Y-109505714D01*
X106548000Y-109505714D02*
X106500380Y-109458095D01*
X106500380Y-109458095D02*
X106405142Y-109410476D01*
X106405142Y-109410476D02*
X105595619Y-109410476D01*
X105595619Y-108458095D02*
X105595619Y-108934285D01*
X105595619Y-108934285D02*
X106071809Y-108981904D01*
X106071809Y-108981904D02*
X106024190Y-108934285D01*
X106024190Y-108934285D02*
X105976571Y-108839047D01*
X105976571Y-108839047D02*
X105976571Y-108600952D01*
X105976571Y-108600952D02*
X106024190Y-108505714D01*
X106024190Y-108505714D02*
X106071809Y-108458095D01*
X106071809Y-108458095D02*
X106167047Y-108410476D01*
X106167047Y-108410476D02*
X106405142Y-108410476D01*
X106405142Y-108410476D02*
X106500380Y-108458095D01*
X106500380Y-108458095D02*
X106548000Y-108505714D01*
X106548000Y-108505714D02*
X106595619Y-108600952D01*
X106595619Y-108600952D02*
X106595619Y-108839047D01*
X106595619Y-108839047D02*
X106548000Y-108934285D01*
X106548000Y-108934285D02*
X106500380Y-108981904D01*
D13*
%TO.C,C7*%
X104298290Y-112935533D02*
X104322100Y-112959342D01*
X104322100Y-112959342D02*
X104345909Y-113030771D01*
X104345909Y-113030771D02*
X104345909Y-113078390D01*
X104345909Y-113078390D02*
X104322100Y-113149818D01*
X104322100Y-113149818D02*
X104274480Y-113197437D01*
X104274480Y-113197437D02*
X104226861Y-113221247D01*
X104226861Y-113221247D02*
X104131623Y-113245056D01*
X104131623Y-113245056D02*
X104060195Y-113245056D01*
X104060195Y-113245056D02*
X103964957Y-113221247D01*
X103964957Y-113221247D02*
X103917338Y-113197437D01*
X103917338Y-113197437D02*
X103869719Y-113149818D01*
X103869719Y-113149818D02*
X103845909Y-113078390D01*
X103845909Y-113078390D02*
X103845909Y-113030771D01*
X103845909Y-113030771D02*
X103869719Y-112959342D01*
X103869719Y-112959342D02*
X103893528Y-112935533D01*
X103845909Y-112768866D02*
X103845909Y-112435533D01*
X103845909Y-112435533D02*
X104345909Y-112649818D01*
D10*
%TO.C,R3*%
X110577333Y-87330619D02*
X110244000Y-86854428D01*
X110005905Y-87330619D02*
X110005905Y-86330619D01*
X110005905Y-86330619D02*
X110386857Y-86330619D01*
X110386857Y-86330619D02*
X110482095Y-86378238D01*
X110482095Y-86378238D02*
X110529714Y-86425857D01*
X110529714Y-86425857D02*
X110577333Y-86521095D01*
X110577333Y-86521095D02*
X110577333Y-86663952D01*
X110577333Y-86663952D02*
X110529714Y-86759190D01*
X110529714Y-86759190D02*
X110482095Y-86806809D01*
X110482095Y-86806809D02*
X110386857Y-86854428D01*
X110386857Y-86854428D02*
X110005905Y-86854428D01*
X110910667Y-86330619D02*
X111529714Y-86330619D01*
X111529714Y-86330619D02*
X111196381Y-86711571D01*
X111196381Y-86711571D02*
X111339238Y-86711571D01*
X111339238Y-86711571D02*
X111434476Y-86759190D01*
X111434476Y-86759190D02*
X111482095Y-86806809D01*
X111482095Y-86806809D02*
X111529714Y-86902047D01*
X111529714Y-86902047D02*
X111529714Y-87140142D01*
X111529714Y-87140142D02*
X111482095Y-87235380D01*
X111482095Y-87235380D02*
X111434476Y-87283000D01*
X111434476Y-87283000D02*
X111339238Y-87330619D01*
X111339238Y-87330619D02*
X111053524Y-87330619D01*
X111053524Y-87330619D02*
X110958286Y-87283000D01*
X110958286Y-87283000D02*
X110910667Y-87235380D01*
%TO.C,J6*%
X119148266Y-117572619D02*
X119148266Y-118286904D01*
X119148266Y-118286904D02*
X119100647Y-118429761D01*
X119100647Y-118429761D02*
X119005409Y-118525000D01*
X119005409Y-118525000D02*
X118862552Y-118572619D01*
X118862552Y-118572619D02*
X118767314Y-118572619D01*
X120053028Y-117572619D02*
X119862552Y-117572619D01*
X119862552Y-117572619D02*
X119767314Y-117620238D01*
X119767314Y-117620238D02*
X119719695Y-117667857D01*
X119719695Y-117667857D02*
X119624457Y-117810714D01*
X119624457Y-117810714D02*
X119576838Y-118001190D01*
X119576838Y-118001190D02*
X119576838Y-118382142D01*
X119576838Y-118382142D02*
X119624457Y-118477380D01*
X119624457Y-118477380D02*
X119672076Y-118525000D01*
X119672076Y-118525000D02*
X119767314Y-118572619D01*
X119767314Y-118572619D02*
X119957790Y-118572619D01*
X119957790Y-118572619D02*
X120053028Y-118525000D01*
X120053028Y-118525000D02*
X120100647Y-118477380D01*
X120100647Y-118477380D02*
X120148266Y-118382142D01*
X120148266Y-118382142D02*
X120148266Y-118144047D01*
X120148266Y-118144047D02*
X120100647Y-118048809D01*
X120100647Y-118048809D02*
X120053028Y-118001190D01*
X120053028Y-118001190D02*
X119957790Y-117953571D01*
X119957790Y-117953571D02*
X119767314Y-117953571D01*
X119767314Y-117953571D02*
X119672076Y-118001190D01*
X119672076Y-118001190D02*
X119624457Y-118048809D01*
X119624457Y-118048809D02*
X119576838Y-118144047D01*
X123555635Y-117573335D02*
X123555635Y-117216192D01*
X123555635Y-117216192D02*
X125698492Y-117216192D01*
X125698492Y-117216192D02*
X125698492Y-117573335D01*
X124055635Y-118144763D02*
X125555635Y-118144763D01*
X125555635Y-118144763D02*
X124484206Y-118644763D01*
X124484206Y-118644763D02*
X125555635Y-119144763D01*
X125555635Y-119144763D02*
X124055635Y-119144763D01*
X125555635Y-120144764D02*
X125555635Y-120430478D01*
X125555635Y-120430478D02*
X125484206Y-120573335D01*
X125484206Y-120573335D02*
X125341349Y-120716192D01*
X125341349Y-120716192D02*
X125055635Y-120787621D01*
X125055635Y-120787621D02*
X124555635Y-120787621D01*
X124555635Y-120787621D02*
X124269921Y-120716192D01*
X124269921Y-120716192D02*
X124127064Y-120573335D01*
X124127064Y-120573335D02*
X124055635Y-120430478D01*
X124055635Y-120430478D02*
X124055635Y-120144764D01*
X124055635Y-120144764D02*
X124127064Y-120001907D01*
X124127064Y-120001907D02*
X124269921Y-119859049D01*
X124269921Y-119859049D02*
X124555635Y-119787621D01*
X124555635Y-119787621D02*
X125055635Y-119787621D01*
X125055635Y-119787621D02*
X125341349Y-119859049D01*
X125341349Y-119859049D02*
X125484206Y-120001907D01*
X125484206Y-120001907D02*
X125555635Y-120144764D01*
X125555635Y-121216193D02*
X125555635Y-122073336D01*
X124055635Y-121644764D02*
X125555635Y-121644764D01*
X124055635Y-123430478D02*
X124769921Y-122930478D01*
X124055635Y-122573335D02*
X125555635Y-122573335D01*
X125555635Y-122573335D02*
X125555635Y-123144764D01*
X125555635Y-123144764D02*
X125484206Y-123287621D01*
X125484206Y-123287621D02*
X125412778Y-123359050D01*
X125412778Y-123359050D02*
X125269921Y-123430478D01*
X125269921Y-123430478D02*
X125055635Y-123430478D01*
X125055635Y-123430478D02*
X124912778Y-123359050D01*
X124912778Y-123359050D02*
X124841349Y-123287621D01*
X124841349Y-123287621D02*
X124769921Y-123144764D01*
X124769921Y-123144764D02*
X124769921Y-122573335D01*
X123555635Y-123930478D02*
X123555635Y-124287621D01*
X123555635Y-124287621D02*
X125698492Y-124287621D01*
X125698492Y-124287621D02*
X125698492Y-123930478D01*
%TO.C,SW1*%
X121171082Y-65604544D02*
X121313939Y-65652163D01*
X121313939Y-65652163D02*
X121552034Y-65652163D01*
X121552034Y-65652163D02*
X121647272Y-65604544D01*
X121647272Y-65604544D02*
X121694891Y-65556924D01*
X121694891Y-65556924D02*
X121742510Y-65461686D01*
X121742510Y-65461686D02*
X121742510Y-65366448D01*
X121742510Y-65366448D02*
X121694891Y-65271210D01*
X121694891Y-65271210D02*
X121647272Y-65223591D01*
X121647272Y-65223591D02*
X121552034Y-65175972D01*
X121552034Y-65175972D02*
X121361558Y-65128353D01*
X121361558Y-65128353D02*
X121266320Y-65080734D01*
X121266320Y-65080734D02*
X121218701Y-65033115D01*
X121218701Y-65033115D02*
X121171082Y-64937877D01*
X121171082Y-64937877D02*
X121171082Y-64842639D01*
X121171082Y-64842639D02*
X121218701Y-64747401D01*
X121218701Y-64747401D02*
X121266320Y-64699782D01*
X121266320Y-64699782D02*
X121361558Y-64652163D01*
X121361558Y-64652163D02*
X121599653Y-64652163D01*
X121599653Y-64652163D02*
X121742510Y-64699782D01*
X122075844Y-64652163D02*
X122313939Y-65652163D01*
X122313939Y-65652163D02*
X122504415Y-64937877D01*
X122504415Y-64937877D02*
X122694891Y-65652163D01*
X122694891Y-65652163D02*
X122932987Y-64652163D01*
X123837748Y-65652163D02*
X123266320Y-65652163D01*
X123552034Y-65652163D02*
X123552034Y-64652163D01*
X123552034Y-64652163D02*
X123456796Y-64795020D01*
X123456796Y-64795020D02*
X123361558Y-64890258D01*
X123361558Y-64890258D02*
X123266320Y-64937877D01*
%TO.C,D1*%
X115038637Y-73466208D02*
X115038637Y-72466208D01*
X115038637Y-72466208D02*
X115276732Y-72466208D01*
X115276732Y-72466208D02*
X115419589Y-72513827D01*
X115419589Y-72513827D02*
X115514827Y-72609065D01*
X115514827Y-72609065D02*
X115562446Y-72704303D01*
X115562446Y-72704303D02*
X115610065Y-72894779D01*
X115610065Y-72894779D02*
X115610065Y-73037636D01*
X115610065Y-73037636D02*
X115562446Y-73228112D01*
X115562446Y-73228112D02*
X115514827Y-73323350D01*
X115514827Y-73323350D02*
X115419589Y-73418589D01*
X115419589Y-73418589D02*
X115276732Y-73466208D01*
X115276732Y-73466208D02*
X115038637Y-73466208D01*
X116562446Y-73466208D02*
X115991018Y-73466208D01*
X116276732Y-73466208D02*
X116276732Y-72466208D01*
X116276732Y-72466208D02*
X116181494Y-72609065D01*
X116181494Y-72609065D02*
X116086256Y-72704303D01*
X116086256Y-72704303D02*
X115991018Y-72751922D01*
%TO.C,C13*%
X128389142Y-83327380D02*
X128341523Y-83375000D01*
X128341523Y-83375000D02*
X128198666Y-83422619D01*
X128198666Y-83422619D02*
X128103428Y-83422619D01*
X128103428Y-83422619D02*
X127960571Y-83375000D01*
X127960571Y-83375000D02*
X127865333Y-83279761D01*
X127865333Y-83279761D02*
X127817714Y-83184523D01*
X127817714Y-83184523D02*
X127770095Y-82994047D01*
X127770095Y-82994047D02*
X127770095Y-82851190D01*
X127770095Y-82851190D02*
X127817714Y-82660714D01*
X127817714Y-82660714D02*
X127865333Y-82565476D01*
X127865333Y-82565476D02*
X127960571Y-82470238D01*
X127960571Y-82470238D02*
X128103428Y-82422619D01*
X128103428Y-82422619D02*
X128198666Y-82422619D01*
X128198666Y-82422619D02*
X128341523Y-82470238D01*
X128341523Y-82470238D02*
X128389142Y-82517857D01*
X129341523Y-83422619D02*
X128770095Y-83422619D01*
X129055809Y-83422619D02*
X129055809Y-82422619D01*
X129055809Y-82422619D02*
X128960571Y-82565476D01*
X128960571Y-82565476D02*
X128865333Y-82660714D01*
X128865333Y-82660714D02*
X128770095Y-82708333D01*
X129674857Y-82422619D02*
X130293904Y-82422619D01*
X130293904Y-82422619D02*
X129960571Y-82803571D01*
X129960571Y-82803571D02*
X130103428Y-82803571D01*
X130103428Y-82803571D02*
X130198666Y-82851190D01*
X130198666Y-82851190D02*
X130246285Y-82898809D01*
X130246285Y-82898809D02*
X130293904Y-82994047D01*
X130293904Y-82994047D02*
X130293904Y-83232142D01*
X130293904Y-83232142D02*
X130246285Y-83327380D01*
X130246285Y-83327380D02*
X130198666Y-83375000D01*
X130198666Y-83375000D02*
X130103428Y-83422619D01*
X130103428Y-83422619D02*
X129817714Y-83422619D01*
X129817714Y-83422619D02*
X129722476Y-83375000D01*
X129722476Y-83375000D02*
X129674857Y-83327380D01*
%TO.C,R4*%
X110577333Y-88854619D02*
X110244000Y-88378428D01*
X110005905Y-88854619D02*
X110005905Y-87854619D01*
X110005905Y-87854619D02*
X110386857Y-87854619D01*
X110386857Y-87854619D02*
X110482095Y-87902238D01*
X110482095Y-87902238D02*
X110529714Y-87949857D01*
X110529714Y-87949857D02*
X110577333Y-88045095D01*
X110577333Y-88045095D02*
X110577333Y-88187952D01*
X110577333Y-88187952D02*
X110529714Y-88283190D01*
X110529714Y-88283190D02*
X110482095Y-88330809D01*
X110482095Y-88330809D02*
X110386857Y-88378428D01*
X110386857Y-88378428D02*
X110005905Y-88378428D01*
X111434476Y-88187952D02*
X111434476Y-88854619D01*
X111196381Y-87807000D02*
X110958286Y-88521285D01*
X110958286Y-88521285D02*
X111577333Y-88521285D01*
%TO.C,U3*%
X136837619Y-111576904D02*
X137647142Y-111576904D01*
X137647142Y-111576904D02*
X137742380Y-111529285D01*
X137742380Y-111529285D02*
X137790000Y-111481666D01*
X137790000Y-111481666D02*
X137837619Y-111386428D01*
X137837619Y-111386428D02*
X137837619Y-111195952D01*
X137837619Y-111195952D02*
X137790000Y-111100714D01*
X137790000Y-111100714D02*
X137742380Y-111053095D01*
X137742380Y-111053095D02*
X137647142Y-111005476D01*
X137647142Y-111005476D02*
X136837619Y-111005476D01*
X136837619Y-110624523D02*
X136837619Y-110005476D01*
X136837619Y-110005476D02*
X137218571Y-110338809D01*
X137218571Y-110338809D02*
X137218571Y-110195952D01*
X137218571Y-110195952D02*
X137266190Y-110100714D01*
X137266190Y-110100714D02*
X137313809Y-110053095D01*
X137313809Y-110053095D02*
X137409047Y-110005476D01*
X137409047Y-110005476D02*
X137647142Y-110005476D01*
X137647142Y-110005476D02*
X137742380Y-110053095D01*
X137742380Y-110053095D02*
X137790000Y-110100714D01*
X137790000Y-110100714D02*
X137837619Y-110195952D01*
X137837619Y-110195952D02*
X137837619Y-110481666D01*
X137837619Y-110481666D02*
X137790000Y-110576904D01*
X137790000Y-110576904D02*
X137742380Y-110624523D01*
%TO.C,R5*%
X110577333Y-81234619D02*
X110244000Y-80758428D01*
X110005905Y-81234619D02*
X110005905Y-80234619D01*
X110005905Y-80234619D02*
X110386857Y-80234619D01*
X110386857Y-80234619D02*
X110482095Y-80282238D01*
X110482095Y-80282238D02*
X110529714Y-80329857D01*
X110529714Y-80329857D02*
X110577333Y-80425095D01*
X110577333Y-80425095D02*
X110577333Y-80567952D01*
X110577333Y-80567952D02*
X110529714Y-80663190D01*
X110529714Y-80663190D02*
X110482095Y-80710809D01*
X110482095Y-80710809D02*
X110386857Y-80758428D01*
X110386857Y-80758428D02*
X110005905Y-80758428D01*
X111482095Y-80234619D02*
X111005905Y-80234619D01*
X111005905Y-80234619D02*
X110958286Y-80710809D01*
X110958286Y-80710809D02*
X111005905Y-80663190D01*
X111005905Y-80663190D02*
X111101143Y-80615571D01*
X111101143Y-80615571D02*
X111339238Y-80615571D01*
X111339238Y-80615571D02*
X111434476Y-80663190D01*
X111434476Y-80663190D02*
X111482095Y-80710809D01*
X111482095Y-80710809D02*
X111529714Y-80806047D01*
X111529714Y-80806047D02*
X111529714Y-81044142D01*
X111529714Y-81044142D02*
X111482095Y-81139380D01*
X111482095Y-81139380D02*
X111434476Y-81187000D01*
X111434476Y-81187000D02*
X111339238Y-81234619D01*
X111339238Y-81234619D02*
X111101143Y-81234619D01*
X111101143Y-81234619D02*
X111005905Y-81187000D01*
X111005905Y-81187000D02*
X110958286Y-81139380D01*
D13*
%TO.C,C11*%
X120557938Y-106474243D02*
X120534129Y-106498053D01*
X120534129Y-106498053D02*
X120462700Y-106521862D01*
X120462700Y-106521862D02*
X120415081Y-106521862D01*
X120415081Y-106521862D02*
X120343653Y-106498053D01*
X120343653Y-106498053D02*
X120296034Y-106450433D01*
X120296034Y-106450433D02*
X120272224Y-106402814D01*
X120272224Y-106402814D02*
X120248415Y-106307576D01*
X120248415Y-106307576D02*
X120248415Y-106236148D01*
X120248415Y-106236148D02*
X120272224Y-106140910D01*
X120272224Y-106140910D02*
X120296034Y-106093291D01*
X120296034Y-106093291D02*
X120343653Y-106045672D01*
X120343653Y-106045672D02*
X120415081Y-106021862D01*
X120415081Y-106021862D02*
X120462700Y-106021862D01*
X120462700Y-106021862D02*
X120534129Y-106045672D01*
X120534129Y-106045672D02*
X120557938Y-106069481D01*
X121034129Y-106521862D02*
X120748415Y-106521862D01*
X120891272Y-106521862D02*
X120891272Y-106021862D01*
X120891272Y-106021862D02*
X120843653Y-106093291D01*
X120843653Y-106093291D02*
X120796034Y-106140910D01*
X120796034Y-106140910D02*
X120748415Y-106164719D01*
X121510319Y-106521862D02*
X121224605Y-106521862D01*
X121367462Y-106521862D02*
X121367462Y-106021862D01*
X121367462Y-106021862D02*
X121319843Y-106093291D01*
X121319843Y-106093291D02*
X121272224Y-106140910D01*
X121272224Y-106140910D02*
X121224605Y-106164719D01*
D10*
%TO.C,A1*%
X126573015Y-86374418D02*
X126573015Y-85898228D01*
X126858730Y-86469656D02*
X125858730Y-86136323D01*
X125858730Y-86136323D02*
X126858730Y-85802990D01*
X126858730Y-84945847D02*
X126858730Y-85517275D01*
X126858730Y-85231561D02*
X125858730Y-85231561D01*
X125858730Y-85231561D02*
X126001587Y-85326799D01*
X126001587Y-85326799D02*
X126096825Y-85422037D01*
X126096825Y-85422037D02*
X126144444Y-85517275D01*
D13*
%TO.C,C1*%
X135718090Y-110979733D02*
X135741900Y-111003542D01*
X135741900Y-111003542D02*
X135765709Y-111074971D01*
X135765709Y-111074971D02*
X135765709Y-111122590D01*
X135765709Y-111122590D02*
X135741900Y-111194018D01*
X135741900Y-111194018D02*
X135694280Y-111241637D01*
X135694280Y-111241637D02*
X135646661Y-111265447D01*
X135646661Y-111265447D02*
X135551423Y-111289256D01*
X135551423Y-111289256D02*
X135479995Y-111289256D01*
X135479995Y-111289256D02*
X135384757Y-111265447D01*
X135384757Y-111265447D02*
X135337138Y-111241637D01*
X135337138Y-111241637D02*
X135289519Y-111194018D01*
X135289519Y-111194018D02*
X135265709Y-111122590D01*
X135265709Y-111122590D02*
X135265709Y-111074971D01*
X135265709Y-111074971D02*
X135289519Y-111003542D01*
X135289519Y-111003542D02*
X135313328Y-110979733D01*
X135765709Y-110503542D02*
X135765709Y-110789256D01*
X135765709Y-110646399D02*
X135265709Y-110646399D01*
X135265709Y-110646399D02*
X135337138Y-110694018D01*
X135337138Y-110694018D02*
X135384757Y-110741637D01*
X135384757Y-110741637D02*
X135408566Y-110789256D01*
%TO.C,C4*%
X135718090Y-114637333D02*
X135741900Y-114661142D01*
X135741900Y-114661142D02*
X135765709Y-114732571D01*
X135765709Y-114732571D02*
X135765709Y-114780190D01*
X135765709Y-114780190D02*
X135741900Y-114851618D01*
X135741900Y-114851618D02*
X135694280Y-114899237D01*
X135694280Y-114899237D02*
X135646661Y-114923047D01*
X135646661Y-114923047D02*
X135551423Y-114946856D01*
X135551423Y-114946856D02*
X135479995Y-114946856D01*
X135479995Y-114946856D02*
X135384757Y-114923047D01*
X135384757Y-114923047D02*
X135337138Y-114899237D01*
X135337138Y-114899237D02*
X135289519Y-114851618D01*
X135289519Y-114851618D02*
X135265709Y-114780190D01*
X135265709Y-114780190D02*
X135265709Y-114732571D01*
X135265709Y-114732571D02*
X135289519Y-114661142D01*
X135289519Y-114661142D02*
X135313328Y-114637333D01*
X135432376Y-114208761D02*
X135765709Y-114208761D01*
X135241900Y-114327809D02*
X135599042Y-114446856D01*
X135599042Y-114446856D02*
X135599042Y-114137333D01*
D10*
%TO.C,R6*%
X110577333Y-84790619D02*
X110244000Y-84314428D01*
X110005905Y-84790619D02*
X110005905Y-83790619D01*
X110005905Y-83790619D02*
X110386857Y-83790619D01*
X110386857Y-83790619D02*
X110482095Y-83838238D01*
X110482095Y-83838238D02*
X110529714Y-83885857D01*
X110529714Y-83885857D02*
X110577333Y-83981095D01*
X110577333Y-83981095D02*
X110577333Y-84123952D01*
X110577333Y-84123952D02*
X110529714Y-84219190D01*
X110529714Y-84219190D02*
X110482095Y-84266809D01*
X110482095Y-84266809D02*
X110386857Y-84314428D01*
X110386857Y-84314428D02*
X110005905Y-84314428D01*
X111434476Y-83790619D02*
X111244000Y-83790619D01*
X111244000Y-83790619D02*
X111148762Y-83838238D01*
X111148762Y-83838238D02*
X111101143Y-83885857D01*
X111101143Y-83885857D02*
X111005905Y-84028714D01*
X111005905Y-84028714D02*
X110958286Y-84219190D01*
X110958286Y-84219190D02*
X110958286Y-84600142D01*
X110958286Y-84600142D02*
X111005905Y-84695380D01*
X111005905Y-84695380D02*
X111053524Y-84743000D01*
X111053524Y-84743000D02*
X111148762Y-84790619D01*
X111148762Y-84790619D02*
X111339238Y-84790619D01*
X111339238Y-84790619D02*
X111434476Y-84743000D01*
X111434476Y-84743000D02*
X111482095Y-84695380D01*
X111482095Y-84695380D02*
X111529714Y-84600142D01*
X111529714Y-84600142D02*
X111529714Y-84362047D01*
X111529714Y-84362047D02*
X111482095Y-84266809D01*
X111482095Y-84266809D02*
X111434476Y-84219190D01*
X111434476Y-84219190D02*
X111339238Y-84171571D01*
X111339238Y-84171571D02*
X111148762Y-84171571D01*
X111148762Y-84171571D02*
X111053524Y-84219190D01*
X111053524Y-84219190D02*
X111005905Y-84266809D01*
X111005905Y-84266809D02*
X110958286Y-84362047D01*
%TO.C,U1*%
X100946082Y-73802765D02*
X100946082Y-74612288D01*
X100946082Y-74612288D02*
X100993701Y-74707526D01*
X100993701Y-74707526D02*
X101041320Y-74755146D01*
X101041320Y-74755146D02*
X101136558Y-74802765D01*
X101136558Y-74802765D02*
X101327034Y-74802765D01*
X101327034Y-74802765D02*
X101422272Y-74755146D01*
X101422272Y-74755146D02*
X101469891Y-74707526D01*
X101469891Y-74707526D02*
X101517510Y-74612288D01*
X101517510Y-74612288D02*
X101517510Y-73802765D01*
X102517510Y-74802765D02*
X101946082Y-74802765D01*
X102231796Y-74802765D02*
X102231796Y-73802765D01*
X102231796Y-73802765D02*
X102136558Y-73945622D01*
X102136558Y-73945622D02*
X102041320Y-74040860D01*
X102041320Y-74040860D02*
X101946082Y-74088479D01*
D14*
%TO.C,C5*%
X146474578Y-106067110D02*
X146997082Y-106067110D01*
X146474578Y-104597110D02*
X146997082Y-104597110D01*
%TO.C,C12*%
X133499504Y-111315113D02*
X135009504Y-111315113D01*
X133499504Y-110234113D02*
X134581504Y-110234113D01*
X133499504Y-111235113D02*
X134995504Y-111235113D01*
X133499504Y-111075113D02*
X134960504Y-111075113D01*
X130061504Y-110754113D02*
X131419504Y-110754113D01*
X133499504Y-110354113D02*
X134659504Y-110354113D01*
X131281504Y-109394113D02*
X133637504Y-109394113D01*
X129886504Y-111515113D02*
X135032504Y-111515113D01*
X133499504Y-111035113D02*
X134950504Y-111035113D01*
X129898504Y-111395113D02*
X131419504Y-111395113D01*
X130191504Y-110474113D02*
X131419504Y-110474113D01*
X133499504Y-109954113D02*
X134360504Y-109954113D01*
X130674504Y-109834113D02*
X131419504Y-109834113D01*
X130111504Y-110634113D02*
X131419504Y-110634113D01*
X129968504Y-111035113D02*
X131419504Y-111035113D01*
X133499504Y-110674113D02*
X134824504Y-110674113D01*
X133499504Y-110474113D02*
X134727504Y-110474113D01*
X130984504Y-114519888D02*
X130984504Y-114019888D01*
X133499504Y-110834113D02*
X134887504Y-110834113D01*
X133499504Y-110194113D02*
X134554504Y-110194113D01*
X130310504Y-110274113D02*
X131419504Y-110274113D01*
X130259504Y-110354113D02*
X131419504Y-110354113D01*
X133499504Y-111435113D02*
X135024504Y-111435113D01*
X130017504Y-110874113D02*
X131419504Y-110874113D01*
X133499504Y-110714113D02*
X134841504Y-110714113D01*
X133499504Y-110274113D02*
X134608504Y-110274113D01*
X130394504Y-110154113D02*
X131419504Y-110154113D01*
X130004504Y-110914113D02*
X131419504Y-110914113D01*
X130959504Y-109594113D02*
X131419504Y-109594113D01*
X133499504Y-111355113D02*
X135015504Y-111355113D01*
X130806504Y-109714113D02*
X131419504Y-109714113D01*
X130235504Y-110394113D02*
X131419504Y-110394113D01*
X133499504Y-109594113D02*
X133959504Y-109594113D01*
X129903504Y-111355113D02*
X131419504Y-111355113D01*
X133499504Y-110154113D02*
X134524504Y-110154113D01*
X130522504Y-109994113D02*
X131419504Y-109994113D01*
X133499504Y-111275113D02*
X135002504Y-111275113D01*
X131016504Y-109554113D02*
X131419504Y-109554113D01*
X129958504Y-111075113D02*
X131419504Y-111075113D01*
X130094504Y-110674113D02*
X131419504Y-110674113D01*
X130716504Y-109794113D02*
X131419504Y-109794113D01*
X129879504Y-111675113D02*
X135039504Y-111675113D01*
X131448504Y-109314113D02*
X133470504Y-109314113D01*
X131654504Y-109234113D02*
X133264504Y-109234113D01*
X133499504Y-110794113D02*
X134873504Y-110794113D01*
X129879504Y-111715113D02*
X135039504Y-111715113D01*
X130633504Y-109874113D02*
X131419504Y-109874113D01*
X129939504Y-111155113D02*
X131419504Y-111155113D01*
X133499504Y-109554113D02*
X133902504Y-109554113D01*
X133499504Y-110114113D02*
X134494504Y-110114113D01*
X133499504Y-109434113D02*
X133710504Y-109434113D01*
X133499504Y-109714113D02*
X134112504Y-109714113D01*
X130130504Y-110594113D02*
X131419504Y-110594113D01*
X129880504Y-111635113D02*
X135038504Y-111635113D01*
X129991504Y-110954113D02*
X131419504Y-110954113D01*
X131782504Y-109194113D02*
X133136504Y-109194113D01*
X133499504Y-110634113D02*
X134807504Y-110634113D01*
X133499504Y-111395113D02*
X135020504Y-111395113D01*
X130455504Y-110074113D02*
X131419504Y-110074113D01*
X133499504Y-110434113D02*
X134706504Y-110434113D01*
X131544504Y-109274113D02*
X133374504Y-109274113D01*
X129916504Y-111275113D02*
X131419504Y-111275113D01*
X133499504Y-109674113D02*
X134064504Y-109674113D01*
X133499504Y-109914113D02*
X134323504Y-109914113D01*
X133499504Y-110994113D02*
X134939504Y-110994113D01*
X129931504Y-111195113D02*
X131419504Y-111195113D01*
X130760504Y-109754113D02*
X131419504Y-109754113D01*
X133499504Y-110754113D02*
X134857504Y-110754113D01*
X130031504Y-110834113D02*
X131419504Y-110834113D01*
X133499504Y-111155113D02*
X134979504Y-111155113D01*
X130558504Y-109954113D02*
X131419504Y-109954113D01*
X129890504Y-111475113D02*
X131419504Y-111475113D01*
X130734504Y-114269888D02*
X131234504Y-114269888D01*
X130077504Y-110714113D02*
X131419504Y-110714113D01*
X133499504Y-109834113D02*
X134244504Y-109834113D01*
X130424504Y-110114113D02*
X131419504Y-110114113D01*
X129909504Y-111315113D02*
X131419504Y-111315113D01*
X133499504Y-110874113D02*
X134901504Y-110874113D01*
X133499504Y-111115113D02*
X134970504Y-111115113D01*
X131361504Y-109354113D02*
X133557504Y-109354113D01*
X129923504Y-111235113D02*
X131419504Y-111235113D01*
X130045504Y-110794113D02*
X131419504Y-110794113D01*
X129894504Y-111435113D02*
X131419504Y-111435113D01*
X133499504Y-109874113D02*
X134285504Y-109874113D01*
X133499504Y-110034113D02*
X134430504Y-110034113D01*
X130854504Y-109674113D02*
X131419504Y-109674113D01*
X130212504Y-110434113D02*
X131419504Y-110434113D01*
X133499504Y-111475113D02*
X135028504Y-111475113D01*
X133499504Y-109754113D02*
X134158504Y-109754113D01*
X133499504Y-111195113D02*
X134987504Y-111195113D01*
X133499504Y-110314113D02*
X134634504Y-110314113D01*
X130595504Y-109914113D02*
X131419504Y-109914113D01*
X133499504Y-110514113D02*
X134749504Y-110514113D01*
X131208504Y-109434113D02*
X131419504Y-109434113D01*
X133499504Y-109994113D02*
X134396504Y-109994113D01*
X133499504Y-109514113D02*
X133842504Y-109514113D01*
X133499504Y-110554113D02*
X134769504Y-110554113D01*
X129883504Y-111555113D02*
X135035504Y-111555113D01*
X133499504Y-110394113D02*
X134683504Y-110394113D01*
X130284504Y-110314113D02*
X131419504Y-110314113D01*
X130905504Y-109634113D02*
X131419504Y-109634113D01*
X130364504Y-110194113D02*
X131419504Y-110194113D01*
X133499504Y-109634113D02*
X134013504Y-109634113D01*
X129881504Y-111595113D02*
X135037504Y-111595113D01*
X130488504Y-110034113D02*
X131419504Y-110034113D01*
X130337504Y-110234113D02*
X131419504Y-110234113D01*
X133499504Y-109794113D02*
X134202504Y-109794113D01*
X133499504Y-110074113D02*
X134463504Y-110074113D01*
X133499504Y-110914113D02*
X134914504Y-110914113D01*
X130169504Y-110514113D02*
X131419504Y-110514113D01*
X130149504Y-110554113D02*
X131419504Y-110554113D01*
X131140504Y-109474113D02*
X131419504Y-109474113D01*
X133499504Y-110594113D02*
X134788504Y-110594113D01*
X129948504Y-111115113D02*
X131419504Y-111115113D01*
X132175504Y-109114113D02*
X132743504Y-109114113D01*
X131941504Y-109154113D02*
X132977504Y-109154113D01*
X133499504Y-109474113D02*
X133778504Y-109474113D01*
X131076504Y-109514113D02*
X131419504Y-109514113D01*
X133499504Y-110954113D02*
X134927504Y-110954113D01*
X129979504Y-110994113D02*
X131419504Y-110994113D01*
X135079504Y-111715113D02*
G75*
G03*
X135079504Y-111715113I-2620000J0D01*
G01*
%TO.C,C9*%
X108450748Y-117375000D02*
X108973252Y-117375000D01*
X108450748Y-118845000D02*
X108973252Y-118845000D01*
%TO.C,R1*%
X136387064Y-83085000D02*
X135932936Y-83085000D01*
X136387064Y-84555000D02*
X135932936Y-84555000D01*
%TO.C,U2*%
X133290000Y-60900000D02*
X133290000Y-63560000D01*
X153730000Y-62230000D02*
X153730000Y-63560000D01*
X151130000Y-60900000D02*
X151130000Y-63560000D01*
X151130000Y-60900000D02*
X133290000Y-60900000D01*
X151130000Y-63560000D02*
X133290000Y-63560000D01*
X153730000Y-63560000D02*
X152400000Y-63560000D01*
%TO.C,C2*%
X139819748Y-116232000D02*
X140342252Y-116232000D01*
X139819748Y-117702000D02*
X140342252Y-117702000D01*
%TO.C,C6*%
X121944000Y-109554113D02*
X122347000Y-109554113D01*
X121944000Y-109794113D02*
X122647000Y-109794113D01*
X121944000Y-111435113D02*
X123469000Y-111435113D01*
X121944000Y-111395113D02*
X123465000Y-111395113D01*
X118657000Y-110434113D02*
X119864000Y-110434113D01*
X119806000Y-109354113D02*
X122002000Y-109354113D01*
X120099000Y-109234113D02*
X121709000Y-109234113D01*
X118393000Y-111115113D02*
X119864000Y-111115113D01*
X118449000Y-110914113D02*
X119864000Y-110914113D01*
X118403000Y-111075113D02*
X119864000Y-111075113D01*
X119461000Y-109554113D02*
X119864000Y-109554113D01*
X119521000Y-109514113D02*
X119864000Y-109514113D01*
X118506000Y-110754113D02*
X119864000Y-110754113D01*
X119989000Y-109274113D02*
X121819000Y-109274113D01*
X119299000Y-109674113D02*
X119864000Y-109674113D01*
X121944000Y-111475113D02*
X123473000Y-111475113D01*
X121944000Y-110274113D02*
X123053000Y-110274113D01*
X121944000Y-109874113D02*
X122730000Y-109874113D01*
X121944000Y-109674113D02*
X122509000Y-109674113D01*
X121944000Y-109594113D02*
X122404000Y-109594113D01*
X121944000Y-109834113D02*
X122689000Y-109834113D01*
X118729000Y-110314113D02*
X119864000Y-110314113D01*
X121944000Y-109474113D02*
X122223000Y-109474113D01*
X118522000Y-110714113D02*
X119864000Y-110714113D01*
X121944000Y-109714113D02*
X122557000Y-109714113D01*
X119726000Y-109394113D02*
X122082000Y-109394113D01*
X118782000Y-110234113D02*
X119864000Y-110234113D01*
X121944000Y-109954113D02*
X122805000Y-109954113D01*
X118967000Y-109994113D02*
X119864000Y-109994113D01*
X118413000Y-111035113D02*
X119864000Y-111035113D01*
X121944000Y-109754113D02*
X122603000Y-109754113D01*
X121944000Y-110594113D02*
X123233000Y-110594113D01*
X120620000Y-109114113D02*
X121188000Y-109114113D01*
X120227000Y-109194113D02*
X121581000Y-109194113D01*
X118556000Y-110634113D02*
X119864000Y-110634113D01*
X119078000Y-109874113D02*
X119864000Y-109874113D01*
X121944000Y-110434113D02*
X123151000Y-110434113D01*
X119161000Y-109794113D02*
X119864000Y-109794113D01*
X121944000Y-110354113D02*
X123104000Y-110354113D01*
X121944000Y-110314113D02*
X123079000Y-110314113D01*
X121944000Y-110674113D02*
X123269000Y-110674113D01*
X119119000Y-109834113D02*
X119864000Y-109834113D01*
X121944000Y-110834113D02*
X123332000Y-110834113D01*
X118361000Y-111275113D02*
X119864000Y-111275113D01*
X119003000Y-109954113D02*
X119864000Y-109954113D01*
X119251000Y-109714113D02*
X119864000Y-109714113D01*
X118704000Y-110354113D02*
X119864000Y-110354113D01*
X118335000Y-111475113D02*
X119864000Y-111475113D01*
X121944000Y-109514113D02*
X122287000Y-109514113D01*
X121944000Y-110154113D02*
X122969000Y-110154113D01*
X118384000Y-111155113D02*
X119864000Y-111155113D01*
X118424000Y-110994113D02*
X119864000Y-110994113D01*
X119585000Y-109474113D02*
X119864000Y-109474113D01*
X119350000Y-109634113D02*
X119864000Y-109634113D01*
X118680000Y-110394113D02*
X119864000Y-110394113D01*
X118869000Y-110114113D02*
X119864000Y-110114113D01*
X121944000Y-110754113D02*
X123302000Y-110754113D01*
X121944000Y-111315113D02*
X123454000Y-111315113D01*
X119179000Y-114269888D02*
X119679000Y-114269888D01*
X121944000Y-111075113D02*
X123405000Y-111075113D01*
X121944000Y-110474113D02*
X123172000Y-110474113D01*
X118325000Y-111635113D02*
X123483000Y-111635113D01*
X118354000Y-111315113D02*
X119864000Y-111315113D01*
X118594000Y-110554113D02*
X119864000Y-110554113D01*
X118368000Y-111235113D02*
X119864000Y-111235113D01*
X118476000Y-110834113D02*
X119864000Y-110834113D01*
X121944000Y-110194113D02*
X122999000Y-110194113D01*
X118376000Y-111195113D02*
X119864000Y-111195113D01*
X118575000Y-110594113D02*
X119864000Y-110594113D01*
X121944000Y-109914113D02*
X122768000Y-109914113D01*
X118348000Y-111355113D02*
X119864000Y-111355113D01*
X118614000Y-110514113D02*
X119864000Y-110514113D01*
X121944000Y-110514113D02*
X123194000Y-110514113D01*
X119205000Y-109754113D02*
X119864000Y-109754113D01*
X119653000Y-109434113D02*
X119864000Y-109434113D01*
X119893000Y-109314113D02*
X121915000Y-109314113D01*
X118839000Y-110154113D02*
X119864000Y-110154113D01*
X118324000Y-111715113D02*
X123484000Y-111715113D01*
X118636000Y-110474113D02*
X119864000Y-110474113D01*
X119404000Y-109594113D02*
X119864000Y-109594113D01*
X121944000Y-111235113D02*
X123440000Y-111235113D01*
X118339000Y-111435113D02*
X119864000Y-111435113D01*
X121944000Y-109634113D02*
X122458000Y-109634113D01*
X118900000Y-110074113D02*
X119864000Y-110074113D01*
X118343000Y-111395113D02*
X119864000Y-111395113D01*
X118331000Y-111515113D02*
X123477000Y-111515113D01*
X121944000Y-110034113D02*
X122875000Y-110034113D01*
X121944000Y-110074113D02*
X122908000Y-110074113D01*
X121944000Y-110914113D02*
X123359000Y-110914113D01*
X118933000Y-110034113D02*
X119864000Y-110034113D01*
X121944000Y-110794113D02*
X123318000Y-110794113D01*
X121944000Y-110954113D02*
X123372000Y-110954113D01*
X121944000Y-110554113D02*
X123214000Y-110554113D01*
X119040000Y-109914113D02*
X119864000Y-109914113D01*
X121944000Y-111115113D02*
X123415000Y-111115113D01*
X121944000Y-109434113D02*
X122155000Y-109434113D01*
X119429000Y-114519888D02*
X119429000Y-114019888D01*
X118326000Y-111595113D02*
X123482000Y-111595113D01*
X121944000Y-111275113D02*
X123447000Y-111275113D01*
X118490000Y-110794113D02*
X119864000Y-110794113D01*
X121944000Y-110234113D02*
X123026000Y-110234113D01*
X118539000Y-110674113D02*
X119864000Y-110674113D01*
X120386000Y-109154113D02*
X121422000Y-109154113D01*
X118462000Y-110874113D02*
X119864000Y-110874113D01*
X118755000Y-110274113D02*
X119864000Y-110274113D01*
X121944000Y-110994113D02*
X123384000Y-110994113D01*
X118328000Y-111555113D02*
X123480000Y-111555113D01*
X121944000Y-109994113D02*
X122841000Y-109994113D01*
X121944000Y-110114113D02*
X122939000Y-110114113D01*
X121944000Y-111035113D02*
X123395000Y-111035113D01*
X118324000Y-111675113D02*
X123484000Y-111675113D01*
X118809000Y-110194113D02*
X119864000Y-110194113D01*
X121944000Y-110874113D02*
X123346000Y-110874113D01*
X121944000Y-110634113D02*
X123252000Y-110634113D01*
X118436000Y-110954113D02*
X119864000Y-110954113D01*
X121944000Y-110394113D02*
X123128000Y-110394113D01*
X121944000Y-111155113D02*
X123424000Y-111155113D01*
X121944000Y-111355113D02*
X123460000Y-111355113D01*
X121944000Y-110714113D02*
X123286000Y-110714113D01*
X121944000Y-111195113D02*
X123432000Y-111195113D01*
X123524000Y-111715113D02*
G75*
G03*
X123524000Y-111715113I-2620000J0D01*
G01*
%TO.C,C3*%
X147327252Y-116508200D02*
X146804748Y-116508200D01*
X147327252Y-115038200D02*
X146804748Y-115038200D01*
%TO.C,J1*%
X102870000Y-69850000D02*
X102870000Y-68580000D01*
X102810000Y-67140000D02*
X108010000Y-67140000D01*
X103760000Y-64480000D02*
X103760000Y-58480000D01*
X104180000Y-64480000D02*
X104180000Y-58480000D01*
X107060000Y-58480000D02*
X107060000Y-64480000D01*
X104140000Y-69850000D02*
X102870000Y-69850000D01*
X104520000Y-58480000D02*
X104520000Y-64480000D01*
X103760000Y-58480000D02*
X104520000Y-58480000D01*
X104520000Y-67470000D02*
X104520000Y-67140000D01*
X106300000Y-58480000D02*
X107060000Y-58480000D01*
X103760000Y-67470000D02*
X103760000Y-67140000D01*
X108010000Y-64480000D02*
X102810000Y-64480000D01*
X107060000Y-67537071D02*
X107060000Y-67140000D01*
X104420000Y-64480000D02*
X104420000Y-58480000D01*
X105410000Y-67140000D02*
X105410000Y-64480000D01*
X104060000Y-64480000D02*
X104060000Y-58480000D01*
X106300000Y-67537071D02*
X106300000Y-67140000D01*
X103940000Y-64480000D02*
X103940000Y-58480000D01*
X104300000Y-64480000D02*
X104300000Y-58480000D01*
X106300000Y-64480000D02*
X106300000Y-58480000D01*
X103820000Y-64480000D02*
X103820000Y-58480000D01*
X108010000Y-67140000D02*
X108010000Y-64480000D01*
X102810000Y-64480000D02*
X102810000Y-67140000D01*
%TO.C,C10*%
X104522600Y-116578748D02*
X104522600Y-117101252D01*
X105992600Y-116578748D02*
X105992600Y-117101252D01*
%TO.C,J4*%
X131149215Y-123950478D02*
X132399215Y-123950478D01*
X133509215Y-118080478D02*
X133839215Y-118080478D01*
X131129215Y-116430478D02*
X132399215Y-116430478D01*
X133442144Y-122400478D02*
X133839215Y-122400478D01*
X133442144Y-120620478D02*
X133839215Y-120620478D01*
X131149215Y-122700478D02*
X131149215Y-123950478D01*
X133442144Y-119860478D02*
X133839215Y-119860478D01*
X133839215Y-116370478D02*
X133839215Y-124110478D01*
X133509215Y-117320478D02*
X133839215Y-117320478D01*
X131129215Y-117700478D02*
X131129215Y-116430478D01*
X133442144Y-123160478D02*
X133839215Y-123160478D01*
%TO.C,R2*%
X136387064Y-82015000D02*
X135932936Y-82015000D01*
X136387064Y-80545000D02*
X135932936Y-80545000D01*
%TO.C,C8*%
X115983652Y-115546200D02*
X115461148Y-115546200D01*
X115983652Y-117016200D02*
X115461148Y-117016200D01*
D15*
%TO.C,U5*%
X117438000Y-113452000D02*
X117438000Y-109052000D01*
X107098000Y-113452000D02*
X107098000Y-109052000D01*
D11*
X107833000Y-115492000D02*
G75*
G03*
X107833000Y-115492000I-100000J0D01*
G01*
D14*
%TO.C,C7*%
X104522600Y-112717948D02*
X104522600Y-113240452D01*
X105992600Y-112717948D02*
X105992600Y-113240452D01*
%TO.C,R3*%
X113564936Y-85117000D02*
X114019064Y-85117000D01*
X113564936Y-86587000D02*
X114019064Y-86587000D01*
%TO.C,J6*%
X120480000Y-124068408D02*
X120480000Y-116328408D01*
X123190000Y-124008408D02*
X121920000Y-124008408D01*
X120877071Y-119818408D02*
X120480000Y-119818408D01*
X120810000Y-123118408D02*
X120480000Y-123118408D01*
X120877071Y-117278408D02*
X120480000Y-117278408D01*
X120810000Y-122358408D02*
X120480000Y-122358408D01*
X120877071Y-118038408D02*
X120480000Y-118038408D01*
X123170000Y-117738408D02*
X123170000Y-116488408D01*
X123170000Y-116488408D02*
X121920000Y-116488408D01*
X123190000Y-122738408D02*
X123190000Y-124008408D01*
X120877071Y-120578408D02*
X120480000Y-120578408D01*
D15*
%TO.C,SW1*%
X112815471Y-60928518D02*
X132115471Y-60928518D01*
X132115471Y-71088518D02*
X112815471Y-71088518D01*
X132115471Y-60928518D02*
X132115471Y-71088518D01*
X112815471Y-71088518D02*
X112815471Y-60928518D01*
D11*
X127565471Y-73548518D02*
G75*
G03*
X127565471Y-73548518I-100000J0D01*
G01*
D14*
%TO.C,D1*%
X112696732Y-73643589D02*
X112696732Y-76363589D01*
X112696732Y-73643589D02*
X117676732Y-73643589D01*
X112696732Y-76363589D02*
X117676732Y-76363589D01*
%TO.C,C13*%
X129293252Y-80545000D02*
X128770748Y-80545000D01*
X129293252Y-82015000D02*
X128770748Y-82015000D01*
%TO.C,R4*%
X114019064Y-87149000D02*
X113564936Y-87149000D01*
X114019064Y-88619000D02*
X113564936Y-88619000D01*
D15*
%TO.C,U3*%
X138340000Y-112690000D02*
X138340000Y-108290000D01*
X148680000Y-112690000D02*
X148680000Y-108290000D01*
D11*
X139075000Y-114730000D02*
G75*
G03*
X139075000Y-114730000I-100000J0D01*
G01*
D14*
%TO.C,R5*%
X113564936Y-80545000D02*
X114019064Y-80545000D01*
X113564936Y-82015000D02*
X114019064Y-82015000D01*
%TO.C,C11*%
X120642748Y-108431000D02*
X121165252Y-108431000D01*
X120642748Y-106961000D02*
X121165252Y-106961000D01*
%TO.C,A1*%
X147013508Y-76643477D02*
X149013508Y-76643477D01*
X154473508Y-97393477D02*
X154473508Y-79613477D01*
X100913508Y-97393477D02*
X100913508Y-79613477D01*
X151823508Y-76963477D02*
X103563508Y-76963477D01*
X151823508Y-100043477D02*
X103563508Y-100043477D01*
X151823508Y-100043477D02*
G75*
G03*
X154473508Y-97393477I0J2650000D01*
G01*
X154473508Y-79613477D02*
G75*
G03*
X151823508Y-76963477I-2650000J0D01*
G01*
X103563508Y-76963477D02*
G75*
G03*
X100913508Y-79613477I0J-2650000D01*
G01*
X100913508Y-97393477D02*
G75*
G03*
X103563508Y-100043477I2650000J0D01*
G01*
%TO.C,C1*%
X137641000Y-110533548D02*
X137641000Y-111056052D01*
X136171000Y-110533548D02*
X136171000Y-111056052D01*
%TO.C,C4*%
X137641000Y-114419748D02*
X137641000Y-114942252D01*
X136171000Y-114419748D02*
X136171000Y-114942252D01*
%TO.C,R6*%
X113564936Y-82577000D02*
X114019064Y-82577000D01*
X113564936Y-84047000D02*
X114019064Y-84047000D01*
%TO.C,U1*%
X101560000Y-70605000D02*
X111800000Y-70605000D01*
X104140000Y-70605000D02*
X104140000Y-73145000D01*
X106680000Y-70605000D02*
X106680000Y-73145000D01*
X101560000Y-54715000D02*
X101560000Y-70605000D01*
X111800000Y-54715000D02*
X111800000Y-70605000D01*
X101560000Y-54715000D02*
X111800000Y-54715000D01*
X109220000Y-70605000D02*
X109220000Y-73145000D01*
%TD*%
M02*
